# Exported from USD: /World/gantry/gantry_home/ur10_flattened/robotiq_fixed_physics/Robotiq_2F_140_physics_edit/right_inner_finger/Fingertip_01/Fingertip
mtllib Fingertip_1.mtl

g Fingertip
v 4.36559475 0.10718540 0.17159982
v 4.36568505 0.10718540 0.17228569
v 4.36594979 0.10718540 0.17292482
v 4.36637092 0.10718540 0.17347365
v 4.36691975 0.10718540 0.17389478
v 4.36755888 0.10718540 0.17415952
v 4.36824475 0.10718540 0.17424982
v 4.36893062 0.10718540 0.17415952
v 4.36956975 0.10718540 0.17389478
v 4.37011859 0.10718540 0.17347365
v 4.37053972 0.10718540 0.17292482
v 4.37080446 0.10718540 0.17228569
v 4.37089475 0.10718540 0.17159982
v 4.37080446 0.10718540 0.17091395
v 4.37053972 0.10718540 0.17027482
v 4.37011859 0.10718540 0.16972598
v 4.36956975 0.10718540 0.16930485
v 4.36893062 0.10718540 0.16904011
v 4.36824475 0.10718540 0.16894982
v 4.36755888 0.10718540 0.16904011
v 4.36691975 0.10718540 0.16930485
v 4.36637092 0.10718540 0.16972598
v 4.36594979 0.10718540 0.17027482
v 4.36568505 0.10718540 0.17091395
v 4.36568505 0.10718640 0.17228569
v 4.36559475 0.10718640 0.17159982
v 4.36594979 0.10718640 0.17292482
v 4.36637092 0.10718640 0.17347365
v 4.36691975 0.10718640 0.17389478
v 4.36755888 0.10718640 0.17415952
v 4.36824475 0.10718640 0.17424982
v 4.36893062 0.10718640 0.17415952
v 4.36956975 0.10718640 0.17389478
v 4.37011859 0.10718640 0.17347365
v 4.37053972 0.10718640 0.17292482
v 4.37080446 0.10718640 0.17228569
v 4.37089475 0.10718640 0.17159982
v 4.37080446 0.10718640 0.17091395
v 4.37053972 0.10718640 0.17027482
v 4.37011859 0.10718640 0.16972598
v 4.36956975 0.10718640 0.16930485
v 4.36893062 0.10718640 0.16904011
v 4.36824475 0.10718640 0.16894982
v 4.36755888 0.10718640 0.16904011
v 4.36691975 0.10718640 0.16930485
v 4.36637092 0.10718640 0.16972598
v 4.36594979 0.10718640 0.17027482
v 4.36568505 0.10718640 0.17091395
v 4.36708006 0.10718540 0.17594648
v 4.36824475 0.10718540 0.17609982
v 4.36940944 0.10718540 0.17594648
v 4.37049475 0.10718540 0.17549693
v 4.37142673 0.10718540 0.17478180
v 4.37049475 0.10718540 0.16770270
v 4.36940944 0.10718540 0.16725315
v 4.36434764 0.10718540 0.17384982
v 4.36506277 0.10718540 0.17478180
v 4.36599475 0.10718540 0.17549693
v 4.37214187 0.10718540 0.17384982
v 4.36824475 0.10718540 0.16709982
v 4.36599475 0.10718540 0.16770270
v 4.36506277 0.10718540 0.16841784
v 4.36389808 0.10718540 0.17276450
v 4.37259141 0.10718540 0.17276450
v 4.37214187 0.10718540 0.16934982
v 4.37142673 0.10718540 0.16841784
v 4.36708006 0.10718540 0.16725315
v 4.36434764 0.10718540 0.16934982
v 4.37274475 0.10718540 0.17159982
v 4.37259141 0.10718540 0.17043513
v 4.36389808 0.10718540 0.17043513
v 4.36374474 0.10718540 0.17159982
v 4.36464197 0.11243928 0.16890353
v 4.36509276 0.11275799 0.16844751
v 4.36392512 0.11165906 0.17033856
v 4.36434764 0.11215826 0.16934982
v 4.36378469 0.11145919 0.17100155
v 4.36389808 0.11162215 0.17043513
v 4.36374474 0.11139833 0.17159982
v 4.36378437 0.11145871 0.17219570
v 4.36390440 0.11162955 0.17276315
v 4.36392512 0.11165906 0.17286107
v 4.36465620 0.11242274 0.17425195
v 4.36434764 0.11215826 0.17384982
v 4.36550713 0.11305096 0.17517130
v 4.36506277 0.11277125 0.17478180
v 4.36599475 0.11332322 0.17549693
v 4.36708006 0.11392924 0.17594648
v 4.36824475 0.11457955 0.17609982
v 4.36940944 0.11522988 0.17594648
v 4.37049475 0.11583590 0.17549693
v 4.37142673 0.11635629 0.17478180
v 4.37181485 0.11657300 0.17433924
v 4.37240221 0.11690097 0.17332189
v 4.37214187 0.11675561 0.17384982
v 4.37270626 0.11707074 0.17218718
v 4.37259141 0.11700662 0.17276450
v 4.37270626 0.11707074 0.17101245
v 4.37274475 0.11709226 0.17159982
v 4.37240221 0.11690097 0.16987774
v 4.37259141 0.11700662 0.17043513
v 4.37181485 0.11657300 0.16886039
v 4.37214187 0.11675561 0.16934982
v 4.37142673 0.11635629 0.16841784
v 4.37049475 0.11583590 0.16770270
v 4.36940944 0.11522988 0.16725315
v 4.36824475 0.11457955 0.16709982
v 4.36708006 0.11392924 0.16725315
v 4.36599475 0.11332322 0.16770270
v 4.36550713 0.11305096 0.16802834
v 4.36294475 0.10868540 0.16429982
v 4.36294475 0.10868540 0.17889982
v 4.36305702 0.10973898 0.17889982
v 4.36305702 0.10973898 0.16429982
v 4.36338878 0.11074526 0.17889982
v 4.36464197 0.11243928 0.17889982
v 4.36550713 0.11305096 0.17889982
v 4.36392512 0.11165906 0.17889982
v 4.36392512 0.11165906 0.16429982
v 4.36338878 0.11074526 0.16429982
v 4.36464197 0.11243928 0.16429982
v 4.36550713 0.11305096 0.16429982
v 4.36294475 0.10318539 0.17889982
v 4.36294475 0.10318539 0.16429982
v 4.36374474 0.10868540 0.16349982
v 4.36374474 0.10318539 0.16349982
v 4.36589716 0.11235245 0.16349982
v 4.36517041 0.11183866 0.16349982
v 4.36456826 0.11118325 0.16349982
v 4.36411773 0.11041569 0.16349982
v 4.36383905 0.10957041 0.16349982
v 4.37256484 0.11699178 0.16429982
v 4.37295485 0.11629329 0.16349982
v 4.37521475 0.10318539 0.16349982
v 4.37468622 0.11794195 0.16349982
v 4.37519106 0.11903598 0.16349982
v 4.37392483 0.11700810 0.16349982
v 4.37521475 0.11911311 0.16349982
v 4.37527073 0.11962553 0.16356531
v 4.37548517 0.12018768 0.16342038
v 4.37546257 0.12009787 0.16342702
v 4.37533864 0.11960540 0.16346343
v 4.37497017 0.11911347 0.16370527
v 4.37473439 0.11871175 0.16381506
v 4.37427142 0.11820785 0.16396418
v 4.37401754 0.11793151 0.16404596
v 4.37344045 0.11752351 0.16417780
v 4.37315237 0.11731986 0.16424361
v 4.37534416 0.10318539 0.16348278
v 4.37546475 0.10318539 0.16343283
v 4.37556831 0.10318539 0.16335337
v 4.37555060 0.12049990 0.16333826
v 4.37557927 0.12063668 0.16330228
v 4.37564777 0.10318539 0.16324982
v 4.37569772 0.10318539 0.16312923
v 4.37563085 0.12088280 0.16323754
v 4.37568509 0.12114165 0.16316945
v 4.37571476 0.10318539 0.16299982
v 4.37569250 0.12127406 0.16312815
v 4.37571473 0.12167191 0.16300408
v 4.37571476 0.12168539 0.16299982
v 4.36374474 0.10318539 0.17969982
v 4.36374474 0.10868540 0.17969982
v 4.36383905 0.10957041 0.17969982
v 4.36411773 0.11041569 0.17969982
v 4.36456826 0.11118325 0.17969982
v 4.36517041 0.11183866 0.17969982
v 4.36589716 0.11235245 0.17969982
v 4.37315237 0.11731986 0.17895602
v 4.37256484 0.11699178 0.17889982
v 4.37295485 0.11629329 0.17969982
v 4.37568509 0.12114165 0.18003018
v 4.37569250 0.12127406 0.18007148
v 4.37571473 0.12167191 0.18019555
v 4.37557927 0.12063668 0.17989735
v 4.37563085 0.12088280 0.17996210
v 4.37548517 0.12018768 0.17977925
v 4.37555060 0.12049990 0.17986138
v 4.37523807 0.11964027 0.17963520
v 4.37470914 0.11873130 0.17938742
v 4.37499353 0.11909849 0.17949263
v 4.37400065 0.11795201 0.17915783
v 4.37428959 0.11818961 0.17923222
v 4.37345403 0.11750252 0.17901710
v 4.37571476 0.12168539 0.18019982
v 4.37521475 0.10318539 0.17969982
v 4.37392483 0.11700810 0.17969982
v 4.37468622 0.11794195 0.17969982
v 4.37521475 0.11911311 0.17969982
v 4.37519106 0.11903598 0.17969982
v 4.37571476 0.10318539 0.18019982
v 4.37569772 0.10318539 0.18007041
v 4.37564777 0.10318539 0.17994982
v 4.37556831 0.10318539 0.17984626
v 4.37546257 0.12009787 0.17977261
v 4.37546475 0.10318539 0.17976680
v 4.37533864 0.11960540 0.17973621
v 4.37534416 0.10318539 0.17971685
v 4.38210224 0.10318539 0.16259982
v 4.38210224 0.10318539 0.18059982
v 4.37571476 0.10318539 0.18059982
v 4.37571476 0.10318539 0.16259982
v 4.37771475 0.10518540 0.18259982
v 4.37726971 0.10474036 0.18254967
v 4.38210224 0.10466776 0.18253167
v 4.38210224 0.10518540 0.18259982
v 4.37719934 0.10466998 0.18252505
v 4.37684698 0.10431763 0.18240175
v 4.38210224 0.10418541 0.18233187
v 4.37672065 0.10419130 0.18232237
v 4.37646777 0.10393841 0.18216348
v 4.38210224 0.10377119 0.18201403
v 4.37630943 0.10378007 0.18200514
v 4.37615109 0.10362173 0.18184680
v 4.38210224 0.10345335 0.18159982
v 4.37591281 0.10338346 0.18146758
v 4.38210224 0.10325354 0.18111745
v 4.37599219 0.10346282 0.18159390
v 4.37576902 0.10323966 0.18104408
v 4.37572733 0.10319797 0.18082375
v 4.37578289 0.10325354 0.18111745
v 4.37771475 0.16468539 0.18259982
v 4.38210224 0.16468539 0.18259982
v 4.37577320 0.16468539 0.18104376
v 4.37571476 0.16468539 0.18059982
v 4.37578289 0.16468539 0.18111745
v 4.37592571 0.16468539 0.18146224
v 4.37616439 0.16468539 0.18183659
v 4.37598270 0.16468539 0.18159982
v 4.37647798 0.16468539 0.18215018
v 4.37630054 0.16468539 0.18201403
v 4.37685233 0.16468539 0.18238885
v 4.37671475 0.16468539 0.18233187
v 4.37727080 0.16468539 0.18254137
v 4.37719712 0.16468539 0.18253167
v 4.38210224 0.16557548 0.18249953
v 4.37771475 0.16557548 0.18249953
v 4.38210224 0.16642093 0.18220369
v 4.37771475 0.16642093 0.18220369
v 4.38210224 0.16717935 0.18172714
v 4.37771475 0.16717935 0.18172714
v 4.38210224 0.16781273 0.18109377
v 4.37771475 0.16781273 0.18109377
v 4.38210224 0.16828928 0.18033535
v 4.37771475 0.16828928 0.18033535
v 4.38210224 0.16858510 0.17948990
v 4.37771475 0.16858510 0.17948990
v 4.38210224 0.16868540 0.17859982
v 4.37771475 0.16868540 0.17859982
v 4.37571476 0.16663525 0.17904486
v 4.37577320 0.16712936 0.17859982
v 4.37578289 0.16720303 0.17859982
v 4.37571476 0.16648733 0.17946758
v 4.37571476 0.16624906 0.17984680
v 4.37571476 0.16593238 0.18016348
v 4.37571476 0.16555316 0.18040175
v 4.37571476 0.16513043 0.18054967
v 4.37592571 0.16754783 0.17859982
v 4.37598270 0.16768540 0.17859982
v 4.37616439 0.16792219 0.17859982
v 4.37630054 0.16809962 0.17859982
v 4.37647798 0.16823576 0.17859982
v 4.37671475 0.16841746 0.17859982
v 4.37685233 0.16847443 0.17859982
v 4.37719712 0.16861724 0.17859982
v 4.37727080 0.16862694 0.17859982
v 4.37571476 0.16668541 0.17859982
v 4.37719712 0.16556031 0.18243309
v 4.37719712 0.16639138 0.18214229
v 4.37719712 0.16713687 0.18167386
v 4.37719712 0.16775944 0.18105129
v 4.37719712 0.16822787 0.18030578
v 4.37719712 0.16851867 0.17947473
v 4.37671475 0.16551585 0.18223830
v 4.37671475 0.16832388 0.17943028
v 4.37671475 0.16804785 0.18021909
v 4.37671475 0.16760323 0.18092671
v 4.37671475 0.16701231 0.18151765
v 4.37671475 0.16630467 0.18196228
v 4.37630054 0.16544514 0.18192843
v 4.37630054 0.16616676 0.18167592
v 4.37630054 0.16681414 0.18126915
v 4.37630054 0.16735474 0.18072854
v 4.37630054 0.16776150 0.18008119
v 4.37630054 0.16801401 0.17935955
v 4.37598270 0.16535296 0.18152460
v 4.37598270 0.16761019 0.17926738
v 4.37598270 0.16738830 0.17990147
v 4.37598270 0.16703089 0.18047029
v 4.37598270 0.16655586 0.18094531
v 4.37598270 0.16598705 0.18130272
v 4.37578289 0.16524563 0.18105433
v 4.37578289 0.16577775 0.18086813
v 4.37578289 0.16625511 0.18056818
v 4.37578289 0.16665376 0.18016954
v 4.37578289 0.16695372 0.17969218
v 4.37578289 0.16713991 0.17916004
v 4.38210224 0.16868540 0.16459982
v 4.37771475 0.16868540 0.16459982
v 4.38210224 0.10518540 0.16059982
v 4.38210224 0.10393841 0.16103615
v 4.38210224 0.10431763 0.16079788
v 4.38210224 0.10338346 0.16173205
v 4.38210224 0.10362173 0.16135284
v 4.38210224 0.16717935 0.16147249
v 4.38210224 0.16781273 0.16210586
v 4.38210224 0.16557548 0.16070010
v 4.38210224 0.16642093 0.16099594
v 4.38210224 0.10323554 0.16215477
v 4.38210224 0.16828928 0.16286428
v 4.38210224 0.16468539 0.16059982
v 4.38210224 0.10474036 0.16064996
v 4.38210224 0.16858510 0.16370973
v 4.37572733 0.10319797 0.16237589
v 4.37582698 0.10329763 0.16193926
v 4.37576490 0.10323554 0.16215477
v 4.37591281 0.10338346 0.16173205
v 4.37615109 0.10362173 0.16135284
v 4.37646777 0.10393841 0.16103615
v 4.37684698 0.10431763 0.16079788
v 4.37726971 0.10474036 0.16064996
v 4.37771475 0.10518540 0.16059982
v 4.37771475 0.16468539 0.16059982
v 4.37571476 0.16641746 0.16359982
v 4.37571476 0.16609960 0.16318560
v 4.37571476 0.16568539 0.16286776
v 4.37571476 0.16520303 0.16266796
v 4.37571476 0.16668541 0.16459982
v 4.37571476 0.16661725 0.16408218
v 4.37571476 0.16468539 0.16259982
v 4.37771475 0.16854910 0.16356454
v 4.37771475 0.16826347 0.16287497
v 4.37771475 0.16814949 0.16259982
v 4.37771475 0.16778613 0.16212626
v 4.37771475 0.16751384 0.16177139
v 4.37771475 0.16715895 0.16149908
v 4.37771475 0.16668541 0.16113571
v 4.37771475 0.16641026 0.16102174
v 4.37771475 0.16572067 0.16073611
v 4.37771475 0.16557329 0.16071671
v 4.37771475 0.16856850 0.16371192
v 4.37591281 0.16755317 0.16459982
v 4.37576490 0.16713043 0.16459982
v 4.37615109 0.16793237 0.16459982
v 4.37646777 0.16824906 0.16459982
v 4.37684698 0.16848733 0.16459982
v 4.37726971 0.16863526 0.16459982
v 4.37576490 0.16468539 0.16215477
v 4.37591281 0.16468539 0.16173205
v 4.37615109 0.16468539 0.16135284
v 4.37646777 0.16468539 0.16103615
v 4.37684698 0.16468539 0.16079788
v 4.37726971 0.16468539 0.16064996
v 4.37726971 0.16570770 0.16078455
v 4.37726971 0.16666033 0.16117914
v 4.37726971 0.16747836 0.16180685
v 4.37726971 0.16810607 0.16262489
v 4.37726971 0.16850067 0.16357752
v 4.37684698 0.16835778 0.16361580
v 4.37646777 0.16812763 0.16367747
v 4.37615109 0.16782176 0.16375944
v 4.37591281 0.16745546 0.16385758
v 4.37576490 0.16704712 0.16396699
v 4.37684698 0.16797798 0.16269885
v 4.37646777 0.16777163 0.16281798
v 4.37615109 0.16749736 0.16297633
v 4.37591281 0.16716895 0.16316593
v 4.37576490 0.16680286 0.16337729
v 4.37684698 0.16737377 0.16191144
v 4.37646777 0.16720528 0.16207993
v 4.37615109 0.16698136 0.16230385
v 4.37591281 0.16671323 0.16257200
v 4.37576490 0.16641430 0.16287091
v 4.37684698 0.16658636 0.16130724
v 4.37646777 0.16646723 0.16151359
v 4.37615109 0.16630889 0.16178785
v 4.37591281 0.16611930 0.16211626
v 4.37576490 0.16590791 0.16248235
v 4.37684698 0.16566941 0.16092743
v 4.37646777 0.16560776 0.16115758
v 4.37615109 0.16552577 0.16146347
v 4.37591281 0.16542763 0.16182976
v 4.37576490 0.16531821 0.16223809
vt 5.49778700 -0.06150000
vt 5.23598766 -0.06150000
vt 5.36637974 -0.05563445
vt 5.36637974 -0.05563445
vt 5.23598766 -0.06150000
vt 5.23598766 -0.05536218
vt 5.23598766 -0.06150000
vt 4.97418833 -0.06150000
vt 5.23598766 -0.05536218
vt 5.23598766 -0.05536218
vt 4.97418833 -0.06150000
vt 4.97418833 -0.05475616
vt 4.97418833 -0.06150000
vt 4.71238899 -0.06150000
vt 4.97418833 -0.05475616
vt 4.97418833 -0.05475616
vt 4.71238899 -0.06150000
vt 4.71238899 -0.05410584
vt 4.71238899 -0.06150000
vt 4.45058966 -0.06150000
vt 4.71238899 -0.05410584
vt 4.71238899 -0.05410584
vt 4.45058966 -0.06150000
vt 4.45058966 -0.05345551
vt 4.45058966 -0.06150000
vt 4.18879032 -0.06150000
vt 4.45058966 -0.05345551
vt 4.45058966 -0.05345551
vt 4.18879032 -0.06150000
vt 4.18879032 -0.05284949
vt 4.18879032 -0.06150000
vt 3.92699075 -0.06150000
vt 4.18879032 -0.05284949
vt 4.18879032 -0.05284949
vt 3.92699075 -0.06150000
vt 3.92699075 -0.05232910
vt 3.92699075 -0.05232910
vt 3.92699075 -0.06150000
vt 3.79609108 -0.05211239
vt 3.92699075 -0.06150000
vt 3.66519141 -0.06150000
vt 3.79609108 -0.05211239
vt 3.79609108 -0.05211239
vt 3.66519141 -0.06150000
vt 3.66519141 -0.05192979
vt 3.66519141 -0.05192979
vt 3.66519141 -0.06150000
vt 3.53429174 -0.05178442
vt 3.66519141 -0.06150000
vt 3.40339208 -0.06150000
vt 3.53429174 -0.05178442
vt 3.53429174 -0.05178442
vt 3.40339208 -0.06150000
vt 3.40339208 -0.05167877
vt 3.40339208 -0.05167877
vt 3.40339208 -0.06150000
vt 3.27249241 -0.05161465
vt 3.40339208 -0.06150000
vt 3.14159274 -0.06150000
vt 3.27249241 -0.05161465
vt 3.27249241 -0.05161465
vt 3.14159274 -0.06150000
vt 3.14159274 -0.05159315
vt 3.14159274 -0.05159315
vt 3.14159274 -0.06150000
vt 3.01069307 -0.05161465
vt 3.14159274 -0.06150000
vt 2.87979317 -0.06150000
vt 3.01069307 -0.05161465
vt 3.01069307 -0.05161465
vt 2.87979317 -0.06150000
vt 2.87979317 -0.05167877
vt 2.87979317 -0.05167877
vt 2.87979317 -0.06150000
vt 2.74889350 -0.05178442
vt 2.87979317 -0.06150000
vt 2.61799383 -0.06150000
vt 2.74889350 -0.05178442
vt 2.74889350 -0.05178442
vt 2.61799383 -0.06150000
vt 2.61799383 -0.05192979
vt 2.61799383 -0.05192979
vt 2.61799383 -0.06150000
vt 2.48709416 -0.05211239
vt 2.61799383 -0.06150000
vt 2.35619450 -0.06150000
vt 2.48709416 -0.05211239
vt 2.48709416 -0.05211239
vt 2.35619450 -0.06150000
vt 2.35619450 -0.05232910
vt 2.35619450 -0.06150000
vt 2.09439516 -0.06150000
vt 2.35619450 -0.05232910
vt 2.35619450 -0.05232910
vt 2.09439516 -0.06150000
vt 2.09439516 -0.05284949
vt 2.09439516 -0.06150000
vt 1.83259571 -0.06150000
vt 2.09439516 -0.05284949
vt 2.09439516 -0.05284949
vt 1.83259571 -0.06150000
vt 1.83259571 -0.05345551
vt 1.83259571 -0.06150000
vt 1.57079637 -0.06150000
vt 1.83259571 -0.05345551
vt 1.83259571 -0.05345551
vt 1.57079637 -0.06150000
vt 1.57079637 -0.05410584
vt 1.57079637 -0.06150000
vt 1.30899692 -0.06150000
vt 1.57079637 -0.05410584
vt 1.57079637 -0.05410584
vt 1.30899692 -0.06150000
vt 1.30899692 -0.05475616
vt 1.30899692 -0.06150000
vt 1.04719758 -0.06150000
vt 1.30899692 -0.05475616
vt 1.30899692 -0.05475616
vt 1.04719758 -0.06150000
vt 1.04719758 -0.05536218
vt 1.04719758 -0.05536218
vt 1.04719758 -0.06150000
vt 0.91680610 -0.05563445
vt 1.04719758 -0.06150000
vt 0.78539819 -0.06150000
vt 0.91680610 -0.05563445
vt 0.91680610 -0.05563445
vt 0.78539819 -0.06150000
vt 0.78539819 -0.05591415
vt 0.78539819 -0.05591415
vt 0.78539819 -0.06150000
vt 0.63645834 -0.05626265
vt 0.78539819 -0.06150000
vt 0.52359879 -0.06150000
vt 0.63645834 -0.05626265
vt 0.63645834 -0.05626265
vt 0.52359879 -0.06150000
vt 0.52359879 -0.05652714
vt 0.26179940 -0.06150000
vt 0.26187405 -0.05705584
vt 0.52359879 -0.06150000
vt 0.26187405 -0.05705584
vt 0.28408530 -0.05702636
vt 0.52359879 -0.06150000
vt 0.52359879 -0.06150000
vt 0.28408530 -0.05702636
vt 0.52359879 -0.05652714
vt -0.26179940 -0.06150000
vt -0.13334176 -0.05722620
vt 0.00000000 -0.06150000
vt -0.13334176 -0.05722620
vt -0.00000000 -0.05728707
vt 0.00000000 -0.06150000
vt 0.00000000 -0.06150000
vt -0.00000000 -0.05728707
vt 0.26179940 -0.06150000
vt -0.00000000 -0.05728707
vt 0.13280898 -0.05722668
vt 0.26179940 -0.06150000
vt 0.26179940 -0.06150000
vt 0.13280898 -0.05722668
vt 0.26187405 -0.05705584
vt 5.75958633 -0.06150000
vt 5.99910021 -0.05702636
vt 6.02138615 -0.06150000
vt 5.99910021 -0.05702636
vt 6.02138615 -0.05706325
vt 6.02138615 -0.06150000
vt 6.02138615 -0.06150000
vt 6.02138615 -0.05706325
vt 6.14984369 -0.05722620
vt 5.36637974 -0.05563445
vt 5.49773645 -0.05592741
vt 5.49778700 -0.06150000
vt 5.49773645 -0.05592741
vt 5.64071465 -0.05624612
vt 5.49778700 -0.06150000
vt 5.49778700 -0.06150000
vt 5.64071465 -0.05624612
vt 5.75958633 -0.06150000
vt 5.64071465 -0.05624612
vt 5.75958633 -0.05652714
vt 5.75958633 -0.06150000
vt 5.75958633 -0.06150000
vt 5.75958633 -0.05652714
vt 5.99910021 -0.05702636
vt -0.06550000 -0.01830000
vt -0.06550000 -0.00370000
vt -0.06000000 -0.01830000
vt -0.06550000 -0.00370000
vt -0.06000000 -0.00370000
vt -0.06000000 -0.01830000
vt 2.63234258 0.01457148
vt 2.63234282 0.01830000
vt 2.53067374 0.01415231
vt 2.63234282 0.01830000
vt 2.42003369 0.01830000
vt 2.53067374 0.01415231
vt 2.20772433 0.01830000
vt 2.33862162 0.01325000
vt 2.42003369 0.01830000
vt 2.33862162 0.01325000
vt 2.42003369 0.01369629
vt 2.42003369 0.01830000
vt 2.42003369 0.01830000
vt 2.42003369 0.01369629
vt 2.53067374 0.01415231
vt 1.99541497 0.00370000
vt 2.20772433 0.00370000
vt 2.20772433 0.00973874
vt 2.20772433 0.00973874
vt 2.20051956 0.00983666
vt 1.99541497 0.00370000
vt 2.20051956 0.00983666
vt 2.15875530 0.01040411
vt 1.99541497 0.00370000
vt 1.99541497 0.00370000
vt 2.15875530 0.01040411
vt 2.14430952 0.01100000
vt 2.14430952 0.01100000
vt 2.15886998 0.01159826
vt 1.99541497 0.01830000
vt 2.15886998 0.01159826
vt 2.19857669 0.01216469
vt 1.99541497 0.01830000
vt 1.99541497 0.01830000
vt 2.19857669 0.01216469
vt 2.20772433 0.01830000
vt 2.19857669 0.01216469
vt 2.20772433 0.01226126
vt 2.20772433 0.01830000
vt 2.20772433 0.01830000
vt 2.20772433 0.01226126
vt 2.33862162 0.01325000
vt 2.42003369 0.00370000
vt 2.63234282 0.00370000
vt 2.63234282 0.00742852
vt 2.63234282 0.00742852
vt 2.52728105 0.00781802
vt 2.42003369 0.00370000
vt 2.52728105 0.00781802
vt 2.41998625 0.00834787
vt 2.42003369 0.00370000
vt 2.42003369 0.00370000
vt 2.41998625 0.00834787
vt 2.20772433 0.00370000
vt 2.41998625 0.00834787
vt 2.33862162 0.00875000
vt 2.20772433 0.00370000
vt 2.20772433 0.00370000
vt 2.33862162 0.00875000
vt 2.20772433 0.00973874
vt 2.14430952 0.01100000
vt 1.99541497 0.01830000
vt 1.99541497 0.00370000
vt 1.99541497 0.01830000
vt 1.78310561 0.01830000
vt 1.99541497 0.00370000
vt 1.99541497 0.00370000
vt 1.78310561 0.01830000
vt 1.78310561 0.00370000
vt 1.78310561 0.01830000
vt 1.57079637 0.01830000
vt 1.78310561 0.00370000
vt 1.78310561 0.00370000
vt 1.57079637 0.01830000
vt 1.57079637 0.00370000
vt 0.00742852 -0.00875631
vt 0.00370000 -0.00875631
vt 0.00710289 -0.00819783
vt 0.00370000 -0.00875631
vt 0.00665333 -0.00695479
vt 0.00710289 -0.00819783
vt 0.01830000 -0.00875631
vt 0.01457148 -0.00875631
vt 0.01489711 -0.00819783
vt 0.00370000 -0.00067291
vt 0.00665333 -0.00428689
vt 0.00370000 -0.00875631
vt 0.00665333 -0.00428689
vt 0.00650000 -0.00562084
vt 0.00370000 -0.00875631
vt 0.00370000 -0.00875631
vt 0.00650000 -0.00562084
vt 0.00665333 -0.00695479
vt 0.01489711 -0.00819783
vt 0.01534667 -0.00695479
vt 0.01830000 -0.00875631
vt 0.01534667 -0.00695479
vt 0.01550000 -0.00562084
vt 0.01830000 -0.00875631
vt 0.01830000 -0.00875631
vt 0.01550000 -0.00562084
vt 0.01830000 -0.00067291
vt 0.01216469 -0.00064247
vt 0.01158737 -0.00051094
vt 0.01835621 -0.00000000
vt 0.01158737 -0.00051094
vt 0.01100000 -0.00046685
vt 0.01835621 -0.00000000
vt 0.01835621 -0.00000000
vt 0.01100000 -0.00046685
vt 0.00364379 0.00000000
vt 0.01100000 -0.00046685
vt 0.01041263 -0.00051094
vt 0.00364379 0.00000000
vt 0.01373943 -0.00153190
vt 0.01325000 -0.00115735
vt 0.01835621 -0.00000000
vt 0.01325000 -0.00115735
vt 0.01272207 -0.00085917
vt 0.01835621 -0.00000000
vt 0.01835621 -0.00000000
vt 0.01272207 -0.00085917
vt 0.01216469 -0.00064247
vt 0.01041263 -0.00051094
vt 0.00983531 -0.00064247
vt 0.00364379 0.00000000
vt 0.00983531 -0.00064247
vt 0.00927792 -0.00085917
vt 0.00364379 0.00000000
vt 0.00364379 0.00000000
vt 0.00927792 -0.00085917
vt 0.00875000 -0.00115735
vt 0.01550000 -0.00562084
vt 0.01534667 -0.00428689
vt 0.01830000 -0.00067291
vt 0.01534667 -0.00428689
vt 0.01489711 -0.00304384
vt 0.01830000 -0.00067291
vt 0.01830000 -0.00067291
vt 0.01489711 -0.00304384
vt 0.01835621 -0.00000000
vt 0.01489711 -0.00304384
vt 0.01418198 -0.00197642
vt 0.01835621 -0.00000000
vt 0.01835621 -0.00000000
vt 0.01418198 -0.00197642
vt 0.01373943 -0.00153190
vt 0.00875000 -0.00115735
vt 0.00826057 -0.00153190
vt 0.00364379 0.00000000
vt 0.00826057 -0.00153190
vt 0.00781802 -0.00197642
vt 0.00364379 0.00000000
vt 0.00364379 0.00000000
vt 0.00781802 -0.00197642
vt 0.00370000 -0.00067291
vt 0.00781802 -0.00197642
vt 0.00710289 -0.00304384
vt 0.00370000 -0.00067291
vt 0.00370000 -0.00067291
vt 0.00710289 -0.00304384
vt 0.00665333 -0.00428689
vt 4.71508598 0.00240426
vt 4.71238899 0.00240000
vt 4.71238899 0.01960000
vt 4.95279551 0.00273844
vt 4.92472506 0.00270246
vt 5.01660347 0.01917943
vt 5.01660347 0.01917943
vt 4.92472506 0.00270246
vt 4.95279551 0.01926156
vt 5.77393579 0.01835621
vt 5.77393579 0.00364379
vt 5.70335865 0.01842202
vt 5.77393579 0.00364379
vt 5.70338869 0.00358272
vt 5.70335865 0.01842202
vt 5.70335865 0.01842202
vt 5.70338869 0.00358272
vt 5.56162643 0.01855385
vt 5.70338869 0.00358272
vt 5.56145048 0.00344199
vt 5.56162643 0.01855385
vt 5.56162643 0.01855385
vt 5.56145048 0.00344199
vt 5.48653984 0.01863563
vt 5.56145048 0.00344199
vt 5.48660755 0.00336760
vt 5.48653984 0.01863563
vt 5.48653984 0.01863563
vt 5.48660755 0.00336760
vt 5.34931707 0.01878476
vt 5.48660755 0.00336760
vt 5.34917736 0.00321239
vt 5.34931707 0.01878476
vt 5.34931707 0.01878476
vt 5.34917736 0.00321239
vt 5.25602961 0.01889455
vt 5.34917736 0.00321239
vt 5.25617552 0.00310718
vt 5.25602961 0.01889455
vt 5.25602961 0.01889455
vt 5.25617552 0.00310718
vt 5.13700771 0.01903450
vt 5.25617552 0.00310718
vt 5.13701200 0.00296462
vt 5.13700771 0.01903450
vt 5.13700771 0.01903450
vt 5.13701200 0.00296462
vt 5.01660347 0.01917943
vt 5.13701200 0.00296462
vt 5.01660347 0.00282057
vt 5.01660347 0.01917943
vt 5.01660347 0.01917943
vt 5.01660347 0.00282057
vt 4.95279551 0.00273844
vt 4.71508598 0.01959574
vt 4.79483557 0.01947166
vt 4.82135582 0.00256963
vt 4.79483557 0.01947166
vt 4.82135582 0.01943037
vt 4.82135582 0.00256963
vt 4.82135582 0.00256963
vt 4.82135582 0.01943037
vt 4.87422037 0.00263772
vt 4.82135582 0.01943037
vt 4.87422037 0.01936228
vt 4.87422037 0.00263772
vt 4.87422037 0.00263772
vt 4.87422037 0.01936228
vt 4.92472506 0.00270246
vt 4.87422037 0.01936228
vt 4.92472506 0.01929754
vt 4.92472506 0.00270246
vt 4.92472506 0.00270246
vt 4.92472506 0.01929754
vt 4.95279551 0.01926156
vt 4.71508598 0.01959574
vt 4.82135582 0.00256963
vt 4.71238899 0.01960000
vt 4.82135582 0.00256963
vt 4.79483557 0.00252834
vt 4.71238899 0.01960000
vt 4.71238899 0.01960000
vt 4.79483557 0.00252834
vt 4.71508598 0.00240426
vt -0.07081544 -0.05074345
vt -0.07028691 -0.06550000
vt -0.07031060 -0.04964941
vt -0.07028691 -0.06550000
vt -0.07028691 -0.04957230
vt -0.07031060 -0.04964941
vt -0.07081544 -0.05074345
vt -0.07157683 -0.05167729
vt -0.07028691 -0.06550000
vt -0.07157683 -0.05167729
vt -0.07254680 -0.05239210
vt -0.07028691 -0.06550000
vt -0.07028691 -0.06550000
vt -0.07254680 -0.05239210
vt -0.07960450 -0.05633293
vt -0.07960450 -0.05633293
vt -0.08033124 -0.05684674
vt -0.07028691 -0.06550000
vt -0.08033124 -0.05684674
vt -0.08093340 -0.05750214
vt -0.07028691 -0.06550000
vt -0.07028691 -0.06550000
vt -0.08093340 -0.05750214
vt -0.08138393 -0.05826971
vt -0.08138393 -0.05826971
vt -0.08166260 -0.05911499
vt -0.07028691 -0.06550000
vt -0.08166260 -0.05911499
vt -0.08175690 -0.06000000
vt -0.07028691 -0.06550000
vt -0.07028691 -0.06550000
vt -0.08175690 -0.06000000
vt -0.08175690 -0.06550000
vt 3.92699075 -0.06550000
vt 4.18674517 -0.04858752
vt 4.18879032 -0.06550000
vt 4.18674517 -0.04858752
vt 4.45127869 -0.04908001
vt 4.18879032 -0.06550000
vt 4.18879032 -0.06550000
vt 4.45127869 -0.04908001
vt 4.45058966 -0.06550000
vt 4.45127869 -0.04908001
vt 4.71238899 -0.04957230
vt 4.45058966 -0.06550000
vt 4.45058966 -0.06550000
vt 4.71238899 -0.04957230
vt 4.71238899 -0.06550000
vt 3.83422136 -0.04804872
vt 3.93083358 -0.04818550
vt 3.92699075 -0.06550000
vt 3.93083358 -0.04818550
vt 4.14097166 -0.04849772
vt 3.92699075 -0.06550000
vt 3.92699075 -0.06550000
vt 4.14097166 -0.04849772
vt 4.18674517 -0.04858752
vt 3.83422136 -0.04804872
vt 3.92699075 -0.06550000
vt 3.66064882 -0.04780260
vt 3.92699075 -0.06550000
vt 3.66519141 -0.06550000
vt 3.66064882 -0.04780260
vt 3.66064882 -0.04780260
vt 3.66519141 -0.06550000
vt 3.48773074 -0.04754376
vt 3.66519141 -0.06550000
vt 3.40339208 -0.06550000
vt 3.48773074 -0.04754376
vt 3.48773074 -0.04754376
vt 3.40339208 -0.06550000
vt 3.40402532 -0.04741133
vt 3.40402532 -0.04741133
vt 3.40339208 -0.06550000
vt 3.15012074 -0.04701348
vt 3.40339208 -0.06550000
vt 3.14159274 -0.06550000
vt 3.15012074 -0.04701348
vt 3.15012074 -0.04701348
vt 3.14159274 -0.06550000
vt 3.14159274 -0.04700000
vt 0.05239210 0.07254680
vt 0.05167729 0.07157683
vt 0.06550000 0.07028691
vt 0.05167729 0.07157683
vt 0.05074345 0.07081544
vt 0.06550000 0.07028691
vt 0.05074345 0.07081544
vt 0.04964941 0.07031060
vt 0.06550000 0.07028691
vt 0.06550000 0.07028691
vt 0.04964941 0.07031060
vt 0.04957230 0.07028691
vt 0.06550000 0.07028691
vt 0.06550000 0.08175690
vt 0.06000000 0.08175690
vt 0.05750214 0.08093340
vt 0.05684674 0.08033124
vt 0.06550000 0.07028691
vt 0.05684674 0.08033124
vt 0.05633293 0.07960450
vt 0.06550000 0.07028691
vt 0.06550000 0.07028691
vt 0.05633293 0.07960450
vt 0.05239210 0.07254680
vt 0.06000000 0.08175690
vt 0.05911499 0.08166260
vt 0.06550000 0.07028691
vt 0.05911499 0.08166260
vt 0.05826971 0.08138393
vt 0.06550000 0.07028691
vt 0.06550000 0.07028691
vt 0.05826971 0.08138393
vt 0.05750214 0.08093340
vt 0.26179940 0.06550000
vt 0.26243269 0.04741133
vt -0.00000000 0.06550000
vt 0.26243269 0.04741133
vt 0.00852807 0.04701348
vt -0.00000000 0.06550000
vt -0.00000000 0.06550000
vt 0.00852807 0.04701348
vt -0.00000000 0.04700000
vt 0.52359879 0.06550000
vt 0.78539819 0.06550000
vt 0.78924084 0.04818550
vt 0.78924084 0.04818550
vt 0.69262880 0.04804872
vt 0.52359879 0.06550000
vt 0.69262880 0.04804872
vt 0.51905620 0.04780260
vt 0.52359879 0.06550000
vt 0.52359879 0.06550000
vt 0.51905620 0.04780260
vt 0.26179940 0.06550000
vt 0.51905620 0.04780260
vt 0.34613812 0.04754376
vt 0.26179940 0.06550000
vt 0.26179940 0.06550000
vt 0.34613812 0.04754376
vt 0.26243269 0.04741133
vt 1.57079637 0.06550000
vt 1.57079637 0.04957230
vt 1.30899692 0.06550000
vt 1.57079637 0.04957230
vt 1.30968606 0.04908001
vt 1.30899692 0.06550000
vt 1.30899692 0.06550000
vt 1.30968606 0.04908001
vt 1.04719758 0.06550000
vt 1.30968606 0.04908001
vt 1.04515266 0.04858752
vt 1.04719758 0.06550000
vt 1.04719758 0.06550000
vt 1.04515266 0.04858752
vt 0.78539819 0.06550000
vt 1.04515266 0.04858752
vt 0.99937898 0.04849772
vt 0.78539819 0.06550000
vt 0.78539819 0.06550000
vt 0.99937898 0.04849772
vt 0.78924084 0.04818550
vt 0.00650000 -0.00307591
vt 0.00100000 -0.00307591
vt 0.00650000 -0.00420729
vt 0.00100000 -0.00307591
vt 0.00100000 -0.00420729
vt 0.00650000 -0.00420729
vt 2.63234282 -0.00297500
vt 2.63234282 -0.00217500
vt 2.42003369 -0.00217500
vt 2.63234282 -0.00297500
vt 2.42003369 -0.00217500
vt 2.42003369 -0.00297500
vt 2.42003369 -0.00217500
vt 2.20772433 -0.00217500
vt 2.42003369 -0.00297500
vt 2.42003369 -0.00297500
vt 2.20772433 -0.00217500
vt 2.20772433 -0.00297500
vt 2.20772433 -0.00217500
vt 1.99541497 -0.00217500
vt 2.20772433 -0.00297500
vt 2.20772433 -0.00297500
vt 1.99541497 -0.00217500
vt 1.99541497 -0.00297500
vt 1.99541497 -0.00217500
vt 1.78310561 -0.00217500
vt 1.99541497 -0.00297500
vt 1.99541497 -0.00297500
vt 1.78310561 -0.00217500
vt 1.78310561 -0.00297500
vt 1.78310561 -0.00217500
vt 1.57079637 -0.00217500
vt 1.78310561 -0.00297500
vt 1.78310561 -0.00297500
vt 1.57079637 -0.00217500
vt 1.57079637 -0.00297500
vt 0.00808340 -0.00307591
vt 0.00000000 -0.00307591
vt 0.00808340 -0.00420729
vt 0.00000000 -0.00307591
vt 0.00000000 -0.00420729
vt 0.00808340 -0.00420729
vt 3.65084243 0.00217500
vt 3.65084243 0.00297500
vt 3.81750870 0.00223121
vt 3.65084243 0.00297500
vt 3.90252686 0.00297500
vt 3.81750870 0.00223121
vt 3.81750870 0.00223121
vt 3.90252686 0.00297500
vt 3.90252686 0.00229228
vt 3.90252686 0.00229228
vt 3.90252686 0.00297500
vt 4.07025337 0.00241803
vt 3.90252686 0.00297500
vt 4.15421104 0.00297500
vt 4.07025337 0.00241803
vt 4.07025337 0.00241803
vt 4.15421104 0.00297500
vt 4.15421104 0.00250740
vt 4.40589571 0.00297500
vt 4.40589571 0.00276782
vt 4.15421104 0.00297500
vt 4.40589571 0.00276782
vt 4.30786943 0.00264572
vt 4.15421104 0.00297500
vt 4.15421104 0.00297500
vt 4.30786943 0.00264572
vt 4.15421104 0.00250740
vt 4.40589571 0.00297500
vt 4.42270184 0.00297500
vt 4.40589571 0.00276782
vt 4.42270184 0.00297500
vt 4.52844906 0.00299566
vt 4.40589571 0.00276782
vt 4.40589571 0.00276782
vt 4.52844906 0.00299566
vt 4.53183317 0.00289255
vt 4.52844906 0.00299566
vt 4.63286018 0.00304299
vt 4.53183317 0.00289255
vt 4.53183317 0.00289255
vt 4.63286018 0.00304299
vt 4.65157557 0.00305443
vt 0.00000000 -0.00000000
vt -0.00185000 -0.00000000
vt 0.00009030 0.00068587
vt -0.00185000 -0.00000000
vt -0.00169667 0.00116469
vt 0.00009030 0.00068587
vt 0.00009030 0.00068587
vt -0.00169667 0.00116469
vt 0.00035503 0.00132500
vt -0.00169667 0.00116469
vt -0.00124711 0.00225000
vt 0.00035503 0.00132500
vt 0.00035503 0.00132500
vt -0.00124711 0.00225000
vt 0.00077617 0.00187383
vt -0.00124711 0.00225000
vt -0.00053198 0.00318198
vt 0.00077617 0.00187383
vt 0.00077617 0.00187383
vt -0.00053198 0.00318198
vt 0.00132500 0.00229497
vt -0.00053198 0.00318198
vt 0.00040000 0.00389711
vt 0.00132500 0.00229497
vt 0.00132500 0.00229497
vt 0.00040000 0.00389711
vt 0.00196413 0.00255970
vt 0.00040000 0.00389711
vt 0.00148531 0.00434667
vt 0.00196413 0.00255970
vt 0.00196413 0.00255970
vt 0.00148531 0.00434667
vt 0.00265000 0.00265000
vt 0.00148531 0.00434667
vt 0.00265000 0.00450000
vt 0.00265000 0.00265000
vt 0.00265000 0.00265000
vt 0.00265000 0.00450000
vt 0.00333587 0.00255970
vt 0.00265000 0.00450000
vt 0.00381469 0.00434667
vt 0.00333587 0.00255970
vt 0.00333587 0.00255970
vt 0.00381469 0.00434667
vt 0.00397500 0.00229497
vt 0.00381469 0.00434667
vt 0.00490000 0.00389711
vt 0.00397500 0.00229497
vt 0.00397500 0.00229497
vt 0.00490000 0.00389711
vt 0.00452383 0.00187383
vt 0.00490000 0.00389711
vt 0.00583198 0.00318198
vt 0.00452383 0.00187383
vt 0.00452383 0.00187383
vt 0.00583198 0.00318198
vt 0.00494497 0.00132500
vt 0.00583198 0.00318198
vt 0.00654711 0.00225000
vt 0.00494497 0.00132500
vt 0.00494497 0.00132500
vt 0.00654711 0.00225000
vt 0.00520970 0.00068587
vt 0.00654711 0.00225000
vt 0.00699667 0.00116469
vt 0.00520970 0.00068587
vt 0.00520970 0.00068587
vt 0.00699667 0.00116469
vt 0.00530000 -0.00000000
vt 0.00699667 0.00116469
vt 0.00715000 -0.00000000
vt 0.00530000 -0.00000000
vt 0.00530000 -0.00000000
vt 0.00715000 -0.00000000
vt 0.00520970 -0.00068587
vt 0.00715000 -0.00000000
vt 0.00699667 -0.00116469
vt 0.00520970 -0.00068587
vt 0.00520970 -0.00068587
vt 0.00699667 -0.00116469
vt 0.00494497 -0.00132500
vt 0.00699667 -0.00116469
vt 0.00654711 -0.00225000
vt 0.00494497 -0.00132500
vt 0.00494497 -0.00132500
vt 0.00654711 -0.00225000
vt 0.00452383 -0.00187383
vt 0.00654711 -0.00225000
vt 0.00583198 -0.00318198
vt 0.00452383 -0.00187383
vt 0.00452383 -0.00187383
vt 0.00583198 -0.00318198
vt 0.00397500 -0.00229497
vt 0.00583198 -0.00318198
vt 0.00490000 -0.00389711
vt 0.00397500 -0.00229497
vt 0.00397500 -0.00229497
vt 0.00490000 -0.00389711
vt 0.00333587 -0.00255970
vt 0.00490000 -0.00389711
vt 0.00381469 -0.00434667
vt 0.00333587 -0.00255970
vt 0.00333587 -0.00255970
vt 0.00381469 -0.00434667
vt 0.00265000 -0.00265000
vt 0.00381469 -0.00434667
vt 0.00265000 -0.00450000
vt 0.00265000 -0.00265000
vt 0.00265000 -0.00265000
vt 0.00265000 -0.00450000
vt 0.00196413 -0.00255970
vt 0.00265000 -0.00450000
vt 0.00148531 -0.00434667
vt 0.00196413 -0.00255970
vt 0.00196413 -0.00255970
vt 0.00148531 -0.00434667
vt 0.00132500 -0.00229497
vt 0.00148531 -0.00434667
vt 0.00040000 -0.00389711
vt 0.00132500 -0.00229497
vt 0.00132500 -0.00229497
vt 0.00040000 -0.00389711
vt 0.00077617 -0.00187383
vt 0.00040000 -0.00389711
vt -0.00053198 -0.00318198
vt 0.00077617 -0.00187383
vt 0.00077617 -0.00187383
vt -0.00053198 -0.00318198
vt 0.00035503 -0.00132500
vt -0.00053198 -0.00318198
vt -0.00124711 -0.00225000
vt 0.00035503 -0.00132500
vt 0.00035503 -0.00132500
vt -0.00124711 -0.00225000
vt 0.00009030 -0.00068587
vt -0.00124711 -0.00225000
vt -0.00169667 -0.00116469
vt 0.00009030 -0.00068587
vt 0.00009030 -0.00068587
vt -0.00169667 -0.00116469
vt 0.00000000 -0.00000000
vt -0.00169667 -0.00116469
vt -0.00185000 -0.00000000
vt 0.00000000 -0.00000000
vt 0.00000000 -0.06149900
vt 0.26179940 -0.06150000
vt 0.26179940 -0.06149900
vt 0.26179940 -0.06150000
vt 0.52359879 -0.06150000
vt 0.26179940 -0.06149900
vt 0.26179940 -0.06149900
vt 0.52359879 -0.06150000
vt 0.52359879 -0.06149900
vt 0.52359879 -0.06150000
vt 0.78539819 -0.06150000
vt 0.52359879 -0.06149900
vt 0.52359879 -0.06149900
vt 0.78539819 -0.06150000
vt 0.78539819 -0.06149900
vt 0.78539819 -0.06150000
vt 1.04719758 -0.06150000
vt 0.78539819 -0.06149900
vt 0.78539819 -0.06149900
vt 1.04719758 -0.06150000
vt 1.04719758 -0.06149900
vt 1.04719758 -0.06150000
vt 1.30899692 -0.06150000
vt 1.04719758 -0.06149900
vt 1.04719758 -0.06149900
vt 1.30899692 -0.06150000
vt 1.30899692 -0.06149900
vt 1.30899692 -0.06150000
vt 1.57079637 -0.06150000
vt 1.30899692 -0.06149900
vt 1.30899692 -0.06149900
vt 1.57079637 -0.06150000
vt 1.57079637 -0.06149900
vt 1.57079637 -0.06150000
vt 1.83259571 -0.06150000
vt 1.57079637 -0.06149900
vt 1.57079637 -0.06149900
vt 1.83259571 -0.06150000
vt 1.83259571 -0.06149900
vt 1.83259571 -0.06150000
vt 2.09439516 -0.06150000
vt 1.83259571 -0.06149900
vt 1.83259571 -0.06149900
vt 2.09439516 -0.06150000
vt 2.09439516 -0.06149900
vt 2.09439516 -0.06150000
vt 2.35619450 -0.06150000
vt 2.09439516 -0.06149900
vt 2.09439516 -0.06149900
vt 2.35619450 -0.06150000
vt 2.35619450 -0.06149900
vt 2.35619450 -0.06150000
vt 2.61799383 -0.06150000
vt 2.35619450 -0.06149900
vt 2.35619450 -0.06149900
vt 2.61799383 -0.06150000
vt 2.61799383 -0.06149900
vt 2.61799383 -0.06150000
vt 2.87979317 -0.06150000
vt 2.61799383 -0.06149900
vt 2.61799383 -0.06149900
vt 2.87979317 -0.06150000
vt 2.87979317 -0.06149900
vt 2.87979317 -0.06150000
vt 3.14159274 -0.06150000
vt 2.87979317 -0.06149900
vt 2.87979317 -0.06149900
vt 3.14159274 -0.06150000
vt 3.14159274 -0.06149900
vt 3.14159274 -0.06150000
vt 3.40339208 -0.06150000
vt 3.14159274 -0.06149900
vt 3.14159274 -0.06149900
vt 3.40339208 -0.06150000
vt 3.40339208 -0.06149900
vt 3.40339208 -0.06150000
vt 3.66519141 -0.06150000
vt 3.40339208 -0.06149900
vt 3.40339208 -0.06149900
vt 3.66519141 -0.06150000
vt 3.66519141 -0.06149900
vt 3.66519141 -0.06150000
vt 3.92699075 -0.06150000
vt 3.66519141 -0.06149900
vt 3.66519141 -0.06149900
vt 3.92699075 -0.06150000
vt 3.92699075 -0.06149900
vt 3.92699075 -0.06150000
vt 4.18879032 -0.06150000
vt 3.92699075 -0.06149900
vt 3.92699075 -0.06149900
vt 4.18879032 -0.06150000
vt 4.18879032 -0.06149900
vt 4.18879032 -0.06150000
vt 4.45058966 -0.06150000
vt 4.18879032 -0.06149900
vt 4.18879032 -0.06149900
vt 4.45058966 -0.06150000
vt 4.45058966 -0.06149900
vt 4.45058966 -0.06150000
vt 4.71238899 -0.06150000
vt 4.45058966 -0.06149900
vt 4.45058966 -0.06149900
vt 4.71238899 -0.06150000
vt 4.71238899 -0.06149900
vt 4.71238899 -0.06150000
vt 4.97418833 -0.06150000
vt 4.71238899 -0.06149900
vt 4.71238899 -0.06149900
vt 4.97418833 -0.06150000
vt 4.97418833 -0.06149900
vt 4.97418833 -0.06150000
vt 5.23598766 -0.06150000
vt 4.97418833 -0.06149900
vt 4.97418833 -0.06149900
vt 5.23598766 -0.06150000
vt 5.23598766 -0.06149900
vt 5.23598766 -0.06150000
vt 5.49778700 -0.06150000
vt 5.23598766 -0.06149900
vt 5.23598766 -0.06149900
vt 5.49778700 -0.06150000
vt 5.49778700 -0.06149900
vt 5.49778700 -0.06150000
vt 5.75958633 -0.06150000
vt 5.49778700 -0.06149900
vt 5.49778700 -0.06149900
vt 5.75958633 -0.06150000
vt 5.75958633 -0.06149900
vt 5.75958633 -0.06150000
vt 6.02138615 -0.06150000
vt 5.75958633 -0.06149900
vt 5.75958633 -0.06149900
vt 6.02138615 -0.06150000
vt 6.02138615 -0.06149900
vt 6.02138615 -0.06150000
vt 6.28318548 -0.06150000
vt 6.02138615 -0.06149900
vt 6.02138615 -0.06149900
vt 6.28318548 -0.06150000
vt 6.28318548 -0.06149900
vt 6.28318548 -0.06150000
vt 6.54498482 -0.06150000
vt 6.28318548 -0.06149900
vt 5.77393579 -0.00020000
vt 5.77393579 -0.00100000
vt 5.60726929 -0.00094379
vt 5.77393579 -0.00020000
vt 5.60726929 -0.00094379
vt 5.52225113 -0.00020000
vt 5.60726929 -0.00094379
vt 5.52111483 -0.00089263
vt 5.52225113 -0.00020000
vt 5.52111483 -0.00089263
vt 5.35600901 -0.00074615
vt 5.52225113 -0.00020000
vt 5.52225113 -0.00020000
vt 5.35600901 -0.00074615
vt 5.27056694 -0.00020000
vt 5.01730013 -0.00041971
vt 5.01888227 -0.00020000
vt 5.11869860 -0.00051524
vt 5.01888227 -0.00020000
vt 5.27056694 -0.00020000
vt 5.11869860 -0.00051524
vt 5.11869860 -0.00051524
vt 5.27056694 -0.00020000
vt 5.26920891 -0.00067852
vt 5.27056694 -0.00020000
vt 5.35600901 -0.00074615
vt 5.26920891 -0.00067852
vt 4.77320242 -0.00012057
vt 4.79191780 -0.00013201
vt 4.89476871 -0.00026550
vt 4.79191780 -0.00013201
vt 4.89632893 -0.00017934
vt 4.89476871 -0.00026550
vt 4.89476871 -0.00026550
vt 4.89632893 -0.00017934
vt 5.01730013 -0.00041971
vt 4.89632893 -0.00017934
vt 5.00207615 -0.00020000
vt 5.01730013 -0.00041971
vt 5.01730013 -0.00041971
vt 5.00207615 -0.00020000
vt 5.01888227 -0.00020000
vt -0.00190625 -0.00241401
vt -0.00825020 0.00259555
vt -0.00260740 -0.00330193
vt -0.00825020 0.00259555
vt -0.00895134 0.00170764
vt -0.00260740 -0.00330193
vt 1.57079637 0.00020000
vt 1.57079637 0.00100000
vt 1.35848701 0.00100000
vt 1.57079637 0.00020000
vt 1.35848701 0.00100000
vt 1.35848701 0.00020000
vt 1.35848701 0.00100000
vt 1.14617765 0.00100000
vt 1.35848701 0.00020000
vt 1.35848701 0.00020000
vt 1.14617765 0.00100000
vt 1.14617765 0.00020000
vt 1.14617765 0.00100000
vt 0.93386835 0.00100000
vt 1.14617765 0.00020000
vt 1.14617765 0.00020000
vt 0.93386835 0.00100000
vt 0.93386835 0.00020000
vt 0.93386835 0.00100000
vt 0.72155905 0.00100000
vt 0.93386835 0.00020000
vt 0.93386835 0.00020000
vt 0.72155905 0.00100000
vt 0.72155905 0.00020000
vt 0.72155905 0.00100000
vt 0.50924975 0.00100000
vt 0.72155905 0.00020000
vt 0.72155905 0.00020000
vt 0.50924975 0.00100000
vt 0.50924975 0.00020000
vt -0.00307591 0.00650000
vt -0.00420729 0.00650000
vt -0.00307591 0.00100000
vt -0.00420729 0.00650000
vt -0.00420729 0.00100000
vt -0.00307591 0.00100000
vt 1.57079637 0.00000000
vt 1.57079637 0.00438750
vt 1.34639680 0.00438750
vt 1.57079637 0.00000000
vt 1.34639680 0.00438750
vt 1.34639680 0.00000000
vt 1.34639680 0.00438750
vt 1.12199736 0.00438750
vt 1.34639680 0.00000000
vt 1.34639680 0.00000000
vt 1.12199736 0.00438750
vt 1.12199736 0.00000000
vt 1.12199736 0.00438750
vt 0.89759791 0.00438750
vt 1.12199736 0.00000000
vt 1.12199736 0.00000000
vt 0.89759791 0.00438750
vt 0.89759791 0.00000000
vt 0.89759791 0.00438750
vt 0.67319840 0.00438750
vt 0.89759791 0.00000000
vt 0.89759791 0.00000000
vt 0.67319840 0.00438750
vt 0.67319840 0.00000000
vt 0.67319840 0.00438750
vt 0.44879895 0.00438750
vt 0.67319840 0.00000000
vt 0.67319840 0.00000000
vt 0.44879895 0.00438750
vt 0.44879895 0.00000000
vt 0.44879895 0.00438750
vt 0.22439948 0.00438750
vt 0.44879895 0.00000000
vt 0.44879895 0.00000000
vt 0.22439948 0.00438750
vt 0.22439948 0.00000000
vt 0.22439948 0.00438750
vt -0.00000000 0.00438750
vt 0.22439948 0.00000000
vt 0.22439948 0.00000000
vt -0.00000000 0.00438750
vt 0.00000000 -0.00000000
vt 0.00000000 0.00000000
vt 0.00000000 0.00438750
vt 0.05950000 -0.00000000
vt 0.00000000 0.00438750
vt 0.05950000 0.00438750
vt 0.05950000 -0.00000000
vt 4.71238899 0.00638750
vt 4.71238899 0.00000000
vt 4.82458878 0.00637492
vt 4.71238899 0.00000000
vt 4.93686628 0.00633324
vt 4.82458878 0.00637492
vt 4.93686628 0.00633324
vt 4.71238899 0.00000000
vt 4.97418833 0.00631935
vt 4.71238899 0.00000000
vt 4.97418833 -0.00000000
vt 4.97418833 0.00631935
vt 4.97418833 0.00631935
vt 4.97418833 -0.00000000
vt 5.16118813 0.00618944
vt 4.97418833 -0.00000000
vt 5.23598766 -0.00000000
vt 5.16118813 0.00618944
vt 5.16118813 0.00618944
vt 5.23598766 -0.00000000
vt 5.23579311 0.00611007
vt 5.49778700 -0.00000000
vt 5.75958633 -0.00000000
vt 5.75976753 0.00538160
vt 5.75976753 0.00538160
vt 5.60998678 0.00563448
vt 5.49778700 -0.00000000
vt 5.60998678 0.00563448
vt 5.49778700 0.00579282
vt 5.49778700 -0.00000000
vt 5.49778700 -0.00000000
vt 5.49778700 0.00579282
vt 5.23598766 -0.00000000
vt 5.49778700 0.00579282
vt 5.38558722 0.00595116
vt 5.23598766 -0.00000000
vt 5.23598766 -0.00000000
vt 5.38558722 0.00595116
vt 5.23579311 0.00611007
vt 6.02138615 -0.00000000
vt 6.28318548 -0.00000000
vt 6.28318548 0.00438750
vt 6.28318548 0.00438750
vt 6.05878592 0.00483254
vt 6.02138615 -0.00000000
vt 6.05878592 0.00483254
vt 6.02160692 0.00490291
vt 6.02138615 -0.00000000
vt 6.02138615 -0.00000000
vt 6.02160692 0.00490291
vt 5.75958633 -0.00000000
vt 6.02160692 0.00490291
vt 5.83438635 0.00525527
vt 5.75958633 -0.00000000
vt 5.75958633 -0.00000000
vt 5.83438635 0.00525527
vt 5.75976753 0.00538160
vt 0.00000000 0.00000000
vt -0.00645449 0.00065000
vt -0.00675809 0.01711704
vt -0.00645449 0.00065000
vt -0.00653395 0.00075355
vt -0.00675809 0.01711704
vt -0.00675809 0.01711704
vt -0.00653395 0.00075355
vt -0.00663750 0.00083301
vt -0.00675809 0.01711704
vt -0.00663750 0.01716699
vt 0.00000000 0.00000000
vt -0.00663750 0.01716699
vt -0.00653395 0.01724645
vt 0.00000000 0.00000000
vt 0.00000000 0.00000000
vt -0.00653395 0.01724645
vt -0.00000000 0.01800000
vt -0.00653395 0.01724645
vt -0.00645449 0.01735000
vt -0.00000000 0.01800000
vt -0.00638750 0.00000000
vt -0.00638750 0.00040000
vt 0.00000000 0.00000000
vt -0.00638750 0.00040000
vt -0.00640454 0.00052941
vt 0.00000000 0.00000000
vt 0.00000000 0.00000000
vt -0.00640454 0.00052941
vt -0.00645449 0.00065000
vt -0.00645449 0.01735000
vt -0.00640454 0.01747059
vt -0.00000000 0.01800000
vt -0.00640454 0.01747059
vt -0.00638750 0.01760000
vt -0.00000000 0.01800000
vt -0.00000000 0.01800000
vt -0.00638750 0.01760000
vt -0.00638750 0.01800000
vt -0.01835750 0.00090000
vt -0.01915750 0.00170000
vt -0.01915750 0.01630000
vt -0.00663750 0.00083301
vt -0.00675809 0.00088296
vt -0.00675809 0.01711704
vt -0.00675809 0.00088296
vt -0.00688750 0.00090000
vt -0.00675809 0.01711704
vt -0.00675809 0.01711704
vt -0.00688750 0.00090000
vt -0.00688750 0.01710000
vt -0.00688750 0.00090000
vt -0.01835750 0.00090000
vt -0.00688750 0.01710000
vt -0.00688750 0.01710000
vt -0.01835750 0.00090000
vt -0.01835750 0.01710000
vt -0.01835750 0.00090000
vt -0.01915750 0.01630000
vt -0.01835750 0.01710000
vt 3.14159274 0.00438750
vt 3.14159274 -0.00000000
vt 3.36599207 -0.00000000
vt 3.14159274 0.00438750
vt 3.36599207 -0.00000000
vt 3.36599207 0.00483254
vt 3.36599207 -0.00000000
vt 3.59039164 -0.00000000
vt 3.36599207 0.00483254
vt 3.36599207 0.00483254
vt 3.59039164 -0.00000000
vt 3.59039164 0.00525527
vt 3.59039164 -0.00000000
vt 3.81479096 -0.00000000
vt 3.59039164 0.00525527
vt 3.59039164 0.00525527
vt 3.81479096 -0.00000000
vt 3.81479096 0.00563448
vt 3.81479096 -0.00000000
vt 4.03919077 -0.00000000
vt 3.81479096 0.00563448
vt 3.81479096 0.00563448
vt 4.03919077 -0.00000000
vt 4.03919077 0.00595116
vt 4.03919077 -0.00000000
vt 4.26358986 -0.00000000
vt 4.03919077 0.00595116
vt 4.03919077 0.00595116
vt 4.26358986 -0.00000000
vt 4.26358986 0.00618944
vt 4.26358986 0.00618944
vt 4.26358986 -0.00000000
vt 4.37578964 0.00627527
vt 4.26358986 -0.00000000
vt 4.48798943 -0.00000000
vt 4.37578964 0.00627527
vt 4.37578964 0.00627527
vt 4.48798943 -0.00000000
vt 4.48798943 0.00633736
vt 4.48798943 0.00633736
vt 4.48798943 -0.00000000
vt 4.60018921 0.00637492
vt 4.48798943 -0.00000000
vt 4.71238899 0.00000000
vt 4.60018921 0.00637492
vt 4.60018921 0.00637492
vt 4.71238899 0.00000000
vt 4.71238899 0.00638750
vt -0.00438750 -0.00000000
vt -0.00438750 0.05950000
vt 0.00000000 0.00000000
vt -0.00438750 0.05950000
vt -0.00000000 0.05950000
vt 0.00000000 0.00000000
vt 3.14159274 0.00000000
vt 3.14159274 0.00438750
vt 2.91680050 0.00438750
vt 3.14159274 0.00000000
vt 2.91680050 0.00438750
vt 2.91719317 0.00000000
vt 2.91680050 0.00438750
vt 2.87979317 0.00438750
vt 2.91719317 0.00000000
vt 2.91719317 0.00000000
vt 2.87979317 0.00438750
vt 2.69279361 0.00000000
vt 2.87979317 0.00438750
vt 2.69239950 0.00438750
vt 2.69279361 0.00000000
vt 2.69239950 0.00438750
vt 2.61799383 0.00438750
vt 2.69279361 0.00000000
vt 2.69279361 0.00000000
vt 2.61799383 0.00438750
vt 2.46839428 0.00000000
vt 2.61799383 0.00438750
vt 2.46823621 0.00438750
vt 2.46839428 0.00000000
vt 2.46823621 0.00438750
vt 2.35619450 0.00438750
vt 2.46839428 0.00000000
vt 2.46839428 0.00000000
vt 2.35619450 0.00438750
vt 2.24399471 0.00000000
vt 2.35619450 0.00438750
vt 2.24415278 0.00438750
vt 2.24399471 0.00000000
vt 2.24415278 0.00438750
vt 2.09439516 0.00438750
vt 2.24399471 0.00000000
vt 2.24399471 0.00000000
vt 2.09439516 0.00438750
vt 2.01959538 0.00000000
vt 2.09439516 0.00438750
vt 2.01998949 0.00438750
vt 2.01959538 0.00000000
vt 2.01998949 0.00438750
vt 1.83259571 0.00438750
vt 2.01959538 0.00000000
vt 2.01959538 0.00000000
vt 1.83259571 0.00438750
vt 1.79519582 0.00000000
vt 1.83259571 0.00438750
vt 1.79558837 0.00438750
vt 1.79519582 0.00000000
vt 1.79558837 0.00438750
vt 1.57079637 0.00438750
vt 1.79519582 0.00000000
vt 1.79519582 0.00000000
vt 1.57079637 0.00438750
vt 1.57079637 0.00000000
vt -0.01400000 -0.00438750
vt -0.01400000 -0.00000000
vt -0.00000000 -0.00438750
vt -0.01400000 -0.00000000
vt 0.00000000 0.00000000
vt -0.00000000 -0.00438750
vt 0.00400000 -0.01400000
vt 0.00400000 -0.00000000
vt -0.06150000 0.00200000
vt -0.06150000 0.00200000
vt -0.06150000 -0.01600000
vt 0.00400000 -0.01400000
vt -0.06150000 -0.01600000
vt -0.05950000 -0.01800000
vt 0.00400000 -0.01400000
vt 0.00400000 -0.01400000
vt -0.05950000 -0.01800000
vt -0.00000000 -0.01800000
vt -0.00000000 -0.01800000
vt 0.00089008 -0.01789971
vt 0.00400000 -0.01400000
vt 0.00089008 -0.01789971
vt 0.00173553 -0.01760388
vt 0.00400000 -0.01400000
vt 0.00400000 -0.01400000
vt 0.00173553 -0.01760388
vt 0.00249396 -0.01712733
vt 0.00249396 -0.01712733
vt 0.00312733 -0.01649396
vt 0.00400000 -0.01400000
vt 0.00312733 -0.01649396
vt 0.00360388 -0.01573553
vt 0.00400000 -0.01400000
vt 0.00400000 -0.01400000
vt 0.00360388 -0.01573553
vt 0.00389971 -0.01489008
vt 0.00400000 -0.00000000
vt 0.00000000 0.00400000
vt -0.06150000 0.00200000
vt 0.00000000 0.00400000
vt -0.05950000 0.00400000
vt -0.06150000 0.00200000
vt -0.06150000 0.00200000
vt -0.05950000 0.00400000
vt -0.06143185 0.00251764
vt -0.06150000 -0.01600000
vt -0.06144986 -0.01644504
vt -0.05950000 -0.01800000
vt -0.06144986 -0.01644504
vt -0.06130194 -0.01686777
vt -0.05950000 -0.01800000
vt -0.05950000 -0.01800000
vt -0.06130194 -0.01686777
vt -0.06106366 -0.01724698
vt -0.06106366 -0.01724698
vt -0.06074698 -0.01756366
vt -0.05950000 -0.01800000
vt -0.06074698 -0.01756366
vt -0.06036777 -0.01780194
vt -0.05950000 -0.01800000
vt -0.05950000 -0.01800000
vt -0.06036777 -0.01780194
vt -0.05994504 -0.01794985
vt 0.00389971 0.00089008
vt 0.00360388 0.00173553
vt 0.00400000 -0.00000000
vt 0.00360388 0.00173553
vt 0.00312733 0.00249396
vt 0.00400000 -0.00000000
vt 0.00400000 -0.00000000
vt 0.00312733 0.00249396
vt 0.00249396 0.00312733
vt -0.06001764 0.00393185
vt -0.06050000 0.00373205
vt -0.06091421 0.00341421
vt 0.00249396 0.00312733
vt 0.00173553 0.00360388
vt 0.00400000 -0.00000000
vt 0.00173553 0.00360388
vt 0.00089008 0.00389971
vt 0.00400000 -0.00000000
vt 0.00400000 -0.00000000
vt 0.00089008 0.00389971
vt 0.00000000 0.00400000
vt -0.06001764 0.00393185
vt -0.06091421 0.00341421
vt -0.05950000 0.00400000
vt -0.06091421 0.00341421
vt -0.06123205 0.00300000
vt -0.05950000 0.00400000
vt -0.05950000 0.00400000
vt -0.06123205 0.00300000
vt -0.06143185 0.00251764
vt 6.28318548 -0.00000000
vt 6.28318548 0.06150000
vt 6.17098570 0.00001258
vt 6.28318548 0.06150000
vt 6.05878592 0.06150000
vt 6.17098570 0.00001258
vt 6.17098570 0.00001258
vt 6.05878592 0.06150000
vt 6.05878592 0.00005014
vt 6.05878592 0.00005014
vt 6.05878592 0.06150000
vt 5.94658613 0.00011223
vt 6.05878592 0.06150000
vt 5.83438635 0.06150000
vt 5.94658613 0.00011223
vt 5.94658613 0.00011223
vt 5.83438635 0.06150000
vt 5.83438635 0.00019806
vt 5.83438635 0.06150000
vt 5.60998678 0.06150000
vt 5.83438635 0.00019806
vt 5.83438635 0.00019806
vt 5.60998678 0.06150000
vt 5.60998678 0.00043634
vt 5.60998678 0.06150000
vt 5.38558722 0.06150000
vt 5.60998678 0.00043634
vt 5.60998678 0.00043634
vt 5.38558722 0.06150000
vt 5.38558722 0.00075302
vt 5.38558722 0.06150000
vt 5.16118813 0.06150000
vt 5.38558722 0.00075302
vt 5.38558722 0.00075302
vt 5.16118813 0.06150000
vt 5.16118813 0.00113223
vt 5.16118813 0.06150000
vt 4.93678856 0.06150000
vt 5.16118813 0.00113223
vt 5.16118813 0.00113223
vt 4.93678856 0.06150000
vt 4.93678856 0.00155496
vt 4.93678856 0.06150000
vt 4.71238899 0.06150000
vt 4.93678856 0.00155496
vt 4.93678856 0.00155496
vt 4.71238899 0.06150000
vt 4.71238899 0.00200000
vt 4.93718100 -0.00000000
vt 4.71238899 0.00000000
vt 4.71238899 -0.22439948
vt 5.16158199 0.00000000
vt 4.97418833 0.00000000
vt 4.97418833 -0.22439948
vt 5.38574553 0.00000000
vt 5.23598766 0.00000000
vt 5.23598766 -0.22439948
vt 5.60982895 -0.00000000
vt 5.49778700 0.00000000
vt 5.49778700 -0.22439948
vt 6.02138615 0.00000000
vt 5.83399200 -0.00000000
vt 5.75958633 -0.22439948
vt 5.60982895 -0.00000000
vt 5.49778700 -0.22439948
vt 5.75958633 0.00000000
vt 6.28318548 -0.00000000
vt 6.05839348 -0.00000000
vt 6.28318548 -0.22439948
vt 6.05839348 -0.00000000
vt 6.02138615 -0.22439948
vt 6.28318548 -0.22439948
vt 6.28318548 -0.22439948
vt 6.02138615 -0.22439948
vt 6.28318548 -0.44879895
vt 6.02138615 -0.22439948
vt 6.02138615 -0.44879895
vt 6.28318548 -0.44879895
vt 6.28318548 -0.44879895
vt 6.02138615 -0.44879895
vt 6.28318548 -0.67319840
vt 6.02138615 -0.44879895
vt 6.02138615 -0.67319840
vt 6.28318548 -0.67319840
vt 6.28318548 -0.67319840
vt 6.02138615 -0.67319840
vt 6.28318548 -0.89759791
vt 6.02138615 -0.67319840
vt 6.02138615 -0.89759791
vt 6.28318548 -0.89759791
vt 6.28318548 -0.89759791
vt 6.02138615 -0.89759791
vt 6.28318548 -1.12199736
vt 6.02138615 -0.89759791
vt 6.02138615 -1.12199736
vt 6.28318548 -1.12199736
vt 6.28318548 -1.12199736
vt 6.02138615 -1.12199736
vt 6.28318548 -1.34639680
vt 6.02138615 -1.12199736
vt 6.02138615 -1.34639680
vt 6.28318548 -1.34639680
vt 6.28318548 -1.34639680
vt 6.02138615 -1.34639680
vt 6.28318548 -1.57079637
vt 6.02138615 -1.34639680
vt 6.02138615 -1.57079637
vt 6.28318548 -1.57079637
vt 6.05839348 -0.00000000
vt 6.02138615 0.00000000
vt 6.02138615 -0.22439948
vt 6.02138615 0.00000000
vt 5.75958633 -0.22439948
vt 6.02138615 -0.22439948
vt 6.02138615 -0.22439948
vt 5.75958633 -0.22439948
vt 6.02138615 -0.44879895
vt 5.75958633 -0.22439948
vt 5.75958633 -0.44879895
vt 6.02138615 -0.44879895
vt 6.02138615 -0.44879895
vt 5.75958633 -0.44879895
vt 6.02138615 -0.67319840
vt 5.75958633 -0.44879895
vt 5.75958633 -0.67319840
vt 6.02138615 -0.67319840
vt 6.02138615 -0.67319840
vt 5.75958633 -0.67319840
vt 6.02138615 -0.89759791
vt 5.75958633 -0.67319840
vt 5.75958633 -0.89759791
vt 6.02138615 -0.89759791
vt 6.02138615 -0.89759791
vt 5.75958633 -0.89759791
vt 6.02138615 -1.12199736
vt 5.75958633 -0.89759791
vt 5.75958633 -1.12199736
vt 6.02138615 -1.12199736
vt 6.02138615 -1.12199736
vt 5.75958633 -1.12199736
vt 6.02138615 -1.34639680
vt 5.75958633 -1.12199736
vt 5.75958633 -1.34639680
vt 6.02138615 -1.34639680
vt 6.02138615 -1.34639680
vt 5.75958633 -1.34639680
vt 6.02138615 -1.57079637
vt 5.75958633 -1.34639680
vt 5.75958633 -1.57079637
vt 6.02138615 -1.57079637
vt 5.83399200 -0.00000000
vt 5.75958633 0.00000000
vt 5.75958633 -0.22439948
vt 5.75958633 0.00000000
vt 5.49778700 -0.22439948
vt 5.75958633 -0.22439948
vt 5.75958633 -0.22439948
vt 5.49778700 -0.22439948
vt 5.75958633 -0.44879895
vt 5.49778700 -0.22439948
vt 5.49778700 -0.44879895
vt 5.75958633 -0.44879895
vt 5.75958633 -0.44879895
vt 5.49778700 -0.44879895
vt 5.75958633 -0.67319840
vt 5.49778700 -0.44879895
vt 5.49778700 -0.67319840
vt 5.75958633 -0.67319840
vt 5.75958633 -0.67319840
vt 5.49778700 -0.67319840
vt 5.75958633 -0.89759791
vt 5.49778700 -0.67319840
vt 5.49778700 -0.89759791
vt 5.75958633 -0.89759791
vt 5.75958633 -0.89759791
vt 5.49778700 -0.89759791
vt 5.75958633 -1.12199736
vt 5.49778700 -0.89759791
vt 5.49778700 -1.12199736
vt 5.75958633 -1.12199736
vt 5.75958633 -1.12199736
vt 5.49778700 -1.12199736
vt 5.75958633 -1.34639680
vt 5.49778700 -1.12199736
vt 5.49778700 -1.34639680
vt 5.75958633 -1.34639680
vt 5.75958633 -1.34639680
vt 5.49778700 -1.34639680
vt 5.75958633 -1.57079637
vt 5.49778700 -1.34639680
vt 5.49778700 -1.57079637
vt 5.75958633 -1.57079637
vt 5.49778700 0.00000000
vt 5.38574553 0.00000000
vt 5.49778700 -0.22439948
vt 5.38574553 0.00000000
vt 5.23598766 -0.22439948
vt 5.49778700 -0.22439948
vt 5.49778700 -0.22439948
vt 5.23598766 -0.22439948
vt 5.49778700 -0.44879895
vt 5.23598766 -0.22439948
vt 5.23598766 -0.44879895
vt 5.49778700 -0.44879895
vt 5.49778700 -0.44879895
vt 5.23598766 -0.44879895
vt 5.49778700 -0.67319840
vt 5.23598766 -0.44879895
vt 5.23598766 -0.67319840
vt 5.49778700 -0.67319840
vt 5.49778700 -0.67319840
vt 5.23598766 -0.67319840
vt 5.49778700 -0.89759791
vt 5.23598766 -0.67319840
vt 5.23598766 -0.89759791
vt 5.49778700 -0.89759791
vt 5.49778700 -0.89759791
vt 5.23598766 -0.89759791
vt 5.49778700 -1.12199736
vt 5.23598766 -0.89759791
vt 5.23598766 -1.12199736
vt 5.49778700 -1.12199736
vt 5.49778700 -1.12199736
vt 5.23598766 -1.12199736
vt 5.49778700 -1.34639680
vt 5.23598766 -1.12199736
vt 5.23598766 -1.34639680
vt 5.49778700 -1.34639680
vt 5.49778700 -1.34639680
vt 5.23598766 -1.34639680
vt 5.49778700 -1.57079637
vt 5.23598766 -1.34639680
vt 5.23598766 -1.57079637
vt 5.49778700 -1.57079637
vt 5.23598766 0.00000000
vt 5.16158199 0.00000000
vt 5.23598766 -0.22439948
vt 5.16158199 0.00000000
vt 4.97418833 -0.22439948
vt 5.23598766 -0.22439948
vt 5.23598766 -0.22439948
vt 4.97418833 -0.22439948
vt 5.23598766 -0.44879895
vt 4.97418833 -0.22439948
vt 4.97418833 -0.44879895
vt 5.23598766 -0.44879895
vt 5.23598766 -0.44879895
vt 4.97418833 -0.44879895
vt 5.23598766 -0.67319840
vt 4.97418833 -0.44879895
vt 4.97418833 -0.67319840
vt 5.23598766 -0.67319840
vt 5.23598766 -0.67319840
vt 4.97418833 -0.67319840
vt 5.23598766 -0.89759791
vt 4.97418833 -0.67319840
vt 4.97418833 -0.89759791
vt 5.23598766 -0.89759791
vt 5.23598766 -0.89759791
vt 4.97418833 -0.89759791
vt 5.23598766 -1.12199736
vt 4.97418833 -0.89759791
vt 4.97418833 -1.12199736
vt 5.23598766 -1.12199736
vt 5.23598766 -1.12199736
vt 4.97418833 -1.12199736
vt 5.23598766 -1.34639680
vt 4.97418833 -1.12199736
vt 4.97418833 -1.34639680
vt 5.23598766 -1.34639680
vt 5.23598766 -1.34639680
vt 4.97418833 -1.34639680
vt 5.23598766 -1.57079637
vt 4.97418833 -1.34639680
vt 4.97418833 -1.57079637
vt 5.23598766 -1.57079637
vt 4.97418833 0.00000000
vt 4.93718100 -0.00000000
vt 4.97418833 -0.22439948
vt 4.93718100 -0.00000000
vt 4.71238899 -0.22439948
vt 4.97418833 -0.22439948
vt 4.97418833 -0.22439948
vt 4.71238899 -0.22439948
vt 4.97418833 -0.44879895
vt 4.71238899 -0.22439948
vt 4.71238899 -0.44879895
vt 4.97418833 -0.44879895
vt 4.97418833 -0.44879895
vt 4.71238899 -0.44879895
vt 4.97418833 -0.67319840
vt 4.71238899 -0.44879895
vt 4.71238899 -0.67319840
vt 4.97418833 -0.67319840
vt 4.97418833 -0.67319840
vt 4.71238899 -0.67319840
vt 4.97418833 -0.89759791
vt 4.71238899 -0.67319840
vt 4.71238899 -0.89759791
vt 4.97418833 -0.89759791
vt 4.97418833 -0.89759791
vt 4.71238899 -0.89759791
vt 4.97418833 -1.12199736
vt 4.71238899 -0.89759791
vt 4.71238899 -1.12199736
vt 4.97418833 -1.12199736
vt 4.97418833 -1.12199736
vt 4.71238899 -1.12199736
vt 4.97418833 -1.34639680
vt 4.71238899 -1.12199736
vt 4.71238899 -1.34639680
vt 4.97418833 -1.34639680
vt 4.97418833 -1.34639680
vt 4.71238899 -1.34639680
vt 4.97418833 -1.57079637
vt 4.71238899 -1.34639680
vt 4.71238899 -1.57079637
vt 4.97418833 -1.57079637
vt 1.57079637 0.01800000
vt 1.34639680 0.01800000
vt 1.57079637 0.00400000
vt 1.34639680 0.01800000
vt 1.34600425 0.00400000
vt 1.57079637 0.00400000
vt 1.34600425 0.00400000
vt 1.34639680 0.01800000
vt 1.30899692 0.00400000
vt 1.34639680 0.01800000
vt 1.12199736 0.01800000
vt 1.30899692 0.00400000
vt 1.30899692 0.00400000
vt 1.12199736 0.01800000
vt 1.12160313 0.00400000
vt 1.12160313 0.00400000
vt 1.12199736 0.01800000
vt 1.04719758 0.00400000
vt 1.12199736 0.01800000
vt 0.89759791 0.01800000
vt 1.04719758 0.00400000
vt 1.04719758 0.00400000
vt 0.89759791 0.01800000
vt 0.89743990 0.00400000
vt 0.89743990 0.00400000
vt 0.89759791 0.01800000
vt 0.78539819 0.00400000
vt 0.89759791 0.01800000
vt 0.67319840 0.01800000
vt 0.78539819 0.00400000
vt 0.78539819 0.00400000
vt 0.67319840 0.01800000
vt 0.67335647 0.00400000
vt 0.67335647 0.00400000
vt 0.67319840 0.01800000
vt 0.52359879 0.00400000
vt 0.67319840 0.01800000
vt 0.44879895 0.01800000
vt 0.52359879 0.00400000
vt 0.52359879 0.00400000
vt 0.44879895 0.01800000
vt 0.44919318 0.00400000
vt 0.44919318 0.00400000
vt 0.44879895 0.01800000
vt 0.26179940 0.00400000
vt 0.44879895 0.01800000
vt 0.22439948 0.01800000
vt 0.26179940 0.00400000
vt 0.26179940 0.00400000
vt 0.22439948 0.01800000
vt 0.22479205 0.00400000
vt 0.22439948 0.01800000
vt -0.00000000 0.01800000
vt 0.22479205 0.00400000
vt 0.22479205 0.00400000
vt -0.00000000 0.01800000
vt -0.00000000 0.00400000
vt 1.57079637 -0.22479205
vt 1.57079637 0.00000000
vt 1.34639680 -0.00000000
vt 1.34639680 -0.26179940
vt 1.57079637 -0.26179940
vt 1.57079637 -0.22479205
vt 1.57079637 -0.22479205
vt 1.34639680 -0.00000000
vt 1.34639680 -0.26179940
vt 1.34639680 -0.00000000
vt 1.12199736 -0.00000000
vt 1.34639680 -0.26179940
vt 1.34639680 -0.26179940
vt 1.12199736 -0.00000000
vt 1.12199736 -0.26179940
vt 1.12199736 -0.00000000
vt 0.89759791 -0.00000000
vt 1.12199736 -0.26179940
vt 1.12199736 -0.26179940
vt 0.89759791 -0.00000000
vt 0.89759791 -0.26179940
vt 0.89759791 -0.00000000
vt 0.67319840 -0.00000000
vt 0.89759791 -0.26179940
vt 0.89759791 -0.26179940
vt 0.67319840 -0.00000000
vt 0.67319840 -0.26179940
vt 0.67319840 -0.00000000
vt 0.44879895 -0.00000000
vt 0.67319840 -0.26179940
vt 0.67319840 -0.26179940
vt 0.44879895 -0.00000000
vt 0.44879895 -0.26179940
vt 0.44879895 -0.00000000
vt 0.22439948 -0.00000000
vt 0.44879895 -0.26179940
vt 0.44879895 -0.26179940
vt 0.22439948 -0.00000000
vt 0.22439948 -0.26179940
vt 0.22439948 -0.00000000
vt 0.00000000 -0.00000000
vt -0.00000000 -0.22479205
vt 1.57079637 -0.67335647
vt 1.57079637 -0.52359879
vt 1.34639680 -0.52359879
vt 1.57079637 -0.52359879
vt 1.57079637 -0.44919318
vt 1.34639680 -0.52359879
vt 0.22439948 -0.00000000
vt -0.00000000 -0.22479205
vt 0.22439948 -0.26179940
vt -0.00000000 -0.22479205
vt -0.00000000 -0.26179940
vt 0.22439948 -0.26179940
vt 0.22439948 -0.26179940
vt -0.00000000 -0.26179940
vt -0.00000000 -0.44919318
vt -0.00000000 -0.44919318
vt 0.22439948 -0.52359879
vt 0.22439948 -0.26179940
vt 0.22439948 -0.52359879
vt 0.44879895 -0.52359879
vt 0.22439948 -0.26179940
vt 0.22439948 -0.26179940
vt 0.44879895 -0.52359879
vt 0.44879895 -0.26179940
vt 0.44879895 -0.52359879
vt 0.67319840 -0.52359879
vt 0.44879895 -0.26179940
vt 0.44879895 -0.26179940
vt 0.67319840 -0.52359879
vt 0.67319840 -0.26179940
vt 0.67319840 -0.52359879
vt 0.89759791 -0.52359879
vt 0.67319840 -0.26179940
vt 0.67319840 -0.26179940
vt 0.89759791 -0.52359879
vt 0.89759791 -0.26179940
vt 0.89759791 -0.52359879
vt 1.12199736 -0.52359879
vt 0.89759791 -0.26179940
vt 0.89759791 -0.26179940
vt 1.12199736 -0.52359879
vt 1.12199736 -0.26179940
vt 1.12199736 -0.52359879
vt 1.34639680 -0.52359879
vt 1.12199736 -0.26179940
vt 1.12199736 -0.26179940
vt 1.34639680 -0.52359879
vt 1.34639680 -0.26179940
vt 1.34639680 -0.52359879
vt 1.57079637 -0.44919318
vt 1.34639680 -0.26179940
vt 1.34639680 -0.26179940
vt 1.57079637 -0.44919318
vt 1.57079637 -0.26179940
vt 1.34639680 -0.78539819
vt 1.57079637 -0.78539819
vt 1.57079637 -0.67335647
vt 1.57079637 -0.67335647
vt 1.34639680 -0.52359879
vt 1.34639680 -0.78539819
vt 1.34639680 -0.52359879
vt 1.12199736 -0.52359879
vt 1.34639680 -0.78539819
vt 1.34639680 -0.78539819
vt 1.12199736 -0.52359879
vt 1.12199736 -0.78539819
vt 1.12199736 -0.52359879
vt 0.89759791 -0.52359879
vt 1.12199736 -0.78539819
vt 1.12199736 -0.78539819
vt 0.89759791 -0.52359879
vt 0.89759791 -0.78539819
vt 0.89759791 -0.52359879
vt 0.67319840 -0.52359879
vt 0.89759791 -0.78539819
vt 0.89759791 -0.78539819
vt 0.67319840 -0.52359879
vt 0.67319840 -0.78539819
vt 0.67319840 -0.52359879
vt 0.44879895 -0.52359879
vt 0.67319840 -0.78539819
vt 0.67319840 -0.78539819
vt 0.44879895 -0.52359879
vt 0.44879895 -0.78539819
vt 0.44879895 -0.52359879
vt 0.22439948 -0.52359879
vt 0.44879895 -0.78539819
vt 0.44879895 -0.78539819
vt 0.22439948 -0.52359879
vt 0.22439948 -0.78539819
vt 1.57079637 -1.12160313
vt 1.57079637 -1.04719758
vt 1.34639680 -1.04719758
vt 1.57079637 -1.04719758
vt 1.57079637 -0.89743990
vt 1.34639680 -1.04719758
vt -0.00000000 -0.44919318
vt -0.00000000 -0.52359879
vt 0.22439948 -0.52359879
vt -0.00000000 -0.52359879
vt -0.00000000 -0.67335647
vt 0.22439948 -0.52359879
vt 0.22439948 -0.52359879
vt -0.00000000 -0.67335647
vt 0.22439948 -0.78539819
vt -0.00000000 -0.67335647
vt -0.00000000 -0.78539819
vt 0.22439948 -0.78539819
vt 0.22439948 -0.78539819
vt -0.00000000 -0.78539819
vt -0.00000000 -0.89743990
vt -0.00000000 -0.89743990
vt 0.22439948 -1.04719758
vt 0.22439948 -0.78539819
vt 0.22439948 -1.04719758
vt 0.44879895 -1.04719758
vt 0.22439948 -0.78539819
vt 0.22439948 -0.78539819
vt 0.44879895 -1.04719758
vt 0.44879895 -0.78539819
vt 0.44879895 -1.04719758
vt 0.67319840 -1.04719758
vt 0.44879895 -0.78539819
vt 0.44879895 -0.78539819
vt 0.67319840 -1.04719758
vt 0.67319840 -0.78539819
vt 0.67319840 -1.04719758
vt 0.89759791 -1.04719758
vt 0.67319840 -0.78539819
vt 0.67319840 -0.78539819
vt 0.89759791 -1.04719758
vt 0.89759791 -0.78539819
vt 0.89759791 -1.04719758
vt 1.12199736 -1.04719758
vt 0.89759791 -0.78539819
vt 0.89759791 -0.78539819
vt 1.12199736 -1.04719758
vt 1.12199736 -0.78539819
vt 1.12199736 -1.04719758
vt 1.34639680 -1.04719758
vt 1.12199736 -0.78539819
vt 1.12199736 -0.78539819
vt 1.34639680 -1.04719758
vt 1.34639680 -0.78539819
vt 1.34639680 -1.04719758
vt 1.57079637 -0.89743990
vt 1.34639680 -0.78539819
vt 1.34639680 -0.78539819
vt 1.57079637 -0.89743990
vt 1.57079637 -0.78539819
vt 1.57079637 -1.34600425
vt 1.57079637 -1.30899692
vt 1.34639680 -1.30899692
vt 1.57079637 -1.30899692
vt 1.57079637 -1.12160313
vt 1.34639680 -1.30899692
vt 1.57079637 -1.12160313
vt 1.34639680 -1.04719758
vt 1.34639680 -1.30899692
vt 1.34639680 -1.04719758
vt 1.12199736 -1.04719758
vt 1.34639680 -1.30899692
vt 1.34639680 -1.30899692
vt 1.12199736 -1.04719758
vt 1.12199736 -1.30899692
vt 1.12199736 -1.04719758
vt 0.89759791 -1.04719758
vt 1.12199736 -1.30899692
vt 1.12199736 -1.30899692
vt 0.89759791 -1.04719758
vt 0.89759791 -1.30899692
vt 0.89759791 -1.04719758
vt 0.67319840 -1.04719758
vt 0.89759791 -1.30899692
vt 0.89759791 -1.30899692
vt 0.67319840 -1.04719758
vt 0.67319840 -1.30899692
vt 0.67319840 -1.04719758
vt 0.44879895 -1.04719758
vt 0.67319840 -1.30899692
vt 0.67319840 -1.30899692
vt 0.44879895 -1.04719758
vt 0.44879895 -1.30899692
vt 0.44879895 -1.04719758
vt 0.22439948 -1.04719758
vt 0.44879895 -1.30899692
vt 0.44879895 -1.30899692
vt 0.22439948 -1.04719758
vt 0.22439948 -1.30899692
vt 1.34639680 -1.57079637
vt 1.57079637 -1.57079637
vt 1.57079637 -1.34600425
vt -0.00000000 -0.89743990
vt -0.00000000 -1.04719758
vt 0.22439948 -1.04719758
vt -0.00000000 -1.04719758
vt -0.00000000 -1.12160313
vt 0.22439948 -1.04719758
vt 0.22439948 -1.04719758
vt -0.00000000 -1.12160313
vt 0.22439948 -1.30899692
vt -0.00000000 -1.12160313
vt -0.00000000 -1.30899692
vt 0.22439948 -1.30899692
vt 0.22439948 -1.30899692
vt -0.00000000 -1.30899692
vt 0.00000000 -1.34600425
vt 1.57079637 -1.34600425
vt 1.34639680 -1.30899692
vt 1.34639680 -1.57079637
vt 1.34639680 -1.30899692
vt 1.12199736 -1.30899692
vt 1.34639680 -1.57079637
vt 1.34639680 -1.57079637
vt 1.12199736 -1.30899692
vt 1.12199736 -1.57079637
vt 1.12199736 -1.30899692
vt 0.89759791 -1.30899692
vt 1.12199736 -1.57079637
vt 1.12199736 -1.57079637
vt 0.89759791 -1.30899692
vt 0.89759791 -1.57079637
vt 0.89759791 -1.30899692
vt 0.67319840 -1.30899692
vt 0.89759791 -1.57079637
vt 0.89759791 -1.57079637
vt 0.67319840 -1.30899692
vt 0.67319840 -1.57079637
vt 0.67319840 -1.30899692
vt 0.44879895 -1.30899692
vt 0.67319840 -1.57079637
vt 0.67319840 -1.57079637
vt 0.44879895 -1.30899692
vt 0.44879895 -1.57079637
vt 0.44879895 -1.30899692
vt 0.22439948 -1.30899692
vt 0.44879895 -1.57079637
vt 0.44879895 -1.57079637
vt 0.22439948 -1.30899692
vt 0.22439948 -1.57079637
vt 0.22439948 -1.30899692
vt 0.00000000 -1.34600425
vt 0.22439948 -1.57079637
vt 0.22439948 -1.57079637
vt 0.00000000 -1.34600425
vt 0.00000000 -1.57079637
vt 1.57079637 0.06150000
vt 1.34600425 0.06150000
vt 1.57079637 0.00200000
vt 1.34600425 0.06150000
vt 1.34639680 0.00155496
vt 1.57079637 0.00200000
vt 1.34639680 0.00155496
vt 1.34600425 0.06150000
vt 1.30921769 0.00148459
vt 1.34600425 0.06150000
vt 1.30899692 0.06150000
vt 1.30921769 0.00148459
vt 1.30921769 0.00148459
vt 1.30899692 0.06150000
vt 1.12160313 0.06150000
vt 0.89759791 0.00075302
vt 1.04737842 0.00100590
vt 1.12160313 0.06150000
vt 1.04737842 0.00100590
vt 1.12199736 0.00113223
vt 1.12160313 0.06150000
vt 1.12160313 0.06150000
vt 1.12199736 0.00113223
vt 1.30921769 0.00148459
vt 1.12160313 0.06150000
vt 1.04719758 0.06150000
vt 0.89759791 0.00075302
vt 1.04719758 0.06150000
vt 0.89743990 0.06150000
vt 0.89759791 0.00075302
vt 0.89759791 0.00075302
vt 0.89743990 0.06150000
vt 0.78539819 0.00059468
vt 0.89743990 0.06150000
vt 0.67319840 0.00043634
vt 0.78539819 0.00059468
vt 0.89743990 0.06150000
vt 0.78539819 0.06150000
vt 0.67319840 0.00043634
vt 0.78539819 0.06150000
vt 0.67335647 0.06150000
vt 0.67319840 0.00043634
vt 0.67319840 0.00043634
vt 0.67335647 0.06150000
vt 0.52340412 0.00027743
vt 0.67335647 0.06150000
vt 0.44879895 0.00019806
vt 0.52340412 0.00027743
vt 0.67335647 0.06150000
vt 0.52359879 0.06150000
vt 0.44879895 0.00019806
vt 0.52359879 0.06150000
vt 0.44919318 0.06150000
vt 0.44879895 0.00019806
vt 0.44879895 0.00019806
vt 0.44919318 0.06150000
vt 0.26179940 0.00006815
vt 0.44919318 0.06150000
vt 0.26179940 0.06150000
vt 0.26179940 0.00006815
vt 0.26179940 0.00006815
vt 0.26179940 0.06150000
vt 0.22447717 0.00005426
vt 0.26179940 0.06150000
vt 0.22479205 0.06150000
vt 0.22447717 0.00005426
vt 0.22447717 0.00005426
vt 0.22479205 0.06150000
vt 0.11219974 0.00001258
vt 0.22479205 0.06150000
vt 0.00000000 0.06150000
vt 0.11219974 0.00001258
vt 0.11219974 0.00001258
vt 0.00000000 0.06150000
vt 0.00000000 -0.00000000
vt -0.06550000 -0.02000000
vt -0.06550000 -0.01960000
vt -0.04700000 -0.01960000
vt -0.06550000 -0.00240000
vt -0.06550000 -0.00200000
vt -0.04700000 -0.00240000
vt -0.06550000 -0.00200000
vt -0.00400000 -0.00200000
vt -0.04700000 -0.00240000
vt -0.00200000 -0.00400000
vt -0.00200000 -0.01800000
vt -0.04700000 -0.01960000
vt -0.06550000 -0.02000000
vt -0.04700000 -0.01960000
vt -0.00400000 -0.02000000
vt -0.04700000 -0.01960000
vt -0.00200000 -0.01800000
vt -0.00400000 -0.02000000
vt -0.00400000 -0.02000000
vt -0.00200000 -0.01800000
vt -0.00348236 -0.01993185
vt -0.00400000 -0.00200000
vt -0.00355496 -0.00205014
vt -0.00313223 -0.00219806
vt -0.00313223 -0.00219806
vt -0.00275302 -0.00243634
vt -0.00400000 -0.00200000
vt -0.00275302 -0.00243634
vt -0.00243634 -0.00275302
vt -0.00400000 -0.00200000
vt -0.00400000 -0.00200000
vt -0.00243634 -0.00275302
vt -0.00219806 -0.00313223
vt -0.04700000 -0.01960000
vt -0.04700000 -0.00240000
vt -0.00200000 -0.00400000
vt -0.04700000 -0.00240000
vt -0.00400000 -0.00200000
vt -0.00200000 -0.00400000
vt -0.00200000 -0.00400000
vt -0.00400000 -0.00200000
vt -0.00205014 -0.00355496
vt -0.00400000 -0.00200000
vt -0.00219806 -0.00313223
vt -0.00205014 -0.00355496
vt -0.00200000 -0.01800000
vt -0.00206815 -0.01851764
vt -0.00348236 -0.01993185
vt -0.00206815 -0.01851764
vt -0.00226795 -0.01900000
vt -0.00348236 -0.01993185
vt -0.00348236 -0.01993185
vt -0.00226795 -0.01900000
vt -0.00300000 -0.01973205
vt -0.00226795 -0.01900000
vt -0.00258579 -0.01941421
vt -0.00300000 -0.01973205
usemtl Gray_Nurse
f 62/1 61/2 110/3
f 110/4 61/5 109/6
f 61/7 67/8 109/9
f 109/10 67/11 108/12
f 67/13 60/14 108/15
f 108/16 60/17 107/18
f 60/19 55/20 107/21
f 107/22 55/23 106/24
f 55/25 54/26 106/27
f 106/28 54/29 105/30
f 54/31 66/32 105/33
f 105/34 66/35 104/36
f 104/37 66/38 102/39
f 66/40 65/41 102/42
f 102/43 65/44 103/45
f 103/46 65/47 100/48
f 65/49 70/50 100/51
f 100/52 70/53 101/54
f 101/55 70/56 98/57
f 70/58 69/59 98/60
f 98/61 69/62 99/63
f 99/64 69/65 96/66
f 69/67 64/68 96/69
f 96/70 64/71 97/72
f 97/73 64/74 94/75
f 64/76 59/77 94/78
f 94/79 59/80 95/81
f 95/82 59/83 93/84
f 59/85 53/86 93/87
f 93/88 53/89 92/90
f 53/91 52/92 92/93
f 92/94 52/95 91/96
f 52/97 51/98 91/99
f 91/100 51/101 90/102
f 51/103 50/104 90/105
f 90/106 50/107 89/108
f 50/109 49/110 89/111
f 89/112 49/113 88/114
f 49/115 58/116 88/117
f 88/118 58/119 87/120
f 87/121 58/122 85/123
f 58/124 57/125 85/126
f 85/127 57/128 86/129
f 86/130 57/131 83/132
f 57/133 56/134 83/135
f 83/136 56/137 84/138
f 63/139 81/140 56/141
f 81/142 82/143 56/144
f 56/145 82/146 84/147
f 71/148 77/149 72/150
f 77/151 79/152 72/153
f 72/154 79/155 63/156
f 79/157 80/158 63/159
f 63/160 80/161 81/162
f 68/163 75/164 71/165
f 75/166 78/167 71/168
f 71/169 78/170 77/171
f 110/172 74/173 62/174
f 74/175 73/176 62/177
f 62/178 73/179 68/180
f 73/181 76/182 68/183
f 68/184 76/185 75/186
f 124/187 123/188 111/189
f 123/190 112/191 111/192
f 110/193 122/194 74/195
f 122/196 121/197 74/198
f 119/199 76/200 121/201
f 76/202 73/203 121/204
f 121/205 73/206 74/207
f 115/208 118/209 82/210
f 82/211 81/212 115/213
f 81/214 80/215 115/216
f 115/217 80/218 79/219
f 79/220 77/221 120/222
f 77/223 78/224 120/225
f 120/226 78/227 119/228
f 78/229 75/230 119/231
f 119/232 75/233 76/234
f 116/235 117/236 85/237
f 85/238 86/239 116/240
f 86/241 83/242 116/243
f 116/244 83/245 118/246
f 83/247 84/248 118/249
f 118/250 84/251 82/252
f 79/253 120/254 115/255
f 120/256 114/257 115/258
f 115/259 114/260 113/261
f 114/262 111/263 113/264
f 113/265 111/266 112/267
f 85/268 117/269 87/270
f 117/271 88/272 87/273
f 122/274 110/275 109/276
f 170/277 90/278 117/279
f 90/280 89/281 117/282
f 117/283 89/284 88/285
f 109/286 108/287 122/288
f 108/289 107/290 122/291
f 122/292 107/293 132/294
f 101/295 98/296 148/297
f 98/298 99/299 148/300
f 148/301 99/302 169/303
f 99/304 96/305 169/306
f 102/307 103/308 148/309
f 103/310 100/311 148/312
f 148/313 100/314 101/315
f 96/316 97/317 169/318
f 97/319 94/320 169/321
f 169/322 94/323 95/324
f 107/325 106/326 132/327
f 106/328 105/329 132/330
f 132/331 105/332 148/333
f 105/334 104/335 148/336
f 148/337 104/338 102/339
f 95/340 93/341 169/342
f 93/343 92/344 169/345
f 169/346 92/347 170/348
f 92/349 91/350 170/351
f 170/352 91/353 90/354
f 174/355 185/356 161/357
f 178/358 175/359 140/360
f 140/361 175/362 152/363
f 148/364 169/365 147/366
f 169/367 184/368 147/369
f 147/370 184/371 146/372
f 184/373 182/374 146/375
f 146/376 182/377 145/378
f 182/379 183/380 145/381
f 145/382 183/383 144/384
f 183/385 180/386 144/387
f 144/388 180/389 143/390
f 180/391 181/392 143/393
f 143/394 181/395 139/396
f 181/397 179/398 139/399
f 139/400 179/401 140/402
f 179/403 177/404 140/405
f 140/406 177/407 178/408
f 160/409 159/410 172/411
f 159/412 157/413 172/414
f 172/415 157/416 176/417
f 157/418 156/419 176/420
f 176/421 156/422 175/423
f 156/424 153/425 175/426
f 175/427 153/428 152/429
f 160/430 172/431 161/432
f 172/433 173/434 161/435
f 161/436 173/437 174/438
f 188/439 186/440 190/441
f 186/442 189/443 190/444
f 188/445 187/446 186/447
f 187/448 171/449 186/450
f 186/451 171/452 168/453
f 168/454 167/455 186/456
f 167/457 166/458 186/459
f 186/460 166/461 165/462
f 165/463 164/464 186/465
f 164/466 163/467 186/468
f 186/469 163/470 162/471
f 194/472 195/473 196/474
f 195/475 197/476 196/477
f 196/478 197/479 198/480
f 197/481 189/482 198/483
f 198/484 189/485 186/486
f 175/487 178/488 194/489
f 178/490 177/491 194/492
f 194/493 177/494 195/495
f 175/496 194/497 176/498
f 194/499 193/500 176/501
f 176/502 193/503 172/504
f 193/505 192/506 172/507
f 172/508 192/509 173/510
f 173/511 192/512 174/513
f 192/514 191/515 174/516
f 174/517 191/518 185/519
f 133/520 137/521 134/522
f 137/523 135/524 134/525
f 135/526 136/527 134/528
f 134/529 136/530 138/531
f 134/532 126/533 125/534
f 129/535 128/536 134/537
f 128/538 127/539 134/540
f 134/541 127/542 133/543
f 125/544 131/545 134/546
f 131/547 130/548 134/549
f 134/550 130/551 129/552
f 155/553 159/554 158/555
f 159/556 160/557 158/558
f 158/559 160/560 161/561
f 154/562 151/563 152/564
f 152/565 153/566 154/567
f 153/568 156/569 154/570
f 154/571 156/572 155/573
f 156/574 157/575 155/576
f 155/577 157/578 159/579
f 134/580 138/581 149/582
f 138/583 142/584 149/585
f 149/586 142/587 150/588
f 142/589 141/590 150/591
f 150/592 141/593 151/594
f 141/595 140/596 151/597
f 151/598 140/599 152/600
f 112/601 123/602 163/603
f 123/604 162/605 163/606
f 168/607 117/608 116/609
f 168/610 116/611 167/612
f 116/613 118/614 167/615
f 167/616 118/617 166/618
f 118/619 115/620 166/621
f 166/622 115/623 165/624
f 115/625 113/626 165/627
f 165/628 113/629 164/630
f 113/631 112/632 164/633
f 164/634 112/635 163/636
f 170/637 117/638 171/639
f 117/640 168/641 171/642
f 170/643 171/644 169/645
f 171/646 187/647 169/648
f 169/649 187/650 184/651
f 184/652 187/653 182/654
f 187/655 188/656 182/657
f 182/658 188/659 183/660
f 190/661 181/662 188/663
f 181/664 180/665 188/666
f 188/667 180/668 183/669
f 190/670 189/671 181/672
f 189/673 197/674 181/675
f 181/676 197/677 179/678
f 197/679 195/680 179/681
f 179/682 195/683 177/684
f 7/685 50/686 8/687
f 50/688 51/689 8/690
f 8/691 51/692 9/693
f 51/694 52/695 9/696
f 9/697 52/698 10/699
f 52/700 53/701 10/702
f 10/703 53/704 11/705
f 53/706 59/707 11/708
f 11/709 59/710 12/711
f 59/712 64/713 12/714
f 12/715 64/716 13/717
f 64/718 69/719 13/720
f 13/721 69/722 14/723
f 69/724 70/725 14/726
f 14/727 70/728 15/729
f 70/730 65/731 15/732
f 15/733 65/734 16/735
f 65/736 66/737 16/738
f 16/739 66/740 17/741
f 66/742 54/743 17/744
f 17/745 54/746 18/747
f 54/748 55/749 18/750
f 18/751 55/752 19/753
f 55/754 60/755 19/756
f 19/757 60/758 20/759
f 60/760 67/761 20/762
f 20/763 67/764 21/765
f 67/766 61/767 21/768
f 21/769 61/770 22/771
f 61/772 62/773 22/774
f 22/775 62/776 23/777
f 62/778 68/779 23/780
f 23/781 68/782 24/783
f 68/784 71/785 24/786
f 24/787 71/788 1/789
f 71/790 72/791 1/792
f 1/793 72/794 2/795
f 72/796 63/797 2/798
f 2/799 63/800 3/801
f 63/802 56/803 3/804
f 3/805 56/806 4/807
f 56/808 57/809 4/810
f 4/811 57/812 5/813
f 57/814 58/815 5/816
f 5/817 58/818 6/819
f 58/820 49/821 6/822
f 6/823 49/824 7/825
f 49/826 50/827 7/828
f 26/829 2/830 25/831
f 2/832 3/833 25/834
f 25/835 3/836 27/837
f 3/838 4/839 27/840
f 27/841 4/842 28/843
f 4/844 5/845 28/846
f 28/847 5/848 29/849
f 5/850 6/851 29/852
f 29/853 6/854 30/855
f 6/856 7/857 30/858
f 30/859 7/860 31/861
f 7/862 8/863 31/864
f 31/865 8/866 32/867
f 8/868 9/869 32/870
f 32/871 9/872 33/873
f 9/874 10/875 33/876
f 33/877 10/878 34/879
f 10/880 11/881 34/882
f 34/883 11/884 35/885
f 11/886 12/887 35/888
f 35/889 12/890 36/891
f 12/892 13/893 36/894
f 36/895 13/896 37/897
f 13/898 14/899 37/900
f 37/901 14/902 38/903
f 14/904 15/905 38/906
f 38/907 15/908 39/909
f 15/910 16/911 39/912
f 39/913 16/914 40/915
f 16/916 17/917 40/918
f 40/919 17/920 41/921
f 17/922 18/923 41/924
f 41/925 18/926 42/927
f 18/928 19/929 42/930
f 42/931 19/932 43/933
f 19/934 20/935 43/936
f 43/937 20/938 44/939
f 20/940 21/941 44/942
f 44/943 21/944 45/945
f 21/946 22/947 45/948
f 45/949 22/950 46/951
f 22/952 23/953 46/954
f 46/955 23/956 47/957
f 23/958 24/959 47/960
f 47/961 24/962 48/963
f 24/964 1/965 48/966
f 48/967 1/968 26/969
f 1/970 2/971 26/972
f 133/973 132/974 148/975
f 133/976 148/977 137/978
f 148/979 147/980 137/981
f 147/982 146/983 137/984
f 137/985 146/986 135/987
f 143/988 136/989 144/990
f 136/991 135/992 144/993
f 144/994 135/995 145/996
f 135/997 146/998 145/999
f 140/1000 141/1001 139/1002
f 141/1003 142/1004 139/1005
f 139/1006 142/1007 143/1008
f 142/1009 138/1010 143/1011
f 143/1012 138/1013 136/1014
f 122/1015 132/1016 127/1017
f 132/1018 133/1019 127/1020
f 125/1021 111/1022 114/1023
f 125/1024 114/1025 131/1026
f 114/1027 120/1028 131/1029
f 131/1030 120/1031 130/1032
f 120/1033 119/1034 130/1035
f 130/1036 119/1037 129/1038
f 119/1039 121/1040 129/1041
f 129/1042 121/1043 128/1044
f 121/1045 122/1046 128/1047
f 128/1048 122/1049 127/1050
f 111/1051 125/1052 124/1053
f 125/1054 126/1055 124/1056
usemtl Cod_Gray
f 248/1057 249/1058 247/1059
f 248/1060 247/1061 246/1062
f 247/1063 245/1064 246/1065
f 246/1066 245/1067 244/1068
f 245/1069 243/1070 244/1071
f 244/1072 243/1073 242/1074
f 243/1075 241/1076 242/1077
f 242/1078 241/1079 240/1080
f 241/1081 239/1082 240/1083
f 240/1084 239/1085 238/1086
f 239/1087 237/1088 238/1089
f 238/1090 237/1091 236/1092
f 237/1093 222/1094 236/1095
f 236/1096 222/1097 223/1098
f 223/1099 222/1100 206/1101
f 222/1102 203/1103 206/1104
f 201/1105 200/1106 220/1107
f 200/1108 219/1109 220/1110
f 219/1111 200/1112 221/1113
f 200/1114 217/1115 221/1116
f 221/1117 217/1118 216/1119
f 217/1120 215/1121 216/1122
f 216/1123 215/1124 218/1125
f 212/1126 209/1127 210/1128
f 210/1129 211/1130 212/1131
f 211/1132 213/1133 212/1134
f 212/1135 213/1136 215/1137
f 213/1138 214/1139 215/1140
f 215/1141 214/1142 218/1143
f 205/1144 206/1145 203/1146
f 203/1147 204/1148 205/1149
f 204/1150 207/1151 205/1152
f 205/1153 207/1154 209/1155
f 207/1156 208/1157 209/1158
f 209/1159 208/1160 210/1161
f 200/1162 193/1163 149/1164
f 193/1165 194/1166 149/1167
f 149/1168 194/1169 196/1170
f 149/1171 150/1172 200/1173
f 150/1174 151/1175 200/1176
f 200/1177 151/1178 199/1179
f 151/1180 154/1181 199/1182
f 201/1183 191/1184 200/1185
f 191/1186 192/1187 200/1188
f 200/1189 192/1190 193/1191
f 154/1192 155/1193 199/1194
f 155/1195 158/1196 199/1197
f 199/1198 158/1199 202/1200
f 162/1201 123/1202 124/1203
f 196/1204 198/1205 149/1206
f 198/1207 186/1208 149/1209
f 149/1210 186/1211 134/1212
f 186/1213 162/1214 134/1215
f 134/1216 162/1217 126/1218
f 162/1219 124/1220 126/1221
f 322/1222 300/1223 312/1224
f 322/1225 312/1226 321/1227
f 312/1228 302/1229 321/1230
f 321/1231 302/1232 320/1233
f 302/1234 301/1235 320/1236
f 320/1237 301/1238 319/1239
f 301/1240 304/1241 319/1242
f 319/1243 304/1244 318/1245
f 304/1246 303/1247 318/1248
f 318/1249 303/1250 317/1251
f 317/1252 303/1253 315/1254
f 303/1255 309/1256 315/1257
f 315/1258 309/1259 316/1260
f 316/1261 309/1262 314/1263
f 309/1264 199/1265 314/1266
f 314/1267 199/1268 202/1269
f 322/1270 323/1271 300/1272
f 323/1273 311/1274 300/1275
f 311/1276 323/1277 340/1278
f 311/1279 340/1280 307/1281
f 340/1282 339/1283 307/1284
f 307/1285 339/1286 308/1287
f 339/1288 338/1289 308/1290
f 338/1291 337/1292 308/1293
f 308/1294 337/1295 305/1296
f 337/1297 336/1298 305/1299
f 336/1300 335/1301 305/1302
f 305/1303 335/1304 306/1305
f 335/1306 334/1307 306/1308
f 334/1309 333/1310 306/1311
f 306/1312 333/1313 310/1314
f 333/1315 332/1316 310/1317
f 332/1318 331/1319 310/1320
f 310/1321 331/1322 313/1323
f 331/1324 341/1325 313/1326
f 341/1327 299/1328 313/1329
f 313/1330 299/1331 298/1332
f 249/1333 248/1334 299/1335
f 248/1336 298/1337 299/1338
f 298/1339 248/1340 200/1341
f 200/1342 199/1343 298/1344
f 199/1345 300/1346 298/1347
f 298/1348 300/1349 311/1350
f 311/1351 307/1352 298/1353
f 307/1354 308/1355 298/1356
f 298/1357 308/1358 305/1359
f 305/1360 306/1361 298/1362
f 306/1363 310/1364 298/1365
f 298/1366 310/1367 313/1368
f 248/1369 223/1370 200/1371
f 223/1372 206/1373 200/1374
f 200/1375 206/1376 217/1377
f 199/1378 309/1379 300/1380
f 309/1381 303/1382 300/1383
f 300/1384 303/1385 304/1386
f 304/1387 301/1388 300/1389
f 301/1390 302/1391 300/1392
f 300/1393 302/1394 312/1395
f 246/1396 244/1397 248/1398
f 244/1399 242/1400 248/1401
f 248/1402 242/1403 240/1404
f 205/1405 209/1406 212/1407
f 240/1408 238/1409 248/1410
f 238/1411 236/1412 248/1413
f 248/1414 236/1415 223/1416
f 205/1417 212/1418 206/1419
f 212/1420 215/1421 206/1422
f 206/1423 215/1424 217/1425
f 202/1426 330/1427 314/1428
f 330/1429 348/1430 314/1431
f 314/1432 348/1433 316/1434
f 316/1435 348/1436 315/1437
f 348/1438 349/1439 315/1440
f 315/1441 349/1442 317/1443
f 349/1444 350/1445 317/1446
f 317/1447 350/1448 318/1449
f 350/1450 351/1451 318/1452
f 318/1453 351/1454 319/1455
f 351/1456 352/1457 319/1458
f 319/1459 352/1460 320/1461
f 352/1462 353/1463 320/1464
f 320/1465 353/1466 321/1467
f 353/1468 323/1469 321/1470
f 321/1471 323/1472 322/1473
f 340/1474 323/1475 353/1476
f 338/1477 339/1478 354/1479
f 336/1480 337/1481 355/1482
f 334/1483 335/1484 356/1485
f 331/1486 332/1487 357/1488
f 334/1489 356/1490 333/1491
f 299/1492 341/1493 347/1494
f 341/1495 358/1496 347/1497
f 347/1498 358/1499 346/1500
f 358/1501 359/1502 346/1503
f 346/1504 359/1505 345/1506
f 359/1507 360/1508 345/1509
f 345/1510 360/1511 344/1512
f 360/1513 361/1514 344/1515
f 344/1516 361/1517 342/1518
f 361/1519 362/1520 342/1521
f 342/1522 362/1523 343/1524
f 362/1525 363/1526 343/1527
f 343/1528 363/1529 328/1530
f 363/1531 329/1532 328/1533
f 341/1534 331/1535 358/1536
f 331/1537 357/1538 358/1539
f 358/1540 357/1541 359/1542
f 357/1543 364/1544 359/1545
f 359/1546 364/1547 360/1548
f 364/1549 365/1550 360/1551
f 360/1552 365/1553 361/1554
f 365/1555 366/1556 361/1557
f 361/1558 366/1559 362/1560
f 366/1561 367/1562 362/1563
f 362/1564 367/1565 363/1566
f 367/1567 368/1568 363/1569
f 363/1570 368/1571 329/1572
f 368/1573 324/1574 329/1575
f 332/1576 333/1577 357/1578
f 333/1579 356/1580 357/1581
f 357/1582 356/1583 364/1584
f 356/1585 369/1586 364/1587
f 364/1588 369/1589 365/1590
f 369/1591 370/1592 365/1593
f 365/1594 370/1595 366/1596
f 370/1597 371/1598 366/1599
f 366/1600 371/1601 367/1602
f 371/1603 372/1604 367/1605
f 367/1606 372/1607 368/1608
f 372/1609 373/1610 368/1611
f 368/1612 373/1613 324/1614
f 373/1615 325/1616 324/1617
f 335/1618 336/1619 356/1620
f 336/1621 355/1622 356/1623
f 356/1624 355/1625 369/1626
f 355/1627 374/1628 369/1629
f 369/1630 374/1631 370/1632
f 374/1633 375/1634 370/1635
f 370/1636 375/1637 371/1638
f 375/1639 376/1640 371/1641
f 371/1642 376/1643 372/1644
f 376/1645 377/1646 372/1647
f 372/1648 377/1649 373/1650
f 377/1651 378/1652 373/1653
f 373/1654 378/1655 325/1656
f 378/1657 326/1658 325/1659
f 337/1660 338/1661 355/1662
f 338/1663 354/1664 355/1665
f 355/1666 354/1667 374/1668
f 354/1669 379/1670 374/1671
f 374/1672 379/1673 375/1674
f 379/1675 380/1676 375/1677
f 375/1678 380/1679 376/1680
f 380/1681 381/1682 376/1683
f 376/1684 381/1685 377/1686
f 381/1687 382/1688 377/1689
f 377/1690 382/1691 378/1692
f 382/1693 383/1694 378/1695
f 378/1696 383/1697 326/1698
f 383/1699 327/1700 326/1701
f 339/1702 340/1703 354/1704
f 340/1705 353/1706 354/1707
f 354/1708 353/1709 379/1710
f 353/1711 352/1712 379/1713
f 379/1714 352/1715 380/1716
f 352/1717 351/1718 380/1719
f 380/1720 351/1721 381/1722
f 351/1723 350/1724 381/1725
f 381/1726 350/1727 382/1728
f 350/1729 349/1730 382/1731
f 382/1732 349/1733 383/1734
f 349/1735 348/1736 383/1737
f 383/1738 348/1739 327/1740
f 348/1741 330/1742 327/1743
f 299/1744 347/1745 249/1746
f 347/1747 266/1748 249/1749
f 266/1750 347/1751 265/1752
f 347/1753 346/1754 265/1755
f 265/1756 346/1757 264/1758
f 264/1759 346/1760 263/1761
f 346/1762 345/1763 263/1764
f 263/1765 345/1766 262/1767
f 262/1768 345/1769 261/1770
f 345/1771 344/1772 261/1773
f 261/1774 344/1775 260/1776
f 260/1777 344/1778 259/1779
f 344/1780 342/1781 259/1782
f 259/1783 342/1784 258/1785
f 258/1786 342/1787 252/1788
f 342/1789 343/1790 252/1791
f 252/1792 343/1793 251/1794
f 343/1795 328/1796 251/1797
f 251/1798 328/1799 267/1800
f 234/1801 222/1802 237/1803
f 268/1804 235/1805 234/1806
f 234/1807 237/1808 268/1809
f 237/1810 239/1811 268/1812
f 268/1813 239/1814 269/1815
f 239/1816 241/1817 269/1818
f 269/1819 241/1820 270/1821
f 241/1822 243/1823 270/1824
f 270/1825 243/1826 271/1827
f 243/1828 245/1829 271/1830
f 271/1831 245/1832 272/1833
f 245/1834 247/1835 272/1836
f 272/1837 247/1838 273/1839
f 247/1840 249/1841 266/1842
f 230/1843 233/1844 274/1845
f 233/1846 232/1847 274/1848
f 247/1849 266/1850 273/1851
f 266/1852 265/1853 273/1854
f 273/1855 265/1856 264/1857
f 264/1858 275/1859 273/1860
f 275/1861 276/1862 273/1863
f 273/1864 276/1865 272/1866
f 276/1867 277/1868 272/1869
f 272/1870 277/1871 271/1872
f 277/1873 278/1874 271/1875
f 271/1876 278/1877 270/1878
f 278/1879 279/1880 270/1881
f 270/1882 279/1883 269/1884
f 279/1885 274/1886 269/1887
f 269/1888 274/1889 268/1890
f 274/1891 232/1892 268/1893
f 268/1894 232/1895 235/1896
f 280/1897 231/1898 230/1899
f 230/1900 274/1901 280/1902
f 274/1903 279/1904 280/1905
f 280/1906 279/1907 281/1908
f 279/1909 278/1910 281/1911
f 281/1912 278/1913 282/1914
f 278/1915 277/1916 282/1917
f 282/1918 277/1919 283/1920
f 277/1921 276/1922 283/1923
f 283/1924 276/1925 284/1926
f 276/1927 275/1928 284/1929
f 284/1930 275/1931 285/1932
f 227/1933 229/1934 286/1935
f 229/1936 228/1937 286/1938
f 264/1939 263/1940 275/1941
f 263/1942 262/1943 275/1944
f 275/1945 262/1946 285/1947
f 262/1948 261/1949 285/1950
f 285/1951 261/1952 260/1953
f 260/1954 287/1955 285/1956
f 287/1957 288/1958 285/1959
f 285/1960 288/1961 284/1962
f 288/1963 289/1964 284/1965
f 284/1966 289/1967 283/1968
f 289/1969 290/1970 283/1971
f 283/1972 290/1973 282/1974
f 290/1975 291/1976 282/1977
f 282/1978 291/1979 281/1980
f 291/1981 286/1982 281/1983
f 281/1984 286/1985 280/1986
f 286/1987 228/1988 280/1989
f 280/1990 228/1991 231/1992
f 224/1993 226/1994 292/1995
f 226/1996 227/1997 292/1998
f 227/1999 286/2000 292/2001
f 286/2002 291/2003 292/2004
f 292/2005 291/2006 293/2007
f 291/2008 290/2009 293/2010
f 293/2011 290/2012 294/2013
f 290/2014 289/2015 294/2016
f 294/2017 289/2018 295/2019
f 289/2020 288/2021 295/2022
f 295/2023 288/2024 296/2025
f 288/2026 287/2027 296/2028
f 296/2029 287/2030 297/2031
f 257/2032 225/2033 224/2034
f 260/2035 259/2036 287/2037
f 259/2038 258/2039 287/2040
f 287/2041 258/2042 297/2043
f 258/2044 252/2045 297/2046
f 297/2047 252/2048 251/2049
f 224/2050 292/2051 257/2052
f 292/2053 293/2054 257/2055
f 257/2056 293/2057 256/2058
f 293/2059 294/2060 256/2061
f 256/2062 294/2063 255/2064
f 294/2065 295/2066 255/2067
f 255/2068 295/2069 254/2070
f 295/2071 296/2072 254/2073
f 254/2074 296/2075 253/2076
f 296/2077 297/2078 253/2079
f 253/2080 297/2081 250/2082
f 297/2083 251/2084 250/2085
f 250/2086 251/2087 267/2088
f 222/2089 234/2090 203/2091
f 234/2092 204/2093 203/2094
f 204/2095 234/2096 207/2097
f 234/2098 235/2099 207/2100
f 207/2101 235/2102 232/2103
f 211/2104 210/2105 232/2106
f 210/2107 208/2108 232/2109
f 232/2110 208/2111 207/2112
f 232/2113 233/2114 211/2115
f 233/2116 230/2117 211/2118
f 211/2119 230/2120 213/2121
f 230/2122 214/2123 213/2124
f 230/2125 231/2126 214/2127
f 231/2128 228/2129 214/2130
f 214/2131 228/2132 218/2133
f 228/2134 216/2135 218/2136
f 228/2137 229/2138 216/2139
f 229/2140 227/2141 216/2142
f 216/2143 227/2144 221/2145
f 227/2146 226/2147 221/2148
f 221/2149 226/2150 219/2151
f 226/2152 224/2153 219/2154
f 219/2155 224/2156 220/2157
f 224/2158 225/2159 220/2160
f 220/2161 225/2162 201/2163
f 202/2164 158/2165 161/2166
f 191/2167 201/2168 185/2169
f 201/2170 225/2171 185/2172
f 267/2173 328/2174 161/2175
f 202/2176 161/2177 330/2178
f 161/2179 328/2180 330/2181
f 330/2182 328/2183 327/2184
f 225/2185 257/2186 256/2187
f 256/2188 255/2189 225/2190
f 255/2191 254/2192 225/2193
f 225/2194 254/2195 253/2196
f 161/2197 185/2198 267/2199
f 185/2200 225/2201 267/2202
f 267/2203 225/2204 250/2205
f 225/2206 253/2207 250/2208
f 328/2209 329/2210 327/2211
f 329/2212 324/2213 327/2214
f 327/2215 324/2216 326/2217
f 324/2218 325/2219 326/2220
