# Exported from USD: /World/gantry/gantry_home/ur10_flattened/ur10_instanceable/base_link/ur10_base/ID125_001fa3
mtllib ID125_001fa3.mtl

g ID125_001fa3
v 3.17848458 -0.28600012 0.19009201
v 3.17790792 -0.30400012 0.18951536
v 3.17849891 -0.30400012 0.19001233
v 3.17798759 -0.28600012 0.18950102
v 3.17800036 -0.28515664 0.18925082
v 3.17803423 -0.28451933 0.18888491
v 3.17800038 -0.28474814 0.18884151
v 3.17800002 -0.28452862 0.18832658
v 3.17803850 -0.28423796 0.18800101
v 3.17799043 -0.28449933 0.18799987
v 3.17803438 -0.28541503 0.18963438
v 3.17799555 -0.28600015 0.18950033
v 3.17799977 -0.28567117 0.18947142
v 3.17821691 -0.28599874 0.18997631
v 3.17819756 -0.28490107 0.18959785
v 3.17830143 -0.28415080 0.18875554
v 3.17850018 -0.28394827 0.18800056
v 3.17850104 -0.28462624 0.18950988
v 3.17850010 -0.28599846 0.19003459
v 3.17848458 -0.28390810 0.17000000
v 3.17790792 -0.28448475 0.18799999
v 3.17849891 -0.28398778 0.18799999
v 3.17798760 -0.28449909 0.17000000
v 3.17800036 -0.28474916 0.16915673
v 3.17803425 -0.28511508 0.16851927
v 3.17800038 -0.28515810 0.16874837
v 3.17800003 -0.28567318 0.16852860
v 3.17803847 -0.28599910 0.16823795
v 3.17799045 -0.28600024 0.16849921
v 3.17803437 -0.28436573 0.16941493
v 3.17799555 -0.28449978 0.17000002
v 3.17799977 -0.28452869 0.16967104
v 3.17821691 -0.28402380 0.16999861
v 3.17819758 -0.28440227 0.16890093
v 3.17830137 -0.28524452 0.16815073
v 3.17850018 -0.28599955 0.16794814
v 3.17850104 -0.28448986 0.16862656
v 3.17850010 -0.28396553 0.16999834
v 3.17799993 -0.30400012 0.16849999
v 3.17790792 -0.28600012 0.16848463
v 3.17808306 -0.30400012 0.16817987
v 3.17849891 -0.28600012 0.16798763
v 3.17849918 -0.30400012 0.16799066
v 3.17800002 -0.30547158 0.16967323
v 3.17800039 -0.30525199 0.16915836
v 3.17803424 -0.30548090 0.16911502
v 3.17803851 -0.30576227 0.16999898
v 3.17799042 -0.30550090 0.17000012
v 3.17800035 -0.30484377 0.16874928
v 3.17803438 -0.30458519 0.16836559
v 3.17799556 -0.30400009 0.16849966
v 3.17799975 -0.30432954 0.16852867
v 3.17821688 -0.30400150 0.16802372
v 3.17819762 -0.30509913 0.16840206
v 3.17830145 -0.30584943 0.16924443
v 3.17850019 -0.30605197 0.16999943
v 3.17850104 -0.30537411 0.16849027
v 3.17850010 -0.30400178 0.16796535
v 3.17848458 -0.30609213 0.18799999
v 3.17798759 -0.30550114 0.18799999
v 3.17790792 -0.30551548 0.17000000
v 3.17849891 -0.30601245 0.17000000
v 3.17800036 -0.30525087 0.18884354
v 3.17803424 -0.30488501 0.18948081
v 3.17800038 -0.30484174 0.18925187
v 3.17800003 -0.30432688 0.18947146
v 3.17803851 -0.30400113 0.18976216
v 3.17799043 -0.30399999 0.18950078
v 3.17803437 -0.30563450 0.18858507
v 3.17799555 -0.30550045 0.18799996
v 3.17799976 -0.30547152 0.18832906
v 3.17821691 -0.30597643 0.18800137
v 3.17819756 -0.30559798 0.18909902
v 3.17830144 -0.30475564 0.18984932
v 3.17850018 -0.30400068 0.19005185
v 3.17850105 -0.30550988 0.18937400
v 3.17850010 -0.30603469 0.18800165
v 3.19349994 -0.28396090 0.18800183
v 3.17849994 -0.28439209 0.18933799
v 3.19349994 -0.28466212 0.18960802
v 3.17849994 -0.28599828 0.19003922
v 3.19349994 -0.28599976 0.19000946
v 3.17849994 -0.28399065 0.18800035
v 3.19349994 -0.30400012 0.18999999
v 3.17849994 -0.28600012 0.18999999
v 3.17849994 -0.30400012 0.18999999
v 3.19349994 -0.28600012 0.18999999
v 3.19349994 -0.30400196 0.19003922
v 3.17849994 -0.30533811 0.18960802
v 3.19349994 -0.30560814 0.18933799
v 3.17849994 -0.30603933 0.18800183
v 3.19349994 -0.30600958 0.18800035
v 3.17849994 -0.30400047 0.19000946
v 3.19349994 -0.30600011 0.18799999
v 3.17849994 -0.30600011 0.18799999
v 3.17849994 -0.30600011 0.17000000
v 3.19349994 -0.30600011 0.17000000
v 3.19349994 -0.30603934 0.16999816
v 3.17849994 -0.30560823 0.16866213
v 3.19349994 -0.30533813 0.16839199
v 3.17849994 -0.30400196 0.16796077
v 3.19349994 -0.30400047 0.16799052
v 3.17849994 -0.30600958 0.16999964
v 3.19349994 -0.30400012 0.16799999
v 3.17849994 -0.28600012 0.16799999
v 3.19349994 -0.28600012 0.16799999
v 3.17849994 -0.30400012 0.16799999
v 3.19349994 -0.28599828 0.16796077
v 3.17849994 -0.28466210 0.16839199
v 3.19349994 -0.28439201 0.16866213
v 3.17849994 -0.28396089 0.16999816
v 3.19349994 -0.28399065 0.16999964
v 3.17849994 -0.28599976 0.16799052
v 3.17849994 -0.28400011 0.18799999
v 3.19349994 -0.28400011 0.17000000
v 3.17849994 -0.28400011 0.17000000
v 3.19349994 -0.28400011 0.18799999
v 3.17799993 -0.28547381 0.16972180
v 3.17799993 -0.28493775 0.16893871
v 3.17799993 -0.28577386 0.16944456
v 3.17799993 -0.30452651 0.18827810
v 3.17799993 -0.30506293 0.18906083
v 3.17799993 -0.30422610 0.18855561
v 3.17799993 -0.30421726 0.18949048
v 3.17799993 -0.30387851 0.18869020
v 3.17799993 -0.30471956 0.18932571
v 3.17799993 -0.28572214 0.18852650
v 3.17799993 -0.28578069 0.18949036
v 3.17799993 -0.28528029 0.18932568
v 3.17799993 -0.30532580 0.18871980
v 3.17799993 -0.28493932 0.18906283
v 3.17799993 -0.28544466 0.18822619
v 3.17799993 -0.28450964 0.18821716
v 3.17799993 -0.28467440 0.18871949
v 3.17799993 -0.28530994 0.18787855
v 3.17799993 -0.28530994 0.17012020
v 3.17799993 -0.28450975 0.16978055
v 3.17799993 -0.30427831 0.16947368
v 3.17799993 -0.30421967 0.16850966
v 3.17799993 -0.30472005 0.16867437
v 3.17799993 -0.28528081 0.16867422
v 3.17799993 -0.28578312 0.16850952
v 3.17799993 -0.28612158 0.16930981
v 3.17799993 -0.28467446 0.16928010
v 3.17799993 -0.30455556 0.16977376
v 3.17799993 -0.30506091 0.16893710
v 3.17799993 -0.30549060 0.16978284
v 3.17799993 -0.30532586 0.16928062
v 3.17799993 -0.30469030 0.17012151
v 3.17799993 -0.30549047 0.18821948
v 3.17799993 -0.28612055 0.18869019
v 3.17799993 -0.30469030 0.18787968
v 3.17799993 -0.30387991 0.16930982
v 3.19408302 -0.28189625 0.16598702
v 3.19399993 -0.28217462 0.16614504
v 3.19390789 -0.27602897 0.17693930
v 3.19449891 -0.27559665 0.17669390
v 3.19449918 -0.28173158 0.16589357
v 3.19405043 -0.28293628 0.16484680
v 3.19399036 -0.28217386 0.16614478
v 3.19418499 -0.28180826 0.16593686
v 3.19399952 -0.28244319 0.16573156
v 3.19424901 -0.28231261 0.16520066
v 3.19449929 -0.28304047 0.16452559
v 3.19450013 -0.28169267 0.16586811
v 3.19406922 -0.28418383 0.16428079
v 3.19449958 -0.28410792 0.16408223
v 3.19448963 -0.28500144 0.16392393
v 3.19399336 -0.28499964 0.16448736
v 3.19399960 -0.28354212 0.16483659
v 3.19399934 -0.28294348 0.16522813
v 3.19399943 -0.28420944 0.16459368
v 3.19408307 -0.30500012 0.16417986
v 3.19399993 -0.30500012 0.16449999
v 3.19390792 -0.28500011 0.16448463
v 3.19449891 -0.28500011 0.16398764
v 3.19449918 -0.30500012 0.16399066
v 3.19405043 -0.30650522 0.16452153
v 3.19399038 -0.30499998 0.16449921
v 3.19418496 -0.30500029 0.16407868
v 3.19399955 -0.30549246 0.16452954
v 3.19424903 -0.30588957 0.16415379
v 3.19449929 -0.30683577 0.16445339
v 3.19450012 -0.30500302 0.16394424
v 3.19406922 -0.30761338 0.16532703
v 3.19449958 -0.30774876 0.16516325
v 3.19448963 -0.30832730 0.16586176
v 3.19399335 -0.30783639 0.16613841
v 3.19399959 -0.30681289 0.16504310
v 3.19399935 -0.30617644 0.16471573
v 3.19399944 -0.30735339 0.16550320
v 3.19408302 -0.31423627 0.17678882
v 3.19399993 -0.31395791 0.17694689
v 3.19390790 -0.30783897 0.16613747
v 3.19449891 -0.30827128 0.16589208
v 3.19449918 -0.31440095 0.17669539
v 3.19450002 -0.30669410 0.19364532
v 3.19424908 -0.30768771 0.19279931
v 3.19450012 -0.30830759 0.19213188
v 3.19450014 -0.30500094 0.19402315
v 3.19423504 -0.30500096 0.19396783
v 3.19405790 -0.30645594 0.19351985
v 3.19399035 -0.30782641 0.19185520
v 3.19406189 -0.30812865 0.19202756
v 3.19399953 -0.30755700 0.19226850
v 3.19399335 -0.30500059 0.19351264
v 3.19399934 -0.30705696 0.19277165
v 3.19399962 -0.30645859 0.19316316
v 3.19399945 -0.30579147 0.19340615
v 3.19390792 -0.30500012 0.19351536
v 3.19449891 -0.30500012 0.19401233
v 3.19448458 -0.28500011 0.19409202
v 3.19398761 -0.28500011 0.19350102
v 3.19449493 -0.28307002 0.19353709
v 3.19418843 -0.28418821 0.19384318
v 3.19450049 -0.28499970 0.19405121
v 3.19405078 -0.28260354 0.19288573
v 3.19399038 -0.28500025 0.19350078
v 3.19401174 -0.28500014 0.19369053
v 3.19399955 -0.28450765 0.19347046
v 3.19449957 -0.28225161 0.19283691
v 3.19449724 -0.28171350 0.19211581
v 3.19395808 -0.28216004 0.19186197
v 3.19399937 -0.28382431 0.19328448
v 3.19399956 -0.28318769 0.19295716
v 3.19399944 -0.28264703 0.19249697
v 3.19390790 -0.28216123 0.19186254
v 3.19449891 -0.28172894 0.19210789
v 3.19408302 -0.27576396 0.18121114
v 3.19449918 -0.27559928 0.18130459
v 3.19399993 -0.27604232 0.18105319
v 3.19450081 -0.27496294 0.17857771
v 3.19449991 -0.27559694 0.17669441
v 3.19422989 -0.27563283 0.17671564
v 3.19405478 -0.27519045 0.17857869
v 3.19449896 -0.27519341 0.18040515
v 3.19400029 -0.27570164 0.17769496
v 3.19399195 -0.27603786 0.17694436
v 3.19406757 -0.27539220 0.18034326
v 3.19399975 -0.27578284 0.18053047
v 3.19392563 -0.27603396 0.18106011
v 3.19449806 -0.27558874 0.18131098
v 3.19399788 -0.27553582 0.17960842
v 3.19399980 -0.27550722 0.17863626
v 3.19402078 -0.28355999 0.18855111
v 3.19375617 -0.28405927 0.18878380
v 3.19385359 -0.28474910 0.18972866
v 3.19387212 -0.28544234 0.19006508
v 3.19385857 -0.28600018 0.19011577
v 3.19400414 -0.28600009 0.19049966
v 3.19400127 -0.28566807 0.19048191
v 3.19350016 -0.28520086 0.18986674
v 3.19350014 -0.28433756 0.18914322
v 3.19350012 -0.28599980 0.19000140
v 3.19350086 -0.28397377 0.18800319
v 3.19406441 -0.28350317 0.18800242
v 3.19399943 -0.28507130 0.19033001
v 3.19400574 -0.28443520 0.18996027
v 3.19400242 -0.28374258 0.18909202
v 3.19400025 -0.28404044 0.18955487
v 3.19351529 -0.28600012 0.18990805
v 3.19381985 -0.30400012 0.19008297
v 3.19401229 -0.28600012 0.19049896
v 3.19400931 -0.30400012 0.19049922
v 3.19349994 -0.30400012 0.18999999
v 3.19402079 -0.30455134 0.19044010
v 3.19375624 -0.30478397 0.18994086
v 3.19385358 -0.30572873 0.18925105
v 3.19387212 -0.30606521 0.18855777
v 3.19385857 -0.30611589 0.18799994
v 3.19400414 -0.30649978 0.18800002
v 3.19400127 -0.30648202 0.18833217
v 3.19350016 -0.30586686 0.18879924
v 3.19350014 -0.30514340 0.18966250
v 3.19350012 -0.30600153 0.18800032
v 3.19350085 -0.30400330 0.19002636
v 3.19406453 -0.30400254 0.19049693
v 3.19399943 -0.30633014 0.18892879
v 3.19400574 -0.30596039 0.18956491
v 3.19400242 -0.30509212 0.19025754
v 3.19400025 -0.30555499 0.18995967
v 3.19351529 -0.30590817 0.18799999
v 3.19381985 -0.30608309 0.17000000
v 3.19401229 -0.30649909 0.18799999
v 3.19400931 -0.30649935 0.17000000
v 3.19349994 -0.30600011 0.17000000
v 3.19402079 -0.30644022 0.16944877
v 3.19375624 -0.30594097 0.16921608
v 3.19385357 -0.30525103 0.16827131
v 3.19383110 -0.30400221 0.16785252
v 3.19401219 -0.30434088 0.16752028
v 3.19400414 -0.30400014 0.16750033
v 3.19350016 -0.30479938 0.16813328
v 3.19350014 -0.30566261 0.16885665
v 3.19350012 -0.30400044 0.16799858
v 3.19350086 -0.30602648 0.16999682
v 3.19406453 -0.30649706 0.16999757
v 3.19399944 -0.30492909 0.16767005
v 3.19400574 -0.30556483 0.16803955
v 3.19400241 -0.30625759 0.16890780
v 3.19400025 -0.30595998 0.16844535
v 3.19391677 -0.30400012 0.16782018
v 3.19350070 -0.30400012 0.16800932
v 3.19381982 -0.28600012 0.16791701
v 3.19349994 -0.28600012 0.16799999
v 3.19400931 -0.28600012 0.16750076
v 3.19399993 -0.30400012 0.16749999
v 3.19385358 -0.28427139 0.16874909
v 3.19402082 -0.28544846 0.16755997
v 3.19375640 -0.28521624 0.16805903
v 3.19387213 -0.28393502 0.16944223
v 3.19385857 -0.28388434 0.17000006
v 3.19400414 -0.28350045 0.16999997
v 3.19400127 -0.28351820 0.16966795
v 3.19350016 -0.28413335 0.16920079
v 3.19350013 -0.28485656 0.16833773
v 3.19350012 -0.28399871 0.16999968
v 3.19350083 -0.28599693 0.16797367
v 3.19406456 -0.28599768 0.16750303
v 3.19399943 -0.28367007 0.16907124
v 3.19400574 -0.28403957 0.16843546
v 3.19400242 -0.28490791 0.16774255
v 3.19400026 -0.28444505 0.16804045
v 3.19351529 -0.28409213 0.17000000
v 3.19350097 -0.28401245 0.18799999
v 3.19409195 -0.28351547 0.18799999
v 3.19401226 -0.28350114 0.17000000
v 3.19449994 -0.27556992 0.18131969
v 3.19599994 -0.27491964 0.17928499
v 3.19449994 -0.27491964 0.17871500
v 3.19599994 -0.27556992 0.17668029
v 3.19449994 -0.27559832 0.17669514
v 3.19599994 -0.27559832 0.18130485
v 3.19599994 -0.28173972 0.19210179
v 3.19449994 -0.27560742 0.18129999
v 3.19449994 -0.28173972 0.19210179
v 3.19599994 -0.27560742 0.18129999
v 3.19449993 -0.28499850 0.19404402
v 3.19599994 -0.28499980 0.19401074
v 3.19599994 -0.28373928 0.19380898
v 3.19449993 -0.28286087 0.19340955
v 3.19599994 -0.28233079 0.19293147
v 3.19449994 -0.28173057 0.19210735
v 3.19599994 -0.28173972 0.19210179
v 3.19599994 -0.30500012 0.19399999
v 3.19449994 -0.28500011 0.19399999
v 3.19449994 -0.30500012 0.19399999
v 3.19599994 -0.28500011 0.19399999
v 3.19599994 -0.30826051 0.16589818
v 3.19599994 -0.31439281 0.17669999
v 3.19449994 -0.31439281 0.17669999
v 3.19449994 -0.30826051 0.16589818
v 3.19449993 -0.30705152 0.16451761
v 3.19449994 -0.30500100 0.16397305
v 3.19599994 -0.30679756 0.16436976
v 3.19599994 -0.30500044 0.16398926
v 3.19599994 -0.30828349 0.16588412
v 3.19449994 -0.30826965 0.16589263
v 3.19599994 -0.30500012 0.16399999
v 3.19449994 -0.30500012 0.16399999
v 3.19449994 -0.28500011 0.16399999
v 3.19599994 -0.28500011 0.16399999
v 3.19449994 -0.28320267 0.16436976
v 3.19449994 -0.28171674 0.16588412
v 3.19599994 -0.28294872 0.16451761
v 3.19599994 -0.28173058 0.16589263
v 3.19599994 -0.28499924 0.16397305
v 3.19449994 -0.28499980 0.16398926
v 3.19599994 -0.27560742 0.17669999
v 3.19449994 -0.28173972 0.16589818
v 3.19449994 -0.27560742 0.17669999
v 3.19599994 -0.28173972 0.16589818
v 3.17799993 -0.28548071 0.16961885
v 3.19599994 -0.28561896 0.16948059
v 3.19599994 -0.28529072 0.17029947
v 3.17799993 -0.28530012 0.17029999
v 3.17799993 -0.28629958 0.16929059
v 3.19599994 -0.28630012 0.16929999
v 3.19599994 -0.30370012 0.16929999
v 3.17799993 -0.28630011 0.16929999
v 3.17799993 -0.30370012 0.16929999
v 3.19599994 -0.28630012 0.16929999
v 3.17799993 -0.30438127 0.16948059
v 3.19599994 -0.30451953 0.16961885
v 3.19599994 -0.30370065 0.16929059
v 3.17799993 -0.30370012 0.16929999
v 3.17799993 -0.30470951 0.17029947
v 3.19599994 -0.30470011 0.17029999
v 3.17799993 -0.30470011 0.18769999
v 3.19599994 -0.30470011 0.17029999
v 3.17799993 -0.30470011 0.17029999
v 3.19599994 -0.30470011 0.18769999
v 3.17799993 -0.30451953 0.18838114
v 3.19599994 -0.30438126 0.18851941
v 3.19599994 -0.30470951 0.18770052
v 3.17799993 -0.30470011 0.18769999
v 3.17799993 -0.30370065 0.18870941
v 3.19599994 -0.30370012 0.18869999
v 3.19599994 -0.30370012 0.18869999
v 3.17799993 -0.30370012 0.18869999
v 3.17799993 -0.28630011 0.18869999
v 3.19599994 -0.28630012 0.18869999
v 3.17799993 -0.28561897 0.18851941
v 3.19599994 -0.28548070 0.18838114
v 3.19599994 -0.28629958 0.18870941
v 3.17799993 -0.28630011 0.18869999
v 3.17799993 -0.28529072 0.18770053
v 3.19599994 -0.28530012 0.18769999
v 3.19599994 -0.28530012 0.17029999
v 3.19599994 -0.28530012 0.18769999
v 3.17799993 -0.28530012 0.18769999
v 3.17799993 -0.28530012 0.17029999
v 3.19599994 -0.30500173 0.19404402
v 3.19449994 -0.30626096 0.19380898
v 3.19599994 -0.30713936 0.19340955
v 3.19449994 -0.30766944 0.19293147
v 3.19599994 -0.30826967 0.19210735
v 3.19449994 -0.30826051 0.19210179
v 3.19449994 -0.30500043 0.19401074
v 3.19390792 -0.31397130 0.18106072
v 3.19449891 -0.31440358 0.18130609
v 3.19408302 -0.30810398 0.19201298
v 3.19449918 -0.30826865 0.19210639
v 3.19399993 -0.30782562 0.19185499
v 3.19399993 -0.27549309 0.17912080
v 3.19399993 -0.27832212 0.17952554
v 3.19399993 -0.27560770 0.17996047
v 3.19399993 -0.27825013 0.17907744
v 3.19399993 -0.27586072 0.17728865
v 3.19399993 -0.27932833 0.17737507
v 3.19399993 -0.27881451 0.17770140
v 3.19399993 -0.27557792 0.17815579
v 3.19399993 -0.27848174 0.17812056
v 3.19399993 -0.27828302 0.17862023
v 3.19399993 -0.28572441 0.16750895
v 3.19399993 -0.28420941 0.16459373
v 3.19399993 -0.28476152 0.16450542
v 3.19399993 -0.28354215 0.16483660
v 3.19399993 -0.28507264 0.16767004
v 3.19399993 -0.28286254 0.16529151
v 3.19399993 -0.30608119 0.16467657
v 3.19399993 -0.30681290 0.16504314
v 3.19399993 -0.30492886 0.16766999
v 3.19399993 -0.30428003 0.16750928
v 3.19399993 -0.30564024 0.16809469
v 3.19399993 -0.30754744 0.16570571
v 3.19399993 -0.30606527 0.16858830
v 3.19399993 -0.30633030 0.16907302
v 3.19399993 -0.28350910 0.18827579
v 3.19399993 -0.28067191 0.18062492
v 3.19399993 -0.28118572 0.18029859
v 3.19399993 -0.31118572 0.18029859
v 3.19399993 -0.31151849 0.17987943
v 3.19399993 -0.31414553 0.18069824
v 3.19399993 -0.31449777 0.17923889
v 3.19399993 -0.31171721 0.17937976
v 3.19399993 -0.31175010 0.17892255
v 3.19399993 -0.31439563 0.17994597
v 3.19399993 -0.31067190 0.18062492
v 3.19399993 -0.31022813 0.18073702
v 3.19399993 -0.30523919 0.19349454
v 3.19399993 -0.30427586 0.19049101
v 3.19399993 -0.30579150 0.19340611
v 3.19399993 -0.30645856 0.19316314
v 3.19399993 -0.30492707 0.19033019
v 3.19399993 -0.30713815 0.19270807
v 3.19399993 -0.28507154 0.19033007
v 3.19399993 -0.28391895 0.19332338
v 3.19399993 -0.28318769 0.19295712
v 3.19399993 -0.28572001 0.19049067
v 3.19399993 -0.28245279 0.19229430
v 3.19399993 -0.28435967 0.18990503
v 3.19399993 -0.28393490 0.18941154
v 3.19399993 -0.28366993 0.18892697
v 3.19399993 -0.27585976 0.18070935
v 3.19399993 -0.27860334 0.18006837
v 3.19399993 -0.27911624 0.18052589
v 3.19399993 -0.27976745 0.18074305
v 3.19399993 -0.28022813 0.18073702
v 3.19399993 -0.28171722 0.17937975
v 3.19399993 -0.28175010 0.17892257
v 3.19399993 -0.28350944 0.16971991
v 3.19399993 -0.31445223 0.17828551
v 3.19399993 -0.30825013 0.17907743
v 3.19399993 -0.30832211 0.17952553
v 3.19399993 -0.30649078 0.18828020
v 3.19399993 -0.30649113 0.16972425
v 3.19399993 -0.28139689 0.17793162
v 3.19399993 -0.28088400 0.17747410
v 3.19399993 -0.30881451 0.17770140
v 3.19399993 -0.30848173 0.17812057
v 3.19399993 -0.31414532 0.17730117
v 3.19399993 -0.30932832 0.17737507
v 3.19399993 -0.28023279 0.17725694
v 3.19399993 -0.27977209 0.17726297
v 3.19399993 -0.28451329 0.16798467
v 3.19399993 -0.28234607 0.16586330
v 3.19399993 -0.30911624 0.18052589
v 3.19399993 -0.30860334 0.18006837
v 3.19399993 -0.28151850 0.17987941
v 3.19399993 -0.30976745 0.18074305
v 3.19399993 -0.31167811 0.17847445
v 3.19399993 -0.31139689 0.17793161
v 3.19399993 -0.31088399 0.17747410
v 3.19399993 -0.31023278 0.17725694
v 3.19399993 -0.30977209 0.17726297
v 3.19399993 -0.30828301 0.17862024
v 3.19399993 -0.28167812 0.17847446
v 3.19399993 -0.30532875 0.16450997
v 3.19399993 -0.28367002 0.16907147
v 3.19399993 -0.28403950 0.16843482
v 3.19399993 -0.28467092 0.19348998
v 3.19399993 -0.30765419 0.19213667
v 3.19399993 -0.30633020 0.18892856
v 3.19399993 -0.30541166 0.19006521
v 3.19399993 -0.30590515 0.18964044
v 3.19599994 -0.30826051 0.19210179
v 3.19449994 -0.30826051 0.19210179
v 3.19449994 -0.31439281 0.18129999
v 3.19599994 -0.31439281 0.18129999
v 3.19399928 -0.31448633 0.17947748
v 3.19405482 -0.31480983 0.17942127
v 3.19399968 -0.31422264 0.18051709
v 3.19406755 -0.31460808 0.17765693
v 3.19399996 -0.31430236 0.17770501
v 3.19393873 -0.31396658 0.17693940
v 3.19449896 -0.31480683 0.17759484
v 3.19450081 -0.31503730 0.17942228
v 3.19422989 -0.31436740 0.18128435
v 3.19449991 -0.31440329 0.18130558
v 3.19449806 -0.31441149 0.17668902
v 3.19398742 -0.31395881 0.18105372
v 3.19399859 -0.31447727 0.17852125
v 3.19599994 -0.31443031 0.18131969
v 3.19449994 -0.31508059 0.17928499
v 3.19599994 -0.31508059 0.17871500
v 3.19449994 -0.31443031 0.17668029
v 3.19599994 -0.31440192 0.17669514
v 3.19449994 -0.31440192 0.18130485
v 3.19599994 -0.27934907 0.17731899
v 3.19399993 -0.27919940 0.17739265
v 3.19399992 -0.28065117 0.17731899
v 3.19599994 -0.27841005 0.17820744
v 3.19399993 -0.27841856 0.17821234
v 3.19599994 -0.27824434 0.17899970
v 3.19399993 -0.27823720 0.17899931
v 3.19599992 -0.28080084 0.17739265
v 3.19399993 -0.28159019 0.17820745
v 3.19599994 -0.28158168 0.17821234
v 3.19399993 -0.28175589 0.17899970
v 3.19599994 -0.28176304 0.17899931
v 3.19599993 -0.30919938 0.18060733
v 3.19599995 -0.31065116 0.18068098
v 3.19399993 -0.30934907 0.18068098
v 3.19599994 -0.30841856 0.17978765
v 3.19399993 -0.30841005 0.17979256
v 3.19599994 -0.30823720 0.17900068
v 3.19399993 -0.30824433 0.17900029
v 3.19399994 -0.31080086 0.18060733
v 3.19599994 -0.31159017 0.17979257
v 3.19399993 -0.31158167 0.17978766
v 3.19599994 -0.31175590 0.17900029
v 3.19399993 -0.31176303 0.17900068
v 3.19599993 -0.27919938 0.18060733
v 3.19599994 -0.28065117 0.18068098
v 3.19399993 -0.27934907 0.18068098
v 3.19599994 -0.27841856 0.17978765
v 3.19399993 -0.27841006 0.17979257
v 3.19599994 -0.27823720 0.17900068
v 3.19399993 -0.27824433 0.17900029
v 3.19399994 -0.28080086 0.18060733
v 3.19599994 -0.28159018 0.17979256
v 3.19399993 -0.28158167 0.17978765
v 3.19599994 -0.28175591 0.17900029
v 3.19399993 -0.28176303 0.17900068
v 3.19599994 -0.27560742 0.18129999
v 3.19599994 -0.27835552 0.17959839
v 3.19599994 -0.27500012 0.17900000
v 3.19599994 -0.28173972 0.16589818
v 3.19599994 -0.28559301 0.16959289
v 3.19599994 -0.28601207 0.16933297
v 3.19599994 -0.28500011 0.16399999
v 3.19599994 -0.28370972 0.16422901
v 3.19599994 -0.28257702 0.16488818
v 3.19599994 -0.30466728 0.18798760
v 3.19599994 -0.30969642 0.18072369
v 3.19599994 -0.30912532 0.18051579
v 3.19599994 -0.30440722 0.18840709
v 3.19599994 -0.30398804 0.18866702
v 3.19599994 -0.30826051 0.19210179
v 3.19599994 -0.28370841 0.19377049
v 3.19599994 -0.28500011 0.19399999
v 3.19599994 -0.28257602 0.19311089
v 3.19599994 -0.28601254 0.18866716
v 3.19599994 -0.31439281 0.18129999
v 3.19599994 -0.31134151 0.18012409
v 3.19599994 -0.31087601 0.18051529
v 3.19599994 -0.28533309 0.18798801
v 3.19599994 -0.28175012 0.17900000
v 3.19599994 -0.28164492 0.17959760
v 3.19599994 -0.30629051 0.19377099
v 3.19599994 -0.30742322 0.19311179
v 3.19599994 -0.30500012 0.19399999
v 3.19599994 -0.31439281 0.17669999
v 3.19599994 -0.31134052 0.17787479
v 3.19599994 -0.31164472 0.17840159
v 3.19599994 -0.30440722 0.16959289
v 3.19599994 -0.30826051 0.16589818
v 3.19599994 -0.30398766 0.16933283
v 3.19599994 -0.30969561 0.17727640
v 3.19599994 -0.30466714 0.17001195
v 3.19599994 -0.30912421 0.17748469
v 3.19599994 -0.27912421 0.17748469
v 3.19599994 -0.27969561 0.17727640
v 3.19599994 -0.27560742 0.17669999
v 3.19599994 -0.30500012 0.16399999
v 3.19599994 -0.30742422 0.16488905
v 3.19599994 -0.30629182 0.16422946
v 3.19599994 -0.27865872 0.17787589
v 3.19599994 -0.31175011 0.17900000
v 3.19599994 -0.31500011 0.17900000
v 3.19599994 -0.28134152 0.18012409
v 3.19599994 -0.28087602 0.18051529
v 3.19599994 -0.28533295 0.17001245
v 3.19599994 -0.31030382 0.17727629
v 3.19599994 -0.30835531 0.17840240
v 3.19599994 -0.30865872 0.17787589
v 3.19599994 -0.31087491 0.17748419
v 3.19599994 -0.31164491 0.17959760
v 3.19599994 -0.31030462 0.18072359
v 3.19599994 -0.30865972 0.18012519
v 3.19599994 -0.28164472 0.17840159
v 3.19599994 -0.27825012 0.17900000
v 3.19599994 -0.27835531 0.17840240
v 3.19599994 -0.28030382 0.17727629
v 3.19599994 -0.28134052 0.17787479
v 3.19599994 -0.28087492 0.17748419
v 3.19599994 -0.30825012 0.17900000
v 3.19599994 -0.27969642 0.18072369
v 3.19599994 -0.28173972 0.19210179
v 3.19599994 -0.27865971 0.18012519
v 3.19599994 -0.27912532 0.18051579
v 3.19599994 -0.30835552 0.17959839
v 3.19599994 -0.28030462 0.18072359
v 3.19599994 -0.28559301 0.18840709
v 3.19599994 -0.30934907 0.17731899
v 3.19399994 -0.30919939 0.17739265
v 3.19399992 -0.31065116 0.17731899
v 3.19599994 -0.30841004 0.17820745
v 3.19399993 -0.30841856 0.17821234
v 3.19599994 -0.30824433 0.17899970
v 3.19399993 -0.30823719 0.17899931
v 3.19599993 -0.31080084 0.17739265
v 3.19399993 -0.31159019 0.17820745
v 3.19599994 -0.31158167 0.17821234
v 3.19399993 -0.31175589 0.17899970
v 3.19599994 -0.31176303 0.17899931
v 3.19649692 -0.31011246 0.18025665
v 3.19649461 -0.31078842 0.17998919
v 3.19599483 -0.31099764 0.18045831
v 3.19599484 -0.31008041 0.18076481
v 3.19649838 -0.31117870 0.17944141
v 3.19599480 -0.31161604 0.17971409
v 3.19649938 -0.31125291 0.17900036
v 3.19600012 -0.31175534 0.17900060
v 3.19649843 -0.30950531 0.18015686
v 3.19599494 -0.30913944 0.18054236
v 3.19649966 -0.30913352 0.17990501
v 3.19599864 -0.30854954 0.17999324
v 3.19649841 -0.30886622 0.17954584
v 3.19599868 -0.30828928 0.17940326
v 3.19649823 -0.30874209 0.17900194
v 3.19599994 -0.30825012 0.17900000
v 3.19749502 -0.30980089 0.18026354
v 3.19774349 -0.31097388 0.17987540
v 3.19649996 -0.31023639 0.18028868
v 3.19649995 -0.31113031 0.17959418
v 3.19780853 -0.31126135 0.17900074
v 3.19649993 -0.31125274 0.17900012
v 3.19649995 -0.30901370 0.17984794
v 3.19732923 -0.30896669 0.17975851
v 3.19728667 -0.30873865 0.17900073
v 3.19649994 -0.30874144 0.17900044
v 3.19649693 -0.30988776 0.17774334
v 3.19599942 -0.31016240 0.17725311
v 3.19649843 -0.31049492 0.17784314
v 3.19599492 -0.31086051 0.17745745
v 3.19649966 -0.31086671 0.17809498
v 3.19599864 -0.31145068 0.17800674
v 3.19649841 -0.31113400 0.17845414
v 3.19599867 -0.31171094 0.17859671
v 3.19649822 -0.31125814 0.17899805
v 3.19599994 -0.31175011 0.17900000
v 3.19599867 -0.30959719 0.17728874
v 3.19649461 -0.30921180 0.17801080
v 3.19599722 -0.30893896 0.17759292
v 3.19599480 -0.30838421 0.17828585
v 3.19649838 -0.30882153 0.17855859
v 3.19649938 -0.30874731 0.17899963
v 3.19600012 -0.30824488 0.17899939
v 3.19769593 -0.31075237 0.18000256
v 3.19766474 -0.31060879 0.17790059
v 3.19774218 -0.31096403 0.17819354
v 3.19775784 -0.31103421 0.17971398
v 3.19760975 -0.31035227 0.18020953
v 3.19739378 -0.30929521 0.17795953
v 3.19748920 -0.30977076 0.17776044
v 3.19743462 -0.30950061 0.18015331
v 3.19736751 -0.30916086 0.17993107
v 3.19731270 -0.30887351 0.17956611
v 3.19733671 -0.30900244 0.17824060
v 3.19729546 -0.30878774 0.17865355
v 3.19728933 -0.30875196 0.17911710
v 3.19751366 -0.30989082 0.18024922
v 3.19758398 -0.31022971 0.17776752
v 3.19778196 -0.31114227 0.17848869
v 3.19780667 -0.31124428 0.17882398
v 3.19780289 -0.31122214 0.17929051
v 3.19776493 -0.31106546 0.17829799
v 3.19649994 -0.31100438 0.17821154
v 3.19649995 -0.31126838 0.17899899
v 3.19780864 -0.31126144 0.17899920
v 3.19649995 -0.30994013 0.17768077
v 3.19759955 -0.31030659 0.17775744
v 3.19740600 -0.30935832 0.17789569
v 3.19649994 -0.30892877 0.17830536
v 3.19731191 -0.30887345 0.17843533
v 3.19728658 -0.30873861 0.17899928
v 3.19649994 -0.30874125 0.17899957
v 3.19649692 -0.28011247 0.18025665
v 3.19649461 -0.28078843 0.17998919
v 3.19599487 -0.28056237 0.18067494
v 3.19599942 -0.27983783 0.18074688
v 3.19649838 -0.28117870 0.17944140
v 3.19599724 -0.28130275 0.18018685
v 3.19599866 -0.28166728 0.17955815
v 3.19649938 -0.28125292 0.17900036
v 3.19600012 -0.28175534 0.17900060
v 3.19649843 -0.27950531 0.18015686
v 3.19599494 -0.27913944 0.18054236
v 3.19649966 -0.27913353 0.17990501
v 3.19599864 -0.27854955 0.17999325
v 3.19649841 -0.27886623 0.17954585
v 3.19599867 -0.27828929 0.17940326
v 3.19649822 -0.27874209 0.17900194
v 3.19599994 -0.27825012 0.17900000
v 3.19735275 -0.28091351 0.17989114
v 3.19649993 -0.28101632 0.17979803
v 3.19649996 -0.28005954 0.18028217
v 3.19750883 -0.28013226 0.18026459
v 3.19728199 -0.28128328 0.17900331
v 3.19649994 -0.28125902 0.17900043
v 3.19774345 -0.27902660 0.17987573
v 3.19649995 -0.27905848 0.17988413
v 3.19780856 -0.27873891 0.17900077
v 3.19649995 -0.27873187 0.17900100
v 3.19649693 -0.27988776 0.17774334
v 3.19599942 -0.28016241 0.17725311
v 3.19649843 -0.28049493 0.17784313
v 3.19599492 -0.28086052 0.17745745
v 3.19649965 -0.28086672 0.17809499
v 3.19599864 -0.28145069 0.17800675
v 3.19649841 -0.28113401 0.17845415
v 3.19599867 -0.28171094 0.17859671
v 3.19649822 -0.28125814 0.17899805
v 3.19599994 -0.28175012 0.17900000
v 3.19599867 -0.27959719 0.17728874
v 3.19649462 -0.27921181 0.17801080
v 3.19599723 -0.27893896 0.17759292
v 3.19599480 -0.27838421 0.17828586
v 3.19649838 -0.27882153 0.17855858
v 3.19649938 -0.27874731 0.17899963
v 3.19600012 -0.27824488 0.17899939
v 3.19730821 -0.28114751 0.17848707
v 3.19729138 -0.28123169 0.17923317
v 3.19732297 -0.28106927 0.17966804
v 3.19739376 -0.28070543 0.18003993
v 3.19735138 -0.28092232 0.17815088
v 3.19771546 -0.27915840 0.17992870
v 3.19775003 -0.27900178 0.17824159
v 3.19767639 -0.27933850 0.17792694
v 3.19779295 -0.27880905 0.17859876
v 3.19776458 -0.27893628 0.17966282
v 3.19780443 -0.27874964 0.17894188
v 3.19780240 -0.27877804 0.17929080
v 3.19764001 -0.27950599 0.18015674
v 3.19757261 -0.27982502 0.17775556
v 3.19755792 -0.27989467 0.18024855
v 3.19748964 -0.28022671 0.17776696
v 3.19747746 -0.28028723 0.18022303
v 3.19741306 -0.28060692 0.17789955
v 3.19728935 -0.28124838 0.17888200
v 3.19649994 -0.28084589 0.17804366
v 3.19740638 -0.28063998 0.17789466
v 3.19649995 -0.27982373 0.17771136
v 3.19759995 -0.27969198 0.17775771
v 3.19730616 -0.28115622 0.17848735
v 3.19649995 -0.28129743 0.17899680
v 3.19728793 -0.28125431 0.17899976
v 3.19776502 -0.27893437 0.17829870
v 3.19649993 -0.27892868 0.17830555
v 3.19780860 -0.27873879 0.17899924
v 3.19649994 -0.27874125 0.17899957
v 3.22279190 -0.26903434 0.16375000
v 3.22207806 -0.26882442 0.16499999
v 3.22182981 -0.26859125 0.16375000
v 3.22149696 -0.26775388 0.16499999
v 3.22153382 -0.26775107 0.16375000
v 3.22348048 -0.26890214 0.16500000
v 3.22372991 -0.26863155 0.16375000
v 3.22408069 -0.26775180 0.16375000
v 3.22408507 -0.26775212 0.16499999
v 3.22397931 -0.26817856 0.16375053
v 3.22373526 -0.26859475 0.16375617
v 3.22280154 -0.26775012 0.16299892
v 3.22405969 -0.26775262 0.16375184
v 3.22329653 -0.26890115 0.16375159
v 3.22290484 -0.26899895 0.16375186
v 3.22231122 -0.26891165 0.16376401
v 3.22177835 -0.26848137 0.16375375
v 3.22157642 -0.26802172 0.16375129
v 3.22155154 -0.26775012 0.16375000
v 3.22157642 -0.26747852 0.16375129
v 3.22280154 -0.26775012 0.16299892
v 3.22155154 -0.26775012 0.16375000
v 3.22177835 -0.26701887 0.16375375
v 3.22231121 -0.26658860 0.16376401
v 3.22290481 -0.26650128 0.16375186
v 3.22329654 -0.26659909 0.16375159
v 3.22373525 -0.26690549 0.16375617
v 3.22397931 -0.26732168 0.16375053
v 3.22405969 -0.26774762 0.16375184
v 3.22211066 -0.26880013 0.16500000
v 3.22155734 -0.26792796 0.16500000
v 3.22173645 -0.26842520 0.16500000
v 3.22260388 -0.26899562 0.16500000
v 3.22196001 -0.26681680 0.16500000
v 3.22171633 -0.26712410 0.16500000
v 3.22364585 -0.26869249 0.16500000
v 3.22157567 -0.26747836 0.16500000
v 3.22313287 -0.26896257 0.16500000
v 3.22333481 -0.26661539 0.16500000
v 3.22389355 -0.26712719 0.16500000
v 3.22363003 -0.26680889 0.16500000
v 3.22288051 -0.26649156 0.16500000
v 3.22404581 -0.26757214 0.16500000
v 3.22400678 -0.26813046 0.16500000
v 3.22235748 -0.26657458 0.16500000
v 3.22199409 -0.26671622 0.16374999
v 3.22212117 -0.26666549 0.16500000
v 3.22300201 -0.26649431 0.16500000
v 3.22386058 -0.26700787 0.16500000
v 3.22409784 -0.26774721 0.16375001
v 3.22345252 -0.26659432 0.16374997
v 3.22405578 -0.26774993 0.16500000
v 3.22146991 -0.26774325 0.16500000
v 3.22152273 -0.26774843 0.16375000
v 3.33909993 -0.29651104 0.19440056
v 3.34344993 -0.29623253 0.19536135
v 3.33909993 -0.29626726 0.19526819
v 3.34344993 -0.29650523 0.19440025
v 3.33909993 -0.29539741 0.19587250
v 3.34344993 -0.29512238 0.19591972
v 3.33909993 -0.29349539 0.19440024
v 3.33909993 -0.29363563 0.19507681
v 3.34344993 -0.29347419 0.19440149
v 3.34344994 -0.29394667 0.19555429
v 3.33909994 -0.29436161 0.19579400
v 3.34426993 -0.29406565 0.19493950
v 3.34426993 -0.29425012 0.19569900
v 3.34426993 -0.29500012 0.19547900
v 3.34426993 -0.29500012 0.19332100
v 3.34426993 -0.29425012 0.19310100
v 3.34426993 -0.29406565 0.19386050
v 3.34426993 -0.29593459 0.19493950
v 3.34426993 -0.29593459 0.19386050
v 3.34426993 -0.29350012 0.19440000
v 3.34426993 -0.29575012 0.19569900
v 3.34426993 -0.29650012 0.19440000
v 3.34426993 -0.29575012 0.19310100
v 3.34509993 -0.29650012 0.19440000
v 3.34426993 -0.29593459 0.19493950
v 3.34509993 -0.29593459 0.19493950
v 3.34426993 -0.29650012 0.19440000
v 3.34509993 -0.29593459 0.19493950
v 3.34426993 -0.29575012 0.19569900
v 3.34509993 -0.29575012 0.19569900
v 3.34426993 -0.29593459 0.19493950
v 3.34426993 -0.29575012 0.19569900
v 3.34509993 -0.29500012 0.19547900
v 3.34509993 -0.29575012 0.19569900
v 3.34426993 -0.29500012 0.19547900
v 3.34509993 -0.29500012 0.19547900
v 3.34426993 -0.29425012 0.19569900
v 3.34509993 -0.29425012 0.19569900
v 3.34426993 -0.29500012 0.19547900
v 3.34426993 -0.29425012 0.19569900
v 3.34509993 -0.29406565 0.19493950
v 3.34509993 -0.29425012 0.19569900
v 3.34426993 -0.29406565 0.19493950
v 3.34426993 -0.29406565 0.19493950
v 3.34509993 -0.29350012 0.19440000
v 3.34509993 -0.29406565 0.19493950
v 3.34426993 -0.29350012 0.19440000
v 3.34426993 -0.29350012 0.19440000
v 3.34509993 -0.29406565 0.19386050
v 3.34509993 -0.29350012 0.19440000
v 3.34426993 -0.29406565 0.19386050
v 3.34426993 -0.29406565 0.19386050
v 3.34509993 -0.29425012 0.19310100
v 3.34509993 -0.29406565 0.19386050
v 3.34426993 -0.29425012 0.19310100
v 3.34426993 -0.29425012 0.19310100
v 3.34426993 -0.29500012 0.19332100
v 3.34509993 -0.29500012 0.19332100
v 3.34509993 -0.29425012 0.19310100
v 3.34426993 -0.29500012 0.19332100
v 3.34509993 -0.29575012 0.19310100
v 3.34509993 -0.29500012 0.19332100
v 3.34426993 -0.29575012 0.19310100
v 3.34426993 -0.29575012 0.19310100
v 3.34426993 -0.29593459 0.19386050
v 3.34509993 -0.29593459 0.19386050
v 3.34509993 -0.29575012 0.19310100
v 3.34426993 -0.29593459 0.19386050
v 3.34426993 -0.29650012 0.19440000
v 3.34509993 -0.29650012 0.19440000
v 3.34509993 -0.29593459 0.19386050
v 3.34509993 -0.29425012 0.19569900
v 3.34509993 -0.29365418 0.19681487
v 3.34509993 -0.29449083 0.19711029
v 3.34509993 -0.29575012 0.19569900
v 3.34509993 -0.29587783 0.19702151
v 3.34509993 -0.29676494 0.19652801
v 3.34509993 -0.29512559 0.19715005
v 3.34509993 -0.29500012 0.19547900
v 3.34509993 -0.29406565 0.19493950
v 3.34509993 -0.29350012 0.19440000
v 3.34509993 -0.29265412 0.19584952
v 3.34509993 -0.29305147 0.19634450
v 3.34509993 -0.29230875 0.19503239
v 3.34509993 -0.29225435 0.19414335
v 3.34509994 -0.29247136 0.19328294
v 3.34509993 -0.29406565 0.19386050
v 3.34509993 -0.29288180 0.19264170
v 3.34509993 -0.29734423 0.19585276
v 3.34509993 -0.29593459 0.19493950
v 3.34509993 -0.29425012 0.19310100
v 3.34509993 -0.29334032 0.19219772
v 3.34509993 -0.29650012 0.19440000
v 3.34509993 -0.29412194 0.19177865
v 3.34509993 -0.29769108 0.19503380
v 3.34509993 -0.29775015 0.19427431
v 3.34509993 -0.29762174 0.19352253
v 3.34509993 -0.29487390 0.19165001
v 3.34509993 -0.29500012 0.19332100
v 3.34509993 -0.29712798 0.19263505
v 3.34509993 -0.29593459 0.19386050
v 3.34509993 -0.29575012 0.19310100
v 3.34509993 -0.29645299 0.19205596
v 3.34509993 -0.29563378 0.19170903
v 3.34469993 -0.29362274 0.19679680
v 3.34469995 -0.29499717 0.19720115
v 3.34509995 -0.29499484 0.19723280
v 3.34509993 -0.29319152 0.19651631
v 3.34509991 -0.29225427 0.19500141
v 3.34469993 -0.29254844 0.19576523
v 3.34469994 -0.29223568 0.19418213
v 3.34509992 -0.29245762 0.19327614
v 3.34469992 -0.29276689 0.19271000
v 3.34469993 -0.29399845 0.19181782
v 3.34509995 -0.29352555 0.19201869
v 3.34509995 -0.29499906 0.19162989
v 3.34469994 -0.29499966 0.19164077
v 3.34509992 -0.29717367 0.19261897
v 3.34469992 -0.29773743 0.19389851
v 3.34469992 -0.29692570 0.19235478
v 3.34509985 -0.29500819 0.19153053
v 3.34469999 -0.29500409 0.19158099
v 3.34509993 -0.29780730 0.19452958
v 3.34469990 -0.29752470 0.19563018
v 3.34509994 -0.29700067 0.19637337
v 3.34469993 -0.29650220 0.19672008
v 3.34509986 -0.29500518 0.19723083
v 3.34470001 -0.29500422 0.19721804
v 3.34345051 -0.29499743 0.19288804
v 3.34470069 -0.29400445 0.19182934
v 3.34470437 -0.29499553 0.19163178
v 3.34345210 -0.29432598 0.19304851
v 3.34470185 -0.29323561 0.19227417
v 3.34345216 -0.29379433 0.19349019
v 3.34345094 -0.29353343 0.19405494
v 3.34470174 -0.29258778 0.19305465
v 3.34345274 -0.29409653 0.19561121
v 3.34470011 -0.29305340 0.19634633
v 3.34345120 -0.29367564 0.19511913
v 3.34470162 -0.29365452 0.19681325
v 3.34470016 -0.29437016 0.19707999
v 3.34345081 -0.29467158 0.19587063
v 3.34469975 -0.29499920 0.19715805
v 3.34344993 -0.29500012 0.19590000
v 3.34470064 -0.29265508 0.19585059
v 3.34470019 -0.29238991 0.19527475
v 3.34345067 -0.29350602 0.19459354
v 3.34470191 -0.29224036 0.19452547
v 3.34470015 -0.29232094 0.19376954
v 3.34470010 -0.29651593 0.19210218
v 3.34470145 -0.29708045 0.19258253
v 3.34345225 -0.29591035 0.19319449
v 3.34470145 -0.29585191 0.19177207
v 3.34470010 -0.29774161 0.19464645
v 3.34345037 -0.29649741 0.19453945
v 3.34470140 -0.29771797 0.19390629
v 3.34345103 -0.29637826 0.19500867
v 3.34470145 -0.29758559 0.19537067
v 3.34470148 -0.29707859 0.19621912
v 3.34470327 -0.29620058 0.19689485
v 3.34345104 -0.29606581 0.19546533
v 3.34345104 -0.29560877 0.19577844
v 3.34345060 -0.29500273 0.19591170
v 3.34470383 -0.29500437 0.19716754
v 3.34345105 -0.29646743 0.19405620
v 3.34345038 -0.29627878 0.19360831
v 3.34470010 -0.29748018 0.19320496
v 3.34345104 -0.29534639 0.19293341
v 3.34344993 -0.29500012 0.19290000
v 3.34470114 -0.29500093 0.19164373
v 3.33909994 -0.29379945 0.19530624
v 3.33909994 -0.29354534 0.19481435
v 3.33909994 -0.29414886 0.19564468
v 3.33909994 -0.29465438 0.19586782
v 3.33909994 -0.29351277 0.19412284
v 3.33909994 -0.29513844 0.19589787
v 3.33909994 -0.29567494 0.19575387
v 3.33909994 -0.29398674 0.19328827
v 3.33909994 -0.29606269 0.19546094
v 3.33909994 -0.29439103 0.19302031
v 3.33909994 -0.29631768 0.19513345
v 3.33909994 -0.29649795 0.19426270
v 3.33909994 -0.29567489 0.19304645
v 3.33909994 -0.29637954 0.19379084
v 3.33909994 -0.29611135 0.19338620
v 3.33909994 -0.29500114 0.19288727
v 3.33909994 -0.29647870 0.19467656
v 3.33909994 -0.29372115 0.19360800
v 3.33909993 -0.29628522 0.19357844
v 3.34344993 -0.29570838 0.19302994
v 3.34344993 -0.29660994 0.19439043
v 3.34344993 -0.29371503 0.19357845
v 3.33909993 -0.29429186 0.19302994
v 3.33909993 -0.29339030 0.19439042
v 3.34344993 -0.29348591 0.19439927
v 3.34344993 -0.29453511 0.19293921
v 3.33909993 -0.29546514 0.19293921
v 3.33909993 -0.29651434 0.19439927
usemtl Base_fa3
f 1 2 3
f 4 2 1
f 5 6 7
f 7 6 8
f 9 8 6
f 9 10 8
f 5 11 6
f 12 11 13
f 13 11 5
f 12 14 11
f 15 6 11
f 9 16 17
f 6 15 16
f 14 15 11
f 6 16 9
f 16 15 18
f 19 18 14
f 18 15 14
f 18 17 16
f 20 21 22
f 23 21 20
f 24 25 26
f 26 25 27
f 28 27 25
f 28 29 27
f 24 30 25
f 31 30 32
f 32 30 24
f 31 33 30
f 34 25 30
f 28 35 36
f 25 34 35
f 33 34 30
f 25 35 28
f 35 34 37
f 38 37 33
f 37 34 33
f 37 36 35
f 39 40 41
f 42 41 40
f 43 41 42
f 44 45 46
f 44 46 47
f 48 44 47
f 46 45 49
f 46 49 50
f 51 50 52
f 51 53 50
f 50 49 52
f 54 46 50
f 47 55 56
f 46 54 55
f 53 54 50
f 46 55 47
f 55 54 57
f 58 57 53
f 57 54 53
f 57 56 55
f 59 60 61
f 62 59 61
f 63 64 65
f 65 64 66
f 67 66 64
f 67 68 66
f 63 69 64
f 70 69 71
f 71 69 63
f 70 72 69
f 73 64 69
f 67 74 75
f 64 73 74
f 72 73 69
f 64 74 67
f 74 73 76
f 77 76 72
f 76 73 72
f 76 75 74
f 78 79 80
f 81 80 79
f 81 82 80
f 79 78 83
f 84 85 86
f 85 84 87
f 88 89 90
f 91 90 89
f 91 92 90
f 89 88 93
f 94 95 96
f 94 96 97
f 98 99 100
f 101 100 99
f 101 102 100
f 99 98 103
f 104 105 106
f 105 104 107
f 108 109 110
f 111 110 109
f 111 112 110
f 109 108 113
f 114 115 116
f 115 114 117
f 118 119 120
f 121 122 123
f 123 124 125
f 126 124 123
f 127 128 129
f 130 122 121
f 131 132 127
f 131 127 129
f 133 132 134
f 133 135 132
f 136 133 137
f 138 139 140
f 120 141 142
f 142 143 120
f 118 144 119
f 143 142 139
f 145 138 146
f 140 146 138
f 147 145 148
f 145 147 149
f 130 121 150
f 132 131 134
f 137 144 118
f 128 127 151
f 128 151 125
f 128 125 124
f 123 122 126
f 150 121 152
f 147 150 152
f 147 152 149
f 145 146 148
f 139 138 153
f 139 153 143
f 120 119 141
f 137 118 136
f 133 136 135
f 154 155 156
f 157 154 156
f 158 154 157
f 159 160 161
f 160 159 162
f 159 163 164
f 165 164 163
f 166 167 168
f 164 166 159
f 161 165 163
f 167 166 164
f 169 166 168
f 161 163 159
f 159 166 170
f 171 159 170
f 169 172 166
f 170 166 172
f 171 162 159
f 173 174 175
f 176 173 175
f 177 173 176
f 178 179 180
f 179 178 181
f 178 182 183
f 184 183 182
f 185 186 187
f 183 185 178
f 180 184 182
f 186 185 183
f 188 185 187
f 180 182 178
f 178 185 189
f 190 178 189
f 188 191 185
f 189 185 191
f 190 181 178
f 192 193 194
f 195 192 194
f 196 192 195
f 197 198 199
f 197 200 201
f 202 198 197
f 203 204 205
f 204 199 198
f 197 201 202
f 206 202 201
f 198 202 204
f 207 202 208
f 204 202 207
f 206 209 202
f 208 202 209
f 207 205 204
f 210 211 212
f 213 210 212
f 214 215 216
f 217 215 214
f 218 219 220
f 217 219 215
f 217 221 222
f 223 217 222
f 221 217 214
f 219 216 215
f 224 217 225
f 219 217 224
f 223 226 217
f 225 217 226
f 224 220 219
f 227 228 229
f 228 230 229
f 227 229 231
f 232 233 234
f 232 235 236
f 237 235 238
f 239 240 241
f 234 235 232
f 242 236 239
f 235 239 236
f 238 235 234
f 242 239 241
f 243 235 244
f 237 244 235
f 239 235 243
f 240 239 243
f 245 246 247
f 248 249 250
f 250 251 248
f 247 252 248
f 253 247 246
f 247 253 252
f 252 254 249
f 246 255 253
f 249 248 252
f 256 255 246
f 257 258 247
f 257 247 248
f 245 256 246
f 258 245 247
f 259 245 258
f 257 248 251
f 260 259 258
f 261 262 263
f 263 262 264
f 261 265 262
f 266 267 268
f 269 270 271
f 271 272 269
f 268 273 269
f 274 268 267
f 268 274 273
f 273 275 270
f 267 276 274
f 270 269 273
f 277 276 267
f 278 279 268
f 278 268 269
f 266 277 267
f 279 266 268
f 280 266 279
f 278 269 272
f 281 280 279
f 282 283 284
f 284 283 285
f 282 286 283
f 287 288 289
f 290 291 289
f 291 290 292
f 289 293 290
f 294 289 288
f 289 294 293
f 293 295 290
f 288 296 294
f 297 296 288
f 298 299 289
f 298 289 291
f 287 297 288
f 299 287 289
f 300 287 299
f 301 300 299
f 302 303 304
f 304 303 305
f 306 302 304
f 306 307 302
f 308 309 310
f 311 312 313
f 313 314 311
f 308 315 311
f 316 308 310
f 308 316 315
f 315 317 312
f 310 318 316
f 312 311 315
f 319 318 310
f 320 321 308
f 320 308 311
f 309 319 310
f 321 309 308
f 322 309 321
f 320 311 314
f 323 322 321
f 324 325 326
f 327 324 326
f 328 329 330
f 329 331 330
f 330 331 332
f 329 328 333
f 334 335 336
f 335 334 337
f 338 339 340
f 340 341 338
f 341 340 342
f 341 342 343
f 343 342 344
f 345 346 347
f 346 345 348
f 349 350 351
f 349 351 352
f 353 354 355
f 354 356 355
f 355 357 353
f 353 357 358
f 359 360 361
f 359 361 362
f 363 364 365
f 364 366 365
f 365 367 363
f 363 367 368
f 369 370 371
f 370 369 372
f 373 374 375
f 376 373 375
f 373 377 374
f 377 378 374
f 379 380 381
f 380 379 382
f 383 384 385
f 386 383 385
f 383 387 384
f 387 388 384
f 389 390 391
f 390 389 392
f 393 394 395
f 396 393 395
f 393 397 394
f 397 398 394
f 399 400 401
f 399 401 402
f 403 404 405
f 406 403 405
f 403 407 404
f 407 408 404
f 409 410 411
f 409 411 412
f 413 414 415
f 415 414 416
f 416 417 415
f 416 418 417
f 414 413 419
f 420 421 422
f 421 423 422
f 420 422 424
f 425 426 427
f 428 426 425
f 429 430 431
f 432 433 434
f 435 436 437
f 436 435 438
f 439 440 438
f 439 438 435
f 441 442 443
f 441 443 444
f 445 443 446
f 447 446 448
f 447 445 446
f 449 450 451
f 452 453 454
f 455 456 457
f 456 458 453
f 456 455 458
f 452 454 459
f 459 454 460
f 461 462 463
f 462 464 463
f 462 465 464
f 466 464 465
f 467 468 469
f 470 468 467
f 471 472 467
f 473 471 474
f 473 472 471
f 475 427 426
f 475 426 476
f 476 477 475
f 478 475 477
f 478 449 475
f 478 479 449
f 479 450 449
f 475 449 471
f 449 480 481
f 482 449 481
f 455 457 483
f 484 485 486
f 487 484 486
f 482 488 489
f 490 491 487
f 487 446 492
f 490 487 493
f 482 489 494
f 494 495 482
f 495 429 482
f 439 496 497
f 429 495 430
f 429 431 433
f 433 432 429
f 432 434 425
f 428 425 434
f 498 486 499
f 500 480 449
f 501 486 498
f 460 486 501
f 454 486 460
f 454 453 458
f 483 457 502
f 503 492 502
f 483 502 492
f 503 504 492
f 492 504 505
f 487 492 505
f 493 487 506
f 505 506 487
f 487 491 507
f 484 487 507
f 482 481 508
f 444 437 509
f 497 440 439
f 510 482 497
f 497 496 511
f 497 511 510
f 482 429 497
f 482 508 488
f 451 500 449
f 474 471 449
f 471 467 469
f 468 470 512
f 461 512 470
f 462 461 470
f 466 465 513
f 514 486 513
f 513 465 515
f 513 515 516
f 513 516 514
f 486 454 513
f 486 485 499
f 446 487 448
f 446 443 442
f 441 444 509
f 437 444 435
f 517 518 519
f 517 519 520
f 521 522 523
f 524 525 526
f 522 527 528
f 529 528 530
f 529 522 528
f 531 527 524
f 522 524 527
f 532 522 529
f 531 524 526
f 533 522 521
f 523 522 532
f 525 524 533
f 524 522 533
f 534 535 536
f 537 536 535
f 537 538 536
f 535 534 539
f 540 541 542
f 543 544 541
f 541 540 543
f 545 546 543
f 544 543 546
f 540 542 547
f 547 548 549
f 548 547 542
f 548 550 551
f 551 549 548
f 552 553 554
f 555 552 556
f 554 556 552
f 557 556 558
f 556 557 555
f 554 553 559
f 559 560 561
f 560 559 553
f 560 562 563
f 563 561 560
f 564 565 566
f 567 564 568
f 566 568 564
f 569 568 570
f 568 569 567
f 566 565 571
f 571 572 573
f 572 571 565
f 572 574 575
f 575 573 572
f 576 577 578
f 579 580 581
f 582 583 584
f 585 586 587
f 588 589 590
f 591 592 593
f 593 592 594
f 590 595 585
f 596 597 595
f 598 599 600
f 601 602 603
f 604 605 606
f 607 608 609
f 610 611 612
f 613 614 615
f 616 617 618
f 613 615 619
f 609 617 616
f 620 621 606
f 622 623 598
f 624 579 615
f 604 608 611
f 625 604 611
f 626 627 611
f 604 628 605
f 604 625 628
f 604 606 621
f 621 620 629
f 596 595 629
f 621 629 595
f 597 630 595
f 585 630 586
f 630 585 595
f 631 585 587
f 612 611 627
f 624 632 599
f 633 634 578
f 589 592 603
f 615 634 619
f 578 634 615
f 614 635 624
f 624 615 614
f 624 636 632
f 636 624 637
f 637 624 635
f 624 599 598
f 626 611 638
f 638 611 585
f 598 639 576
f 594 640 593
f 640 598 576
f 641 576 642
f 576 639 642
f 578 577 633
f 576 641 577
f 638 585 643
f 623 644 598
f 640 645 598
f 640 594 645
f 639 598 644
f 622 598 600
f 579 624 580
f 584 579 581
f 584 581 582
f 582 581 616
f 616 581 609
f 617 609 608
f 608 607 611
f 625 611 610
f 643 585 631
f 589 602 590
f 585 588 590
f 603 602 589
f 592 589 594
f 646 647 648
f 649 650 647
f 647 646 649
f 651 652 649
f 650 649 652
f 646 648 653
f 653 654 655
f 654 653 648
f 654 656 657
f 657 655 654
f 658 659 660
f 658 660 661
f 662 663 659
f 663 660 659
f 662 664 665
f 662 665 663
f 666 658 661
f 667 666 661
f 667 668 666
f 669 668 667
f 669 670 668
f 670 669 671
f 670 671 672
f 672 671 673
f 674 675 676
f 675 677 676
f 675 678 677
f 677 678 679
f 674 676 680
f 681 674 680
f 682 681 680
f 683 682 680
f 684 685 686
f 687 686 685
f 686 687 688
f 689 690 688
f 687 689 688
f 690 689 691
f 690 691 692
f 693 692 691
f 694 685 684
f 684 695 694
f 694 695 696
f 697 696 695
f 698 697 695
f 698 699 700
f 700 697 698
f 701 702 703
f 701 703 704
f 702 701 705
f 706 707 708
f 708 709 706
f 710 711 709
f 712 711 710
f 712 710 713
f 706 709 711
f 707 714 708
f 707 715 714
f 714 715 705
f 705 715 702
f 703 716 704
f 716 717 718
f 704 716 718
f 719 720 721
f 721 722 719
f 723 720 724
f 720 719 724
f 724 725 723
f 725 726 723
f 726 725 727
f 726 728 729
f 728 726 727
f 730 731 732
f 730 732 733
f 734 735 731
f 736 735 734
f 734 737 738
f 734 738 736
f 735 732 731
f 739 730 733
f 740 739 733
f 740 741 739
f 742 741 740
f 742 743 741
f 743 742 744
f 743 744 745
f 745 744 746
f 747 748 749
f 749 750 747
f 751 748 747
f 752 748 751
f 753 750 749
f 753 749 754
f 755 753 756
f 754 756 753
f 757 758 759
f 760 759 758
f 759 760 761
f 762 763 761
f 760 762 761
f 763 762 764
f 763 764 765
f 766 765 764
f 767 758 757
f 757 768 767
f 767 768 769
f 770 769 768
f 771 770 768
f 771 772 773
f 773 770 771
f 774 775 776
f 777 778 776
f 779 780 781
f 782 780 783
f 784 782 785
f 782 783 785
f 783 780 779
f 781 786 779
f 787 786 781
f 787 788 786
f 787 789 788
f 788 789 790
f 790 789 791
f 777 790 791
f 777 791 778
f 774 776 778
f 775 774 792
f 793 794 795
f 796 795 794
f 797 794 793
f 797 793 798
f 797 798 799
f 800 801 795
f 795 796 800
f 801 802 803
f 802 801 800
f 804 805 806
f 805 807 806
f 806 807 808
f 805 804 809
f 804 810 809
f 811 812 810
f 812 809 810
f 813 814 815
f 816 813 815
f 815 814 817
f 817 818 815
f 815 818 819
f 815 819 820
f 815 820 821
f 822 815 821
f 823 824 825
f 823 826 824
f 826 827 824
f 827 828 824
f 829 824 828
f 830 824 829
f 831 824 830
f 824 831 832
f 833 834 835
f 833 836 834
f 837 838 839
f 840 841 838
f 842 843 844
f 842 845 846
f 842 846 843
f 845 847 846
f 847 845 848
f 847 837 839
f 847 848 837
f 839 838 841
f 840 836 841
f 836 840 834
f 849 850 851
f 852 853 854
f 853 852 855
f 854 851 852
f 849 851 854
f 856 850 849
f 849 857 856
f 858 859 860
f 861 859 858
f 862 860 859
f 862 859 863
f 864 865 866
f 866 865 867
f 865 868 867
f 867 868 863
f 862 863 868
f 869 870 871
f 872 873 874
f 869 875 876
f 869 874 877
f 869 876 874
f 875 869 871
f 878 875 871
f 876 875 879
f 880 872 876
f 876 872 874
f 881 882 883
f 882 881 884
f 885 886 887
f 886 885 888
f 889 890 891
f 890 889 892
f 893 894 895
f 894 893 896
f 897 898 899
f 898 897 900
f 901 902 903
f 902 901 904
f 905 906 907
f 906 905 908
f 909 910 911
f 910 909 912
f 913 914 915
f 913 915 916
f 917 918 919
f 918 917 920
f 921 922 923
f 921 923 924
f 925 926 927
f 925 927 928
f 929 930 931
f 932 933 934
f 931 935 936
f 929 931 936
f 937 938 939
f 940 930 929
f 939 938 941
f 936 935 932
f 941 938 942
f 942 938 943
f 938 944 943
f 945 943 944
f 932 946 947
f 934 946 932
f 945 944 948
f 948 949 945
f 947 946 950
f 948 951 949
f 952 953 950
f 950 953 954
f 955 948 956
f 957 958 954
f 957 959 958
f 960 959 957
f 961 959 960
f 954 958 950
f 955 956 961
f 951 948 955
f 946 952 950
f 929 937 939
f 935 933 932
f 939 940 929
f 956 959 961
f 962 963 964
f 965 966 967
f 968 966 969
f 969 970 968
f 971 970 972
f 972 973 971
f 973 974 971
f 972 970 969
f 966 968 967
f 962 965 967
f 962 964 965
f 975 976 977
f 977 978 975
f 979 978 977
f 976 975 980
f 976 980 981
f 982 981 980
f 981 982 983
f 984 983 982
f 984 985 983
f 986 987 988
f 987 989 990
f 991 992 993
f 994 995 996
f 995 994 997
f 998 997 999
f 994 999 997
f 998 999 1000
f 1000 999 1001
f 995 1002 996
f 1003 996 1002
f 996 1003 1004
f 1004 1003 1005
f 1004 1005 992
f 1006 992 1005
f 1006 993 992
f 993 990 991
f 991 990 989
f 989 987 986
f 1007 1008 1009
f 1010 1007 1009
f 1011 1012 1013
f 1014 1012 1015
f 1015 1016 1014
f 1017 1018 1016
f 1019 1018 1017
f 1020 1017 1021
f 1017 1020 1019
f 1014 1016 1018
f 1011 1015 1012
f 1012 1022 1013
f 1023 1024 1022
f 1024 1013 1022
f 1023 1008 1024
f 1023 1009 1008
f 1010 1009 1025
f 1026 1027 1025
f 1010 1025 1027
f 1028 1029 1030
f 1029 1031 1030
f 1032 1031 1029
f 1032 1033 1031
f 1033 1032 1034
f 1035 1036 1034
f 1037 1038 1035
f 1036 1035 1038
f 1039 1040 1041
f 1041 1040 1042
f 1043 1040 1039
f 1039 1044 1043
f 1044 1037 1043
f 1037 1044 1038
f 1035 1034 1045
f 1032 1045 1034
f 1046 1047 1048
f 1049 1050 1051
f 1049 1051 1052
f 1053 1050 1049
f 1050 1053 1054
f 1054 1053 1047
f 1054 1047 1046
f 1046 1048 1055
