# Exported from USD: /World/gantry/gantry_home/ur10_flattened/ur10_instanceable/wrist_1_link/ur10_wrist_1/ID239_001SVM
mtllib ID239_001SVM.mtl

g ID239_001SVM
v 4.41973600 -0.14949479 0.33130006
v 4.41973505 -0.14990019 0.33965007
v 4.41975868 -0.14935852 0.33965007
v 4.42027006 -0.15086653 0.33965007
v 4.42041312 -0.15097747 0.33130006
v 4.42074483 -0.15113149 0.33965007
v 4.42122683 -0.15122939 0.33130006
v 4.42122793 -0.15120825 0.33965007
v 4.41998331 -0.15055180 0.33130006
v 4.41990474 -0.15042902 0.33965007
v 4.41975793 -0.15004330 0.33130006
v 4.42002011 -0.14879573 0.33965007
v 4.41990968 -0.14896876 0.33130006
v 4.42026625 -0.14854320 0.33130006
v 4.42047770 -0.14839529 0.33965007
v 4.42073055 -0.14828012 0.33130006
v 4.42122788 -0.14819827 0.33130006
v 4.42122648 -0.14817586 0.33965007
v 4.42209760 -0.15094891 0.33965007
v 4.42122952 -0.15122921 0.33965007
v 4.42165647 -0.15114488 0.33130006
v 4.42258657 -0.15036518 0.33965007
v 4.42268203 -0.15011329 0.33130006
v 4.42272730 -0.14983637 0.33965007
v 4.42269440 -0.14935864 0.33965007
v 4.42260601 -0.14909407 0.33130006
v 4.42243669 -0.14879071 0.33965007
v 4.42173221 -0.14827103 0.33130006
v 4.42184116 -0.14831663 0.33965007
v 4.42230866 -0.14865146 0.33130006
v 4.42122839 -0.14819835 0.33965007
v 4.42122813 -0.14820317 0.33130006
v 4.42272660 -0.14956286 0.33130006
v 4.42243328 -0.15060567 0.33130006
v 4.42207833 -0.15094698 0.33130006
v 4.42122837 -0.15120832 0.33130006
v 4.41985506 -0.15031058 0.33130006
v 4.42163803 -0.14826018 0.33130006
v 4.42183407 -0.14832909 0.33130006
v 4.42260366 -0.15030540 0.33130006
v 4.42246724 -0.15055194 0.33130006
v 4.42228990 -0.15076461 0.33130006
v 4.42183765 -0.15107598 0.33130006
v 4.42208119 -0.15093885 0.33130006
v 4.42269017 -0.15004534 0.33130006
v 4.42158193 -0.15116239 0.33130006
v 4.42130232 -0.15120336 0.33130006
v 4.42272814 -0.14977189 0.33130006
v 4.42265187 -0.14922600 0.33130006
v 4.42271517 -0.14949467 0.33130006
v 4.42075325 -0.15112822 0.33130006
v 4.42101860 -0.15118959 0.33130006
v 4.42257063 -0.14903418 0.33130006
v 4.42049876 -0.15101553 0.33130006
v 4.42246745 -0.14885540 0.33130006
v 4.42027116 -0.15086038 0.33130006
v 4.42228875 -0.14863997 0.33130006
v 4.42007135 -0.15066028 0.33130006
v 4.41995224 -0.15049217 0.33130006
v 4.42207651 -0.14846472 0.33130006
v 4.41978574 -0.15011517 0.33130006
v 4.42122813 -0.14820317 0.33130006
v 4.41974118 -0.14991210 0.33130006
v 4.41974130 -0.14949290 0.33130006
v 4.41980473 -0.14922494 0.33130006
v 4.42101415 -0.14821724 0.33130006
v 4.42007043 -0.14874669 0.33130006
v 4.42021763 -0.14859418 0.33130006
v 4.42037985 -0.14846390 0.33130006
v 4.41972814 -0.14970317 0.33130006
v 4.42075221 -0.14827957 0.33130006
v 4.42056003 -0.14836017 0.33130006
v 4.41991423 -0.14897650 0.33130006
v 4.42143641 -0.14821675 0.33130006
v 4.41972450 -0.14970298 0.33965067
v 4.41849968 -0.14933563 0.34089939
v 4.41976591 -0.14936147 0.33965019
v 4.41960798 -0.14747847 0.34090010
v 4.41992463 -0.14728218 0.34090010
v 4.42050155 -0.14838920 0.33965019
v 4.42207774 -0.14708718 0.34090010
v 4.42170694 -0.14828072 0.33965019
v 4.42171742 -0.14699450 0.34090010
v 4.42196074 -0.14839292 0.33965019
v 4.42242677 -0.14722487 0.34090022
v 4.42284912 -0.14747838 0.34090022
v 4.42213223 -0.14850617 0.33965007
v 4.42229008 -0.14864203 0.33965019
v 4.42321969 -0.14780330 0.34090022
v 4.42242534 -0.14879918 0.33965007
v 4.42254130 -0.14897544 0.33965019
v 4.42352647 -0.14818860 0.34090022
v 4.42375920 -0.14862140 0.34090022
v 4.42265204 -0.14922772 0.33965019
v 4.42391217 -0.14909154 0.34090022
v 4.42271488 -0.14949530 0.33965019
v 4.42272815 -0.14970317 0.33965007
v 4.42396733 -0.14945618 0.34090010
v 4.42397813 -0.14970317 0.34090010
v 4.42144087 -0.14821733 0.33965019
v 4.42122793 -0.14695067 0.34090010
v 4.42122813 -0.14820317 0.33965007
v 4.42102045 -0.14821676 0.33965007
v 4.42073482 -0.14699509 0.34090034
v 4.42075307 -0.14827845 0.33965019
v 4.42026010 -0.14712670 0.34090022
v 4.42032394 -0.14850617 0.33965007
v 4.42016650 -0.14864195 0.33965019
v 4.41923490 -0.14780470 0.34090034
v 4.41998975 -0.14885353 0.33965019
v 4.41892651 -0.14819368 0.34090022
v 4.41985437 -0.14909669 0.33965019
v 4.41875014 -0.14851118 0.34090010
v 4.41861015 -0.14885431 0.34090022
v 4.41847831 -0.14970317 0.34090034
v 4.41847831 -0.14970317 0.34090034
v 4.41972808 -0.14970317 0.33965007
v 4.41849643 -0.15005138 0.34089939
v 4.41973827 -0.14989110 0.33964996
v 4.41860524 -0.15054008 0.34090022
v 4.41990484 -0.15041246 0.33965019
v 4.42006512 -0.15065295 0.33965019
v 4.41894129 -0.15123557 0.34090034
v 4.41874904 -0.15089417 0.34090010
v 4.42039605 -0.15095297 0.33965019
v 4.41947794 -0.15182799 0.34090022
v 4.42022003 -0.15081417 0.33965007
v 4.41919214 -0.15155218 0.34090010
v 4.42090245 -0.15116901 0.33965019
v 4.42115785 -0.15120310 0.33965007
v 4.42087066 -0.15243184 0.34090022
v 4.42038901 -0.15232452 0.34090034
v 4.42253363 -0.15212687 0.34090034
v 4.42168214 -0.15113419 0.33965019
v 4.42193756 -0.15102603 0.33965019
v 4.42181040 -0.15239366 0.34090034
v 4.42218133 -0.15228317 0.34090010
v 4.42212304 -0.15090717 0.33965007
v 4.42229339 -0.15076111 0.33965019
v 4.42297782 -0.15182907 0.34090022
v 4.42364857 -0.15101388 0.34090022
v 4.42335990 -0.15144500 0.34090022
v 4.42243154 -0.15059818 0.33965007
v 4.42254609 -0.15042306 0.33965019
v 4.42265827 -0.15016086 0.33965019
v 4.42384790 -0.15054638 0.34090034
v 4.42271748 -0.14989621 0.33964996
v 4.42395865 -0.15005230 0.34090022
v 4.42272816 -0.14970317 0.33965007
v 4.42397813 -0.14970317 0.34090010
v 4.42064412 -0.15108637 0.33965019
v 4.42141771 -0.15119282 0.33965007
v 4.42132701 -0.15245410 0.34090046
v 4.41991319 -0.15212145 0.34090034
v 4.41979714 -0.15015722 0.33965019
v 4.42386646 -0.14887952 0.34090010
v 4.42340282 -0.14799742 0.34090010
v 4.42384039 -0.14879928 0.34130005
v 4.42267536 -0.14733748 0.34130005
v 4.42341532 -0.14802363 0.34130005
v 4.42255138 -0.14726629 0.34090010
v 4.42147643 -0.14695055 0.34090010
v 4.42147855 -0.14694192 0.34130005
v 4.42073117 -0.14699545 0.34090010
v 4.42048471 -0.14704832 0.34130005
v 4.41967576 -0.14741633 0.34130005
v 4.42001947 -0.14721795 0.34090010
v 4.41930703 -0.14772507 0.34090010
v 4.41878155 -0.14841760 0.34090010
v 4.41895880 -0.14812500 0.34130005
v 4.41854456 -0.14904285 0.34130005
v 4.41854053 -0.14911068 0.34090010
v 4.41847257 -0.14970290 0.34090010
v 4.41847813 -0.14970317 0.34130005
v 4.42398743 -0.14970274 0.34130005
v 4.42398381 -0.14970290 0.34090010
v 4.42351895 -0.15125521 0.34090010
v 4.42357199 -0.15115165 0.34130005
v 4.42308453 -0.15174537 0.34130005
v 4.42230652 -0.15224729 0.34130005
v 4.42277679 -0.15199088 0.34090010
v 4.42114536 -0.15246514 0.34090010
v 4.42132341 -0.15246510 0.34130005
v 4.42032212 -0.15231533 0.34130005
v 4.41946411 -0.15182891 0.34130005
v 4.42016716 -0.15225604 0.34090010
v 4.41893735 -0.15124815 0.34090010
v 4.41947679 -0.15182801 0.34090010
v 4.41887488 -0.15114502 0.34130005
v 4.41857785 -0.15046588 0.34090010
v 4.41853902 -0.15033423 0.34130005
v 4.41846914 -0.14970356 0.34090010
v 4.41847813 -0.14970317 0.34130005
v 4.42198243 -0.15235519 0.34090010
v 4.42387293 -0.15048062 0.34130005
v 4.42392326 -0.15030242 0.34090010
v 4.42398664 -0.14970360 0.34130005
v 4.42397813 -0.14970317 0.34090010
v 4.41919573 -0.15155617 0.34130005
v 4.41937514 -0.15173518 0.34130005
v 4.41992904 -0.15045317 0.34130005
v 4.42230713 -0.14970317 0.34130005
v 4.42397814 -0.14970317 0.34130005
v 4.42396673 -0.14944918 0.34130005
v 4.42072304 -0.15240618 0.34130005
v 4.42122813 -0.15120318 0.34130005
v 4.42047583 -0.15234817 0.34130005
v 4.41978034 -0.15204118 0.34130005
v 4.42000213 -0.15216517 0.34130005
v 4.42068864 -0.15063817 0.34130005
v 4.41957054 -0.15189817 0.34130005
v 4.42097464 -0.15244117 0.34130005
v 4.42122863 -0.15245318 0.34130005
v 4.41888973 -0.15115018 0.34130005
v 4.41903333 -0.15136018 0.34130005
v 4.42148233 -0.15244117 0.34130005
v 4.42173394 -0.15240618 0.34130005
v 4.41876634 -0.15092918 0.34130005
v 4.41866364 -0.15069618 0.34130005
v 4.42198143 -0.15234717 0.34130005
v 4.41858274 -0.15045617 0.34130005
v 4.41848953 -0.14995717 0.34130005
v 4.41852464 -0.15020917 0.34130005
v 4.42222214 -0.15226617 0.34130005
v 4.42267633 -0.15204018 0.34130005
v 4.42176764 -0.15063817 0.34130005
v 4.42245424 -0.15216417 0.34130005
v 4.41866373 -0.14871117 0.34130005
v 4.41992904 -0.14895318 0.34130005
v 4.41876613 -0.14847817 0.34130005
v 4.42288584 -0.15189717 0.34130005
v 4.41937503 -0.14767117 0.34130005
v 4.41919524 -0.14785118 0.34130005
v 4.42342324 -0.15135918 0.34130005
v 4.42356654 -0.15115018 0.34130005
v 4.42252714 -0.15045317 0.34130005
v 4.41957033 -0.14750918 0.34130005
v 4.42068864 -0.14876918 0.34130005
v 4.41977993 -0.14736618 0.34130005
v 4.42387283 -0.15045517 0.34130005
v 4.42393094 -0.15020817 0.34130005
v 4.42122813 -0.14820317 0.34130005
v 4.42000204 -0.14724217 0.34130005
v 4.42252714 -0.14895318 0.34130005
v 4.42379253 -0.14871019 0.34130005
v 4.42368984 -0.14847718 0.34130005
v 4.42023414 -0.14714018 0.34130005
v 4.42047484 -0.14705918 0.34130005
v 4.42176764 -0.14876918 0.34130005
v 4.42267583 -0.14736518 0.34130005
v 4.42245404 -0.14724117 0.34130005
v 4.42097384 -0.14696517 0.34130005
v 4.42122763 -0.14695317 0.34130005
v 4.42148163 -0.14696517 0.34130005
v 4.42222153 -0.14713817 0.34130005
v 4.42198034 -0.14705817 0.34130005
v 4.42356654 -0.14825618 0.34130005
v 4.42342293 -0.14804617 0.34130005
v 4.42288563 -0.14750817 0.34130005
v 4.42308103 -0.14767117 0.34130005
v 4.42173313 -0.14700017 0.34130005
v 4.42326053 -0.14785018 0.34130005
v 4.42072234 -0.14700017 0.34130005
v 4.42393163 -0.14919717 0.34130005
v 4.42387343 -0.14895118 0.34130005
v 4.42396604 -0.14995717 0.34130005
v 4.42369013 -0.15092818 0.34130005
v 4.42379243 -0.15069618 0.34130005
v 4.41903304 -0.14804717 0.34130005
v 4.42326094 -0.15155517 0.34130005
v 4.41888973 -0.14825618 0.34130005
v 4.41858333 -0.14895118 0.34130005
v 4.41852523 -0.14919817 0.34130005
v 4.41849013 -0.14944918 0.34130005
v 4.41847813 -0.14970317 0.34130005
v 4.42014904 -0.14970317 0.34130005
v 4.42308113 -0.15173518 0.34130005
v 4.42023464 -0.15226818 0.34130005
v 4.42068864 -0.14876918 0.34047011
v 4.42122813 -0.14820317 0.34047011
v 4.42122813 -0.14820317 0.34130005
v 4.42068864 -0.14876918 0.34130005
v 4.41992904 -0.14895318 0.34047011
v 4.42068864 -0.14876918 0.34047011
v 4.42068864 -0.14876918 0.34130005
v 4.41992904 -0.14895318 0.34130005
v 4.42014904 -0.14970317 0.34047011
v 4.41992904 -0.14895318 0.34047011
v 4.41992904 -0.14895318 0.34130005
v 4.42014904 -0.14970317 0.34130005
v 4.41992904 -0.15045317 0.34047011
v 4.42014904 -0.14970317 0.34047011
v 4.42014904 -0.14970317 0.34130005
v 4.41992904 -0.15045317 0.34130005
v 4.42068864 -0.15063817 0.34047011
v 4.41992904 -0.15045317 0.34047011
v 4.41992904 -0.15045317 0.34130005
v 4.42068864 -0.15063817 0.34130005
v 4.42122813 -0.15120318 0.34047011
v 4.42068864 -0.15063817 0.34047011
v 4.42068864 -0.15063817 0.34130005
v 4.42122813 -0.15120318 0.34130005
v 4.42176764 -0.15063817 0.34130005
v 4.42122813 -0.15120318 0.34047011
v 4.42122813 -0.15120318 0.34130005
v 4.42176764 -0.15063817 0.34047011
v 4.42252714 -0.15045317 0.34130005
v 4.42176764 -0.15063817 0.34047011
v 4.42176764 -0.15063817 0.34130005
v 4.42252714 -0.15045317 0.34047011
v 4.42230713 -0.14970317 0.34047011
v 4.42252714 -0.15045317 0.34130005
v 4.42230713 -0.14970317 0.34130005
v 4.42252714 -0.15045317 0.34047011
v 4.42252714 -0.14895318 0.34130005
v 4.42230713 -0.14970317 0.34047011
v 4.42230713 -0.14970317 0.34130005
v 4.42252714 -0.14895318 0.34047011
v 4.42176764 -0.14876918 0.34047011
v 4.42252714 -0.14895318 0.34130005
v 4.42176764 -0.14876918 0.34130005
v 4.42252714 -0.14895318 0.34047011
v 4.42122813 -0.14820317 0.34047011
v 4.42176764 -0.14876918 0.34130005
v 4.42122813 -0.14820317 0.34130005
v 4.42176764 -0.14876918 0.34047011
v 4.42176764 -0.15063817 0.34047011
v 4.42176764 -0.14876918 0.34047011
v 4.42068864 -0.14876918 0.34047011
v 4.41992904 -0.15045317 0.34047011
v 4.42068864 -0.15063817 0.34047011
v 4.42014904 -0.14970317 0.34047011
v 4.42122813 -0.15120318 0.34047011
v 4.42230713 -0.14970317 0.34047011
v 4.42252714 -0.15045317 0.34047011
v 4.42252714 -0.14895318 0.34047011
v 4.42122813 -0.14820317 0.34047011
v 4.41992904 -0.14895318 0.34047011
v 4.48815561 -0.15072077 0.33130006
v 4.48789268 -0.15095047 0.33965007
v 4.48765559 -0.15108738 0.33130006
v 4.48837626 -0.15043969 0.33965007
v 4.48847746 -0.15019157 0.33130006
v 4.48855773 -0.14970374 0.33965007
v 4.48854603 -0.14970317 0.33130006
v 4.48744545 -0.15115389 0.33965007
v 4.48704487 -0.15120902 0.33130006
v 4.48690782 -0.15120829 0.33965007
v 4.48643701 -0.15108731 0.33130006
v 4.48631456 -0.15102310 0.33965007
v 4.48593626 -0.15072105 0.33130006
v 4.48593042 -0.15071119 0.33965007
v 4.48561430 -0.15019032 0.33130006
v 4.48566468 -0.15031060 0.33965007
v 4.48553468 -0.14970375 0.33965007
v 4.48554603 -0.14970317 0.33130006
v 4.48842849 -0.14907593 0.33130006
v 4.48843845 -0.14912523 0.33965007
v 4.48855667 -0.14970265 0.33965007
v 4.48782771 -0.14841397 0.33965007
v 4.48818700 -0.14872302 0.33965007
v 4.48800476 -0.14853954 0.33130006
v 4.48669673 -0.14823640 0.33130006
v 4.48684058 -0.14820547 0.33965007
v 4.48738977 -0.14822420 0.33130006
v 4.48739018 -0.14823923 0.33965007
v 4.48613919 -0.14849303 0.33130006
v 4.48620393 -0.14844770 0.33965007
v 4.48582051 -0.14883151 0.33965007
v 4.48566359 -0.14907531 0.33130006
v 4.48560746 -0.14925262 0.33965007
v 4.48554104 -0.14970293 0.33130006
v 4.48554304 -0.14970302 0.33965007
v 4.48855100 -0.14970293 0.33130006
v 4.48822982 -0.15062418 0.33130006
v 4.48806233 -0.15080617 0.33130006
v 4.48786702 -0.15095817 0.33130006
v 4.48764883 -0.15107717 0.33130006
v 4.48836542 -0.15041717 0.33130006
v 4.48846493 -0.15019018 0.33130006
v 4.48741472 -0.15115718 0.33130006
v 4.48852552 -0.14995018 0.33130006
v 4.48717063 -0.15119817 0.33130006
v 4.48854603 -0.14970317 0.33130006
v 4.48667813 -0.15115718 0.33130006
v 4.48846976 -0.14922600 0.33130006
v 4.48853306 -0.14949467 0.33130006
v 4.48692252 -0.15119817 0.33130006
v 4.48838853 -0.14903418 0.33130006
v 4.48644422 -0.15107717 0.33130006
v 4.48622583 -0.15095917 0.33130006
v 4.48562722 -0.15019018 0.33130006
v 4.48556652 -0.14995018 0.33130006
v 4.48739701 -0.14824345 0.33130006
v 4.48572693 -0.15041717 0.33130006
v 4.48765187 -0.14832907 0.33130006
v 4.48789456 -0.14846475 0.33130006
v 4.48683809 -0.14821670 0.33130006
v 4.48558384 -0.14936111 0.33130006
v 4.48656831 -0.14827905 0.33130006
v 4.48567061 -0.14910073 0.33130006
v 4.48631047 -0.14839450 0.33130006
v 4.48580684 -0.14885450 0.33130006
v 4.48598419 -0.14864180 0.33130006
v 4.48614193 -0.14850617 0.33130006
v 4.48554479 -0.14965143 0.33130006
v 4.48711873 -0.14820299 0.33130006
v 4.48586272 -0.15062518 0.33130006
v 4.48603012 -0.15080718 0.33130006
v 4.48810680 -0.14864013 0.33130006
v 4.48828534 -0.14885538 0.33130006
v 4.48429603 -0.14970317 0.34090010
v 4.48431868 -0.14933435 0.34090022
v 4.48555803 -0.14950342 0.33964996
v 4.48451481 -0.14862264 0.34090034
v 4.48563740 -0.14917717 0.33965043
v 4.48439543 -0.14897218 0.34090010
v 4.48474460 -0.14819341 0.34090022
v 4.48505280 -0.14780446 0.34090022
v 4.48582702 -0.14882317 0.33965043
v 4.48605512 -0.14857533 0.33965019
v 4.48542583 -0.14747865 0.34090022
v 4.48607839 -0.14712664 0.34090034
v 4.48655302 -0.14699499 0.34090022
v 4.48671313 -0.14823716 0.33965043
v 4.48645612 -0.14832417 0.33965007
v 4.48731095 -0.14822582 0.33965019
v 4.48704573 -0.14820223 0.33965019
v 4.48704615 -0.14695082 0.34090022
v 4.48750943 -0.14827617 0.33965007
v 4.48753550 -0.14699466 0.34090034
v 4.48789563 -0.14708718 0.34090010
v 4.48770344 -0.14835338 0.33965007
v 4.48824545 -0.14722520 0.34090022
v 4.48793001 -0.14848929 0.33965019
v 4.48866794 -0.14747911 0.34090022
v 4.48813220 -0.14866654 0.33965019
v 4.48903765 -0.14780341 0.34090022
v 4.48825963 -0.14882117 0.33965007
v 4.48836925 -0.14899355 0.33965007
v 4.48934452 -0.14818870 0.34090034
v 4.48957758 -0.14862252 0.34090022
v 4.48847427 -0.14923989 0.33965019
v 4.48972984 -0.14909036 0.34090022
v 4.48853431 -0.14950133 0.33964996
v 4.48978533 -0.14945618 0.34090010
v 4.48854608 -0.14970317 0.33965007
v 4.48979579 -0.14970317 0.34090034
v 4.48627404 -0.14841629 0.33965019
v 4.48574252 -0.14728218 0.34090010
v 4.48554601 -0.14970317 0.33965007
v 4.48555911 -0.14991019 0.33965019
v 4.48439483 -0.15043517 0.34090010
v 4.48431706 -0.15006922 0.34089986
v 4.48554601 -0.14970317 0.33965007
v 4.48584872 -0.15060718 0.33965007
v 4.48505458 -0.15160314 0.34090022
v 4.48474750 -0.15121762 0.34090034
v 4.48542440 -0.15192755 0.34090022
v 4.48631305 -0.15101319 0.33965019
v 4.48584676 -0.15218120 0.34090034
v 4.48598365 -0.15076380 0.33965019
v 4.48650382 -0.15110118 0.33965007
v 4.48655680 -0.15241177 0.34090022
v 4.48690732 -0.15119717 0.33965007
v 4.48704622 -0.15245550 0.34090034
v 4.48778089 -0.15101312 0.33965019
v 4.48866658 -0.15192742 0.34090022
v 4.48834952 -0.15212418 0.34090010
v 4.48801392 -0.15227970 0.34090022
v 4.48752492 -0.15112648 0.33965019
v 4.48800240 -0.15086041 0.33965019
v 4.48903752 -0.15160359 0.34090022
v 4.48828624 -0.15054999 0.33965019
v 4.48927142 -0.15131917 0.34090010
v 4.48815462 -0.15071417 0.33965007
v 4.48946996 -0.15100729 0.34090022
v 4.48841974 -0.15030974 0.33965019
v 4.48966393 -0.15055233 0.34090022
v 4.48850810 -0.15004543 0.33965019
v 4.48977463 -0.15007068 0.34089927
v 4.48854973 -0.14970338 0.33965067
v 4.48979579 -0.14970317 0.34090034
v 4.48753941 -0.15241134 0.34090022
v 4.48711945 -0.15120303 0.33965019
v 4.48732152 -0.15117818 0.33965007
v 4.48670058 -0.15116378 0.33965019
v 4.48619643 -0.15231917 0.34090010
v 4.48614183 -0.15090018 0.33965007
v 4.48573273 -0.15043064 0.33965019
v 4.48562213 -0.15017864 0.33965019
v 4.48451483 -0.15078471 0.34090022
v 4.48429603 -0.14970317 0.34090010
v 4.48968443 -0.14887960 0.34090010
v 4.48922120 -0.14799800 0.34090010
v 4.48965841 -0.14879947 0.34130005
v 4.48826160 -0.14722745 0.34130005
v 4.48908059 -0.14781896 0.34130005
v 4.48836937 -0.14726632 0.34090010
v 4.48729432 -0.14695055 0.34090010
v 4.48729648 -0.14694194 0.34130005
v 4.48654908 -0.14699545 0.34090010
v 4.48630265 -0.14704830 0.34130005
v 4.48549410 -0.14741608 0.34130005
v 4.48583751 -0.14721789 0.34090010
v 4.48512487 -0.14772510 0.34090010
v 4.48459934 -0.14841799 0.34090010
v 4.48477664 -0.14812506 0.34130005
v 4.48436263 -0.14904259 0.34130005
v 4.48435842 -0.14911071 0.34090010
v 4.48429044 -0.14970290 0.34090010
v 4.48429603 -0.14970317 0.34130005
v 4.48980534 -0.14970274 0.34130005
v 4.48980177 -0.14970290 0.34090010
v 4.48945092 -0.15106588 0.34130005
v 4.48968336 -0.15052813 0.34090010
v 4.48972110 -0.15035018 0.34130005
v 4.48888062 -0.15177026 0.34090010
v 4.48935159 -0.15120738 0.34090010
v 4.48803916 -0.15229134 0.34130005
v 4.48790983 -0.15233755 0.34090010
v 4.48679775 -0.15245580 0.34090010
v 4.48679559 -0.15246440 0.34130005
v 4.48583043 -0.15217888 0.34130005
v 4.48572272 -0.15214005 0.34090010
v 4.48487086 -0.15140834 0.34090010
v 4.48501146 -0.15158736 0.34130005
v 4.48443332 -0.15060621 0.34130005
v 4.48440742 -0.15052637 0.34090010
v 4.48428671 -0.14970360 0.34130005
v 4.48429028 -0.14970344 0.34090010
v 4.48889310 -0.15175092 0.34130005
v 4.48980511 -0.14970362 0.34130005
v 4.48980161 -0.14970344 0.34090010
v 4.48501363 -0.15155617 0.34130005
v 4.48519303 -0.15173518 0.34130005
v 4.48574702 -0.15045317 0.34130005
v 4.48812502 -0.14970317 0.34130005
v 4.48979602 -0.14970317 0.34130005
v 4.48978463 -0.14944918 0.34130005
v 4.48654102 -0.15240618 0.34130005
v 4.48704602 -0.15120318 0.34130005
v 4.48629383 -0.15234817 0.34130005
v 4.48559823 -0.15204118 0.34130005
v 4.48582002 -0.15216517 0.34130005
v 4.48650653 -0.15063817 0.34130005
v 4.48538852 -0.15189817 0.34130005
v 4.48679252 -0.15244117 0.34130005
v 4.48704652 -0.15245318 0.34130005
v 4.48470763 -0.15115018 0.34130005
v 4.48485123 -0.15136018 0.34130005
v 4.48730022 -0.15244117 0.34130005
v 4.48755183 -0.15240618 0.34130005
v 4.48458423 -0.15092918 0.34130005
v 4.48448163 -0.15069618 0.34130005
v 4.48779932 -0.15234717 0.34130005
v 4.48440073 -0.15045617 0.34130005
v 4.48430743 -0.14995717 0.34130005
v 4.48434253 -0.15020917 0.34130005
v 4.48804003 -0.15226617 0.34130005
v 4.48849422 -0.15204018 0.34130005
v 4.48758553 -0.15063817 0.34130005
v 4.48827213 -0.15216417 0.34130005
v 4.48448173 -0.14871117 0.34130005
v 4.48574702 -0.14895318 0.34130005
v 4.48458403 -0.14847817 0.34130005
v 4.48870382 -0.15189717 0.34130005
v 4.48519303 -0.14767117 0.34130005
v 4.48501313 -0.14785118 0.34130005
v 4.48924113 -0.15135918 0.34130005
v 4.48938442 -0.15115018 0.34130005
v 4.48834502 -0.15045317 0.34130005
v 4.48538833 -0.14750918 0.34130005
v 4.48650653 -0.14876918 0.34130005
v 4.48559782 -0.14736618 0.34130005
v 4.48969073 -0.15045517 0.34130005
v 4.48974883 -0.15020817 0.34130005
v 4.48704602 -0.14820317 0.34130005
v 4.48581993 -0.14724217 0.34130005
v 4.48834502 -0.14895318 0.34130005
v 4.48961042 -0.14871019 0.34130005
v 4.48950782 -0.14847718 0.34130005
v 4.48605203 -0.14714018 0.34130005
v 4.48629272 -0.14705918 0.34130005
v 4.48758553 -0.14876918 0.34130005
v 4.48849383 -0.14736518 0.34130005
v 4.48827202 -0.14724117 0.34130005
v 4.48679182 -0.14696517 0.34130005
v 4.48704552 -0.14695317 0.34130005
v 4.48729952 -0.14696517 0.34130005
v 4.48803942 -0.14713817 0.34130005
v 4.48779823 -0.14705817 0.34130005
v 4.48938442 -0.14825618 0.34130005
v 4.48924082 -0.14804617 0.34130005
v 4.48870352 -0.14750817 0.34130005
v 4.48889903 -0.14767117 0.34130005
v 4.48755102 -0.14700017 0.34130005
v 4.48907842 -0.14785018 0.34130005
v 4.48654023 -0.14700017 0.34130005
v 4.48974953 -0.14919717 0.34130005
v 4.48969143 -0.14895118 0.34130005
v 4.48978393 -0.14995717 0.34130005
v 4.48950802 -0.15092818 0.34130005
v 4.48961042 -0.15069618 0.34130005
v 4.48485093 -0.14804717 0.34130005
v 4.48907892 -0.15155517 0.34130005
v 4.48470763 -0.14825618 0.34130005
v 4.48440133 -0.14895118 0.34130005
v 4.48434323 -0.14919817 0.34130005
v 4.48430813 -0.14944918 0.34130005
v 4.48429603 -0.14970317 0.34130005
v 4.48596702 -0.14970317 0.34130005
v 4.48889912 -0.15173518 0.34130005
v 4.48605262 -0.15226818 0.34130005
v 4.48650653 -0.14876918 0.34047011
v 4.48704602 -0.14820317 0.34047011
v 4.48704602 -0.14820317 0.34130005
v 4.48650653 -0.14876918 0.34130005
v 4.48574702 -0.14895318 0.34047011
v 4.48650653 -0.14876918 0.34047011
v 4.48650653 -0.14876918 0.34130005
v 4.48574702 -0.14895318 0.34130005
v 4.48596702 -0.14970317 0.34047011
v 4.48574702 -0.14895318 0.34047011
v 4.48574702 -0.14895318 0.34130005
v 4.48596702 -0.14970317 0.34130005
v 4.48574702 -0.15045317 0.34047011
v 4.48596702 -0.14970317 0.34047011
v 4.48596702 -0.14970317 0.34130005
v 4.48574702 -0.15045317 0.34130005
v 4.48650653 -0.15063817 0.34047011
v 4.48574702 -0.15045317 0.34047011
v 4.48574702 -0.15045317 0.34130005
v 4.48650653 -0.15063817 0.34130005
v 4.48704602 -0.15120318 0.34047011
v 4.48650653 -0.15063817 0.34047011
v 4.48650653 -0.15063817 0.34130005
v 4.48704602 -0.15120318 0.34130005
v 4.48758553 -0.15063817 0.34130005
v 4.48704602 -0.15120318 0.34047011
v 4.48704602 -0.15120318 0.34130005
v 4.48758553 -0.15063817 0.34047011
v 4.48834502 -0.15045317 0.34130005
v 4.48758553 -0.15063817 0.34047011
v 4.48758553 -0.15063817 0.34130005
v 4.48834502 -0.15045317 0.34047011
v 4.48812502 -0.14970317 0.34047011
v 4.48834502 -0.15045317 0.34130005
v 4.48812502 -0.14970317 0.34130005
v 4.48834502 -0.15045317 0.34047011
v 4.48834502 -0.14895318 0.34130005
v 4.48812502 -0.14970317 0.34047011
v 4.48812502 -0.14970317 0.34130005
v 4.48834502 -0.14895318 0.34047011
v 4.48758553 -0.14876918 0.34047011
v 4.48834502 -0.14895318 0.34130005
v 4.48758553 -0.14876918 0.34130005
v 4.48834502 -0.14895318 0.34047011
v 4.48704602 -0.14820317 0.34047011
v 4.48758553 -0.14876918 0.34130005
v 4.48704602 -0.14820317 0.34130005
v 4.48758553 -0.14876918 0.34047011
v 4.48758553 -0.15063817 0.34047011
v 4.48758553 -0.14876918 0.34047011
v 4.48650653 -0.14876918 0.34047011
v 4.48574702 -0.15045317 0.34047011
v 4.48650653 -0.15063817 0.34047011
v 4.48596702 -0.14970317 0.34047011
v 4.48704602 -0.15120318 0.34047011
v 4.48812502 -0.14970317 0.34047011
v 4.48834502 -0.15045317 0.34047011
v 4.48834502 -0.14895318 0.34047011
v 4.48704602 -0.14820317 0.34047011
v 4.48574702 -0.14895318 0.34047011
v 4.45479995 -0.18339939 0.33115010
v 4.45466722 -0.18346400 0.32680015
v 4.45514153 -0.18309547 0.32680016
v 4.45536958 -0.18276894 0.33115010
v 4.45544847 -0.18254300 0.32680015
v 4.45550554 -0.18210946 0.33115010
v 4.45549993 -0.18210918 0.32680016
v 4.45410767 -0.18361249 0.32680015
v 4.45417644 -0.18360433 0.33115009
v 4.45365092 -0.18357687 0.33115009
v 4.45362369 -0.18356618 0.32680015
v 4.45314614 -0.18335096 0.33115010
v 4.45320257 -0.18338653 0.32680015
v 4.45254510 -0.18251797 0.33115009
v 4.45257507 -0.18260209 0.32680015
v 4.45279256 -0.18300903 0.33115010
v 4.45249497 -0.18210942 0.32680015
v 4.45249993 -0.18210917 0.33115010
v 4.45283573 -0.18306514 0.32680015
v 4.45465633 -0.18125317 0.33197014
v 4.45441341 -0.18310617 0.33197014
v 4.45506981 -0.18225018 0.33197014
v 4.45280940 -0.18119717 0.33197014
v 4.45293005 -0.18196917 0.33197014
v 4.45358645 -0.18111317 0.33197014
v 4.45334352 -0.18296617 0.33197014
v 4.45380496 -0.18359717 0.33197014
v 4.45519046 -0.18302217 0.33197014
v 4.45538543 -0.18153417 0.33197014
v 4.45419490 -0.18062217 0.33197014
v 4.45261443 -0.18268417 0.33197014
v 4.45280940 -0.18119717 0.33197014
v 4.45358645 -0.18111317 0.33197014
v 4.45358645 -0.18111317 0.33280007
v 4.45280940 -0.18119717 0.33280007
v 4.45358645 -0.18111317 0.33197014
v 4.45419490 -0.18062217 0.33197014
v 4.45419490 -0.18062217 0.33280008
v 4.45358645 -0.18111317 0.33280007
v 4.45419490 -0.18062217 0.33197014
v 4.45465633 -0.18125317 0.33280007
v 4.45419490 -0.18062217 0.33280008
v 4.45465633 -0.18125317 0.33197014
v 4.45465633 -0.18125317 0.33197014
v 4.45538543 -0.18153417 0.33280008
v 4.45465633 -0.18125317 0.33280007
v 4.45538543 -0.18153417 0.33197014
v 4.45538543 -0.18153417 0.33280008
v 4.45506981 -0.18225018 0.33197014
v 4.45506981 -0.18225018 0.33280007
v 4.45538543 -0.18153417 0.33197014
v 4.45506981 -0.18225018 0.33197014
v 4.45519046 -0.18302217 0.33280008
v 4.45506981 -0.18225018 0.33280007
v 4.45519046 -0.18302217 0.33197014
v 4.45519046 -0.18302217 0.33280008
v 4.45441341 -0.18310617 0.33197014
v 4.45441341 -0.18310617 0.33280007
v 4.45519046 -0.18302217 0.33197014
v 4.45441341 -0.18310617 0.33280007
v 4.45380496 -0.18359717 0.33197014
v 4.45380496 -0.18359717 0.33280007
v 4.45441341 -0.18310617 0.33197014
v 4.45380496 -0.18359717 0.33197014
v 4.45334352 -0.18296617 0.33197014
v 4.45334352 -0.18296617 0.33280008
v 4.45380496 -0.18359717 0.33280007
v 4.45334352 -0.18296617 0.33197014
v 4.45261443 -0.18268417 0.33197014
v 4.45261443 -0.18268417 0.33280007
v 4.45334352 -0.18296617 0.33280008
v 4.45261443 -0.18268417 0.33197014
v 4.45293005 -0.18196917 0.33197014
v 4.45293005 -0.18196917 0.33280007
v 4.45261443 -0.18268417 0.33280007
v 4.45293005 -0.18196917 0.33197014
v 4.45280940 -0.18119717 0.33197014
v 4.45280940 -0.18119717 0.33280007
v 4.45293005 -0.18196917 0.33280007
v 4.45419490 -0.18062217 0.33280008
v 4.45402049 -0.17935917 0.33280007
v 4.45376660 -0.17936917 0.33280007
v 4.45322851 -0.18474917 0.33280008
v 4.45347374 -0.18480817 0.33280007
v 4.45380496 -0.18359717 0.33280007
v 4.45298934 -0.18466717 0.33280008
v 4.45275872 -0.18456317 0.33280008
v 4.45441341 -0.18310617 0.33280007
v 4.45497696 -0.18468018 0.33280008
v 4.45520863 -0.18457917 0.33280007
v 4.45293005 -0.18196917 0.33280007
v 4.45126356 -0.18183617 0.33280008
v 4.45125005 -0.18208917 0.33280007
v 4.45144322 -0.18109717 0.33280007
v 4.45280940 -0.18119717 0.33280007
v 4.45154708 -0.18086617 0.33280007
v 4.45130072 -0.18158417 0.33280007
v 4.45136052 -0.18133717 0.33280007
v 4.45216209 -0.18006417 0.33280008
v 4.45198168 -0.18024117 0.33280007
v 4.45601728 -0.18397817 0.33280008
v 4.45519046 -0.18302217 0.33280008
v 4.45583566 -0.18415717 0.33280007
v 4.45655766 -0.18312017 0.33280008
v 4.45663947 -0.18288117 0.33280008
v 4.45645367 -0.18335117 0.33280008
v 4.45669909 -0.18263517 0.33280008
v 4.45673600 -0.18238517 0.33280008
v 4.45506981 -0.18225018 0.33280007
v 4.45538543 -0.18153417 0.33280008
v 4.45670659 -0.18162417 0.33280008
v 4.45664965 -0.18137317 0.33280007
v 4.45674004 -0.18187717 0.33280007
v 4.45501256 -0.17955317 0.33280007
v 4.45477190 -0.17947017 0.33280007
v 4.45427342 -0.17937317 0.33280008
v 4.45452545 -0.17941017 0.33280008
v 4.45634876 -0.18067917 0.33280008
v 4.45646997 -0.18090018 0.33280007
v 4.45586896 -0.18009217 0.33280008
v 4.45604729 -0.18027317 0.33280008
v 4.45620757 -0.18047017 0.33280007
v 4.45465633 -0.18125317 0.33280007
v 4.45567282 -0.17992717 0.33280008
v 4.45657075 -0.18113317 0.33280007
v 4.45546342 -0.17978117 0.33280007
v 4.45524333 -0.17965617 0.33280007
v 4.45351467 -0.17940317 0.33280008
v 4.45326664 -0.17945917 0.33280007
v 4.45674971 -0.18213217 0.33280007
v 4.45358645 -0.18111317 0.33280007
v 4.45302554 -0.17953817 0.33280008
v 4.45279266 -0.17963917 0.33280008
v 4.45235891 -0.17990317 0.33280007
v 4.45256931 -0.17976117 0.33280008
v 4.45632873 -0.18357217 0.33280008
v 4.45618166 -0.18378317 0.33280008
v 4.45181729 -0.18043617 0.33280007
v 4.45167276 -0.18064417 0.33280007
v 4.45563964 -0.18431717 0.33280008
v 4.45473500 -0.18475917 0.33280008
v 4.45448714 -0.18481617 0.33280007
v 4.45261443 -0.18268417 0.33280007
v 4.45423201 -0.18484917 0.33280008
v 4.45372386 -0.18484517 0.33280007
v 4.45397746 -0.18485917 0.33280008
v 4.45125989 -0.18234317 0.33280008
v 4.45129320 -0.18259517 0.33280007
v 4.45134950 -0.18284317 0.33280007
v 4.45253795 -0.18443817 0.33280007
v 4.45152917 -0.18331717 0.33280007
v 4.45142838 -0.18308417 0.33280008
v 4.45165144 -0.18354017 0.33280007
v 4.45179324 -0.18375017 0.33280007
v 4.45213210 -0.18412817 0.33280007
v 4.45195427 -0.18394717 0.33280008
v 4.45334352 -0.18296617 0.33280008
v 4.45232704 -0.18429217 0.33280007
v 4.45543020 -0.18445817 0.33280007
v 4.45636909 -0.18069885 0.33280007
v 4.45669951 -0.18151501 0.33280007
v 4.45660385 -0.18118242 0.33240012
v 4.45465070 -0.18478897 0.33240013
v 4.45556680 -0.18439575 0.33240012
v 4.45474961 -0.18476337 0.33280008
v 4.45387332 -0.18487035 0.33280007
v 4.45390784 -0.18486531 0.33240013
v 4.45317033 -0.18473869 0.33240013
v 4.45289728 -0.18464403 0.33280007
v 4.45231624 -0.18430785 0.33240012
v 4.45232704 -0.18429217 0.33280007
v 4.45555379 -0.18439562 0.33280007
v 4.45625896 -0.18369091 0.33240012
v 4.45634593 -0.18358803 0.33280007
v 4.45660196 -0.18302304 0.33240012
v 4.45673297 -0.18252324 0.33280007
v 4.45676362 -0.18216619 0.33240013
v 4.45610396 -0.18031639 0.33240012
v 4.45568979 -0.17990707 0.33280007
v 4.45567282 -0.17992717 0.33240013
v 4.45568763 -0.17990561 0.33280008
v 4.45568349 -0.17991166 0.33240013
v 4.45482070 -0.17947770 0.33240013
v 4.45474504 -0.17945479 0.33280007
v 4.45384638 -0.17934140 0.33240013
v 4.45312670 -0.17948717 0.33280008
v 4.45399908 -0.17935151 0.33280007
v 4.45189247 -0.18033106 0.33240013
v 4.45181303 -0.18042913 0.33280008
v 4.45235295 -0.17989820 0.33280008
v 4.45138765 -0.18120549 0.33280007
v 4.45149059 -0.18096599 0.33240013
v 4.45125251 -0.18180479 0.33240013
v 4.45145393 -0.18318617 0.33280008
v 4.45123719 -0.18220109 0.33280007
v 4.45132276 -0.18279699 0.33240012
v 4.45174036 -0.18370153 0.33240013
v 4.45185688 -0.18383685 0.33280007
v 4.45232101 -0.18429931 0.33280007
v 4.45232343 -0.18429645 0.33240012
v 4.45265120 -0.17968783 0.33240012
v 4.45263358 -0.18449859 0.33240025
v 4.45308744 -0.18330017 0.33115009
v 4.45327416 -0.18342375 0.33115022
v 4.45296779 -0.18465817 0.33240013
v 4.45453966 -0.18480861 0.33240013
v 4.45425531 -0.18358863 0.33115021
v 4.45453152 -0.18351347 0.33115021
v 4.45417529 -0.18485417 0.33240012
v 4.45403407 -0.18360917 0.33115010
v 4.45478580 -0.18338897 0.33114998
v 4.45555790 -0.18437517 0.33240012
v 4.45524308 -0.18456423 0.33240013
v 4.45632361 -0.18358487 0.33240013
v 4.45610510 -0.18387917 0.33240012
v 4.45512201 -0.18310699 0.33115022
v 4.45584755 -0.18414934 0.33240012
v 4.45496606 -0.18325717 0.33115009
v 4.45650009 -0.18325517 0.33240012
v 4.45538901 -0.18267617 0.33115009
v 4.45663431 -0.18290858 0.33240025
v 4.45545780 -0.18246977 0.33115021
v 4.45549977 -0.18218200 0.33115021
v 4.45673458 -0.18242677 0.33240024
v 4.45548686 -0.18190313 0.33115021
v 4.45542556 -0.18163641 0.33115021
v 4.45667157 -0.18144646 0.33240025
v 4.45674698 -0.18193360 0.33240024
v 4.45531607 -0.18138583 0.33115022
v 4.45655542 -0.18109317 0.33240013
v 4.45639816 -0.18075882 0.33240025
v 4.45611803 -0.18035070 0.33240036
v 4.45516166 -0.18115763 0.33115022
v 4.45491564 -0.18091584 0.33114986
v 4.45586218 -0.18008517 0.33240012
v 4.45567282 -0.17992717 0.33240013
v 4.45529284 -0.18287284 0.33115022
v 4.45489898 -0.18470817 0.33240012
v 4.45379651 -0.18485447 0.33240024
v 4.45381982 -0.18359981 0.33115022
v 4.45353636 -0.18353771 0.33115021
v 4.45331537 -0.18477525 0.33240013
v 4.45232704 -0.18429217 0.33240012
v 4.45232704 -0.18429217 0.33240012
v 4.45204835 -0.18405004 0.33240084
v 4.45292926 -0.18316232 0.33114998
v 4.45180655 -0.18376917 0.33240012
v 4.45139853 -0.18300932 0.33240024
v 4.45127998 -0.18253299 0.33240025
v 4.45255596 -0.18251717 0.33115010
v 4.45160075 -0.18345904 0.33240025
v 4.45262368 -0.18271032 0.33115021
v 4.45167279 -0.18063937 0.33240013
v 4.45287473 -0.18111571 0.33115022
v 4.45270535 -0.18134860 0.33115022
v 4.45144705 -0.18107944 0.33240025
v 4.45332986 -0.18076564 0.33115022
v 4.45265160 -0.17971317 0.33240013
v 4.45298483 -0.17955143 0.33240024
v 4.45234278 -0.17991323 0.33240085
v 4.45308600 -0.18091824 0.33114998
v 4.45353725 -0.18068217 0.33115009
v 4.45346037 -0.17941087 0.33240037
v 4.45375840 -0.18062766 0.33115022
v 4.45382457 -0.17936517 0.33240013
v 4.45418675 -0.17936308 0.33240013
v 4.45404522 -0.18060850 0.33115021
v 4.45433035 -0.18064452 0.33115022
v 4.45456090 -0.17941717 0.33240012
v 4.45492276 -0.17951689 0.33240024
v 4.45460225 -0.18073353 0.33115022
v 4.45536633 -0.17972067 0.33240024
v 4.45491489 -0.18091499 0.33114998
v 4.45567282 -0.17992717 0.33240013
v 4.45197614 -0.18024363 0.33240024
v 4.45251220 -0.18231444 0.33115022
v 4.45124799 -0.18203941 0.33240025
v 4.45250030 -0.18203526 0.33115021
v 4.45258252 -0.18161393 0.33115022
v 4.45252804 -0.18182117 0.33115009
v 4.45130437 -0.18155048 0.33240024
v 4.45275783 -0.18295438 0.33115022
v 4.45308744 -0.18330017 0.33115009
v 4.45521562 -0.18299061 0.32680016
v 4.45453640 -0.18351212 0.32680016
v 4.45536270 -0.18274044 0.32680016
v 4.45502714 -0.18320517 0.32680016
v 4.45479779 -0.18338156 0.32680016
v 4.45545827 -0.18246781 0.32680015
v 4.45425565 -0.18358886 0.32680016
v 4.45549986 -0.18218226 0.32680015
v 4.45397065 -0.18361085 0.32680015
v 4.45548706 -0.18190339 0.32680015
v 4.45368077 -0.18357719 0.32680015
v 4.45542495 -0.18163736 0.32680015
v 4.45340058 -0.18348610 0.32680016
v 4.45531554 -0.18138680 0.32680016
v 4.45320742 -0.18338318 0.32680015
v 4.45303338 -0.18325883 0.32680016
v 4.45520129 -0.18121217 0.32680016
v 4.45506793 -0.18105479 0.32680015
v 4.45283985 -0.18306221 0.32680016
v 4.45491241 -0.18091917 0.32680016
v 4.45272152 -0.18289417 0.32680016
v 4.45262516 -0.18271307 0.32680015
v 4.45446668 -0.18068273 0.32680016
v 4.45473482 -0.18079986 0.32680016
v 4.45251258 -0.18231525 0.32680016
v 4.45417985 -0.18061819 0.32680015
v 4.45254192 -0.18174951 0.32680016
v 4.45360492 -0.18066009 0.32680015
v 4.45388849 -0.18061210 0.32680016
v 4.45250003 -0.18203333 0.32680016
v 4.45270523 -0.18134846 0.32680016
v 4.45333316 -0.18076423 0.32680016
v 4.45261060 -0.18154317 0.32680016
v 4.45283045 -0.18116918 0.32680015
v 4.45297964 -0.18100726 0.32680015
v 4.45314827 -0.18087418 0.32680015
v 4.45255631 -0.18251717 0.32680016
v 4.45542417 -0.18161562 0.32680016
v 4.45516397 -0.18115427 0.32680015
v 4.45543830 -0.18162865 0.33115009
v 4.45466776 -0.18076209 0.33115010
v 4.45507453 -0.18104946 0.33115009
v 4.45479445 -0.18083078 0.32680016
v 4.45367389 -0.18063961 0.33115009
v 4.45420411 -0.18061464 0.33115009
v 4.45423311 -0.18061390 0.32680015
v 4.45275176 -0.18126947 0.33115009
v 4.45314223 -0.18086469 0.33115010
v 4.45280594 -0.18117843 0.32680015
v 4.45253398 -0.18174752 0.33115009
v 4.45253669 -0.18174766 0.32680016
v 4.45249993 -0.18210918 0.32680016
v 4.45249993 -0.18210917 0.33115010
v 4.45344183 -0.18069535 0.32680015
v 4.45550487 -0.18210893 0.32680015
v 4.45549993 -0.18210917 0.33115010
v 4.45263317 -0.09268583 0.32280008
v 4.45264396 -0.09289976 0.33115009
v 4.45266763 -0.09235860 0.33115009
v 4.45363706 -0.09413664 0.32280008
v 4.45317920 -0.09386667 0.33115009
v 4.45302074 -0.09372162 0.32280008
v 4.45365377 -0.09413148 0.33115009
v 4.45413686 -0.09420824 0.33115009
v 4.45413707 -0.09420317 0.32280008
v 4.45281364 -0.09342895 0.33115009
v 4.45270410 -0.09317697 0.32280008
v 4.45275736 -0.09206940 0.32280008
v 4.45292915 -0.09179560 0.33115009
v 4.45317533 -0.09154312 0.32280008
v 4.45338671 -0.09139527 0.33115009
v 4.45363960 -0.09128010 0.32280008
v 4.45413681 -0.09119828 0.32280008
v 4.45413541 -0.09117588 0.33115009
v 4.45423578 -0.09545415 0.33240048
v 4.45377932 -0.09543180 0.33240024
v 4.45406885 -0.09420323 0.33115009
v 4.45524556 -0.09371417 0.33115009
v 4.45626830 -0.09444552 0.33240024
v 4.45510115 -0.09385441 0.33115021
v 4.45201441 -0.09445653 0.33240024
v 4.45171562 -0.09401336 0.33240024
v 4.45281393 -0.09341268 0.33115021
v 4.45381152 -0.09416903 0.33115021
v 4.45649183 -0.09412318 0.33240012
v 4.45537759 -0.09354928 0.33115021
v 4.45667342 -0.09377245 0.33240024
v 4.45551028 -0.09331119 0.33115021
v 4.45330470 -0.09395277 0.33115021
v 4.45238692 -0.09482800 0.33240024
v 4.45312899 -0.09381417 0.33115009
v 4.45682502 -0.09329369 0.33240012
v 4.45557990 -0.09311418 0.33115009
v 4.45562435 -0.09290833 0.33115021
v 4.45687774 -0.09293618 0.33240012
v 4.45688707 -0.09270317 0.33240012
v 4.45563707 -0.09270317 0.33115009
v 4.45588668 -0.09482876 0.33240060
v 4.45487244 -0.09401279 0.33115021
v 4.45544229 -0.09512694 0.33240036
v 4.45461547 -0.09412667 0.33115021
v 4.45509029 -0.09528318 0.33240012
v 4.45471936 -0.09539382 0.33240024
v 4.45434557 -0.09419070 0.33115021
v 4.45355302 -0.09408636 0.33115021
v 4.45282186 -0.09512129 0.33240036
v 4.45297375 -0.09365256 0.33115021
v 4.45270631 -0.09315787 0.33115021
v 4.45151436 -0.09354056 0.33240024
v 4.45264752 -0.09289173 0.33115009
v 4.45140639 -0.09305262 0.33240024
v 4.45263707 -0.09270317 0.33115009
v 4.45138707 -0.09270317 0.33240012
v 4.45329783 -0.09532448 0.33240036
v 4.45467659 -0.09363818 0.33197014
v 4.45467659 -0.09176917 0.33197014
v 4.45359755 -0.09176917 0.33197014
v 4.45283803 -0.09345318 0.33197014
v 4.45359755 -0.09363818 0.33197014
v 4.45305803 -0.09270317 0.33197014
v 4.45413707 -0.09420317 0.33197014
v 4.45521611 -0.09270317 0.33197014
v 4.45543611 -0.09345318 0.33197014
v 4.45543611 -0.09195318 0.33197014
v 4.45413707 -0.09120318 0.33197014
v 4.45283803 -0.09195318 0.33197014
v 4.45413707 -0.09120318 0.33197014
v 4.45467659 -0.09176917 0.33280007
v 4.45413707 -0.09120318 0.33280007
v 4.45467659 -0.09176917 0.33197014
v 4.45467659 -0.09176917 0.33197014
v 4.45543611 -0.09195318 0.33280007
v 4.45467659 -0.09176917 0.33280007
v 4.45543611 -0.09195318 0.33197014
v 4.45543611 -0.09195318 0.33280007
v 4.45521611 -0.09270317 0.33197014
v 4.45521611 -0.09270317 0.33280007
v 4.45543611 -0.09195318 0.33197014
v 4.45521611 -0.09270317 0.33197014
v 4.45543611 -0.09345318 0.33280007
v 4.45521611 -0.09270317 0.33280007
v 4.45543611 -0.09345318 0.33197014
v 4.45543611 -0.09345318 0.33280007
v 4.45467659 -0.09363818 0.33197014
v 4.45467659 -0.09363818 0.33280007
v 4.45543611 -0.09345318 0.33197014
v 4.45467659 -0.09363818 0.33280007
v 4.45413707 -0.09420317 0.33197014
v 4.45413707 -0.09420317 0.33280007
v 4.45467659 -0.09363818 0.33197014
v 4.45413707 -0.09420317 0.33197014
v 4.45359755 -0.09363818 0.33197014
v 4.45359755 -0.09363818 0.33280007
v 4.45413707 -0.09420317 0.33280007
v 4.45359755 -0.09363818 0.33197014
v 4.45283803 -0.09345318 0.33197014
v 4.45283803 -0.09345318 0.33280007
v 4.45359755 -0.09363818 0.33280007
v 4.45283803 -0.09345318 0.33197014
v 4.45305803 -0.09270317 0.33197014
v 4.45305803 -0.09270317 0.33280007
v 4.45283803 -0.09345318 0.33280007
v 4.45305803 -0.09270317 0.33197014
v 4.45283803 -0.09195318 0.33197014
v 4.45283803 -0.09195318 0.33280007
v 4.45305803 -0.09270317 0.33280007
v 4.45283803 -0.09195318 0.33197014
v 4.45359755 -0.09176917 0.33197014
v 4.45359755 -0.09176917 0.33280007
v 4.45283803 -0.09195318 0.33280007
v 4.45359755 -0.09176917 0.33197014
v 4.45413707 -0.09120318 0.33197014
v 4.45413707 -0.09120318 0.33280007
v 4.45359755 -0.09176917 0.33280007
v 4.45210353 -0.09455418 0.33280007
v 4.45228533 -0.09473617 0.33280007
v 4.45283803 -0.09345318 0.33280007
v 4.45521611 -0.09270317 0.33280007
v 4.45688707 -0.09270317 0.33280007
v 4.45687518 -0.09244817 0.33280007
v 4.45362874 -0.09540617 0.33280007
v 4.45413707 -0.09420317 0.33280007
v 4.45338237 -0.09534718 0.33280007
v 4.45269114 -0.09504218 0.33280007
v 4.45291181 -0.09516517 0.33280007
v 4.45359755 -0.09363818 0.33280007
v 4.45248098 -0.09489917 0.33280007
v 4.45388099 -0.09544117 0.33280007
v 4.45413579 -0.09545318 0.33280007
v 4.45179757 -0.09414817 0.33280007
v 4.45194087 -0.09435817 0.33280007
v 4.45439285 -0.09544117 0.33280007
v 4.45464414 -0.09540617 0.33280007
v 4.45167469 -0.09392717 0.33280007
v 4.45157279 -0.09369717 0.33280007
v 4.45489114 -0.09534817 0.33280007
v 4.45149233 -0.09345717 0.33280007
v 4.45139921 -0.09295918 0.33280007
v 4.45143429 -0.09321117 0.33280007
v 4.45513036 -0.09526717 0.33280007
v 4.45558246 -0.09504318 0.33280007
v 4.45467659 -0.09363818 0.33280007
v 4.45536143 -0.09516517 0.33280007
v 4.45157296 -0.09170918 0.33280007
v 4.45283803 -0.09195318 0.33280007
v 4.45167585 -0.09147618 0.33280007
v 4.45579177 -0.09489917 0.33280007
v 4.45228505 -0.09067018 0.33280007
v 4.45210535 -0.09085018 0.33280007
v 4.45633311 -0.09435817 0.33280007
v 4.45647612 -0.09414918 0.33280007
v 4.45543611 -0.09345318 0.33280007
v 4.45248057 -0.09050817 0.33280007
v 4.45359755 -0.09176917 0.33280007
v 4.45268953 -0.09036518 0.33280007
v 4.45678142 -0.09345817 0.33280007
v 4.45683966 -0.09321117 0.33280007
v 4.45413707 -0.09120318 0.33280007
v 4.45291218 -0.09024117 0.33280007
v 4.45543611 -0.09195318 0.33280007
v 4.45670155 -0.09171018 0.33280007
v 4.45659909 -0.09147818 0.33280007
v 4.45314416 -0.09013918 0.33280007
v 4.45338547 -0.09005817 0.33280007
v 4.45467659 -0.09176917 0.33280007
v 4.45558533 -0.09036518 0.33280007
v 4.45536367 -0.09024217 0.33280007
v 4.45388421 -0.08996517 0.33280007
v 4.45413707 -0.08995318 0.33280007
v 4.45439179 -0.08996517 0.33280007
v 4.45513076 -0.09013918 0.33280007
v 4.45489022 -0.09005817 0.33280007
v 4.45647527 -0.09125618 0.33280007
v 4.45633212 -0.09104718 0.33280007
v 4.45579461 -0.09050917 0.33280007
v 4.45599018 -0.09067118 0.33280007
v 4.45464268 -0.09000016 0.33280007
v 4.45616987 -0.09085118 0.33280007
v 4.45363181 -0.09000016 0.33280007
v 4.45684026 -0.09219817 0.33280007
v 4.45678231 -0.09195117 0.33280007
v 4.45687493 -0.09295918 0.33280007
v 4.45659916 -0.09392818 0.33280007
v 4.45670103 -0.09369717 0.33280007
v 4.45194274 -0.09104618 0.33280007
v 4.45616900 -0.09455618 0.33280007
v 4.45179938 -0.09125518 0.33280007
v 4.45149223 -0.09195019 0.33280007
v 4.45143397 -0.09219718 0.33280007
v 4.45139896 -0.09244817 0.33280007
v 4.45138707 -0.09270317 0.33280007
v 4.45305803 -0.09270317 0.33280007
v 4.45598865 -0.09473617 0.33280007
v 4.45314294 -0.09526717 0.33280007
v 4.45642741 -0.09425607 0.33240012
v 4.45648072 -0.09415219 0.33280007
v 4.45590048 -0.09483598 0.33280007
v 4.45423937 -0.09545394 0.33280007
v 4.45405442 -0.09546515 0.33240012
v 4.45496678 -0.09533949 0.33280007
v 4.45203314 -0.09449687 0.33280007
v 4.45184649 -0.09424844 0.33240012
v 4.45238529 -0.09482772 0.33240012
v 4.45155804 -0.09368455 0.33280007
v 4.45148709 -0.09346683 0.33240012
v 4.45136769 -0.09270405 0.33280019
v 4.45137798 -0.09270356 0.33240012
v 4.45268533 -0.09504622 0.33280007
v 4.45307432 -0.09525507 0.33240012
v 4.45347868 -0.09538783 0.33280007
v 4.45489174 -0.09535524 0.33240012
v 4.45568418 -0.09499204 0.33240012
v 4.45678248 -0.09347957 0.33280007
v 4.45683226 -0.09330245 0.33240012
v 4.45689567 -0.09270361 0.33280007
v 4.45688707 -0.09270317 0.33240012
v 4.45658366 -0.09141780 0.33240012
v 4.45605790 -0.09072482 0.33240012
v 4.45616240 -0.09083168 0.33280007
v 4.45534735 -0.09021870 0.33240012
v 4.45438867 -0.08995065 0.33240012
v 4.45536349 -0.09021636 0.33280007
v 4.45426390 -0.08994191 0.33280007
v 4.45351515 -0.09001660 0.33240012
v 4.45339064 -0.09004876 0.33280007
v 4.45270884 -0.09033641 0.33240012
v 4.45196185 -0.09099823 0.33240012
v 4.45211229 -0.09083139 0.33280007
v 4.45161931 -0.09156219 0.33280007
v 4.45149882 -0.09187907 0.33240012
v 4.45136126 -0.09270191 0.33280007
v 4.45138124 -0.09270291 0.33240012
v 4.45269733 -0.09035135 0.33280007
v 4.45665568 -0.09156413 0.33280007
v 4.45682454 -0.09211024 0.33240012
v 4.45691273 -0.09270185 0.33280007
v 4.45689259 -0.09270291 0.33240012
v 4.45686457 -0.09233534 0.33240024
v 4.45563707 -0.09270317 0.33115009
v 4.45562414 -0.09249608 0.33115021
v 4.45678767 -0.09197218 0.33240012
v 4.45547932 -0.09203417 0.33115009
v 4.45537615 -0.09185554 0.33115021
v 4.45643853 -0.09119352 0.33240024
v 4.45575737 -0.09047871 0.33240024
v 4.45613045 -0.09080480 0.33240024
v 4.45519816 -0.09164066 0.33115021
v 4.45498741 -0.09146620 0.33115021
v 4.45544058 -0.09028218 0.33240012
v 4.45413722 -0.08995068 0.33240012
v 4.45463037 -0.08999510 0.33240036
v 4.45434450 -0.09121677 0.33115021
v 4.45454730 -0.09126018 0.33115009
v 4.45413707 -0.09120318 0.33115009
v 4.45392951 -0.09121677 0.33115021
v 4.45366244 -0.09127831 0.33115021
v 4.45341049 -0.09138919 0.33115021
v 4.45293818 -0.09022489 0.33240024
v 4.45251596 -0.09047842 0.33240024
v 4.45214546 -0.09080341 0.33240024
v 4.45307532 -0.09164206 0.33115021
v 4.45293981 -0.09179918 0.33115009
v 4.45183867 -0.09118850 0.33240024
v 4.45282530 -0.09197199 0.33115021
v 4.45271396 -0.09222438 0.33115021
v 4.45160581 -0.09162166 0.33240024
v 4.45264994 -0.09249451 0.33115021
v 4.45145300 -0.09209133 0.33240024
v 4.45139780 -0.09245617 0.33240012
v 4.45263707 -0.09270317 0.33115009
v 4.45138707 -0.09270317 0.33240012
v 4.45323293 -0.09150618 0.33115009
v 4.45328745 -0.09008717 0.33240012
v 4.45364785 -0.08999459 0.33240024
v 4.45510466 -0.09012654 0.33240024
v 4.45474441 -0.09132985 0.33115021
v 4.45556077 -0.09222695 0.33115021
v 4.45666833 -0.09162263 0.33240024
v 4.45688707 -0.09270317 0.33240012
v 4.45537622 -0.09355090 0.32280008
v 4.45524523 -0.09371417 0.32280008
v 4.45509976 -0.09385541 0.32280008
v 4.45547932 -0.09337218 0.32280008
v 4.45474118 -0.09407793 0.32280008
v 4.45492632 -0.09397918 0.32280008
v 4.45556091 -0.09317930 0.32280008
v 4.45454730 -0.09414617 0.32280008
v 4.45562427 -0.09291014 0.32280008
v 4.45434452 -0.09418964 0.32280008
v 4.45413707 -0.09420317 0.32280008
v 4.45563707 -0.09270317 0.32280008
v 4.45556060 -0.09222510 0.32280008
v 4.45562416 -0.09249602 0.32280008
v 4.45366208 -0.09412816 0.32280008
v 4.45392750 -0.09418959 0.32280008
v 4.45547998 -0.09203417 0.32280008
v 4.45340733 -0.09401534 0.32280008
v 4.45537760 -0.09185698 0.32280008
v 4.45318013 -0.09386035 0.32280008
v 4.45519842 -0.09164038 0.32280008
v 4.45298075 -0.09366083 0.32280008
v 4.45286118 -0.09349218 0.32280008
v 4.45498699 -0.09146563 0.32280008
v 4.45269466 -0.09311518 0.32280008
v 4.45461528 -0.09127955 0.32280008
v 4.45276395 -0.09331055 0.32280008
v 4.45480567 -0.09136018 0.32280008
v 4.45407047 -0.09120336 0.32280008
v 4.45265004 -0.09291127 0.32280008
v 4.45263705 -0.09263441 0.32280008
v 4.45267526 -0.09235982 0.32280008
v 4.45385988 -0.09122918 0.32280008
v 4.45297952 -0.09174647 0.32280008
v 4.45312665 -0.09159417 0.32280008
v 4.45328894 -0.09146377 0.32280008
v 4.45366104 -0.09127962 0.32280008
v 4.45346898 -0.09136018 0.32280008
v 4.45282347 -0.09197601 0.32280008
v 4.45273836 -0.09216117 0.32280008
v 4.45434544 -0.09121553 0.32280008
v 4.45463375 -0.09412680 0.32280008
v 4.45466196 -0.09411294 0.33115009
v 4.45413769 -0.09421436 0.33115009
v 4.45515535 -0.09381940 0.32280008
v 4.45519433 -0.09379325 0.33115009
v 4.45564158 -0.09256410 0.33115009
v 4.45556767 -0.09318432 0.33115009
v 4.45556925 -0.09320694 0.32280008
v 4.45548361 -0.09203119 0.33115009
v 4.45561705 -0.09235435 0.32280008
v 4.45525205 -0.09168313 0.32280008
v 4.45515662 -0.09158811 0.33115009
v 4.45463816 -0.09126940 0.32280008
v 4.45463723 -0.09128056 0.33115009
v 4.45413732 -0.09119856 0.33115009
v 4.45413707 -0.09120318 0.32280008
v 4.45413731 -0.09420779 0.32280008
usemtl Base_fa3
f 1 2 3
f 4 5 6
f 7 6 5
f 8 6 7
f 5 4 9
f 10 9 4
f 10 11 9
f 2 11 10
f 11 2 1
f 12 13 3
f 13 1 3
f 13 12 14
f 15 14 12
f 15 16 14
f 17 16 18
f 18 16 15
f 19 20 21
f 22 23 24
f 25 26 27
f 28 29 30
f 27 30 29
f 31 29 28
f 32 31 28
f 26 30 27
f 25 33 26
f 25 24 33
f 33 24 23
f 22 34 23
f 22 19 34
f 34 19 35
f 19 21 35
f 21 20 36
f 37 38 39
f 40 41 42
f 43 42 44
f 45 40 43
f 40 42 43
f 46 45 43
f 46 47 48
f 48 45 46
f 49 50 51
f 47 52 48
f 53 49 54
f 55 56 57
f 54 56 55
f 58 59 60
f 60 57 58
f 61 38 37
f 62 63 64
f 64 65 66
f 67 68 69
f 70 64 63
f 71 67 72
f 67 71 73
f 69 72 67
f 73 71 65
f 65 71 66
f 63 62 74
f 64 66 62
f 38 63 74
f 61 63 38
f 59 37 39
f 60 59 39
f 58 57 56
f 55 53 54
f 54 49 51
f 50 52 51
f 48 52 50
f 75 76 77
f 78 79 80
f 81 82 83
f 84 82 85
f 81 85 82
f 84 86 87
f 86 84 85
f 88 87 86
f 88 86 89
f 88 89 90
f 91 90 92
f 89 92 90
f 91 93 94
f 93 91 92
f 95 96 94
f 94 93 95
f 97 96 98
f 95 98 96
f 98 99 97
f 83 82 100
f 101 83 100
f 101 100 102
f 101 103 104
f 103 101 102
f 104 103 105
f 104 105 106
f 105 80 106
f 80 79 106
f 107 78 80
f 78 107 108
f 109 78 108
f 109 108 110
f 109 110 111
f 112 113 111
f 110 112 111
f 113 112 114
f 112 77 114
f 77 76 114
f 115 76 75
f 116 117 118
f 119 120 118
f 117 119 118
f 121 122 123
f 121 123 124
f 125 126 127
f 126 128 122
f 129 130 131
f 129 131 132
f 133 134 135
f 136 134 137
f 138 139 140
f 135 140 133
f 141 142 143
f 139 143 142
f 141 143 144
f 144 145 146
f 147 148 145
f 146 145 148
f 149 150 147
f 147 150 148
f 146 141 144
f 140 139 142
f 140 135 138
f 129 132 151
f 137 134 133
f 152 136 153
f 134 136 152
f 130 152 153
f 131 130 153
f 151 154 125
f 154 151 132
f 128 123 122
f 125 154 126
f 122 127 126
f 155 121 124
f 155 120 119
f 124 120 155
f 156 157 158
f 159 160 157
f 161 162 163
f 163 164 165
f 166 167 168
f 169 170 168
f 170 169 171
f 169 172 171
f 173 171 172
f 174 171 173
f 166 168 170
f 165 167 166
f 165 164 167
f 163 162 164
f 161 163 159
f 157 161 159
f 158 157 160
f 158 175 156
f 156 175 176
f 177 178 179
f 179 180 181
f 182 183 184
f 185 186 184
f 185 187 188
f 189 187 185
f 190 189 191
f 189 190 187
f 191 192 190
f 191 193 192
f 186 185 188
f 186 182 184
f 180 183 194
f 183 182 194
f 181 180 194
f 181 177 179
f 177 195 178
f 177 196 195
f 195 196 197
f 198 197 196
f 199 200 201
f 202 203 204
f 205 206 207
f 208 209 210
f 201 200 211
f 210 211 208
f 212 206 205
f 206 212 213
f 201 211 210
f 201 214 215
f 206 216 217
f 201 218 214
f 218 201 219
f 206 213 216
f 220 206 217
f 221 219 201
f 201 222 223
f 206 220 224
f 225 226 227
f 206 224 227
f 228 229 230
f 226 225 231
f 229 232 233
f 234 235 236
f 237 238 239
f 236 240 241
f 242 243 238
f 243 239 238
f 244 245 246
f 247 242 248
f 249 250 251
f 252 242 253
f 254 253 242
f 242 255 256
f 244 257 258
f 259 244 260
f 250 249 259
f 249 251 242
f 249 244 259
f 242 261 254
f 256 261 242
f 246 257 244
f 262 244 258
f 242 263 248
f 242 252 263
f 244 264 265
f 265 245 244
f 202 266 203
f 243 242 247
f 237 229 238
f 236 266 202
f 232 229 237
f 236 241 266
f 267 268 236
f 268 240 236
f 269 229 233
f 270 234 236
f 230 229 271
f 228 272 229
f 229 273 274
f 272 273 229
f 226 206 227
f 274 275 276
f 276 222 201
f 267 236 235
f 269 271 229
f 222 276 275
f 262 260 244
f 251 255 242
f 202 204 244
f 204 264 244
f 226 231 236
f 231 277 236
f 270 236 277
f 210 209 206
f 209 278 206
f 207 206 278
f 201 215 199
f 221 201 223
f 274 276 229
f 279 280 281
f 279 281 282
f 283 284 285
f 283 285 286
f 287 288 289
f 287 289 290
f 291 292 293
f 291 293 294
f 295 296 297
f 295 297 298
f 299 300 301
f 299 301 302
f 303 304 305
f 304 303 306
f 307 308 309
f 308 307 310
f 311 312 313
f 312 311 314
f 315 316 317
f 316 315 318
f 319 320 321
f 320 319 322
f 323 324 325
f 324 323 326
f 327 328 329
f 330 331 332
f 327 331 333
f 334 328 327
f 335 334 327
f 329 331 327
f 334 336 328
f 329 328 337
f 329 332 331
f 338 332 329
f 339 340 341
f 340 339 342
f 339 343 342
f 342 343 344
f 345 344 343
f 341 340 346
f 341 346 347
f 346 348 347
f 348 349 347
f 348 350 349
f 350 351 349
f 352 351 350
f 353 351 354
f 352 354 351
f 353 354 355
f 356 353 355
f 357 358 359
f 360 361 362
f 363 364 365
f 364 366 365
f 363 367 368
f 369 367 370
f 367 369 368
f 370 371 369
f 371 370 372
f 371 372 373
f 364 363 368
f 360 365 366
f 360 362 365
f 357 362 361
f 358 357 361
f 357 359 374
f 375 376 377
f 377 378 379
f 379 375 377
f 380 378 381
f 378 380 379
f 382 380 381
f 382 383 384
f 383 382 381
f 385 386 387
f 383 388 384
f 389 390 391
f 392 393 394
f 395 396 397
f 398 399 400
f 401 402 400
f 401 403 404
f 404 402 401
f 402 404 405
f 400 399 401
f 398 406 399
f 398 407 406
f 406 407 393
f 392 394 396
f 407 394 393
f 392 396 395
f 408 395 397
f 409 408 410
f 397 410 408
f 411 409 410
f 391 409 411
f 386 390 389
f 389 391 411
f 386 385 390
f 388 385 387
f 388 387 384
f 412 413 414
f 415 416 417
f 416 414 413
f 418 419 420
f 415 418 420
f 421 419 422
f 423 424 425
f 423 425 426
f 427 428 429
f 428 424 429
f 430 431 432
f 433 434 435
f 435 436 437
f 437 438 439
f 440 439 441
f 438 441 439
f 440 442 443
f 442 440 441
f 444 445 443
f 443 442 444
f 444 446 445
f 447 445 446
f 448 447 446
f 438 437 436
f 435 434 436
f 430 432 433
f 433 432 434
f 430 427 431
f 429 431 427
f 425 424 428
f 449 450 426
f 426 450 423
f 422 450 449
f 421 422 449
f 419 421 420
f 415 420 416
f 417 416 413
f 414 451 412
f 452 453 454
f 455 452 454
f 456 457 458
f 459 460 461
f 457 462 459
f 463 461 460
f 464 465 466
f 467 468 469
f 467 470 471
f 472 473 468
f 474 475 473
f 473 476 474
f 475 474 477
f 474 478 477
f 478 479 477
f 480 479 478
f 481 480 482
f 480 481 479
f 483 481 482
f 473 472 476
f 472 468 467
f 470 467 469
f 471 470 484
f 485 486 484
f 484 486 471
f 484 466 485
f 487 465 464
f 485 466 465
f 464 488 487
f 461 463 488
f 463 487 488
f 459 489 460
f 462 489 459
f 462 457 456
f 490 456 458
f 491 492 453
f 490 492 491
f 492 490 458
f 491 453 452
f 455 454 493
f 494 495 496
f 497 498 499
f 499 500 501
f 501 502 503
f 504 505 506
f 507 508 506
f 508 507 509
f 507 510 509
f 511 509 510
f 512 509 511
f 504 506 508
f 503 505 504
f 503 502 505
f 501 500 502
f 499 501 497
f 495 499 498
f 496 495 498
f 496 513 494
f 494 513 514
f 515 516 517
f 518 519 515
f 520 521 518
f 522 521 523
f 524 525 523
f 526 525 527
f 528 529 526
f 526 527 528
f 529 530 531
f 530 529 528
f 524 527 525
f 522 523 525
f 523 521 520
f 518 532 520
f 515 532 518
f 516 515 519
f 533 516 534
f 517 516 533
f 535 536 537
f 538 539 540
f 541 542 543
f 544 545 546
f 537 536 547
f 546 547 544
f 548 542 541
f 542 548 549
f 537 547 546
f 537 550 551
f 542 552 553
f 537 554 550
f 554 537 555
f 542 549 552
f 556 542 553
f 557 555 537
f 537 558 559
f 542 556 560
f 561 562 563
f 542 560 563
f 564 565 566
f 562 561 567
f 565 568 569
f 570 571 572
f 573 574 575
f 572 576 577
f 578 579 574
f 579 575 574
f 580 581 582
f 583 578 584
f 585 586 587
f 588 578 589
f 590 589 578
f 578 591 592
f 580 593 594
f 595 580 596
f 586 585 595
f 585 587 578
f 585 580 595
f 578 597 590
f 592 597 578
f 582 593 580
f 598 580 594
f 578 599 584
f 578 588 599
f 580 600 601
f 601 581 580
f 538 602 539
f 579 578 583
f 573 565 574
f 572 602 538
f 568 565 573
f 572 577 602
f 603 604 572
f 604 576 572
f 605 565 569
f 606 570 572
f 566 565 607
f 564 608 565
f 565 609 610
f 608 609 565
f 562 542 563
f 610 611 612
f 612 558 537
f 603 572 571
f 605 607 565
f 558 612 611
f 598 596 580
f 587 591 578
f 538 540 580
f 540 600 580
f 562 567 572
f 567 613 572
f 606 572 613
f 546 545 542
f 545 614 542
f 543 542 614
f 537 551 535
f 557 537 559
f 610 612 565
f 615 616 617
f 615 617 618
f 619 620 621
f 619 621 622
f 623 624 625
f 623 625 626
f 627 628 629
f 627 629 630
f 631 632 633
f 631 633 634
f 635 636 637
f 635 637 638
f 639 640 641
f 640 639 642
f 643 644 645
f 644 643 646
f 647 648 649
f 648 647 650
f 651 652 653
f 652 651 654
f 655 656 657
f 656 655 658
f 659 660 661
f 660 659 662
f 663 664 665
f 666 667 668
f 663 667 669
f 670 664 663
f 671 670 663
f 665 667 663
f 670 672 664
f 665 664 673
f 665 668 667
f 674 668 665
f 675 676 677
f 678 675 677
f 679 678 677
f 680 678 679
f 681 680 679
f 682 676 683
f 675 683 676
f 684 682 683
f 685 682 684
f 684 686 687
f 687 685 684
f 688 689 690
f 689 688 691
f 691 688 692
f 689 693 690
f 686 693 687
f 690 693 686
f 694 695 696
f 697 698 699
f 700 701 695
f 696 695 702
f 694 696 703
f 695 694 699
f 704 699 694
f 700 695 699
f 705 700 698
f 699 698 700
f 706 707 708
f 706 708 709
f 710 711 712
f 710 712 713
f 714 715 716
f 715 714 717
f 718 719 720
f 719 718 721
f 722 723 724
f 723 722 725
f 726 727 728
f 727 726 729
f 730 731 732
f 731 730 733
f 734 735 736
f 735 734 737
f 738 739 740
f 738 740 741
f 742 743 744
f 742 744 745
f 746 747 748
f 746 748 749
f 750 751 752
f 750 752 753
f 754 755 756
f 757 758 759
f 760 759 761
f 762 763 764
f 765 766 767
f 768 769 770
f 771 769 772
f 773 774 769
f 775 776 777
f 776 778 779
f 776 780 778
f 781 782 783
f 783 776 781
f 784 785 786
f 785 784 787
f 788 789 754
f 790 754 791
f 792 784 793
f 794 784 795
f 792 796 784
f 784 794 797
f 794 798 797
f 786 799 784
f 796 795 784
f 797 798 800
f 801 788 754
f 755 754 790
f 791 754 789
f 802 803 754
f 793 784 799
f 783 782 804
f 803 805 754
f 806 805 803
f 807 769 805
f 805 806 807
f 808 769 809
f 779 781 776
f 810 780 776
f 769 808 773
f 811 810 776
f 769 774 812
f 776 775 811
f 813 769 812
f 777 776 814
f 813 770 769
f 762 764 776
f 768 772 769
f 815 763 762
f 759 816 815
f 765 771 766
f 767 817 765
f 818 816 759
f 819 820 759
f 817 767 821
f 817 822 823
f 821 822 817
f 759 824 761
f 758 819 759
f 825 817 826
f 826 817 823
f 817 827 828
f 827 817 825
f 829 817 830
f 830 817 828
f 831 824 759
f 829 832 831
f 762 759 815
f 765 769 771
f 756 802 754
f 754 797 800
f 807 809 769
f 800 801 754
f 783 804 784
f 804 787 784
f 764 833 776
f 814 776 833
f 824 831 832
f 759 820 818
f 757 759 760
f 831 817 829
f 834 835 836
f 837 838 839
f 840 841 837
f 840 842 841
f 843 842 840
f 843 844 842
f 843 845 844
f 839 840 837
f 839 838 846
f 838 847 848
f 838 848 846
f 848 847 849
f 850 848 849
f 851 850 849
f 835 850 851
f 835 851 836
f 834 836 852
f 834 852 853
f 853 852 854
f 855 856 857
f 858 857 859
f 859 860 861
f 862 863 864
f 865 863 866
f 865 866 867
f 868 869 870
f 870 871 868
f 871 872 868
f 873 872 871
f 873 871 874
f 869 867 870
f 865 867 869
f 862 866 863
f 862 864 875
f 864 860 875
f 860 859 875
f 861 858 859
f 858 855 857
f 876 877 878
f 878 879 876
f 880 881 882
f 883 884 881
f 885 886 887
f 885 887 882
f 888 889 890
f 891 892 890
f 893 894 895
f 896 897 898
f 899 900 901
f 901 902 899
f 903 904 900
f 901 900 904
f 905 904 903
f 906 905 907
f 903 907 905
f 906 908 909
f 908 906 907
f 909 908 910
f 898 897 902
f 902 897 899
f 896 898 895
f 895 894 896
f 893 888 911
f 911 894 893
f 889 891 890
f 911 888 890
f 885 892 891
f 886 885 891
f 882 887 912
f 882 912 880
f 881 880 883
f 913 884 883
f 914 884 913
f 879 915 916
f 914 916 915
f 916 914 913
f 915 879 878
f 877 876 917
f 918 919 920
f 920 919 921
f 922 923 924
f 925 922 926
f 927 928 929
f 927 929 930
f 931 932 933
f 934 932 935
f 936 937 938
f 938 937 939
f 940 941 939
f 938 939 941
f 942 940 943
f 940 942 941
f 944 942 943
f 945 942 944
f 945 944 946
f 945 946 947
f 946 948 947
f 937 936 933
f 931 933 936
f 935 932 931
f 949 934 935
f 950 951 952
f 935 928 949
f 949 928 927
f 930 929 953
f 954 955 953
f 930 953 955
f 954 952 955
f 952 951 955
f 951 950 923
f 923 950 924
f 926 922 924
f 926 956 925
f 921 925 956
f 956 920 921
f 918 920 957
f 958 959 960
f 958 961 962
f 958 962 959
f 960 959 963
f 959 964 963
f 965 963 964
f 965 964 966
f 965 966 967
f 966 968 967
f 969 967 968
f 970 969 968
f 971 969 970
f 971 970 972
f 971 973 974
f 973 971 972
f 975 974 973
f 975 973 976
f 977 976 978
f 976 977 975
f 979 980 981
f 980 982 983
f 984 985 986
f 987 986 983
f 988 989 990
f 984 989 985
f 991 992 993
f 993 989 988
f 991 993 988
f 989 984 990
f 987 984 986
f 982 987 983
f 982 980 994
f 980 979 994
f 977 978 981
f 978 979 981
f 995 996 997
f 998 999 1000
f 999 996 1000
f 1001 1002 1003
f 1004 1005 1006
f 1007 1004 1006
f 1007 1006 1008
f 1009 1007 1008
f 1010 1007 1009
f 1006 1005 1011
f 1001 1011 1005
f 1011 1001 1003
f 1003 998 1000
f 998 1003 1002
f 997 996 999
f 995 997 1012
f 1013 1012 997
f 1014 1015 1016
f 1017 1018 1019
f 1018 1017 1020
f 1021 1020 1017
f 1022 1021 1017
f 1023 1019 1018
f 1024 1019 1023
f 1015 1024 1023
f 1024 1015 1014
f 1025 1014 1016
f 1026 1025 1016
f 1025 1026 1027
f 1028 1027 1026
f 1028 1029 1027
f 1030 1029 1031
f 1031 1029 1028
f 1032 1033 1034
f 1035 1036 1037
f 1038 1039 1040
f 1041 1034 1033
f 1042 1036 1043
f 1044 1042 1043
f 1045 1044 1043
f 1046 1047 1048
f 1044 1045 1049
f 1050 1049 1045
f 1051 1049 1050
f 1051 1052 1049
f 1051 1053 1052
f 1035 1043 1036
f 1054 1053 1051
f 1055 1037 1036
f 1056 1037 1055
f 1056 1055 1057
f 1056 1057 1058
f 1057 1059 1058
f 1060 1061 1058
f 1058 1059 1060
f 1034 1061 1032
f 1060 1032 1061
f 1046 1062 1063
f 1048 1047 1064
f 1063 1047 1046
f 1065 1039 1066
f 1065 1066 1067
f 1066 1068 1067
f 1068 1069 1067
f 1070 1069 1068
f 1065 1040 1039
f 1038 1040 1064
f 1047 1038 1064
f 1071 1063 1062
f 1041 1071 1062
f 1071 1041 1033
f 1072 1073 1074
f 1075 1076 1077
f 1072 1076 1078
f 1079 1073 1072
f 1080 1079 1072
f 1074 1076 1072
f 1079 1081 1073
f 1074 1073 1082
f 1074 1077 1076
f 1083 1077 1074
f 1084 1085 1086
f 1085 1084 1087
f 1088 1089 1090
f 1089 1088 1091
f 1092 1093 1094
f 1093 1092 1095
f 1096 1097 1098
f 1097 1096 1099
f 1100 1101 1102
f 1101 1100 1103
f 1104 1105 1106
f 1105 1104 1107
f 1108 1109 1110
f 1108 1110 1111
f 1112 1113 1114
f 1112 1114 1115
f 1116 1117 1118
f 1116 1118 1119
f 1120 1121 1122
f 1120 1122 1123
f 1124 1125 1126
f 1124 1126 1127
f 1128 1129 1130
f 1128 1130 1131
f 1132 1133 1134
f 1135 1136 1137
f 1138 1139 1140
f 1141 1142 1143
f 1134 1133 1144
f 1143 1144 1141
f 1145 1139 1138
f 1139 1145 1146
f 1134 1144 1143
f 1134 1147 1148
f 1139 1149 1150
f 1134 1151 1147
f 1151 1134 1152
f 1139 1146 1149
f 1153 1139 1150
f 1154 1152 1134
f 1134 1155 1156
f 1139 1153 1157
f 1158 1159 1160
f 1139 1157 1160
f 1161 1162 1163
f 1159 1158 1164
f 1162 1165 1166
f 1167 1168 1169
f 1170 1171 1172
f 1169 1173 1174
f 1175 1176 1171
f 1176 1172 1171
f 1177 1178 1179
f 1180 1175 1181
f 1182 1183 1184
f 1185 1175 1186
f 1187 1186 1175
f 1175 1188 1189
f 1177 1190 1191
f 1192 1177 1193
f 1183 1182 1192
f 1182 1184 1175
f 1182 1177 1192
f 1175 1194 1187
f 1189 1194 1175
f 1179 1190 1177
f 1195 1177 1191
f 1175 1196 1181
f 1175 1185 1196
f 1177 1197 1198
f 1198 1178 1177
f 1135 1199 1136
f 1176 1175 1180
f 1170 1162 1171
f 1169 1199 1135
f 1165 1162 1170
f 1169 1174 1199
f 1200 1201 1169
f 1201 1173 1169
f 1202 1162 1166
f 1203 1167 1169
f 1163 1162 1204
f 1161 1205 1162
f 1162 1206 1207
f 1205 1206 1162
f 1159 1139 1160
f 1207 1208 1209
f 1209 1155 1134
f 1200 1169 1168
f 1202 1204 1162
f 1155 1209 1208
f 1195 1193 1177
f 1184 1188 1175
f 1135 1137 1177
f 1137 1197 1177
f 1159 1164 1169
f 1164 1210 1169
f 1203 1169 1210
f 1143 1142 1139
f 1142 1211 1139
f 1140 1139 1211
f 1134 1148 1132
f 1154 1134 1156
f 1207 1209 1162
f 1212 1213 1214
f 1215 1216 1217
f 1218 1219 1220
f 1219 1218 1221
f 1221 1222 1219
f 1221 1223 1222
f 1223 1224 1222
f 1218 1220 1225
f 1226 1225 1220
f 1226 1227 1225
f 1226 1216 1227
f 1227 1216 1215
f 1217 1216 1228
f 1229 1214 1217
f 1229 1217 1228
f 1229 1212 1214
f 1212 1230 1213
f 1212 1231 1230
f 1230 1231 1232
f 1233 1232 1231
f 1234 1235 1236
f 1237 1238 1239
f 1240 1241 1242
f 1241 1243 1242
f 1243 1244 1245
f 1246 1245 1244
f 1246 1244 1247
f 1247 1248 1246
f 1249 1248 1247
f 1250 1243 1245
f 1242 1243 1250
f 1240 1238 1241
f 1238 1240 1239
f 1239 1235 1237
f 1239 1236 1235
f 1234 1236 1251
f 1251 1252 1234
f 1251 1253 1252
f 1252 1253 1254
f 1255 1256 1257
f 1257 1258 1255
f 1259 1260 1261
f 1262 1263 1264
f 1263 1261 1260
f 1265 1266 1262
f 1267 1268 1269
f 1268 1270 1269
f 1271 1272 1267
f 1273 1274 1275
f 1276 1275 1274
f 1277 1276 1278
f 1278 1279 1277
f 1280 1279 1281
f 1279 1280 1277
f 1281 1282 1283
f 1283 1280 1281
f 1284 1285 1282
f 1283 1282 1285
f 1286 1284 1287
f 1284 1286 1285
f 1286 1287 1288
f 1289 1276 1274
f 1276 1289 1278
f 1273 1275 1290
f 1273 1290 1291
f 1291 1272 1273
f 1291 1267 1272
f 1271 1267 1269
f 1268 1292 1270
f 1292 1266 1293
f 1293 1270 1292
f 1266 1265 1293
f 1264 1265 1262
f 1264 1263 1260
f 1294 1295 1258
f 1259 1295 1294
f 1295 1259 1261
f 1294 1258 1257
f 1256 1255 1296
f 1297 1298 1299
f 1300 1297 1299
f 1301 1299 1302
f 1303 1300 1301
f 1300 1299 1301
f 1304 1303 1301
f 1305 1303 1306
f 1304 1306 1303
f 1305 1307 1308
f 1307 1305 1306
f 1309 1310 1311
f 1307 1312 1308
f 1313 1309 1314
f 1315 1316 1317
f 1314 1316 1315
f 1318 1319 1320
f 1320 1317 1318
f 1321 1322 1323
f 1324 1323 1322
f 1325 1326 1327
f 1327 1328 1329
f 1330 1331 1332
f 1333 1330 1334
f 1330 1333 1335
f 1332 1334 1330
f 1336 1333 1328
f 1335 1333 1336
f 1327 1329 1325
f 1328 1333 1329
f 1326 1325 1337
f 1322 1326 1337
f 1321 1326 1322
f 1319 1323 1324
f 1320 1319 1324
f 1318 1317 1316
f 1315 1313 1314
f 1314 1309 1311
f 1310 1312 1311
f 1308 1312 1310
f 1338 1339 1340
f 1338 1341 1342
f 1343 1344 1345
f 1346 1343 1347
f 1346 1347 1348
f 1348 1349 1346
f 1350 1349 1348
f 1349 1350 1351
f 1352 1351 1350
f 1353 1352 1350
f 1347 1343 1345
f 1345 1344 1342
f 1342 1341 1345
f 1339 1338 1342
f 1338 1340 1354
