# Exported from USD: /World/gantry/gantry_home/ur10_flattened/ur10_instanceable/wrist_3_link/ur10_wrist_3/ID275_001fa3
mtllib ID275_001fa3.mtl

g ID275_001fa3
v 4.47762715 -0.04540922 0.15112889
v 4.47393127 -0.03990920 0.14752186
v 4.47855027 -0.03990920 0.15218974
v 4.44969292 -0.03990920 0.14068091
v 4.45654485 -0.04540922 0.14055956
v 4.45131632 -0.04540921 0.14058817
v 4.48177777 -0.04540921 0.15690660
v 4.48266003 -0.03990920 0.15865290
v 4.48451731 -0.04540922 0.16401982
v 4.48520651 -0.03990920 0.16710997
v 4.48563536 -0.04540922 0.17199659
v 4.48549992 -0.03990920 0.17199993
v 4.47335400 -0.04540924 0.14706290
v 4.46886196 -0.04540922 0.14420808
v 4.46906331 -0.03990920 0.14430452
v 4.46345480 -0.04540924 0.14186299
v 4.46418575 -0.03990920 0.14214802
v 4.45792159 -0.03990920 0.14068211
v 4.44489146 -0.04540921 0.14175511
v 4.44169516 -0.03990920 0.14293731
v 4.43655495 -0.03990920 0.14573837
v 4.43741255 -0.04540919 0.14511753
v 4.43242737 -0.03990917 0.14898730
v 4.42738879 -0.04540922 0.15506304
v 4.42886486 -0.03990920 0.15296793
v 4.43138644 -0.04540921 0.14997745
v 4.42545526 -0.03990920 0.15847684
v 4.42448136 -0.04540922 0.16082645
v 4.42336601 -0.03990920 0.16454948
v 4.42283943 -0.04540922 0.16709865
v 4.42236398 -0.03990920 0.17199660
v 4.42248220 -0.04540922 0.17199958
v 4.45230334 -0.03890922 0.14954353
v 4.45210748 -0.04510922 0.14949668
v 4.45120914 -0.03890922 0.14817107
v 4.45092018 -0.04510920 0.14700485
v 4.45098850 -0.03890922 0.14700056
v 4.45436280 -0.03890922 0.15005219
v 4.45492131 -0.04510922 0.14994955
v 4.45604077 -0.03890922 0.14923418
v 4.45668870 -0.04510922 0.14844847
v 4.45689046 -0.03890922 0.14793563
v 4.45701133 -0.04510922 0.14700056
v 4.45699992 -0.03890922 0.14699996
v 4.46946817 -0.03943421 0.19104433
v 4.47038520 -0.04640921 0.19188202
v 4.46936434 -0.04640921 0.19069314
v 4.46916901 -0.04640921 0.18968046
v 4.46917763 -0.03943421 0.18968010
v 4.47108551 -0.03943421 0.19214464
v 4.47202112 -0.04640919 0.19218743
v 4.47358022 -0.04640921 0.19139314
v 4.47287696 -0.03943421 0.19194913
v 4.47418604 -0.03943421 0.18968058
v 4.47422371 -0.04640921 0.18968273
v 4.47399027 -0.03943421 0.19069243
v 4.43411292 -0.03943421 0.19104445
v 4.43502973 -0.04640921 0.19188202
v 4.43400882 -0.04640921 0.19069279
v 4.43381367 -0.04640921 0.18968046
v 4.43382223 -0.03943421 0.18968010
v 4.43573025 -0.03943421 0.19214464
v 4.43666571 -0.04640919 0.19218743
v 4.43822476 -0.04640921 0.19139326
v 4.43752175 -0.03943421 0.19194901
v 4.43883070 -0.03943421 0.18968058
v 4.43886839 -0.04640921 0.18968273
v 4.43863486 -0.03943421 0.19069243
v 4.43366821 -0.03943421 0.15433240
v 4.43519423 -0.03943421 0.15667177
v 4.43426964 -0.04640921 0.15593195
v 4.43381366 -0.04640921 0.15432036
v 4.43624364 -0.04640921 0.15687729
v 4.43727265 -0.03943421 0.15668107
v 4.43855169 -0.03943421 0.15556431
v 4.43785969 -0.04640921 0.15634418
v 4.43897510 -0.04640921 0.15433240
v 4.43883071 -0.03943421 0.15432048
v 4.46977049 -0.03943421 0.15600670
v 4.46977688 -0.04640921 0.15606892
v 4.46911409 -0.03943418 0.15432346
v 4.46914223 -0.04640921 0.15432167
v 4.47141289 -0.03943421 0.15687514
v 4.47160290 -0.04640921 0.15687299
v 4.47292463 -0.03943421 0.15650785
v 4.47390986 -0.03943421 0.15555990
v 4.47362838 -0.04640924 0.15605772
v 4.47418528 -0.03943421 0.15432036
v 4.47419415 -0.04640921 0.15432084
v 4.45272005 -0.04540921 0.18773270
v 4.45565917 -0.03990920 0.18774307
v 4.45710122 -0.04540925 0.18750990
v 4.44254545 -0.04540922 0.18287897
v 4.44118557 -0.03990920 0.18123436
v 4.44373987 -0.03990920 0.18398893
v 4.44006306 -0.04540922 0.17943490
v 4.43922493 -0.03990920 0.17758072
v 4.43870877 -0.04540922 0.17588759
v 4.43811498 -0.03990923 0.17200459
v 4.43819874 -0.04540922 0.17200149
v 4.44546773 -0.04540924 0.18527055
v 4.44723855 -0.03990917 0.18629575
v 4.44883764 -0.04540922 0.18692494
v 4.45119526 -0.03990920 0.18752802
v 4.46034578 -0.03990923 0.18646002
v 4.46111818 -0.04540922 0.18608165
v 4.46460032 -0.03990920 0.18376518
v 4.46424071 -0.04540921 0.18402672
v 4.46974992 -0.04540922 0.17199993
v 4.46937647 -0.04540922 0.17591989
v 4.46976064 -0.03990920 0.17200029
v 4.46946843 -0.03990920 0.17518711
v 4.46791679 -0.03990920 0.17951238
v 4.46705659 -0.04540922 0.18088985
v 4.47405740 -0.04640566 0.19047833
v 4.47418407 -0.04640858 0.18968106
v 4.47167762 -0.04791121 0.18968010
v 4.47310914 -0.04640717 0.19173742
v 4.47366569 -0.04640767 0.19120097
v 4.46996448 -0.04640432 0.19152296
v 4.47085409 -0.04640381 0.19204986
v 4.47171815 -0.04640721 0.19218684
v 4.47244288 -0.04640810 0.19206333
v 4.46917095 -0.04640854 0.18968118
v 4.46933052 -0.04640207 0.19058550
v 4.43870199 -0.04640566 0.19047857
v 4.43882871 -0.04640858 0.18968106
v 4.43632223 -0.04791121 0.18968010
v 4.43775403 -0.04640717 0.19173730
v 4.43831009 -0.04640767 0.19120121
v 4.43460920 -0.04640431 0.19152308
v 4.43549884 -0.04640383 0.19204986
v 4.43636275 -0.04640721 0.19218684
v 4.43708746 -0.04640810 0.19206333
v 4.43381561 -0.04640855 0.18968118
v 4.43397507 -0.04640205 0.19058526
v 4.43882223 -0.04640921 0.15432001
v 4.43632223 -0.04791122 0.15432001
v 4.43876868 -0.04640653 0.15488887
v 4.43846793 -0.04640769 0.15562022
v 4.43801723 -0.04640754 0.15617037
v 4.43748074 -0.04640840 0.15654445
v 4.43671033 -0.04640466 0.15680361
v 4.43582087 -0.04640714 0.15677953
v 4.43497959 -0.04640408 0.15645314
v 4.43398417 -0.04640773 0.15523029
v 4.43380450 -0.04640495 0.15432561
v 4.43433373 -0.04640767 0.15585030
v 4.44936940 -0.04540922 0.15693427
v 4.44729487 -0.04540922 0.15773428
v 4.46866207 -0.04540922 0.17779243
v 4.44592677 -0.04540922 0.18553830
v 4.44312695 -0.04540922 0.18341863
v 4.44447922 -0.04540922 0.18455005
v 4.44049919 -0.04540922 0.18014324
v 4.44173382 -0.04540922 0.18189025
v 4.44771779 -0.04540922 0.18645203
v 4.43952266 -0.04540922 0.17821777
v 4.44936331 -0.04540922 0.18705416
v 4.43880520 -0.04540922 0.17619956
v 4.45094744 -0.04540922 0.18745804
v 4.43823455 -0.04540922 0.17199314
v 4.43838777 -0.04540922 0.17412484
v 4.45270717 -0.04540922 0.18770743
v 4.45492870 -0.04540922 0.18774116
v 4.45862994 -0.04540922 0.18706513
v 4.46018037 -0.04540922 0.18648827
v 4.43933764 -0.04540922 0.16620505
v 4.44117475 -0.04540922 0.16284740
v 4.46315183 -0.04540922 0.18482673
v 4.46478486 -0.04540922 0.18350256
v 4.46773203 -0.04540922 0.17972469
v 4.44550588 -0.04540922 0.15872515
v 4.46652661 -0.04540922 0.18157423
v 4.46940081 -0.04540922 0.17537213
v 4.46974272 -0.04540922 0.17284334
v 4.45450115 -0.04540922 0.15625084
v 4.45272141 -0.04540922 0.15629256
v 4.46940081 -0.04540922 0.16863454
v 4.45605844 -0.04540922 0.15637911
v 4.46970333 -0.04540922 0.17072606
v 4.46751380 -0.04540922 0.16387856
v 4.46631288 -0.04540922 0.16217399
v 4.46489189 -0.04540922 0.16060555
v 4.46290938 -0.04540922 0.15899659
v 4.46056978 -0.04540922 0.15767134
v 4.46865944 -0.04540922 0.16620076
v 4.45815414 -0.04540922 0.15679706
v 4.45102748 -0.04540922 0.15653074
v 4.44382214 -0.04540922 0.15996325
v 4.44223895 -0.04540922 0.16151226
v 4.44026260 -0.04540922 0.16428125
v 4.46171843 -0.04540922 0.18574190
v 4.43870005 -0.04540922 0.16823566
v 4.43838890 -0.04540922 0.16986859
v 4.45697750 -0.04540922 0.18746841
v 4.47167762 -0.04791122 0.15432001
v 4.47244704 -0.04640742 0.15193546
v 4.47167714 -0.04640641 0.15181184
v 4.47319836 -0.04640454 0.15232015
v 4.47378880 -0.04640785 0.15296710
v 4.47411638 -0.04640569 0.15372467
v 4.47417762 -0.04640921 0.15432001
v 4.46923534 -0.04640563 0.15373314
v 4.46917762 -0.04640921 0.15432001
v 4.46956637 -0.04640788 0.15296746
v 4.47015558 -0.04640451 0.15232134
v 4.47090628 -0.04640739 0.15193630
v 4.47410526 -0.04640264 0.15498746
v 4.47417762 -0.04640921 0.15432001
v 4.47167762 -0.04791122 0.15432001
v 4.47362531 -0.04640584 0.15590752
v 4.47193559 -0.04640779 0.15681386
v 4.47278247 -0.04640091 0.15658689
v 4.47113704 -0.04640675 0.15677703
v 4.47046980 -0.04640857 0.15651775
v 4.46980931 -0.04640206 0.15601302
v 4.46933198 -0.04640776 0.15520442
v 4.46916075 -0.04640529 0.15432513
v 4.43397513 -0.04640206 0.15341473
v 4.43381561 -0.04640855 0.15431893
v 4.43632223 -0.04791122 0.15432001
v 4.43460938 -0.04640435 0.15247703
v 4.43534381 -0.04640803 0.15201259
v 4.43605079 -0.04640724 0.15182674
v 4.43692435 -0.04640417 0.15188778
v 4.43775449 -0.04640717 0.15226317
v 4.43882870 -0.04640858 0.15431905
v 4.43870199 -0.04640568 0.15352154
v 4.43831049 -0.04640772 0.15279961
v 4.43398426 -0.04640773 0.18876958
v 4.43380450 -0.04640493 0.18967450
v 4.43632223 -0.04791121 0.18968010
v 4.43497959 -0.04640410 0.18754697
v 4.43433372 -0.04640770 0.18814981
v 4.43582088 -0.04640718 0.18722058
v 4.43671034 -0.04640472 0.18719650
v 4.43748075 -0.04640842 0.18745566
v 4.43801723 -0.04640755 0.18782974
v 4.43846794 -0.04640770 0.18837989
v 4.43876870 -0.04640654 0.18911136
v 4.43882223 -0.04640921 0.18968010
v 4.46933947 -0.04640772 0.18876994
v 4.46915985 -0.04640495 0.18967450
v 4.47167762 -0.04791121 0.18968010
v 4.47033488 -0.04640408 0.18754697
v 4.46968866 -0.04640772 0.18815029
v 4.47117603 -0.04640718 0.18722057
v 4.47206572 -0.04640472 0.18719649
v 4.47283635 -0.04640842 0.18745577
v 4.47337247 -0.04640757 0.18782974
v 4.47382336 -0.04640769 0.18837989
v 4.47412392 -0.04640657 0.18911088
v 4.47417763 -0.04640921 0.18968010
v 4.45486624 -0.04540918 0.15617276
v 4.45234168 -0.03990920 0.15625704
v 4.44888032 -0.04540919 0.15701139
v 4.44723854 -0.03990923 0.15770626
v 4.44445653 -0.04540922 0.15941310
v 4.44372754 -0.03990920 0.16002500
v 4.44171973 -0.04540921 0.16209090
v 4.44119757 -0.03990920 0.16275168
v 4.43949727 -0.04540922 0.16568876
v 4.43876214 -0.03990920 0.16758085
v 4.43808916 -0.04540921 0.17199421
v 4.43823932 -0.03990920 0.17199970
v 4.45680341 -0.03990920 0.15647197
v 4.45991304 -0.04540922 0.15735746
v 4.46075301 -0.03990920 0.15770054
v 4.46459231 -0.04540922 0.16018749
v 4.46425429 -0.03990920 0.16000665
v 4.46681479 -0.03990920 0.16276694
v 4.46750147 -0.04540922 0.16385854
v 4.46877976 -0.03990920 0.16643155
v 4.46909627 -0.04540922 0.16728664
v 4.46988465 -0.03990923 0.17199528
v 4.46980005 -0.04540922 0.17199838
v 4.47216171 -0.03943424 0.15176320
v 4.47016022 -0.03943421 0.15227950
v 4.47119941 -0.04640919 0.15184129
v 4.46986913 -0.04640921 0.15252912
v 4.46903545 -0.03943427 0.15430892
v 4.46909695 -0.04640921 0.15431488
v 4.47279647 -0.04640921 0.15201855
v 4.47384297 -0.03943421 0.15298808
v 4.47402165 -0.04640921 0.15332973
v 4.47419675 -0.03943421 0.15431905
v 4.47417762 -0.04640921 0.15432001
v 4.43690671 -0.03943421 0.15185404
v 4.43512609 -0.03943421 0.15204800
v 4.43585331 -0.04640919 0.15181601
v 4.43411315 -0.04640921 0.15295518
v 4.43400971 -0.03943421 0.15330744
v 4.43381392 -0.03943421 0.15431965
v 4.43382222 -0.04640921 0.15432001
v 4.43749830 -0.04640919 0.15207208
v 4.43853315 -0.03943421 0.15295852
v 4.43859406 -0.04640921 0.15319336
v 4.43883047 -0.04640921 0.15431965
v 4.43882223 -0.03943421 0.15432001
v 4.43478511 -0.04640921 0.18765581
v 4.43624374 -0.03943421 0.18712271
v 4.43427099 -0.03943421 0.18806756
v 4.43640168 -0.04640921 0.18712271
v 4.43366814 -0.04640921 0.18966747
v 4.43381392 -0.03943421 0.18967974
v 4.43837283 -0.04640921 0.18806613
v 4.43785894 -0.03943421 0.18765569
v 4.43897574 -0.03943421 0.18966747
v 4.43883049 -0.04640921 0.18967974
v 4.47014054 -0.04640921 0.18765581
v 4.47159900 -0.03943421 0.18712270
v 4.46962638 -0.03943421 0.18806756
v 4.47175695 -0.04640921 0.18712270
v 4.46902349 -0.04640921 0.18966759
v 4.46916923 -0.03943421 0.18967974
v 4.47372829 -0.04640921 0.18806625
v 4.47321432 -0.03943421 0.18765569
v 4.47433106 -0.03943421 0.18966747
v 4.47418584 -0.04640921 0.18967974
v 4.45684512 -0.04510920 0.14800454
v 4.45345233 -0.04510920 0.14404047
v 4.45246056 -0.04510920 0.14440382
v 4.45256472 -0.04510920 0.14965570
v 4.45106251 -0.04510920 0.14767814
v 4.45136669 -0.04510920 0.14844823
v 4.45176703 -0.04510920 0.14901758
v 4.45360388 -0.04510920 0.14999044
v 4.45100003 -0.04510920 0.14685560
v 4.45454643 -0.04510920 0.14995993
v 4.45165238 -0.04510920 0.14511764
v 4.45115285 -0.04510920 0.14599908
v 4.45554031 -0.04510920 0.14959538
v 4.45634807 -0.04510920 0.14888120
v 4.45699970 -0.04510920 0.14715445
v 4.45439231 -0.04510920 0.14400948
v 4.45663478 -0.04510920 0.14555610
v 4.45613784 -0.04510920 0.14487160
v 4.45530851 -0.04510920 0.14429188
v 4.45693726 -0.04510920 0.14632082
v 4.43832101 -0.03990888 0.17036808
v 4.43725754 -0.03890901 0.17113102
v 4.43824995 -0.03990911 0.17240143
v 4.43752410 -0.03890931 0.16894424
v 4.43876713 -0.03990870 0.16794181
v 4.43804763 -0.03890931 0.16684592
v 4.43958108 -0.03990891 0.16562605
v 4.43904048 -0.03890883 0.16443110
v 4.44077370 -0.03990882 0.16342080
v 4.43994383 -0.03890922 0.16289008
v 4.44098469 -0.03890770 0.16143453
v 4.44204813 -0.03990914 0.16173721
v 4.44370933 -0.03990876 0.16004074
v 4.44313189 -0.03890743 0.15921903
v 4.44604766 -0.03990882 0.15839041
v 4.44595468 -0.03890910 0.15727640
v 4.44833775 -0.03990870 0.15728951
v 4.44880524 -0.03890770 0.15605688
v 4.45084264 -0.03990885 0.15655160
v 4.45189553 -0.03890603 0.15535593
v 4.45399553 -0.03991019 0.15620721
v 4.45399992 -0.03890922 0.15525008
v 4.43736695 -0.03890799 0.17420149
v 4.43842656 -0.03990876 0.17443979
v 4.43806416 -0.03890981 0.17720938
v 4.43899104 -0.03990879 0.17682243
v 4.43908335 -0.03890925 0.17965580
v 4.43975367 -0.03990914 0.17873037
v 4.44069932 -0.03890817 0.18222487
v 4.44077411 -0.03990879 0.18058241
v 4.44204505 -0.03990905 0.18226135
v 4.44312622 -0.03890936 0.18477798
v 4.44371175 -0.03990789 0.18396187
v 4.44514876 -0.03890826 0.18622744
v 4.44605356 -0.03990881 0.18561399
v 4.44717632 -0.03890924 0.18731332
v 4.44834599 -0.03990828 0.18671394
v 4.45001032 -0.03890743 0.18829596
v 4.45084367 -0.03990914 0.18744934
v 4.45267079 -0.03890737 0.18870557
v 4.45399560 -0.03990658 0.18778944
v 4.45399993 -0.03890922 0.18875003
v 4.47070380 -0.03890895 0.17068923
v 4.46957326 -0.03990873 0.16956008
v 4.46974987 -0.03990911 0.17159868
v 4.47040268 -0.03890826 0.16854179
v 4.47074208 -0.03890886 0.17287481
v 4.46900854 -0.03990870 0.16717720
v 4.46967513 -0.03890779 0.16605962
v 4.46824649 -0.03990914 0.16527045
v 4.46855897 -0.03890784 0.16368795
v 4.46722643 -0.03990873 0.16341889
v 4.46703863 -0.03890787 0.16145981
v 4.46595471 -0.03990902 0.16173864
v 4.46515923 -0.03891020 0.15948689
v 4.46428798 -0.03990795 0.16003812
v 4.46303613 -0.03890922 0.15787495
v 4.46194484 -0.03990873 0.15838540
v 4.46070835 -0.03891062 0.15663577
v 4.45965488 -0.03990846 0.15728641
v 4.45797268 -0.03890793 0.15570343
v 4.45715566 -0.03990920 0.15655065
v 4.45531754 -0.03890743 0.15529442
v 4.45400425 -0.03990625 0.15621102
v 4.45399992 -0.03890922 0.15525008
v 4.46967876 -0.03990879 0.17363167
v 4.47047583 -0.03890922 0.17504871
v 4.46923262 -0.03990876 0.17605901
v 4.46981983 -0.03890904 0.17758572
v 4.46841826 -0.03990893 0.17837525
v 4.46834469 -0.03890945 0.18070519
v 4.46722522 -0.03990867 0.18058038
v 4.46544292 -0.03990813 0.18285847
v 4.46671265 -0.03890838 0.18291796
v 4.46488115 -0.03890707 0.18476916
v 4.46327538 -0.03990875 0.18474472
v 4.46245295 -0.03890907 0.18647540
v 4.46110221 -0.03990878 0.18607152
v 4.46036343 -0.03890752 0.18750012
v 4.45913793 -0.03990923 0.18689251
v 4.45796581 -0.03891080 0.18830169
v 4.45715734 -0.03990887 0.18744850
v 4.45400430 -0.03990983 0.18779254
v 4.45531716 -0.03890928 0.18870759
v 4.45399993 -0.03890922 0.18875003
v 4.46875932 -0.03890695 0.15347290
v 4.46864959 -0.03890898 0.15432668
v 4.46918944 -0.03943278 0.15397668
v 4.46943201 -0.03943368 0.15321243
v 4.46920102 -0.03890767 0.15257049
v 4.46996441 -0.03943183 0.15247727
v 4.46976775 -0.03890901 0.15196360
v 4.47051441 -0.03890880 0.15151644
v 4.47080766 -0.03943260 0.15196586
v 4.47167044 -0.03890853 0.15127087
v 4.47167619 -0.03943240 0.15181208
v 4.46879415 -0.03890522 0.15530849
v 4.46925781 -0.03943064 0.15502298
v 4.46935936 -0.03890793 0.15627790
v 4.46968941 -0.03943341 0.15585041
v 4.47033592 -0.03943162 0.15645421
v 4.47003261 -0.03890853 0.15687108
v 4.47093941 -0.03890794 0.15726793
v 4.47117716 -0.03943335 0.15678013
v 4.47167762 -0.03890922 0.15735007
v 4.47167762 -0.03943421 0.15682006
v 4.47418651 -0.03943263 0.15443278
v 4.47470333 -0.03890659 0.15460527
v 4.47465323 -0.03890910 0.15376151
v 4.47402489 -0.03943046 0.15341282
v 4.47439058 -0.03890677 0.15295017
v 4.47339061 -0.03943183 0.15247667
v 4.47368664 -0.03890770 0.15203739
v 4.47270099 -0.03890525 0.15145898
v 4.47265700 -0.03943362 0.15201295
v 4.47167892 -0.03890939 0.15128994
v 4.47168361 -0.03942858 0.15180242
v 4.47401521 -0.03943365 0.15523029
v 4.47437183 -0.03890591 0.15573383
v 4.47366529 -0.03943359 0.15585077
v 4.47354296 -0.03890504 0.15673375
v 4.47301936 -0.03943144 0.15645349
v 4.47241523 -0.03890814 0.15726793
v 4.47217768 -0.03943338 0.15678013
v 4.47167762 -0.03890922 0.15735007
v 4.47167762 -0.03943421 0.15682006
v 4.43340426 -0.03890665 0.15347016
v 4.43329262 -0.03890832 0.15446234
v 4.43383411 -0.03943278 0.15397680
v 4.43407652 -0.03943368 0.15321255
v 4.43384870 -0.03890796 0.15256823
v 4.43460952 -0.03943174 0.15247691
v 4.43441399 -0.03890889 0.15196097
v 4.43515526 -0.03890877 0.15151775
v 4.43545197 -0.03943269 0.15196586
v 4.43631517 -0.03890847 0.15127123
v 4.43632079 -0.03943234 0.15181208
v 4.43390246 -0.03943085 0.15502370
v 4.43345001 -0.03890862 0.15529693
v 4.43391417 -0.03890647 0.15617645
v 4.43433443 -0.03943359 0.15585113
v 4.43498070 -0.03943183 0.15645457
v 4.43477080 -0.03890794 0.15693749
v 4.43582099 -0.03943374 0.15678049
v 4.43566053 -0.03890853 0.15728260
v 4.43632223 -0.03890922 0.15735007
v 4.43632223 -0.03943421 0.15682006
v 4.43883120 -0.03943272 0.15443325
v 4.43935195 -0.03890829 0.15446079
v 4.43924003 -0.03890707 0.15347183
v 4.43867018 -0.03943091 0.15341306
v 4.43888435 -0.03890880 0.15270806
v 4.43803543 -0.03943195 0.15247667
v 4.43833544 -0.03890784 0.15204180
v 4.43748706 -0.03890877 0.15151740
v 4.43632947 -0.03890913 0.15127027
v 4.43730164 -0.03943359 0.15201295
v 4.43632824 -0.03942882 0.15180219
v 4.43909891 -0.03890439 0.15557683
v 4.43866015 -0.03943353 0.15522921
v 4.43830964 -0.03943359 0.15585113
v 4.43820670 -0.03890385 0.15671719
v 4.43766400 -0.03943162 0.15645373
v 4.43706256 -0.03890788 0.15726770
v 4.43682226 -0.03943335 0.15678013
v 4.43632223 -0.03890922 0.15735007
v 4.43632223 -0.03943421 0.15682006
v 4.43631621 -0.03942849 0.19219756
v 4.43529889 -0.03890516 0.19254113
v 4.43632093 -0.03890931 0.19271016
v 4.43398471 -0.03943365 0.18876958
v 4.43362800 -0.03890594 0.18826628
v 4.43329651 -0.03890662 0.18939483
v 4.43381334 -0.03943263 0.18956733
v 4.43433454 -0.03943359 0.18814934
v 4.43445713 -0.03890510 0.18726624
v 4.43498048 -0.03943147 0.18754650
v 4.43558462 -0.03890820 0.18673206
v 4.43582217 -0.03943341 0.18721998
v 4.43632223 -0.03890921 0.18665004
v 4.43632223 -0.03943421 0.18718005
v 4.43334669 -0.03890910 0.19023907
v 4.43397491 -0.03943043 0.19058717
v 4.43360933 -0.03890674 0.19104994
v 4.43431359 -0.03890764 0.19196308
v 4.43460908 -0.03943177 0.19152332
v 4.43534301 -0.03943359 0.19198716
v 4.43874203 -0.03943064 0.18897713
v 4.43935027 -0.03890898 0.18967343
v 4.43920570 -0.03890525 0.18869162
v 4.43881040 -0.03943278 0.19002343
v 4.43831045 -0.03943341 0.18814969
v 4.43864099 -0.03890793 0.18772281
v 4.43766395 -0.03943165 0.18754590
v 4.43796744 -0.03890856 0.18712914
v 4.43706045 -0.03890796 0.18673206
v 4.43682270 -0.03943341 0.18721986
v 4.43632223 -0.03890921 0.18665004
v 4.43632223 -0.03943421 0.18718005
v 4.43924054 -0.03890692 0.19052720
v 4.43856790 -0.03943365 0.19078744
v 4.43879881 -0.03890764 0.19142962
v 4.43803561 -0.03943177 0.19152284
v 4.43823193 -0.03890892 0.19203675
v 4.43734367 -0.03890731 0.19254494
v 4.43719173 -0.03943257 0.19203425
v 4.43632368 -0.03891252 0.19271338
v 4.43632367 -0.03943237 0.19218803
v 4.47167158 -0.03942870 0.19219780
v 4.47065461 -0.03890492 0.19254148
v 4.47167633 -0.03890936 0.19271028
v 4.46864789 -0.03890829 0.18953944
v 4.46916865 -0.03943272 0.18956673
v 4.46890082 -0.03890442 0.18842364
v 4.46933977 -0.03943356 0.18877065
v 4.46969019 -0.03943359 0.18814898
v 4.46979317 -0.03890385 0.18728292
v 4.47033583 -0.03943165 0.18754625
v 4.47093729 -0.03890793 0.18673241
v 4.47117759 -0.03943341 0.18721998
v 4.47167762 -0.03890921 0.18665004
v 4.47167762 -0.03943421 0.18718004
v 4.46875980 -0.03890704 0.19052828
v 4.46932962 -0.03943088 0.19058681
v 4.46911552 -0.03890877 0.19129193
v 4.46966480 -0.03890779 0.19195867
v 4.46996426 -0.03943189 0.19152332
v 4.47069837 -0.03943359 0.19198728
v 4.47470724 -0.03890832 0.18953789
v 4.47454986 -0.03890862 0.18870318
v 4.47409737 -0.03943085 0.18897641
v 4.47416574 -0.03943278 0.19002331
v 4.47408598 -0.03890647 0.18782401
v 4.47366544 -0.03943362 0.18814898
v 4.47301916 -0.03943186 0.18754554
v 4.47322926 -0.03890796 0.18706274
v 4.47233933 -0.03890859 0.18671739
v 4.47217888 -0.03943380 0.18721962
v 4.47167762 -0.03890921 0.18665004
v 4.47167762 -0.03943421 0.18718004
v 4.47459561 -0.03890662 0.19052983
v 4.47392340 -0.03943365 0.19078732
v 4.47415113 -0.03890793 0.19143188
v 4.47339050 -0.03943168 0.19152308
v 4.47358570 -0.03890883 0.19203925
v 4.47270214 -0.03890746 0.19254375
v 4.47254743 -0.03943266 0.19203425
v 4.47167907 -0.03891243 0.19271326
v 4.47167906 -0.03943231 0.19218803
v 4.45404902 -0.03890922 0.14394522
v 4.45307543 -0.04510922 0.14411736
v 4.45493811 -0.04510922 0.14407969
v 4.45192663 -0.03890922 0.14470685
v 4.45143479 -0.04510923 0.14527345
v 4.45092035 -0.03890925 0.14699507
v 4.45098910 -0.04510922 0.14699936
v 4.45555041 -0.03890922 0.14441336
v 4.45641837 -0.04510922 0.14517808
v 4.45669025 -0.03890922 0.14555407
v 4.45707974 -0.04510920 0.14699507
v 4.45701051 -0.03890922 0.14699948
v 4.47047599 -0.03890922 0.17504776
v 4.47006804 -0.03890922 0.17674685
v 4.48362169 -0.03890922 0.17928827
v 4.45705931 -0.03890922 0.15553129
v 4.45869536 -0.03890922 0.15591586
v 4.45613946 -0.03890922 0.14912689
v 4.42648199 -0.03890922 0.15881468
v 4.43391202 -0.03890922 0.15617812
v 4.42789536 -0.03890922 0.15621412
v 4.42518269 -0.03890922 0.16196907
v 4.43476993 -0.03890922 0.15693832
v 4.44515504 -0.03890922 0.15776718
v 4.43935285 -0.03890922 0.15446079
v 4.44373268 -0.03890922 0.15875614
v 4.47074251 -0.03890922 0.17287290
v 4.48437390 -0.03890922 0.17482424
v 4.48449994 -0.03890922 0.17256665
v 4.43340182 -0.03890922 0.15346945
v 4.43050347 -0.03890922 0.15254045
v 4.43329173 -0.03890922 0.15446234
v 4.43924204 -0.03890922 0.15347112
v 4.44667245 -0.03890922 0.15693152
v 4.44880606 -0.03890922 0.15605510
v 4.47296578 -0.03890922 0.15707803
v 4.48151470 -0.03890922 0.15881062
v 4.47376095 -0.03890922 0.15652561
v 4.43888479 -0.03890922 0.15270806
v 4.45101434 -0.03890922 0.14744020
v 4.48010432 -0.03890922 0.15621519
v 4.47888756 -0.03890922 0.15436328
v 4.47437475 -0.03890922 0.15573526
v 4.45267041 -0.03890922 0.15529275
v 4.45395855 -0.03890922 0.15001178
v 4.45322573 -0.03890922 0.14990044
v 4.44536534 -0.03890922 0.14273966
v 4.45106252 -0.03890922 0.14632202
v 4.46070667 -0.03890922 0.15663660
v 4.45663589 -0.03890922 0.14844180
v 4.45171711 -0.03890922 0.14157355
v 4.45176703 -0.03890922 0.14498258
v 4.45256472 -0.03890922 0.14434445
v 4.45844454 -0.03890922 0.14180971
v 4.45504531 -0.03890922 0.14150477
v 4.45554022 -0.03890922 0.14440465
v 4.47042061 -0.03890922 0.15156222
v 4.46926634 -0.03890922 0.14557958
v 4.46976819 -0.03890922 0.15196300
v 4.45684705 -0.03890922 0.14600027
v 4.45634838 -0.03890922 0.14511931
v 4.47368743 -0.03890922 0.15203619
v 4.47433431 -0.03890922 0.14926029
v 4.47293557 -0.03890922 0.15156293
v 4.46703903 -0.03890922 0.16145814
v 4.47093927 -0.03890922 0.15726924
v 4.47003247 -0.03890922 0.15687180
v 4.46855969 -0.03890922 0.16368640
v 4.44347909 -0.03890922 0.14336765
v 4.44143338 -0.03890922 0.14420021
v 4.45254950 -0.03890922 0.14964033
v 4.43840451 -0.03890922 0.15211165
v 4.43873536 -0.03890922 0.14557791
v 4.43756887 -0.03890922 0.15154577
v 4.47040322 -0.03890922 0.16853976
v 4.48281624 -0.03890922 0.16196823
v 4.46967586 -0.03890922 0.16605747
v 4.43675833 -0.03890922 0.15132285
v 4.43579723 -0.03890922 0.14750982
v 4.48361944 -0.03890922 0.16470409
v 4.48417608 -0.03890922 0.16746986
v 4.43366893 -0.03890922 0.14925623
v 4.43506057 -0.03890922 0.15156389
v 4.43588325 -0.03890922 0.15131200
v 4.47070398 -0.03890922 0.17068804
v 4.48445723 -0.03890922 0.17029119
v 4.48407976 -0.03890922 0.17708004
v 4.44098276 -0.03890922 0.16143453
v 4.43760559 -0.03890922 0.15707958
v 4.43657408 -0.03890922 0.15734578
v 4.48281716 -0.03890922 0.18203104
v 4.46949496 -0.03890922 0.17837358
v 4.43566121 -0.03890922 0.15728343
v 4.43903907 -0.03890922 0.16443313
v 4.47323012 -0.03890921 0.18706191
v 4.47233864 -0.03890921 0.18671668
v 4.42437816 -0.03890922 0.16471184
v 4.43804725 -0.03890922 0.16684747
v 4.46424132 -0.03890921 0.18526149
v 4.46876661 -0.03890922 0.18884290
v 4.46903643 -0.03890922 0.18818677
v 4.43752400 -0.03890922 0.16894532
v 4.42392009 -0.03890922 0.16692007
v 4.46245351 -0.03890921 0.18647516
v 4.46864699 -0.03890922 0.18953944
v 4.43725726 -0.03890922 0.17113305
v 4.42362595 -0.03890922 0.16917587
v 4.46875777 -0.03890922 0.19052887
v 4.47211663 -0.03890922 0.19268811
v 4.47113367 -0.03890922 0.19266475
v 4.47220210 -0.03890921 0.19649077
v 4.46452445 -0.03890921 0.20063114
v 4.46656312 -0.03890921 0.19980157
v 4.42349991 -0.03890922 0.17143346
v 4.42354262 -0.03890922 0.17370892
v 4.43729726 -0.03890922 0.17333639
v 4.42382377 -0.03890922 0.17653025
v 4.46036493 -0.03890921 0.18750131
v 4.45869785 -0.03890922 0.18808401
v 4.45705259 -0.03890922 0.18847037
v 4.45977872 -0.03890921 0.20196498
v 4.43752751 -0.03890922 0.17507053
v 4.42438041 -0.03890922 0.17929602
v 4.45495328 -0.03890922 0.18874109
v 4.45628326 -0.03890921 0.20242656
v 4.45295561 -0.03890921 0.20249546
v 4.45058539 -0.03890921 0.20231009
v 4.45267031 -0.03890922 0.18870735
v 4.45092775 -0.03890922 0.18846941
v 4.44821908 -0.03890921 0.20196450
v 4.44928920 -0.03890922 0.18808341
v 4.44536411 -0.03890921 0.20125985
v 4.44122879 -0.03890921 0.18284571
v 4.43706058 -0.03890921 0.18673087
v 4.43796757 -0.03890921 0.18712843
v 4.44514943 -0.03890921 0.18622899
v 4.44371758 -0.03890921 0.18523217
v 4.43927337 -0.03890922 0.18897355
v 4.43903222 -0.03890922 0.18832732
v 4.44348183 -0.03890921 0.20063329
v 4.44717561 -0.03890921 0.18731296
v 4.43366554 -0.03890921 0.19473982
v 4.43431277 -0.03890922 0.19196427
v 4.43202609 -0.03890922 0.19316221
v 4.44243651 -0.03890921 0.18412090
v 4.43607354 -0.03890921 0.18665433
v 4.44017568 -0.03890922 0.18146563
v 4.43588485 -0.03890922 0.19268823
v 4.43579772 -0.03890921 0.19648981
v 4.43503407 -0.03890921 0.18692208
v 4.43908463 -0.03890922 0.17965818
v 4.43506448 -0.03890922 0.19243729
v 4.43051052 -0.03890922 0.19146705
v 4.43334658 -0.03890922 0.19023907
v 4.43329396 -0.03890922 0.18939448
v 4.43806522 -0.03890922 0.17721057
v 4.42518361 -0.03890922 0.18203188
v 4.43994383 -0.03890922 0.16289008
v 4.43202316 -0.03890922 0.15083957
v 4.43384759 -0.03890922 0.15256763
v 4.45092743 -0.03890922 0.15553070
v 4.45186116 -0.03890922 0.14911557
v 4.45360416 -0.03890922 0.14400959
v 4.45495442 -0.03890922 0.15525902
v 4.45136669 -0.03890922 0.14555192
v 4.44822034 -0.03890922 0.14203525
v 4.45454635 -0.03890922 0.14404023
v 4.45699969 -0.03890922 0.14685941
v 4.46190329 -0.03890922 0.14252520
v 4.46656578 -0.03890922 0.14420021
v 4.46919966 -0.03890922 0.15256977
v 4.47113270 -0.03890922 0.15133548
v 4.47220266 -0.03890922 0.14751065
v 4.47211496 -0.03890922 0.15131188
v 4.47192631 -0.03890922 0.15734577
v 4.47142577 -0.03890921 0.18665433
v 4.46781168 -0.03890922 0.18148160
v 4.47039426 -0.03890921 0.18692052
v 4.46671337 -0.03890921 0.18291831
v 4.46545133 -0.03890921 0.18423093
v 4.46956918 -0.03890921 0.18749726
v 4.48010449 -0.03890922 0.18778599
v 4.48151787 -0.03890921 0.18518543
v 4.47408811 -0.03890922 0.18782235
v 4.47459806 -0.03890922 0.19053054
v 4.47415226 -0.03890922 0.19143248
v 4.47597670 -0.03890922 0.19316054
v 4.46966423 -0.03890922 0.19195998
v 4.46911506 -0.03890922 0.19129205
v 4.46263451 -0.03890921 0.20126045
v 4.46515727 -0.03890922 0.15948654
v 4.46935840 -0.03890922 0.15627873
v 4.46896763 -0.03890922 0.15567279
v 4.46875716 -0.03890922 0.15347231
v 4.45693765 -0.03890922 0.14767945
v 4.46872648 -0.03890922 0.15502656
v 4.46303502 -0.03890922 0.15787423
v 4.46864935 -0.03890922 0.15432668
v 4.46451435 -0.03890922 0.14336551
v 4.47597376 -0.03890922 0.15083790
v 4.47439276 -0.03890922 0.15294910
v 4.47748933 -0.03890922 0.15253306
v 4.47465335 -0.03890922 0.15376151
v 4.47470589 -0.03890922 0.15460575
v 4.43344952 -0.03890922 0.15529728
v 4.42911814 -0.03890922 0.15435470
v 4.43441425 -0.03890922 0.15196050
v 4.45133546 -0.03890922 0.14839685
v 4.43923324 -0.03890922 0.15515721
v 4.44247341 -0.03890922 0.15984285
v 4.43896317 -0.03890922 0.15581382
v 4.43843024 -0.03890922 0.15650332
v 4.43360714 -0.03890922 0.19105101
v 4.42648515 -0.03890921 0.18518949
v 4.42911230 -0.03890922 0.18963683
v 4.43423883 -0.03890921 0.18747461
v 4.43362510 -0.03890922 0.18826485
v 4.42789554 -0.03890922 0.18778491
v 4.43864194 -0.03890922 0.18772197
v 4.43924272 -0.03890922 0.19052768
v 4.43880020 -0.03890922 0.19143033
v 4.43935050 -0.03890922 0.18967343
v 4.44143741 -0.03890921 0.19980157
v 4.43873351 -0.03890921 0.19842053
v 4.43823154 -0.03890922 0.19203735
v 4.43757904 -0.03890922 0.19243801
v 4.43686735 -0.03890922 0.19266463
v 4.47041900 -0.03890922 0.19243682
v 4.46926449 -0.03890921 0.19842220
v 4.46872667 -0.03890922 0.17999888
v 4.47455035 -0.03890922 0.18870294
v 4.47888171 -0.03890922 0.18964541
v 4.47470812 -0.03890922 0.18953789
v 4.47749638 -0.03890922 0.19145966
v 4.47358549 -0.03890922 0.19203985
v 4.47293907 -0.03890922 0.19243634
v 4.47433093 -0.03890921 0.19474387
v 4.45534992 -0.03890922 0.14968586
v 4.45472897 -0.03890922 0.14991677
v 4.46572956 -0.03890963 0.14381767
v 4.46498127 -0.03990891 0.14244998
v 4.46190617 -0.03890981 0.14252663
v 4.47220404 -0.03890934 0.14751184
v 4.47265674 -0.03991138 0.14659906
v 4.46926979 -0.03890946 0.14558185
v 4.47749036 -0.03890925 0.15253425
v 4.47780566 -0.03991025 0.15134693
v 4.47519653 -0.03890928 0.15003181
v 4.47969760 -0.03990977 0.15376807
v 4.47956942 -0.03890939 0.15532566
v 4.48160619 -0.03990870 0.15677214
v 4.48151547 -0.03890948 0.15881276
v 4.48281662 -0.03890945 0.16196990
v 4.48355647 -0.03990950 0.16102743
v 4.48417618 -0.03890939 0.16747153
v 4.48473614 -0.03990905 0.16503799
v 4.48361969 -0.03890931 0.16470540
v 4.48538981 -0.03990950 0.16906273
v 4.48445724 -0.03890928 0.17029274
v 4.48549256 -0.03990950 0.17316115
v 4.48388654 -0.03890984 0.17821729
v 4.48524114 -0.03990965 0.17606688
v 4.48447834 -0.03890978 0.17370117
v 4.48281612 -0.03890945 0.18203330
v 4.48373958 -0.03990896 0.18242526
v 4.48215507 -0.03991001 0.18618739
v 4.48151649 -0.03890954 0.18518746
v 4.47957233 -0.03890966 0.18866992
v 4.47822495 -0.03990914 0.19214714
v 4.48008282 -0.03990941 0.18968356
v 4.47586534 -0.03990917 0.19470847
v 4.47749541 -0.03890931 0.19146073
v 4.47220034 -0.03890945 0.19649172
v 4.47336584 -0.03990998 0.19685006
v 4.47519665 -0.03890993 0.19396854
v 4.47085819 -0.03990923 0.19862795
v 4.46926065 -0.03890984 0.19842375
v 4.46821048 -0.03990843 0.20012009
v 4.46656242 -0.03890945 0.19980169
v 4.46499205 -0.03990989 0.20154548
v 4.46350010 -0.03890942 0.20101154
v 4.46112306 -0.03991057 0.20269847
v 4.45977593 -0.03890960 0.20196522
v 4.45764094 -0.03990914 0.20330251
v 4.45627948 -0.03890975 0.20242632
v 4.45400083 -0.03990709 0.20351875
v 4.45399993 -0.03890921 0.20250011
v 4.48472963 -0.03990956 0.17898941
v 4.47532541 -0.03991034 0.14879954
v 4.46919767 -0.03991120 0.14438022
v 4.45844694 -0.03890963 0.14181054
v 4.46112104 -0.03990765 0.14129830
v 4.45763975 -0.03990890 0.14069736
v 4.45400074 -0.03991132 0.14048553
v 4.45400310 -0.03890779 0.14145673
v 4.44301401 -0.03990983 0.14245296
v 4.44143408 -0.03890940 0.14419997
v 4.44450021 -0.03890934 0.14298833
v 4.43879643 -0.03990920 0.14438165
v 4.43533360 -0.03990926 0.14660442
v 4.43579948 -0.03890966 0.14750874
v 4.42830130 -0.03990977 0.15377045
v 4.42842813 -0.03891011 0.15533007
v 4.43018453 -0.03990840 0.15135658
v 4.42639509 -0.03991037 0.15677465
v 4.42648336 -0.03890954 0.15881265
v 4.42283712 -0.03990953 0.16730261
v 4.42352148 -0.03890975 0.17029870
v 4.42411317 -0.03890969 0.16578270
v 4.42357216 -0.03990911 0.16379452
v 4.42254352 -0.03990932 0.17024923
v 4.42354261 -0.03890928 0.17370737
v 4.42250718 -0.03990944 0.17317093
v 4.42382367 -0.03890939 0.17652858
v 4.42326959 -0.03990947 0.17898942
v 4.42438017 -0.03890930 0.17929459
v 4.42426372 -0.03990989 0.18243302
v 4.42518318 -0.03890933 0.18203033
v 4.42648440 -0.03890948 0.18518735
v 4.42843051 -0.03890948 0.18867433
v 4.42584539 -0.03991042 0.18618894
v 4.42798826 -0.03991019 0.18979097
v 4.43050949 -0.03890925 0.19146586
v 4.43018783 -0.03991019 0.19264710
v 4.43280333 -0.03890933 0.19396830
v 4.43421653 -0.03990819 0.19653488
v 4.43218944 -0.03990929 0.19473231
v 4.43579654 -0.03890927 0.19648898
v 4.43714097 -0.03990917 0.19862759
v 4.43873003 -0.03890948 0.19841826
v 4.43979976 -0.03991001 0.20012355
v 4.44143555 -0.03890912 0.19980073
v 4.44302208 -0.03990899 0.20155156
v 4.44449779 -0.03890945 0.20101071
v 4.44687852 -0.03990768 0.20270181
v 4.44821696 -0.03890918 0.20196414
v 4.45036092 -0.03990896 0.20330286
v 4.45171314 -0.03890942 0.20242608
v 4.45399911 -0.03991126 0.20351458
v 4.45399993 -0.03890921 0.20250011
v 4.42275918 -0.03990899 0.17607701
v 4.42518345 -0.03890939 0.16196740
v 4.42468381 -0.03990941 0.16043759
v 4.43050451 -0.03890925 0.15253926
v 4.43280216 -0.03890961 0.15003205
v 4.43266361 -0.03990831 0.14880789
v 4.43873920 -0.03890975 0.14557636
v 4.44822317 -0.03890955 0.14203513
v 4.45172098 -0.03890969 0.14157379
v 4.45035917 -0.03990905 0.14069760
v 4.44687854 -0.03991048 0.14130140
v 4.45399902 -0.03990703 0.14048124
v 4.45399992 -0.03890922 0.14150012
v 4.45178286 -0.04995631 0.13799990
v 4.45787903 -0.05475007 0.13799990
v 4.45755609 -0.05545932 0.13799990
v 4.45379810 -0.04930197 0.13799990
v 4.45806223 -0.05399241 0.13799990
v 4.45264934 -0.04952641 0.13799990
v 4.45798909 -0.05244054 0.13799990
v 4.45810012 -0.05321110 0.13799990
v 4.45588302 -0.04976151 0.13799990
v 4.45773356 -0.05170450 0.13799990
v 4.45497278 -0.04941389 0.13799990
v 4.45734272 -0.05102720 0.13799990
v 4.45669481 -0.05030342 0.13799990
v 4.45116517 -0.05044121 0.13799990
v 4.45710632 -0.05609216 0.13799990
v 4.45065585 -0.05102976 0.13799990
v 4.45653988 -0.05663352 0.13799990
v 4.45018284 -0.05188063 0.13799990
v 4.45588106 -0.05705603 0.13799990
v 4.45497561 -0.05740393 0.13799990
v 4.44993772 -0.05282508 0.13799990
v 4.44989972 -0.05360677 0.13799990
v 4.45380761 -0.05751783 0.13799990
v 4.45000993 -0.05437477 0.13799990
v 4.45026572 -0.05511378 0.13799990
v 4.45284273 -0.05734785 0.13799990
v 4.45211983 -0.05705835 0.13799990
v 4.45146183 -0.05663586 0.13799990
v 4.45076410 -0.05594719 0.13799990
v 4.48222665 -0.03990920 0.18604493
v 4.48288370 -0.04540922 0.18478835
v 4.48438557 -0.03990920 0.18053806
v 4.47891814 -0.04540922 0.19137180
v 4.47599787 -0.03990920 0.19457913
v 4.47395833 -0.04540921 0.19645489
v 4.47944815 -0.03990920 0.19063747
v 4.47194083 -0.03990920 0.19794488
v 4.46628829 -0.03990920 0.20107103
v 4.46906683 -0.04540922 0.19969547
v 4.43737283 -0.03990920 0.19880522
v 4.43322071 -0.03990920 0.19571340
v 4.43324580 -0.04540921 0.19581116
v 4.42910802 -0.03990920 0.19141150
v 4.42849454 -0.04540922 0.19055975
v 4.42590942 -0.03990920 0.18631626
v 4.42548883 -0.04540922 0.18549252
v 4.42371792 -0.03990920 0.18089987
v 4.42348116 -0.04540922 0.17997611
v 4.42236366 -0.04540922 0.17200328
v 4.42234266 -0.03990920 0.17200399
v 4.43867399 -0.04540922 0.19955349
v 4.44207694 -0.03990920 0.20118165
v 4.44455091 -0.04540922 0.20214033
v 4.44713241 -0.03990920 0.20278716
v 4.45149618 -0.04540922 0.20344413
v 4.45307503 -0.03990920 0.20353055
v 4.45792337 -0.04540922 0.20331800
v 4.45951743 -0.03990920 0.20307780
v 4.46418736 -0.04540922 0.20185101
v 4.48508638 -0.04540922 0.17747152
v 4.48563485 -0.03990920 0.17200327
v 4.48551755 -0.04540922 0.17200029
v 4.45209688 -0.05709496 0.13800002
v 4.45413534 -0.05754395 0.13799990
v 4.45366474 -0.05754932 0.13779998
v 4.45142792 -0.05667891 0.13780010
v 4.45039748 -0.05548904 0.13800002
v 4.45016370 -0.05494333 0.13780010
v 4.44986789 -0.05341094 0.13800002
v 4.44988533 -0.05340997 0.13780010
v 4.45571466 -0.05716829 0.13780010
v 4.45607317 -0.05699358 0.13800013
v 4.45751652 -0.05567034 0.13779998
v 4.45770238 -0.05531991 0.13800002
v 4.45813181 -0.05341094 0.13779998
v 4.45811459 -0.05340997 0.13800002
v 4.45159718 -0.05003688 0.13800002
v 4.45262237 -0.04942800 0.13780022
v 4.45347219 -0.04930705 0.13800002
v 4.45055279 -0.05112329 0.13780010
v 4.45022764 -0.05168657 0.13800002
v 4.44981973 -0.05340442 0.13780010
v 4.44988531 -0.05340845 0.13800002
v 4.45573152 -0.04961940 0.13799990
v 4.45573674 -0.04960683 0.13779998
v 4.45760208 -0.05132920 0.13800002
v 4.45770325 -0.05150061 0.13780022
v 4.45813190 -0.05340749 0.13800002
v 4.45811458 -0.05340846 0.13780010
v 4.45526784 -0.06526223 0.21548033
v 4.45383939 -0.06810822 0.21550012
v 4.45441379 -0.06806766 0.21549905
v 4.45335022 -0.06798700 0.21549249
v 4.45258100 -0.06735453 0.21547783
v 4.45291780 -0.06772751 0.21548796
v 4.45570817 -0.06649478 0.21547008
v 4.45561037 -0.06583564 0.21546889
v 4.45526843 -0.06755610 0.21548236
v 4.45557562 -0.06706381 0.21546901
v 4.45487873 -0.06786670 0.21549011
v 4.45234135 -0.06682393 0.21547008
v 4.45230767 -0.06615935 0.21547008
v 4.45465353 -0.06482186 0.21549416
v 4.45392084 -0.06470144 0.21550024
v 4.45342618 -0.06480760 0.21549511
v 4.45297694 -0.06503947 0.21548891
v 4.45252997 -0.06553391 0.21547497
v 4.43556084 -0.04540922 0.13606275
v 4.43921684 -0.04540922 0.13717497
v 4.43855802 -0.04540922 0.13646889
v 4.42680260 -0.04540922 0.20185459
v 4.43221686 -0.04540922 0.19475925
v 4.42462540 -0.04540922 0.19971788
v 4.43771762 -0.04540922 0.13505006
v 4.42268814 -0.04540922 0.14648664
v 4.42084399 -0.04540922 0.14893461
v 4.43013950 -0.04540922 0.15140903
v 4.42674287 -0.04540922 0.15618122
v 4.42828210 -0.04540922 0.15380276
v 4.41672755 -0.04540922 0.15640820
v 4.42561462 -0.04540922 0.15834010
v 4.41874848 -0.04540922 0.15226448
v 4.42465999 -0.04540922 0.16049994
v 4.41543100 -0.04540922 0.16001392
v 4.42374376 -0.04540922 0.16321898
v 4.41465449 -0.04540922 0.16288186
v 4.41395727 -0.04540922 0.16663040
v 4.41364122 -0.04540922 0.17044903
v 4.42263261 -0.04540922 0.16905058
v 4.41366299 -0.04540922 0.17426444
v 4.42249986 -0.04540922 0.17141653
v 4.41406893 -0.04540922 0.17806507
v 4.42316078 -0.04540922 0.17845011
v 4.42276761 -0.04540922 0.17613304
v 4.41464144 -0.04540922 0.18106139
v 4.42387922 -0.04540922 0.18126715
v 4.41675051 -0.04540922 0.18764389
v 4.42512851 -0.04540922 0.18463267
v 4.49255847 -0.04540922 0.18402481
v 4.49335868 -0.04540922 0.18106139
v 4.48457997 -0.04540922 0.17958129
v 4.43944517 -0.04540922 0.19995535
v 4.43430501 -0.04540922 0.20726478
v 4.43712114 -0.04540922 0.20869112
v 4.48959041 -0.04540922 0.19109189
v 4.48157596 -0.04540922 0.18723440
v 4.48763351 -0.04540922 0.19438517
v 4.47585227 -0.04540922 0.19469190
v 4.47415003 -0.04540922 0.19622028
v 4.48119527 -0.04540922 0.20185733
v 4.46606431 -0.04540922 0.20110226
v 4.47088178 -0.04540922 0.20869029
v 4.46820371 -0.04540922 0.20012415
v 4.46384549 -0.04540922 0.20192468
v 4.46813922 -0.04540922 0.20983351
v 4.45764362 -0.04540922 0.20330251
v 4.46226090 -0.04540922 0.21153295
v 4.46111898 -0.04540922 0.20270050
v 4.46523451 -0.04540922 0.21079290
v 4.45705568 -0.04540922 0.21227002
v 4.45469173 -0.04540922 0.20349932
v 4.45230989 -0.04540922 0.20346177
v 4.45465938 -0.04540922 0.21238065
v 4.47369364 -0.04540922 0.20726586
v 4.47018511 -0.04540922 0.19903028
v 4.47630832 -0.04540922 0.20566643
v 4.47222738 -0.04540922 0.19770217
v 4.45006353 -0.04540922 0.20325721
v 4.45151903 -0.04540922 0.21231449
v 4.44573988 -0.04540922 0.21153295
v 4.44856120 -0.04540922 0.21202016
v 4.47885866 -0.04540922 0.20383477
v 4.44277000 -0.04540922 0.21079397
v 4.44717376 -0.04540922 0.20276547
v 4.48534515 -0.04540922 0.19747007
v 4.47794096 -0.04540922 0.19249249
v 4.48337907 -0.04540922 0.19971431
v 4.43985716 -0.04540922 0.20983196
v 4.44203837 -0.04540922 0.20114291
v 4.48008102 -0.04540922 0.18968654
v 4.43169490 -0.04540922 0.20566798
v 4.42914768 -0.04540922 0.20383930
v 4.43641749 -0.04540922 0.19815219
v 4.49125022 -0.04540922 0.18764305
v 4.48264096 -0.04540922 0.18512762
v 4.48373863 -0.04540922 0.18243062
v 4.43402084 -0.04540922 0.19636417
v 4.44116729 -0.04540922 0.13798345
v 4.45469182 -0.04540922 0.14050079
v 4.46683255 -0.04540922 0.13798345
v 4.49405090 -0.04540922 0.17730749
v 4.49436057 -0.04540922 0.17349100
v 4.48536844 -0.04540922 0.17493665
v 4.49435814 -0.04540922 0.17044806
v 4.48549996 -0.04540922 0.17258465
v 4.48542666 -0.04540922 0.16964805
v 4.49404195 -0.04540922 0.16663039
v 4.48506043 -0.04540922 0.16672015
v 4.43012246 -0.04540922 0.19257033
v 4.42264905 -0.04540922 0.19746197
v 4.48373989 -0.04540922 0.16157413
v 4.48458054 -0.04540922 0.16442168
v 4.49317132 -0.04540922 0.16211045
v 4.42828707 -0.04540922 0.19020403
v 4.42674394 -0.04540922 0.18782044
v 4.42036419 -0.04540922 0.19438029
v 4.48263918 -0.04540922 0.15887010
v 4.49095919 -0.04540922 0.15571570
v 4.48925108 -0.04540922 0.15226591
v 4.48157906 -0.04540922 0.15677238
v 4.41841152 -0.04540922 0.19109500
v 4.48008018 -0.04540922 0.15431273
v 4.47794789 -0.04540922 0.15151644
v 4.48715240 -0.04540922 0.14893138
v 4.48531137 -0.04540922 0.14648784
v 4.48276545 -0.04540922 0.14362681
v 4.47539715 -0.04540922 0.14886487
v 4.47987203 -0.04540922 0.14098692
v 4.47758273 -0.04540922 0.13920832
v 4.47311222 -0.04540922 0.14695180
v 4.45764539 -0.04540922 0.14069796
v 4.46111872 -0.04540922 0.14129973
v 4.46384464 -0.04540922 0.14207542
v 4.46606246 -0.04540922 0.14289797
v 4.46873426 -0.04540922 0.14413941
v 4.46781770 -0.04540922 0.13774848
v 4.46944183 -0.04540922 0.13646889
v 4.46878300 -0.04540922 0.13717497
v 4.47243185 -0.04540922 0.13605953
v 4.47495734 -0.04540922 0.13747669
v 4.47028222 -0.04540922 0.13505006
v 4.42304706 -0.04540922 0.16607607
v 4.42630203 -0.04540922 0.14261008
v 4.43386864 -0.04540922 0.14776791
v 4.42811913 -0.04540922 0.14099360
v 4.43304075 -0.04540922 0.13747740
v 4.48505986 -0.04540922 0.17728412
v 4.47133266 -0.04540922 0.14569033
v 4.49205563 -0.04540922 0.15846884
v 4.45943895 -0.04540922 0.21202016
v 4.44422175 -0.04540922 0.20195365
v 4.41544017 -0.04540922 0.18401945
v 4.42254594 -0.04540922 0.17380536
v 4.43634109 -0.04540922 0.14589775
v 4.43225956 -0.04540922 0.14919854
v 4.42466529 -0.04540922 0.14423359
v 4.43041675 -0.04540922 0.13920796
v 4.43944125 -0.04540922 0.14404643
v 4.44018215 -0.04540922 0.13774848
v 4.44203585 -0.04540922 0.14285791
v 4.44421935 -0.04540922 0.14204705
v 4.44717599 -0.04540922 0.14123393
v 4.45006177 -0.04540922 0.14074314
v 4.45230985 -0.04540922 0.14053834
v 4.45605939 -0.05696892 0.13780010
v 4.45683022 -0.05638190 0.13780010
v 4.45682725 -0.05753920 0.13780010
v 4.45419867 -0.05751653 0.13780010
v 4.45516242 -0.05734633 0.13780010
v 4.45514016 -0.05828272 0.13780010
v 4.45601605 -0.05798915 0.13780010
v 4.45331462 -0.05836752 0.13780010
v 4.45303108 -0.05740621 0.13780010
v 4.45770792 -0.05678435 0.13780010
v 4.45734704 -0.05578575 0.13780010
v 4.45241457 -0.05815752 0.13780010
v 4.45194186 -0.05696980 0.13780010
v 4.45837352 -0.05584285 0.13780010
v 4.45773484 -0.05511141 0.13780010
v 4.45053991 -0.05563185 0.13780010
v 4.45116690 -0.05637953 0.13780010
v 4.45061808 -0.05711165 0.13780010
v 4.45012145 -0.05475319 0.13780010
v 4.44973558 -0.05604744 0.13780010
v 4.44993811 -0.05400044 0.13780010
v 4.44917573 -0.05477809 0.13780010
v 4.45303555 -0.04941233 0.13780010
v 4.45194941 -0.04984494 0.13780010
v 4.45197009 -0.04883585 0.13780010
v 4.45446093 -0.04841657 0.13780010
v 4.45515563 -0.04947095 0.13780010
v 4.45419757 -0.04930193 0.13780010
v 4.45046022 -0.04987046 0.13780010
v 4.45117240 -0.04928060 0.13780010
v 4.45117051 -0.05043583 0.13780010
v 4.45307090 -0.04848245 0.13780010
v 4.45011979 -0.05207090 0.13780010
v 4.44973351 -0.05077529 0.13780010
v 4.45053934 -0.05118809 0.13780010
v 4.45559988 -0.04866632 0.13780010
v 4.45588396 -0.04976331 0.13780010
v 4.45664311 -0.04914809 0.13780010
v 4.45653540 -0.05018162 0.13780010
v 4.44904337 -0.05271866 0.13780010
v 4.44990600 -0.05302103 0.13780010
v 4.44899966 -0.05364329 0.13780010
v 4.45848915 -0.05117625 0.13780010
v 4.45773646 -0.05171085 0.13780010
v 4.45723407 -0.05086956 0.13780010
v 4.45798930 -0.05244452 0.13780010
v 4.45887275 -0.05226264 0.13780010
v 4.45810000 -0.05321607 0.13780010
v 4.45900016 -0.05317438 0.13780010
v 4.45895651 -0.05410058 0.13780010
v 4.45803722 -0.05419085 0.13780010
v 4.45874537 -0.05499956 0.13780010
v 4.45771062 -0.05003713 0.13780010
v 4.45156623 -0.05778440 0.13780010
v 4.45423693 -0.05840910 0.13780010
v 4.44925400 -0.05182143 0.13780010
v 4.45347543 -0.06805375 0.21565008
v 4.45475881 -0.06799214 0.21564985
v 4.45431675 -0.06811626 0.21550095
v 4.45288614 -0.06775645 0.21548617
v 4.45249980 -0.06730665 0.21565008
v 4.45224603 -0.06641261 0.21547020
v 4.45229635 -0.06640940 0.21565008
v 4.45525398 -0.06760395 0.21548510
v 4.45582507 -0.06641989 0.21564973
v 4.45575455 -0.06641251 0.21547020
v 4.45460676 -0.06476255 0.21565008
v 4.45280094 -0.06505273 0.21564985
v 4.45360657 -0.06472714 0.21550036
v 4.45274569 -0.06521470 0.21548510
v 4.45224543 -0.06640591 0.21547008
v 4.45228759 -0.06640862 0.21565008
v 4.45461975 -0.06480585 0.21549356
v 4.45532659 -0.06532678 0.21547997
v 4.45555931 -0.06566301 0.21565008
v 4.45575389 -0.06640579 0.21547032
v 4.45570344 -0.06640904 0.21565008
v 4.43370428 -0.04550417 0.13647867
v 4.42820736 -0.04589621 0.13974536
v 4.42725212 -0.04548374 0.14109517
v 4.42426147 -0.04587907 0.14333165
v 4.42103898 -0.04591324 0.14716090
v 4.42057455 -0.04549468 0.14841092
v 4.41617238 -0.04591550 0.15553594
v 4.41492155 -0.04585794 0.15854407
v 4.41765845 -0.04550232 0.15323556
v 4.41440357 -0.04548088 0.16186155
v 4.41381729 -0.04591802 0.16267587
v 4.41295546 -0.04591731 0.16770328
v 4.41341980 -0.04549866 0.16692127
v 4.41373177 -0.04591723 0.18103171
v 4.41459807 -0.04552582 0.18320430
v 4.41338179 -0.04550916 0.17685199
v 4.41516519 -0.04591211 0.18593872
v 4.44027796 -0.04589311 0.21095848
v 4.43963116 -0.04549259 0.21031463
v 4.43546239 -0.04588753 0.20890320
v 4.45537928 -0.04590163 0.21325410
v 4.45981975 -0.04588835 0.21288634
v 4.45346485 -0.04551393 0.21293783
v 4.47403501 -0.04589501 0.20810259
v 4.47454955 -0.04549043 0.20733929
v 4.47171688 -0.04587653 0.20930255
v 4.48059080 -0.04590455 0.20355511
v 4.48385582 -0.04591051 0.20050323
v 4.48075415 -0.04549867 0.20294333
v 4.48413528 -0.04549974 0.19964934
v 4.48679976 -0.04590245 0.19704497
v 4.49251405 -0.04591862 0.18674278
v 4.49124324 -0.04560583 0.18918681
v 4.49107832 -0.04591522 0.19008791
v 4.49496542 -0.04561510 0.17431402
v 4.49425748 -0.04549703 0.17918920
v 4.49481106 -0.04591960 0.17810535
v 4.49524151 -0.04591723 0.17294121
v 4.49472536 -0.04547437 0.16851986
v 4.49504419 -0.04591684 0.16770136
v 4.49428802 -0.04561606 0.16422522
v 4.49418055 -0.04591832 0.16267025
v 4.49295513 -0.04551071 0.15950930
v 4.49293300 -0.04591874 0.15837288
v 4.49125869 -0.04591932 0.15429902
v 4.49110276 -0.04548221 0.15485692
v 4.48918855 -0.04587269 0.15034556
v 4.48655126 -0.04590065 0.14662147
v 4.48415984 -0.04589980 0.14383448
v 4.48532695 -0.04547131 0.14574135
v 4.48152715 -0.04587262 0.14118863
v 4.47928153 -0.04591512 0.13939739
v 4.47748790 -0.04550349 0.13851238
v 4.47570948 -0.04590494 0.13690031
v 4.47028970 -0.04541117 0.13505125
v 4.47243190 -0.04540725 0.13605941
v 4.47332105 -0.04548531 0.13599563
v 4.47226419 -0.04590640 0.13500393
v 4.49370057 -0.04591805 0.18320417
v 4.49293805 -0.04547933 0.18443656
v 4.48823526 -0.04549265 0.19441128
v 4.48892672 -0.04589698 0.19400823
v 4.47768594 -0.04589543 0.20581579
v 4.46507469 -0.04592446 0.21174252
v 4.46481278 -0.04547522 0.21139288
v 4.46864010 -0.04586502 0.21063972
v 4.45176919 -0.04590498 0.21319902
v 4.44823161 -0.04590354 0.21287012
v 4.44495338 -0.04587956 0.21229828
v 4.42474651 -0.04546882 0.20053661
v 4.42569360 -0.04591833 0.20200789
v 4.42897910 -0.04587098 0.20488322
v 4.42129756 -0.04587011 0.19724560
v 4.42309359 -0.04591543 0.19930589
v 4.41275803 -0.04591720 0.17293978
v 4.41302154 -0.04591887 0.17662812
v 4.41853800 -0.04546637 0.19227994
v 4.41681446 -0.04586858 0.19001961
v 4.41908030 -0.04589927 0.19401229
v 4.41297045 -0.04561465 0.17176569
v 4.41822154 -0.04591994 0.15147031
v 4.47041896 -0.04551649 0.13461423
v 4.47028135 -0.04588385 0.13406408
v 4.44780720 -0.04546839 0.21235025
v 4.43225992 -0.04590033 0.20707667
v 4.43174810 -0.04545769 0.20616842
v 4.43771862 -0.04588402 0.13406420
v 4.43580553 -0.04590568 0.13496900
v 4.43243532 -0.04590147 0.13680256
v 4.45940697 -0.04533898 0.21203220
v 4.41417733 -0.04539270 0.17881895
v 4.43758017 -0.04547678 0.13469279
v 4.48534455 -0.04540226 0.19747162
v 4.42316897 -0.04537364 0.14588297
v 4.49439405 -0.04539001 0.17121613
v 4.48763375 -0.04540491 0.19438541
v 4.42914758 -0.04540704 0.20383942
v 4.41521406 -0.04540588 0.18331135
v 4.41675020 -0.04540536 0.18764389
v 4.41360565 -0.04539198 0.17121268
v 4.48126343 -0.04540168 0.14220107
v 4.49393081 -0.04541195 0.17806423
v 4.47369371 -0.04540777 0.20726598
v 4.47088383 -0.04540165 0.20868993
v 4.46226163 -0.04540193 0.21153343
v 4.45705568 -0.04540922 0.21227002
v 4.42036396 -0.04540509 0.19438053
v 4.42578929 -0.04540620 0.14309085
v 4.47495734 -0.04540855 0.13747669
v 4.47821744 -0.04540790 0.13965726
v 4.48333110 -0.04541013 0.14423120
v 4.48531112 -0.04541077 0.14648772
v 4.48715250 -0.04541056 0.14893174
v 4.48925123 -0.04540655 0.15226567
v 4.49095933 -0.04540715 0.15571558
v 4.49205542 -0.04541143 0.15846872
v 4.49317083 -0.04541533 0.16211045
v 4.49404149 -0.04541600 0.16663086
v 4.49427417 -0.04541046 0.17503476
v 4.49335852 -0.04541074 0.18106163
v 4.49255873 -0.04540579 0.18402481
v 4.49125053 -0.04540535 0.18764305
v 4.48959066 -0.04540552 0.19109201
v 4.48337908 -0.04541074 0.19971407
v 4.48119507 -0.04540996 0.20185745
v 4.47885875 -0.04540712 0.20383489
v 4.47630833 -0.04540953 0.20566631
v 4.46813930 -0.04540690 0.20983374
v 4.46523438 -0.04541017 0.21079278
v 4.45465937 -0.04540924 0.21238065
v 4.45151908 -0.04540800 0.21231461
v 4.44856116 -0.04540965 0.21202016
v 4.44573981 -0.04540883 0.21153307
v 4.44277012 -0.04541017 0.21079397
v 4.43985710 -0.04540743 0.20983207
v 4.43712122 -0.04540988 0.20869112
v 4.43430493 -0.04540774 0.20726490
v 4.43169489 -0.04540958 0.20566786
v 4.42680280 -0.04540995 0.20185459
v 4.42462539 -0.04541071 0.19971776
v 4.42264893 -0.04540705 0.19746208
v 4.41841127 -0.04540554 0.19109512
v 4.41372541 -0.04541047 0.17503083
v 4.41395765 -0.04541490 0.16663087
v 4.41465483 -0.04541219 0.16288138
v 4.41543076 -0.04540600 0.16001392
v 4.41672724 -0.04540447 0.15640796
v 4.41874833 -0.04540661 0.15226436
v 4.42084390 -0.04541007 0.14893485
v 4.42811920 -0.04541080 0.14099372
v 4.43041675 -0.04540949 0.13920808
v 4.43304075 -0.04540855 0.13747740
v 4.43556079 -0.04540718 0.13606263
v 4.43771762 -0.04540922 0.13505006
v 4.46740956 -0.04640746 0.13682187
v 4.46725097 -0.04540770 0.13791800
v 4.46825634 -0.04540478 0.13753236
v 4.46826795 -0.04640329 0.13630736
v 4.46964532 -0.04540922 0.13615001
v 4.46915180 -0.04540688 0.13682676
v 4.46877932 -0.04640921 0.13565004
v 4.46644476 -0.04640918 0.13701880
v 4.46644112 -0.04540922 0.13800002
v 4.47037203 -0.04541105 0.13483167
v 4.46877932 -0.04640921 0.13565004
v 4.46964532 -0.04540922 0.13615001
v 4.47038353 -0.04568176 0.13431466
v 4.46993772 -0.04640921 0.13364006
v 4.43922052 -0.04640921 0.13565004
v 4.43806212 -0.04640921 0.13364006
v 4.43761354 -0.04568464 0.13431657
v 4.43762940 -0.04540900 0.13483131
v 4.43835452 -0.04540922 0.13615001
v 4.43884689 -0.04540733 0.13682616
v 4.43973295 -0.04640469 0.13631046
v 4.43922052 -0.04640921 0.13565004
v 4.43973969 -0.04540918 0.13753534
v 4.44059065 -0.04640800 0.13682259
v 4.44155872 -0.04540922 0.13800002
v 4.44155548 -0.04640416 0.13701380
v 4.44074702 -0.04540769 0.13791764
v 4.43835452 -0.04540922 0.13615001
v 4.44155872 -0.04640921 0.13699997
v 4.46644112 -0.04540922 0.13800002
v 4.46644112 -0.04640921 0.13699997
v 4.44155872 -0.04540922 0.13800002
v 4.45583026 -0.05814411 0.13699997
v 4.45314069 -0.05837708 0.13699997
v 4.45392853 -0.05849351 0.13780010
v 4.45645140 -0.05780101 0.13780010
v 4.45832966 -0.05609076 0.13699997
v 4.45845609 -0.05589250 0.13780010
v 4.45903649 -0.05341113 0.13699997
v 4.45901682 -0.05341006 0.13780010
v 4.45076191 -0.05730921 0.13699997
v 4.45114490 -0.05758135 0.13780010
v 4.44964127 -0.05591211 0.13780010
v 4.44930319 -0.05522716 0.13699997
v 4.44890692 -0.05341457 0.13780010
v 4.44898310 -0.05341006 0.13699997
v 4.45328925 -0.04834575 0.13780010
v 4.45470998 -0.04841552 0.13699997
v 4.45626860 -0.04890435 0.13780010
v 4.45750430 -0.04968255 0.13699997
v 4.45835155 -0.05077604 0.13780010
v 4.45915619 -0.05339957 0.13700009
v 4.45903746 -0.05340733 0.13780010
v 4.45213354 -0.04870135 0.13699997
v 4.45021092 -0.05001620 0.13780010
v 4.44959538 -0.05080733 0.13699997
v 4.44886882 -0.05340106 0.13779998
v 4.44898224 -0.05340831 0.13699997
v 4.47279042 -0.06114422 0.13140011
v 4.47341538 -0.05231031 0.13149226
v 4.47337937 -0.06134148 0.13147033
v 4.47398982 -0.05240922 0.13168002
v 4.47398982 -0.06140921 0.13168002
v 4.47279042 -0.05195022 0.13140011
v 4.41170034 -0.06940921 0.15660346
v 4.41337400 -0.06940921 0.15261520
v 4.45399946 -0.06940921 0.21695006
v 4.42647281 -0.06940921 0.20760381
v 4.42459302 -0.06940921 0.20606923
v 4.42193803 -0.06940921 0.20360172
v 4.43580018 -0.06940921 0.21317029
v 4.43253772 -0.06940921 0.21156144
v 4.41911027 -0.06940921 0.20044494
v 4.41700051 -0.06940921 0.19762445
v 4.42941001 -0.06940921 0.20970822
v 4.41509794 -0.06940921 0.19465018
v 4.41313938 -0.06940921 0.19088519
v 4.41178323 -0.06940921 0.18760014
v 4.43973444 -0.06940921 0.21469856
v 4.41089072 -0.06940921 0.18492389
v 4.44390584 -0.06940921 0.21587229
v 4.41016617 -0.06940921 0.18220199
v 4.40961469 -0.06940921 0.17944766
v 4.44739908 -0.06940921 0.21651769
v 4.40923553 -0.06940921 0.17664791
v 4.45006698 -0.06940921 0.21683681
v 4.40903247 -0.06940921 0.17385054
v 4.45331416 -0.06940921 0.21700931
v 4.40900486 -0.06940921 0.17103578
v 4.45793476 -0.06940921 0.21683657
v 4.46059957 -0.06940921 0.21651781
v 4.46981018 -0.06940921 0.21415103
v 4.46701803 -0.06940921 0.21508003
v 4.41063003 -0.06940921 0.15997971
v 4.47305351 -0.06940921 0.21277011
v 4.48152847 -0.06940921 0.20760227
v 4.41730988 -0.06940921 0.14593745
v 4.41901400 -0.06940921 0.14369238
v 4.48340745 -0.06940921 0.20606804
v 4.48888943 -0.06940921 0.20044362
v 4.42601858 -0.06940921 0.13674748
v 4.42827936 -0.06940921 0.13506616
v 4.43509142 -0.06940921 0.13114810
v 4.49485677 -0.06940921 0.19089150
v 4.49290002 -0.06940921 0.19465280
v 4.49711006 -0.06940921 0.18491936
v 4.49621368 -0.06940921 0.18760610
v 4.44103639 -0.06940921 0.12890208
v 4.44329599 -0.06940921 0.12828637
v 4.49899501 -0.06940921 0.17103815
v 4.45835131 -0.06940921 0.12719739
v 4.49879221 -0.06940921 0.16753471
v 4.46181837 -0.06940921 0.12767804
v 4.49817765 -0.06940921 0.16336060
v 4.49737055 -0.06940921 0.15998077
v 4.46470368 -0.06940921 0.12828613
v 4.47290493 -0.06940921 0.13114620
v 4.49630068 -0.06940921 0.15660441
v 4.46964367 -0.06940921 0.12980235
v 4.47971737 -0.06940921 0.13506353
v 4.48198574 -0.06940921 0.13675082
v 4.49114690 -0.06940921 0.14657366
v 4.48459706 -0.06940921 0.13898445
v 4.48898400 -0.06940921 0.14368868
v 4.48714534 -0.06940921 0.14155054
v 4.49339284 -0.06940921 0.15021312
v 4.47674557 -0.06940921 0.13315213
v 4.49496214 -0.06940921 0.15336013
v 4.46696710 -0.06940921 0.12890304
v 4.45481570 -0.06940921 0.12700046
v 4.49894309 -0.06940921 0.17453217
v 4.45131054 -0.06940921 0.12706709
v 4.49850791 -0.06940921 0.17873490
v 4.44697832 -0.06940921 0.12753451
v 4.49783370 -0.06940921 0.18220067
v 4.43835311 -0.06940921 0.12980378
v 4.43124864 -0.06940921 0.13315571
v 4.49099592 -0.06940921 0.19762790
v 4.42340745 -0.06940921 0.13898051
v 4.48606013 -0.06940921 0.20360244
v 4.42085596 -0.06940921 0.14154960
v 4.47858617 -0.06940921 0.20971024
v 4.41537353 -0.06940921 0.14888311
v 4.47545502 -0.06940921 0.21156490
v 4.46409168 -0.06940921 0.21587277
v 4.40982238 -0.06940921 0.16336036
v 4.40920781 -0.06940921 0.16753591
v 4.45468605 -0.06940921 0.21700931
v 4.45137107 -0.06781681 0.21692252
v 4.45248813 -0.06722190 0.21565366
v 4.45111480 -0.06708127 0.21690882
v 4.45275327 -0.06919253 0.21698797
v 4.45354392 -0.06806275 0.21565473
v 4.45293631 -0.06774043 0.21565104
v 4.45191652 -0.06858415 0.21695078
v 4.45228841 -0.06641187 0.21565187
v 4.45103758 -0.06640992 0.21689689
v 4.45352429 -0.06940547 0.21698118
v 4.45430285 -0.06809008 0.21565104
v 4.45453220 -0.06940921 0.21700001
v 4.45509874 -0.06925002 0.21698821
v 4.45500875 -0.06779698 0.21565461
v 4.45582936 -0.06881334 0.21696198
v 4.45643372 -0.06816185 0.21693635
v 4.45557852 -0.06708281 0.21565390
v 4.45688362 -0.06713000 0.21691239
v 4.45570383 -0.06640972 0.21565080
v 4.45695293 -0.06640922 0.21690011
v 4.45566442 -0.06602870 0.21565092
v 4.45569993 -0.06640922 0.21565008
v 4.45695293 -0.06640922 0.21690011
v 4.45361437 -0.06474951 0.21565044
v 4.45259311 -0.06371461 0.21697974
v 4.45312060 -0.06494519 0.21565104
v 4.45181622 -0.06434718 0.21695352
v 4.45127383 -0.06520105 0.21691942
v 4.45271357 -0.06529173 0.21565044
v 4.45242858 -0.06574088 0.21565092
v 4.45102595 -0.06640382 0.21690095
v 4.45228873 -0.06640653 0.21565235
v 4.45347857 -0.06339970 0.21699941
v 4.45422998 -0.06471338 0.21565223
v 4.45440544 -0.06337357 0.21700204
v 4.45519062 -0.06361567 0.21698749
v 4.45481110 -0.06491129 0.21565044
v 4.45588817 -0.06405966 0.21695936
v 4.45534152 -0.06533985 0.21565414
v 4.45644306 -0.06466925 0.21693635
v 4.45688440 -0.06569457 0.21691215
v 4.45886260 -0.06940942 0.21681178
v 4.45695031 -0.06612043 0.21692443
v 4.45689331 -0.06710214 0.21692956
v 4.45825031 -0.05240921 0.21684623
v 4.46640575 -0.05240922 0.21529436
v 4.45671779 -0.06517570 0.21692455
v 4.45652483 -0.06800850 0.21693397
v 4.45618406 -0.06434222 0.21695984
v 4.45599432 -0.06866992 0.21695054
v 4.45400000 -0.05240924 0.21701682
v 4.45543751 -0.06907684 0.21697521
v 4.45551919 -0.06379113 0.21697808
v 4.45469742 -0.06938850 0.21700299
v 4.49896850 -0.05240922 0.17433107
v 4.49776493 -0.05240922 0.18298554
v 4.49892282 -0.06940921 0.17588568
v 4.49876087 -0.06940921 0.16683245
v 4.49883653 -0.05240922 0.16759253
v 4.49731435 -0.05240922 0.15954959
v 4.49705447 -0.06940921 0.15868616
v 4.49406565 -0.06940921 0.15141273
v 4.49470779 -0.05240922 0.15274704
v 4.49075891 -0.06940921 0.14599419
v 4.48616850 -0.06940921 0.14043808
v 4.49072156 -0.05240922 0.14582598
v 4.48324899 -0.05240924 0.13762582
v 4.47858060 -0.06940919 0.13416875
v 4.47402711 -0.05240922 0.13160849
v 4.47404729 -0.06140916 0.13156689
v 4.46868611 -0.06940919 0.12934459
v 4.46490614 -0.06140921 0.12829173
v 4.45989445 -0.06940919 0.12734414
v 4.45872367 -0.06140921 0.12722517
v 4.45400011 -0.06140921 0.12698746
v 4.45400023 -0.06940921 0.12697995
v 4.49695663 -0.06940921 0.18570578
v 4.49405293 -0.05240922 0.19267583
v 4.49388037 -0.06940921 0.19290483
v 4.49024175 -0.06940921 0.19877303
v 4.48829917 -0.05240921 0.20131719
v 4.48572381 -0.06940921 0.20395685
v 4.48142809 -0.05240922 0.20773435
v 4.48024875 -0.06940921 0.20863426
v 4.47406236 -0.05240923 0.21238613
v 4.47351482 -0.06940922 0.21259880
v 4.46708341 -0.06940921 0.21509850
v 4.45399993 -0.06335922 0.21700001
v 4.45469130 -0.06342755 0.21699512
v 4.42371221 -0.05240921 0.13870407
v 4.42493676 -0.04590938 0.14272368
v 4.42815173 -0.04590829 0.13981045
v 4.43496404 -0.04590658 0.13538075
v 4.43428839 -0.05238818 0.13155771
v 4.43129508 -0.05240862 0.13313032
v 4.42102062 -0.05240885 0.14135838
v 4.41772585 -0.05240925 0.14531792
v 4.42240764 -0.04591005 0.14545131
v 4.41821004 -0.04590845 0.15145458
v 4.41326222 -0.05240879 0.15286279
v 4.41618121 -0.04590990 0.15549434
v 4.42016215 -0.04590938 0.14840675
v 4.41314665 -0.04590947 0.16626561
v 4.40911443 -0.05240853 0.16838182
v 4.41274156 -0.04591044 0.17070521
v 4.41217303 -0.05240906 0.18861223
v 4.41574419 -0.04590986 0.18746722
v 4.41095240 -0.05240882 0.18516887
v 4.41394589 -0.05241157 0.19256592
v 4.41654459 -0.05240935 0.19697107
v 4.41876258 -0.05240889 0.19999541
v 4.42122505 -0.04590959 0.19705868
v 4.42553137 -0.05241037 0.20686877
v 4.42982455 -0.04590978 0.20542491
v 4.42683792 -0.04590875 0.20307029
v 4.43602505 -0.05241083 0.21328450
v 4.43338805 -0.04591038 0.20776630
v 4.43233287 -0.05240902 0.21144927
v 4.44217645 -0.04590987 0.21153379
v 4.44023419 -0.05240932 0.21485412
v 4.44448772 -0.05240874 0.21601665
v 4.47003188 -0.04590824 0.21002329
v 4.47197882 -0.05241081 0.21328295
v 4.47461079 -0.04591038 0.20776725
v 4.47567171 -0.05240902 0.21144688
v 4.47884209 -0.05240861 0.20954407
v 4.47817796 -0.04590978 0.20542360
v 4.48247228 -0.05241038 0.20686615
v 4.48116959 -0.04590875 0.20306433
v 4.48632238 -0.05240865 0.20335055
v 4.48436536 -0.04590970 0.19993711
v 4.49016485 -0.05240841 0.19883120
v 4.48894259 -0.04590971 0.19394600
v 4.48677772 -0.04590957 0.19705617
v 4.49300012 -0.05241083 0.19447231
v 4.49528992 -0.05240830 0.18997037
v 4.49073657 -0.04590847 0.19076836
v 4.49225704 -0.04590986 0.18746519
v 4.49728058 -0.05240847 0.18443501
v 4.49371113 -0.04590987 0.18321371
v 4.49840644 -0.05241081 0.17936623
v 4.49469691 -0.04590839 0.17883432
v 4.49897431 -0.05240855 0.17426050
v 4.49524493 -0.04591041 0.17365825
v 4.49888562 -0.05240855 0.16838288
v 4.49511250 -0.04590978 0.16847324
v 4.49436443 -0.04590828 0.16334927
v 4.49828913 -0.05241013 0.16400468
v 4.49750301 -0.05240886 0.16042531
v 4.49614650 -0.05240898 0.15618062
v 4.49295010 -0.04590978 0.15837884
v 4.49438713 -0.05240918 0.15211284
v 4.49128037 -0.04590993 0.15431070
v 4.49220973 -0.05241046 0.14820254
v 4.48876848 -0.04590834 0.14974356
v 4.48558883 -0.04590980 0.14544809
v 4.48929016 -0.05240849 0.14402533
v 4.48530649 -0.05240895 0.13962925
v 4.48305790 -0.04590936 0.14271975
v 4.47984315 -0.04590796 0.13980651
v 4.48093747 -0.05241160 0.13591910
v 4.47571056 -0.04590941 0.13690949
v 4.47679360 -0.05240944 0.13318205
v 4.47025225 -0.04592215 0.13405228
v 4.47371069 -0.05238812 0.13155747
v 4.47300151 -0.05210854 0.13140905
v 4.47223975 -0.05147761 0.13145686
v 4.47157016 -0.05065412 0.13170004
v 4.47104355 -0.04974524 0.13205350
v 4.47061562 -0.04872412 0.13249541
v 4.46993772 -0.04640921 0.13364006
v 4.46643960 -0.05240882 0.21528197
v 4.46634215 -0.04590962 0.21136582
v 4.46210541 -0.04591032 0.21247387
v 4.46121020 -0.05240923 0.21643746
v 4.45622761 -0.04590847 0.21322263
v 4.45667604 -0.05240944 0.21693385
v 4.45304610 -0.05240998 0.21699751
v 4.44933485 -0.05240798 0.21677375
v 4.45091172 -0.04591048 0.21314752
v 4.44649584 -0.04591000 0.21257580
v 4.43796965 -0.04590824 0.21002364
v 4.42915799 -0.05240861 0.20954383
v 4.42168026 -0.05240865 0.20335293
v 4.42364079 -0.04590970 0.19994271
v 4.41905568 -0.04590951 0.19394291
v 4.41726105 -0.04590850 0.19076336
v 4.41429014 -0.04590987 0.18321694
v 4.40986950 -0.05241052 0.18087507
v 4.41344524 -0.04590860 0.17957092
v 4.40920771 -0.05240888 0.17648829
v 4.41292024 -0.04590984 0.17589212
v 4.40900075 -0.05240906 0.17279793
v 4.40996583 -0.05241137 0.16260088
v 4.41381252 -0.04590840 0.16263009
v 4.41156056 -0.05240845 0.15694047
v 4.41483415 -0.04590951 0.15904129
v 4.41496939 -0.05241025 0.14957691
v 4.42714925 -0.05241152 0.13585198
v 4.43161758 -0.04590880 0.13734293
v 4.43481722 -0.05219321 0.13143003
v 4.43536413 -0.05183557 0.13139439
v 4.43774332 -0.04590921 0.13409007
v 4.43806212 -0.04640921 0.13364006
v 4.43729666 -0.04897422 0.13237036
v 4.43667069 -0.05025037 0.13182748
v 4.43608540 -0.05109787 0.13154197
v 4.46644663 -0.04640921 0.13706553
v 4.46794926 -0.06040922 0.13660992
v 4.46644232 -0.06040922 0.13701523
v 4.46892421 -0.04640921 0.13575530
v 4.46877932 -0.06040922 0.13565004
v 4.46877932 -0.06040922 0.13565004
v 4.46993772 -0.04640921 0.13364006
v 4.47045212 -0.06040922 0.13275004
v 4.46877932 -0.04640921 0.13565004
v 4.47045212 -0.04817622 0.13275004
v 4.47227738 -0.05151056 0.13145972
v 4.47279042 -0.05195022 0.13140011
v 4.47279042 -0.06114422 0.13140011
v 4.47221953 -0.06085736 0.13146818
v 4.47140991 -0.05039803 0.13177336
v 4.47160010 -0.06040918 0.13166607
v 4.47039860 -0.06040924 0.13271463
v 4.47039968 -0.04818973 0.13271440
v 4.43922052 -0.06040922 0.13565004
v 4.43806212 -0.04640921 0.13364006
v 4.43922052 -0.04640921 0.13565004
v 4.43754772 -0.06040922 0.13275004
v 4.43754772 -0.04817622 0.13275004
v 4.43907594 -0.06040922 0.13575530
v 4.43922052 -0.04640921 0.13565004
v 4.44004880 -0.04640921 0.13660837
v 4.44155289 -0.06040922 0.13706756
v 4.44155758 -0.04640921 0.13701404
v 4.44155872 -0.06040922 0.13699997
v 4.44155872 -0.04640921 0.13699997
v 4.44900688 -0.05386977 0.13699997
v 4.44932332 -0.05521807 0.13699997
v 4.44986720 -0.05623287 0.13699997
v 4.45046130 -0.05694957 0.13699997
v 4.45136504 -0.05767544 0.13699997
v 4.45262909 -0.05823227 0.13699997
v 4.45376771 -0.05840892 0.13699997
v 4.45492024 -0.05833905 0.13699997
v 4.46644112 -0.06040922 0.13699997
v 4.45601484 -0.05799118 0.13699997
v 4.45682497 -0.05754155 0.13699997
v 4.45753640 -0.05695133 0.13699997
v 4.45813041 -0.05623690 0.13699997
v 4.45867487 -0.05522220 0.13699997
v 4.45899297 -0.05386985 0.13699997
v 4.46644112 -0.04640921 0.13699997
v 4.45895425 -0.05269494 0.13699997
v 4.45865697 -0.05154904 0.13699997
v 4.45808006 -0.05051008 0.13699997
v 4.45728683 -0.04962191 0.13699997
v 4.45629974 -0.04896334 0.13699997
v 4.45542025 -0.04860974 0.13699997
v 4.45424504 -0.04840029 0.13699997
v 4.45282126 -0.04853505 0.13699997
v 4.45149843 -0.04906260 0.13699997
v 4.45055092 -0.04978209 0.13699997
v 4.44978377 -0.05069384 0.13699997
v 4.44927010 -0.05177123 0.13699997
v 4.44904566 -0.05269450 0.13699997
v 4.43101921 -0.06940919 0.13325417
v 4.43395113 -0.06140916 0.13156426
v 4.43930861 -0.06940921 0.12934626
v 4.43399345 -0.05240922 0.13164807
v 4.44309736 -0.06140921 0.12829113
v 4.44810481 -0.06940919 0.12734426
v 4.44927816 -0.06140921 0.12722517
v 4.45399961 -0.06940921 0.12697995
v 4.45399973 -0.06140921 0.12698746
v 4.42906952 -0.05240922 0.13451171
v 4.42313837 -0.05240922 0.13910675
v 4.42371190 -0.06940921 0.13857186
v 4.41765773 -0.06940921 0.14538837
v 4.41725751 -0.05240922 0.14593662
v 4.41392491 -0.06940921 0.15143062
v 4.41358376 -0.05240922 0.15210474
v 4.41095116 -0.06940921 0.15866817
v 4.41040456 -0.05240922 0.16043676
v 4.40934623 -0.06940921 0.16612555
v 4.40888104 -0.05240922 0.17144740
v 4.41734922 -0.05240922 0.19819976
v 4.41410577 -0.06940921 0.19287837
v 4.41776468 -0.06940921 0.19878269
v 4.42227542 -0.06940921 0.20395720
v 4.42175655 -0.05240922 0.20342934
v 4.42657475 -0.05240922 0.20773614
v 4.42774967 -0.06940921 0.20863354
v 4.43207806 -0.05240922 0.21133542
v 4.43448341 -0.06940922 0.21259833
v 4.43804525 -0.05240922 0.21412790
v 4.45294632 -0.06355246 0.21698535
v 4.45399986 -0.05240924 0.21701670
v 4.45222228 -0.06396477 0.21695376
v 4.45171389 -0.06447499 0.21694494
v 4.44521582 -0.05240922 0.21619046
v 4.44901096 -0.06940936 0.21680022
v 4.45103079 -0.05240922 0.21690190
v 4.45104908 -0.06612584 0.21692395
v 4.45127841 -0.06518562 0.21692419
v 4.45111587 -0.06715158 0.21692980
v 4.45146545 -0.06798226 0.21692813
v 4.45249739 -0.06903938 0.21697486
v 4.45328273 -0.06938566 0.21700275
v 4.45191616 -0.06858435 0.21694756
v 4.44091444 -0.06940921 0.21509815
v 4.45399017 -0.06333411 0.21699310
v 4.41255971 -0.05240922 0.18985201
v 4.41104350 -0.06940921 0.18570829
v 4.40982644 -0.05240922 0.18082751
v 4.40899278 -0.06940921 0.17517305
v 4.43458298 -0.06134796 0.13148261
v 4.43401002 -0.05240922 0.13168002
v 4.43458211 -0.05231080 0.13149333
v 4.43520942 -0.05195022 0.13140011
v 4.43520942 -0.06114422 0.13140011
v 4.43401002 -0.06140921 0.13168002
v 4.43637166 -0.05071397 0.13166655
v 4.43578642 -0.06085347 0.13146985
v 4.43571470 -0.05151816 0.13145888
v 4.43639896 -0.06040918 0.13166786
v 4.43520942 -0.06114422 0.13140011
v 4.43520942 -0.05195022 0.13140011
v 4.43709908 -0.04943675 0.13215661
v 4.43759989 -0.06040922 0.13271547
v 4.43754772 -0.04817622 0.13275004
v 4.44106548 -0.06040922 0.13697076
v 4.43949625 -0.06040922 0.13606430
v 4.44019241 -0.06040922 0.13663531
v 4.46693436 -0.06040922 0.13697076
v 4.46850359 -0.06040922 0.13606430
v 4.46780743 -0.06040922 0.13663531
v 4.47110348 -0.06040922 0.13198698
v 4.46925992 -0.06040922 0.13073004
v 4.47060957 -0.06040922 0.13250280
v 4.47160632 -0.06040922 0.13168002
v 4.46435082 -0.06040922 0.12923003
v 4.46181058 -0.06040922 0.12870002
v 4.44364672 -0.06040922 0.12924004
v 4.46683782 -0.06040922 0.12991012
v 4.44876790 -0.06040922 0.12831009
v 4.45922974 -0.06040922 0.12831009
v 4.45662295 -0.06040922 0.12808001
v 4.44618674 -0.06040922 0.12870002
v 4.45137689 -0.06040922 0.12808001
v 4.45399992 -0.06040922 0.12799991
v 4.44116022 -0.06040922 0.12992001
v 4.43739027 -0.06040922 0.13250280
v 4.43689636 -0.06040922 0.13198698
v 4.43873992 -0.06040922 0.13073004
v 4.43639352 -0.06040922 0.13168002
v 4.43713650 -0.06141410 0.13025463
v 4.43639352 -0.06040922 0.13168002
v 4.43873992 -0.06040922 0.13073004
v 4.44092951 -0.06140681 0.12892795
v 4.44437259 -0.06141048 0.12802411
v 4.44241893 -0.06041207 0.12954081
v 4.45274882 -0.06040956 0.12799967
v 4.45318401 -0.06140952 0.12700081
v 4.44911043 -0.06140963 0.12724328
v 4.46006643 -0.06141015 0.12740863
v 4.46317979 -0.06040955 0.12894750
v 4.46363019 -0.06141061 0.12802458
v 4.46804131 -0.06041186 0.13028050
v 4.46822479 -0.06140527 0.12927449
v 4.47300314 -0.06124339 0.13140715
v 4.47373812 -0.06139541 0.13157237
v 4.47187156 -0.06141223 0.13069690
v 4.47215024 -0.06082020 0.13147617
v 4.47160632 -0.06040922 0.13168002
v 4.45800058 -0.06040894 0.12816215
v 4.45668657 -0.06140922 0.12706721
v 4.44750659 -0.06040843 0.12845970
v 4.43584833 -0.06082051 0.13147653
v 4.43504607 -0.06121363 0.13140059
v 4.43427816 -0.06138860 0.13155878
usemtl Aluminum
f 1 2 3
f 4 5 6
f 1 3 7
f 3 8 7
f 8 9 7
f 10 9 8
f 11 9 10
f 10 12 11
f 13 2 1
f 14 15 13
f 2 13 15
f 16 15 14
f 17 15 16
f 17 16 18
f 16 5 18
f 18 5 4
f 4 19 20
f 21 20 22
f 22 23 21
f 24 25 26
f 27 25 24
f 27 24 28
f 27 28 29
f 29 28 30
f 31 29 30
f 30 32 31
f 25 23 26
f 22 26 23
f 22 20 19
f 4 6 19
f 33 34 35
f 36 35 34
f 37 35 36
f 38 34 33
f 38 39 34
f 40 39 38
f 40 41 39
f 41 42 43
f 43 42 44
f 42 41 40
f 45 46 47
f 48 45 47
f 49 45 48
f 50 46 45
f 51 46 50
f 52 51 53
f 54 55 56
f 55 52 56
f 52 53 56
f 50 53 51
f 57 58 59
f 60 57 59
f 61 57 60
f 62 58 57
f 63 58 62
f 64 63 65
f 66 67 68
f 67 64 68
f 64 65 68
f 62 65 63
f 69 70 71
f 72 69 71
f 70 73 71
f 74 75 76
f 76 75 77
f 78 77 75
f 76 73 74
f 70 74 73
f 79 80 81
f 80 82 81
f 83 80 79
f 83 84 80
f 85 84 83
f 85 86 87
f 88 89 86
f 87 86 89
f 87 84 85
f 90 91 92
f 93 94 95
f 96 94 93
f 94 96 97
f 96 98 97
f 99 97 98
f 100 99 98
f 93 95 101
f 101 95 102
f 102 103 101
f 103 102 104
f 103 104 90
f 104 91 90
f 105 92 91
f 92 105 106
f 106 107 108
f 109 110 111
f 112 111 110
f 110 113 112
f 114 113 110
f 114 107 113
f 107 114 108
f 106 105 107
f 115 116 117
f 118 119 117
f 119 115 117
f 117 120 121
f 122 117 121
f 122 123 117
f 124 125 117
f 125 120 117
f 117 123 118
f 126 127 128
f 129 130 128
f 130 126 128
f 128 131 132
f 133 128 132
f 133 134 128
f 135 136 128
f 136 131 128
f 128 134 129
f 137 138 139
f 140 139 138
f 141 140 138
f 141 138 142
f 143 142 138
f 138 144 143
f 144 138 145
f 146 138 147
f 148 138 146
f 138 148 145
f 149 150 151
f 152 153 154
f 153 155 156
f 152 157 153
f 153 157 155
f 158 155 157
f 158 159 160
f 159 158 157
f 159 161 160
f 161 162 163
f 160 161 163
f 164 162 161
f 165 162 164
f 166 167 168
f 169 170 171
f 172 150 173
f 172 173 174
f 149 151 175
f 176 177 178
f 179 180 181
f 182 183 184
f 185 182 184
f 186 187 182
f 185 186 182
f 186 188 187
f 188 179 187
f 179 188 180
f 177 181 180
f 177 176 181
f 176 178 175
f 175 178 189
f 175 189 149
f 172 151 150
f 190 174 173
f 190 191 171
f 174 190 171
f 171 191 169
f 170 169 192
f 192 193 170
f 167 193 168
f 168 193 192
f 168 194 166
f 194 195 196
f 166 194 196
f 162 165 195
f 165 196 195
f 197 198 199
f 197 200 198
f 200 197 201
f 201 197 202
f 202 197 203
f 197 204 205
f 197 206 204
f 197 207 206
f 207 197 208
f 199 208 197
f 209 210 211
f 209 211 212
f 211 213 214
f 212 211 214
f 211 215 213
f 211 216 215
f 211 217 216
f 217 211 218
f 211 219 218
f 220 221 222
f 220 222 223
f 224 223 222
f 225 224 222
f 222 226 225
f 226 222 227
f 228 229 222
f 230 222 229
f 222 230 227
f 231 232 233
f 234 235 233
f 235 231 233
f 236 234 233
f 236 233 237
f 237 233 238
f 238 233 239
f 233 240 239
f 240 233 241
f 233 242 241
f 243 244 245
f 246 247 245
f 247 243 245
f 248 246 245
f 248 245 249
f 249 245 250
f 250 245 251
f 245 252 251
f 252 245 253
f 245 254 253
f 255 256 257
f 258 257 256
f 258 259 257
f 260 259 258
f 259 260 261
f 260 262 261
f 261 262 263
f 263 262 264
f 263 264 265
f 266 265 264
f 256 255 267
f 268 267 255
f 268 269 267
f 268 270 269
f 270 271 269
f 272 271 270
f 272 270 273
f 274 273 275
f 273 274 272
f 274 275 276
f 276 275 277
f 278 279 280
f 280 279 281
f 282 281 279
f 282 283 281
f 284 278 280
f 284 285 278
f 285 284 286
f 285 286 287
f 286 288 287
f 289 290 291
f 291 290 292
f 293 292 290
f 293 294 292
f 294 295 292
f 291 296 289
f 297 289 296
f 297 296 298
f 297 298 299
f 297 299 300
f 301 302 303
f 302 301 304
f 303 305 301
f 303 306 305
f 307 308 304
f 302 304 308
f 308 307 309
f 309 307 310
f 311 312 313
f 312 311 314
f 313 315 311
f 313 316 315
f 317 318 314
f 312 314 318
f 318 317 319
f 319 317 320
f 321 322 323
f 324 325 326
f 326 327 324
f 328 325 324
f 325 328 329
f 330 329 328
f 331 332 333
f 332 330 333
f 331 334 323
f 335 336 322
f 337 338 339
f 339 336 340
f 340 337 339
f 336 335 340
f 321 335 322
f 321 323 334
f 331 333 334
f 330 332 329
f 341 342 343
f 344 345 346
f 341 345 344
f 347 346 345
f 348 346 347
f 347 349 348
f 348 349 350
f 351 349 352
f 351 350 349
f 344 342 341
f 353 351 352
f 354 351 353
f 355 354 353
f 354 355 356
f 356 357 358
f 355 357 356
f 357 359 358
f 359 360 358
f 359 361 360
f 362 360 361
f 343 342 363
f 343 363 364
f 363 365 364
f 364 365 366
f 365 367 366
f 366 367 368
f 367 369 370
f 370 368 367
f 371 370 369
f 372 371 369
f 372 373 371
f 373 372 374
f 375 373 374
f 376 375 374
f 377 375 376
f 378 377 376
f 379 377 378
f 378 380 379
f 380 381 379
f 380 382 381
f 383 384 385
f 384 383 386
f 385 387 383
f 388 386 389
f 384 386 388
f 389 390 388
f 390 391 392
f 390 389 391
f 393 392 391
f 393 394 392
f 393 395 394
f 396 394 395
f 396 395 397
f 396 397 398
f 398 399 400
f 397 399 398
f 400 399 401
f 401 402 400
f 401 403 402
f 404 402 403
f 403 405 404
f 406 387 385
f 407 387 406
f 408 407 406
f 408 409 407
f 410 409 408
f 411 409 410
f 412 411 410
f 411 413 414
f 413 411 412
f 415 414 413
f 415 413 416
f 415 416 417
f 417 416 418
f 417 418 419
f 419 418 420
f 421 419 420
f 422 421 420
f 421 423 424
f 423 421 422
f 423 425 424
f 426 427 428
f 428 429 426
f 429 430 426
f 429 431 430
f 430 431 432
f 433 432 431
f 433 431 434
f 435 434 436
f 434 435 433
f 437 438 427
f 428 427 438
f 437 439 440
f 440 438 437
f 440 439 441
f 441 439 442
f 441 442 443
f 444 441 443
f 445 446 444
f 444 443 445
f 447 448 449
f 450 447 449
f 451 450 449
f 451 452 450
f 451 453 452
f 453 454 452
f 452 454 455
f 456 457 454
f 457 455 454
f 448 458 459
f 458 448 447
f 460 459 458
f 460 461 459
f 462 461 460
f 461 462 463
f 462 464 463
f 464 465 463
f 464 466 465
f 467 468 469
f 469 470 467
f 470 471 467
f 470 472 471
f 471 472 473
f 474 473 472
f 474 472 475
f 476 475 477
f 475 476 474
f 469 468 478
f 478 468 479
f 478 479 480
f 481 478 480
f 481 480 482
f 482 480 483
f 484 482 485
f 483 485 482
f 486 487 484
f 484 485 486
f 488 489 490
f 491 488 490
f 492 493 491
f 492 491 490
f 492 494 493
f 494 495 493
f 495 496 497
f 493 495 497
f 498 497 496
f 499 489 488
f 500 499 488
f 501 499 500
f 501 502 499
f 503 502 501
f 502 503 504
f 503 505 504
f 505 506 504
f 505 507 506
f 508 509 510
f 511 512 513
f 514 511 513
f 511 515 512
f 512 515 516
f 515 517 516
f 517 518 516
f 518 517 519
f 519 520 518
f 520 519 521
f 522 514 513
f 522 523 514
f 522 524 523
f 525 526 524
f 523 524 526
f 526 509 527
f 509 526 525
f 527 509 508
f 528 529 530
f 528 531 529
f 530 532 528
f 532 530 533
f 533 534 532
f 533 535 534
f 536 534 535
f 534 536 537
f 538 537 536
f 539 537 538
f 531 540 529
f 540 531 541
f 542 540 541
f 542 541 543
f 544 542 543
f 545 544 543
f 546 545 543
f 545 546 547
f 547 546 548
f 549 550 551
f 552 553 554
f 553 555 554
f 555 556 554
f 554 556 557
f 556 558 557
f 558 559 557
f 559 558 560
f 560 561 559
f 561 560 562
f 563 553 552
f 563 564 553
f 564 563 565
f 566 567 565
f 564 565 567
f 567 550 568
f 550 567 566
f 568 550 549
f 569 570 571
f 571 572 569
f 573 574 571
f 573 571 570
f 573 575 574
f 573 576 575
f 575 577 578
f 576 577 575
f 579 578 577
f 580 578 579
f 572 581 569
f 581 572 582
f 583 581 582
f 583 582 584
f 585 583 584
f 586 585 584
f 587 586 584
f 586 587 588
f 588 587 589
f 590 591 592
f 593 591 590
f 591 593 594
f 593 595 594
f 595 596 594
f 590 592 597
f 598 597 592
f 598 599 597
f 599 598 600
f 599 600 601
f 602 603 604
f 605 606 607
f 608 609 610
f 611 612 608
f 613 614 615
f 616 617 618
f 619 620 621
f 622 623 624
f 625 626 627
f 628 622 629
f 630 631 632
f 633 634 635
f 636 629 637
f 638 639 606
f 640 641 642
f 643 644 645
f 646 647 648
f 649 643 650
f 651 652 653
f 654 655 656
f 655 654 657
f 629 658 659
f 660 633 635
f 661 662 663
f 661 628 659
f 664 665 666
f 667 663 668
f 669 664 670
f 671 672 673
f 670 674 675
f 616 675 674
f 616 676 617
f 609 608 612
f 677 678 679
f 604 603 680
f 681 680 603
f 682 683 679
f 684 681 685
f 682 612 683
f 611 686 687
f 688 689 690
f 691 687 686
f 692 691 686
f 693 694 688
f 695 692 696
f 697 694 693
f 698 699 700
f 697 701 702
f 696 703 695
f 695 704 705
f 704 706 705
f 707 708 701
f 708 709 710
f 711 706 712
f 713 714 710
f 714 713 715
f 716 717 718
f 719 718 720
f 720 721 719
f 722 723 724
f 725 726 727
f 726 728 727
f 729 720 730
f 720 729 721
f 676 602 604
f 731 732 733
f 719 716 718
f 715 717 716
f 715 713 717
f 722 724 734
f 735 723 736
f 737 731 738
f 739 735 740
f 741 732 731
f 742 743 744
f 745 712 746
f 745 711 712
f 711 705 706
f 695 703 704
f 695 691 692
f 687 683 612
f 747 679 683
f 748 619 749
f 750 660 751
f 644 640 752
f 636 658 629
f 634 633 753
f 637 754 755
f 640 642 752
f 752 756 644
f 757 758 649
f 647 759 760
f 761 762 646
f 763 653 652
f 655 657 764
f 626 630 627
f 664 669 665
f 664 674 670
f 616 618 675
f 616 602 676
f 765 766 767
f 768 767 766
f 769 690 770
f 768 769 770
f 690 769 688
f 771 772 773
f 684 773 772
f 774 775 776
f 702 777 778
f 779 701 708
f 708 710 779
f 709 713 710
f 780 656 781
f 656 780 654
f 780 781 782
f 783 760 784
f 782 785 780
f 780 785 786
f 786 785 787
f 787 783 786
f 638 786 783
f 784 758 757
f 788 760 759
f 647 760 648
f 762 647 646
f 763 762 761
f 763 652 762
f 651 789 652
f 789 651 790
f 791 789 790
f 790 792 791
f 631 791 793
f 793 791 792
f 632 631 793
f 627 630 632
f 665 625 666
f 665 626 625
f 657 666 625
f 657 625 764
f 687 612 611
f 794 795 610
f 610 609 794
f 621 795 794
f 620 795 621
f 748 620 619
f 748 749 796
f 796 672 671
f 748 796 671
f 614 613 622
f 622 624 797
f 671 673 668
f 673 667 668
f 668 663 662
f 659 662 661
f 797 629 622
f 623 622 613
f 615 614 798
f 799 615 800
f 800 615 798
f 800 801 799
f 677 801 678
f 801 677 799
f 677 679 747
f 731 737 741
f 732 802 733
f 802 743 742
f 733 802 742
f 739 746 803
f 742 744 804
f 805 739 803
f 804 806 807
f 804 744 806
f 807 806 805
f 803 807 805
f 746 739 745
f 745 739 740
f 740 735 736
f 736 723 722
f 724 808 734
f 808 728 734
f 734 728 726
f 729 809 810
f 725 727 811
f 811 809 725
f 730 725 809
f 730 809 729
f 729 810 812
f 810 813 812
f 814 813 810
f 738 813 815
f 814 815 813
f 815 816 738
f 738 816 737
f 700 817 818
f 700 699 817
f 818 817 777
f 702 818 777
f 778 697 702
f 701 697 707
f 707 697 693
f 694 689 688
f 772 680 684
f 770 767 768
f 819 685 681
f 685 819 765
f 819 766 765
f 681 684 680
f 820 821 771
f 771 773 820
f 822 821 820
f 822 774 823
f 823 821 822
f 774 776 823
f 775 824 776
f 824 825 826
f 776 824 826
f 826 698 700
f 826 825 698
f 750 633 660
f 751 797 624
f 624 750 751
f 628 629 659
f 755 636 637
f 641 755 754
f 640 755 641
f 644 756 645
f 643 645 650
f 643 649 758
f 784 788 758
f 784 760 788
f 784 638 783
f 638 784 639
f 606 639 607
f 605 607 827
f 753 605 827
f 827 828 753
f 753 828 634
f 829 830 831
f 832 833 834
f 835 836 837
f 838 839 840
f 835 839 838
f 841 842 843
f 844 845 846
f 846 845 842
f 847 844 848
f 848 849 847
f 850 851 852
f 851 849 852
f 850 853 854
f 853 855 854
f 856 857 855
f 858 859 857
f 860 858 861
f 862 863 864
f 860 864 863
f 862 865 863
f 866 865 862
f 866 867 865
f 868 867 866
f 869 867 868
f 869 868 870
f 870 871 869
f 872 871 870
f 872 873 871
f 874 873 872
f 874 875 873
f 876 875 874
f 864 860 861
f 861 858 857
f 855 857 859
f 855 853 856
f 877 850 854
f 850 877 851
f 849 848 852
f 844 847 845
f 842 845 843
f 841 840 839
f 841 843 840
f 832 837 878
f 836 835 838
f 878 837 836
f 833 832 878
f 834 879 829
f 833 879 834
f 830 829 879
f 880 881 882
f 881 831 830
f 881 880 831
f 882 883 884
f 880 882 884
f 885 886 887
f 886 885 888
f 889 890 888
f 891 892 893
f 892 894 895
f 896 897 898
f 896 898 899
f 897 896 900
f 901 902 903
f 904 905 903
f 906 907 904
f 908 907 906
f 909 910 911
f 909 911 912
f 912 913 914
f 915 914 916
f 917 914 915
f 918 917 915
f 919 917 918
f 920 919 918
f 921 919 920
f 921 920 922
f 921 922 923
f 924 923 922
f 925 923 924
f 926 925 924
f 927 925 926
f 928 927 926
f 929 927 928
f 913 916 914
f 913 912 911
f 909 908 910
f 906 910 908
f 905 904 907
f 930 904 903
f 902 930 903
f 902 901 897
f 897 900 902
f 931 899 898
f 932 895 894
f 931 932 899
f 895 932 931
f 891 894 892
f 892 933 893
f 934 935 893
f 893 933 934
f 934 890 889
f 934 889 935
f 888 890 936
f 936 886 888
f 937 938 939
f 940 885 887
f 937 940 887
f 937 939 940
f 938 941 939
f 941 938 942
f 943 944 945
f 946 947 948
f 946 949 950
f 951 952 953
f 954 952 955
f 952 951 955
f 952 949 953
f 949 946 953
f 950 947 946
f 948 947 944
f 943 948 944
f 956 943 945
f 957 956 945
f 958 956 957
f 958 957 959
f 958 959 960
f 959 961 960
f 962 960 961
f 963 960 962
f 963 962 964
f 965 966 964
f 967 968 969
f 967 969 970
f 967 970 971
f 968 967 965
f 967 966 965
f 965 964 962
f 972 973 974
f 975 976 977
f 978 976 975
f 979 980 981
f 982 983 984
f 985 984 983
f 986 984 985
f 986 987 988
f 987 986 985
f 987 989 988
f 989 990 988
f 991 990 992
f 989 992 990
f 984 993 982
f 982 993 994
f 995 994 993
f 995 996 994
f 995 997 996
f 996 997 998
f 999 998 997
f 999 1000 998
f 1000 999 1001
f 980 1000 1001
f 1001 981 980
f 977 979 981
f 976 979 977
f 978 975 973
f 972 978 973
f 974 973 1002
f 1002 1003 974
f 1002 1004 1003
f 1005 1006 1007
f 1005 1007 1008
f 1005 1008 1009
f 1008 1010 1009
f 1011 1009 1010
f 1012 1011 1010
f 1007 1006 1013
f 1013 1006 1014
f 1013 1014 1015
f 1015 1014 1016
f 1015 1016 1017
f 1017 1016 1018
f 1019 1020 1021
f 1022 1020 1019
f 1023 1022 1019
f 1023 1024 1022
f 1023 1025 1024
f 1026 1021 1027
f 1020 1027 1021
f 1028 1027 1029
f 1027 1028 1026
f 1028 1029 1030
f 1030 1029 1031
f 1032 1033 1034
f 1032 1035 1033
f 1032 1036 1037
f 1032 1038 1039
f 1032 1040 1041
f 1042 1040 1032
f 1038 1032 1041
f 1042 1032 1034
f 1032 1037 1035
f 1036 1032 1043
f 1044 1043 1032
f 1032 1045 1046
f 1046 1047 1032
f 1047 1048 1032
f 1048 1049 1032
f 1032 1049 1044
f 1050 1051 1052
f 1053 1054 1055
f 1052 1056 1050
f 1057 1058 1059
f 1058 1060 1061
f 1062 1063 1064
f 1060 1064 1063
f 1065 1062 1066
f 1067 1066 1068
f 1069 1070 1071
f 1072 1073 1070
f 1074 1075 1076
f 1075 1077 1078
f 1078 1079 1080
f 1081 1082 1083
f 1084 1085 1086
f 1087 1088 1089
f 1090 1091 1092
f 1093 1094 1095
f 1096 1097 1093
f 1098 1099 1100
f 1096 1100 1101
f 1102 1098 1103
f 1103 1104 1105
f 1095 1106 1107
f 1107 1108 1109
f 1110 1111 1104
f 1112 1113 1110
f 1091 1109 1114
f 1115 1112 1116
f 1117 1118 1119
f 1090 1119 1118
f 1120 1121 1086
f 1122 1117 1089
f 1084 1123 1085
f 1124 1123 1125
f 1087 1126 1127
f 1128 1126 1081
f 1053 1124 1129
f 1130 1131 1132
f 1133 1134 1135
f 1134 1136 1137
f 1138 1139 1140
f 1141 1142 1055
f 1143 1144 1145
f 1145 1144 1140
f 1146 1147 1148
f 1149 1143 1150
f 1149 1151 1152
f 1147 1080 1153
f 1154 1152 1151
f 1155 1156 1157
f 1157 1158 1155
f 1159 1158 1160
f 1160 1161 1162
f 1132 1131 1163
f 1132 1163 1164
f 1165 1166 1132
f 1164 1165 1132
f 1166 1167 1168
f 1132 1166 1168
f 1169 1170 1171
f 1172 1171 1170
f 1169 1171 1173
f 1142 1141 1148
f 1174 1068 1069
f 1175 1176 1177
f 1050 1178 1051
f 1179 1082 1133
f 1172 1180 1161
f 1170 1168 1167
f 1172 1170 1167
f 1180 1172 1167
f 1162 1161 1180
f 1159 1160 1162
f 1155 1158 1159
f 1154 1156 1155
f 1151 1156 1154
f 1150 1151 1149
f 1181 1150 1143
f 1145 1181 1143
f 1139 1145 1140
f 1136 1139 1138
f 1137 1136 1138
f 1135 1134 1137
f 1179 1133 1135
f 1083 1082 1179
f 1128 1081 1083
f 1127 1126 1128
f 1088 1087 1127
f 1122 1089 1088
f 1118 1117 1122
f 1092 1119 1090
f 1114 1092 1091
f 1108 1114 1109
f 1106 1108 1107
f 1094 1106 1095
f 1097 1094 1093
f 1101 1097 1096
f 1099 1101 1100
f 1182 1099 1098
f 1102 1182 1098
f 1105 1102 1103
f 1111 1105 1104
f 1113 1111 1110
f 1116 1112 1110
f 1183 1115 1116
f 1120 1115 1183
f 1121 1120 1183
f 1084 1086 1121
f 1125 1123 1084
f 1129 1124 1125
f 1054 1053 1129
f 1141 1055 1054
f 1146 1148 1141
f 1153 1148 1147
f 1079 1153 1080
f 1184 1079 1078
f 1077 1184 1078
f 1074 1077 1075
f 1185 1072 1076
f 1072 1074 1076
f 1073 1072 1185
f 1071 1070 1073
f 1174 1069 1071
f 1067 1068 1174
f 1065 1066 1067
f 1186 1177 1176
f 1063 1062 1065
f 1064 1060 1058
f 1059 1058 1061
f 1175 1187 1176
f 1188 1057 1059
f 1187 1188 1059
f 1175 1188 1187
f 1189 1177 1186
f 1190 1178 1186
f 1189 1186 1178
f 1178 1190 1051
f 1191 1051 1190
f 1191 1192 1130
f 1192 1191 1190
f 1130 1192 1193
f 1130 1193 1194
f 1195 1130 1194
f 1196 1130 1195
f 1131 1130 1196
f 1197 1198 1199
f 1200 1201 1202
f 1203 1201 1197
f 1200 1204 1205
f 1206 1198 1207
f 1208 1209 1205
f 1210 1207 1211
f 1212 1213 1214
f 1215 1212 1216
f 1217 1215 1218
f 1219 1220 1221
f 1222 1223 1224
f 1225 1226 1227
f 1228 1224 1219
f 1229 1230 1231
f 1227 1231 1225
f 1232 1233 1223
f 1233 1234 1235
f 1236 1237 1238
f 1217 1218 1238
f 1239 1240 1241
f 1242 1243 1244
f 1239 1243 1242
f 1245 1246 1247
f 1211 1247 1248
f 1209 1214 1213
f 1249 1241 1235
f 1238 1237 1217
f 1227 1226 1220
f 1216 1218 1215
f 1214 1216 1212
f 1250 1214 1209
f 1208 1250 1209
f 1204 1208 1205
f 1251 1204 1200
f 1202 1251 1200
f 1203 1202 1201
f 1199 1203 1197
f 1206 1199 1198
f 1210 1206 1207
f 1248 1210 1211
f 1246 1248 1247
f 1244 1245 1247
f 1243 1245 1244
f 1239 1242 1240
f 1249 1239 1241
f 1234 1249 1235
f 1232 1234 1233
f 1222 1232 1223
f 1228 1222 1224
f 1221 1228 1219
f 1226 1221 1220
f 1230 1225 1231
f 1229 1252 1230
f 1229 1237 1252
f 1252 1237 1236
f 1253 1254 1255
f 1253 1255 1256
f 1253 1256 1257
f 1258 1257 1256
f 1257 1258 1259
f 1255 1254 1260
f 1260 1254 1261
f 1260 1261 1262
f 1263 1264 1265
f 1264 1266 1265
f 1267 1264 1268
f 1267 1266 1264
f 1263 1265 1269
f 1269 1270 1263
f 1263 1270 1271
f 1271 1270 1272
f 1272 1273 1271
f 1274 1275 1276
f 1277 1278 1279
f 1280 1281 1282
f 1283 1281 1284
f 1284 1285 1286
f 1287 1288 1289
f 1288 1287 1290
f 1291 1292 1293
f 1294 1295 1296
f 1297 1298 1299
f 1300 1301 1302
f 1303 1301 1304
f 1305 1306 1307
f 1308 1309 1310
f 1310 1311 1308
f 1312 1308 1311
f 1311 1313 1312
f 1314 1312 1313
f 1314 1315 1316
f 1317 1316 1315
f 1317 1318 1319
f 1320 1319 1318
f 1321 1322 1323
f 1324 1325 1326
f 1327 1326 1325
f 1328 1329 1330
f 1326 1327 1330
f 1330 1327 1331
f 1315 1314 1313
f 1319 1316 1317
f 1309 1332 1310
f 1309 1333 1332
f 1332 1333 1305
f 1305 1333 1306
f 1334 1307 1306
f 1334 1335 1307
f 1334 1304 1335
f 1334 1303 1304
f 1303 1302 1301
f 1300 1302 1336
f 1336 1298 1297
f 1295 1337 1338
f 1339 1338 1337
f 1294 1296 1340
f 1341 1340 1296
f 1291 1342 1292
f 1343 1344 1345
f 1346 1347 1343
f 1343 1347 1344
f 1348 1349 1289
f 1350 1351 1352
f 1351 1288 1290
f 1287 1289 1349
f 1289 1353 1348
f 1353 1285 1348
f 1353 1286 1285
f 1284 1286 1283
f 1354 1280 1282
f 1282 1279 1354
f 1279 1278 1354
f 1277 1276 1275
f 1355 1330 1356
f 1331 1356 1330
f 1342 1341 1357
f 1357 1341 1296
f 1358 1359 1345
f 1350 1352 1346
f 1360 1361 1274
f 1362 1274 1361
f 1324 1323 1322
f 1320 1321 1323
f 1298 1336 1302
f 1338 1363 1295
f 1363 1296 1295
f 1293 1359 1358
f 1288 1351 1350
f 1289 1288 1364
f 1275 1274 1362
f 1360 1274 1365
f 1326 1323 1324
f 1334 1366 1303
f 1339 1299 1298
f 1292 1342 1357
f 1293 1292 1359
f 1279 1367 1277
f 1323 1319 1320
f 1316 1312 1314
f 1312 1368 1308
f 1368 1309 1308
f 1333 1334 1306
f 1366 1334 1369
f 1298 1338 1339
f 1370 1343 1359
f 1346 1343 1350
f 1371 1288 1372
f 1289 1373 1353
f 1281 1283 1282
f 1276 1277 1367
f 1328 1330 1355
f 1323 1326 1374
f 1309 1375 1333
f 1376 1377 1298
f 1338 1298 1377
f 1363 1338 1378
f 1296 1363 1379
f 1345 1359 1343
f 1343 1380 1350
f 1353 1373 1286
f 1276 1367 1381
f 1329 1382 1330
f 1382 1383 1330
f 1330 1383 1326
f 1383 1374 1326
f 1374 1384 1323
f 1384 1385 1323
f 1385 1386 1323
f 1386 1387 1319
f 1386 1319 1323
f 1387 1388 1319
f 1388 1389 1319
f 1389 1316 1319
f 1389 1390 1316
f 1390 1312 1316
f 1390 1391 1312
f 1368 1312 1391
f 1392 1309 1368
f 1375 1309 1392
f 1375 1393 1333
f 1393 1394 1333
f 1394 1395 1333
f 1395 1396 1334
f 1395 1334 1333
f 1396 1369 1334
f 1397 1303 1366
f 1397 1398 1303
f 1398 1399 1302
f 1398 1302 1303
f 1399 1400 1302
f 1400 1298 1302
f 1400 1376 1298
f 1377 1401 1338
f 1401 1402 1338
f 1402 1378 1338
f 1379 1403 1296
f 1296 1403 1404
f 1404 1405 1296
f 1296 1405 1357
f 1405 1406 1357
f 1406 1407 1357
f 1407 1292 1357
f 1407 1408 1292
f 1408 1409 1292
f 1409 1410 1359
f 1409 1359 1292
f 1410 1411 1359
f 1411 1370 1359
f 1370 1412 1343
f 1413 1343 1412
f 1413 1414 1343
f 1414 1380 1343
f 1380 1415 1350
f 1415 1372 1350
f 1372 1288 1350
f 1371 1364 1288
f 1364 1416 1289
f 1416 1373 1289
f 1373 1417 1286
f 1417 1283 1286
f 1417 1418 1283
f 1418 1419 1283
f 1419 1420 1283
f 1420 1282 1283
f 1420 1421 1282
f 1421 1279 1282
f 1421 1422 1279
f 1422 1367 1279
f 1381 1423 1276
f 1423 1424 1276
f 1424 1425 1274
f 1424 1274 1276
f 1425 1426 1274
f 1274 1426 1365
f 1427 1365 1426
f 1428 1429 1430
f 1431 1428 1430
f 1432 1431 1433
f 1432 1434 1431
f 1433 1431 1430
f 1428 1435 1429
f 1435 1436 1429
f 1437 1438 1439
f 1437 1440 1438
f 1440 1441 1438
f 1442 1443 1444
f 1445 1442 1444
f 1442 1445 1446
f 1447 1448 1449
f 1448 1447 1450
f 1451 1448 1450
f 1452 1453 1454
f 1451 1454 1453
f 1454 1451 1450
f 1449 1455 1447
f 1456 1457 1458
f 1457 1456 1459
f 1460 1461 1462
f 1460 1462 1463
f 1460 1463 1464
f 1464 1463 1465
f 1466 1465 1467
f 1465 1466 1464
f 1468 1469 1461
f 1462 1461 1469
f 1469 1468 1470
f 1468 1471 1470
f 1471 1472 1470
f 1471 1473 1472
f 1474 1475 1476
f 1476 1475 1477
f 1478 1476 1477
f 1479 1478 1477
f 1478 1479 1480
f 1475 1474 1481
f 1481 1474 1482
f 1481 1482 1483
f 1482 1484 1483
f 1485 1483 1484
f 1486 1487 1488
f 1489 1490 1488
f 1486 1491 1487
f 1489 1488 1487
f 1492 1493 1494
f 1495 1496 1494
f 1496 1497 1494
f 1498 1499 1494
f 1500 1494 1497
f 1501 1494 1500
f 1494 1502 1495
f 1503 1494 1501
f 1494 1503 1504
f 1494 1499 1502
f 1505 1494 1504
f 1498 1494 1506
f 1494 1505 1507
f 1506 1494 1508
f 1507 1509 1494
f 1510 1494 1509
f 1508 1494 1511
f 1494 1510 1512
f 1494 1513 1511
f 1512 1514 1494
f 1515 1513 1494
f 1516 1494 1514
f 1517 1494 1518
f 1519 1520 1494
f 1521 1492 1494
f 1522 1519 1493
f 1523 1524 1525
f 1525 1526 1523
f 1527 1528 1529
f 1530 1531 1532
f 1533 1534 1535
f 1535 1536 1533
f 1537 1538 1539
f 1540 1541 1539
f 1542 1541 1543
f 1541 1540 1543
f 1544 1545 1546
f 1547 1548 1549
f 1548 1550 1549
f 1551 1550 1552
f 1550 1551 1549
f 1553 1554 1549
f 1549 1554 1547
f 1553 1544 1554
f 1553 1555 1544
f 1555 1545 1544
f 1556 1545 1542
f 1556 1546 1545
f 1543 1556 1542
f 1540 1539 1538
f 1538 1537 1557
f 1557 1537 1558
f 1559 1557 1558
f 1560 1559 1558
f 1560 1561 1559
f 1560 1562 1561
f 1561 1562 1536
f 1536 1562 1533
f 1563 1535 1534
f 1531 1563 1534
f 1531 1530 1563
f 1532 1564 1530
f 1564 1532 1565
f 1529 1564 1565
f 1527 1529 1565
f 1527 1566 1528
f 1527 1567 1566
f 1566 1567 1568
f 1568 1567 1526
f 1525 1568 1526
f 1569 1524 1523
f 1569 1570 1524
f 1569 1571 1570
f 1570 1571 1493
f 1493 1571 1522
f 1493 1519 1494
f 1572 1494 1520
f 1573 1521 1494
f 1572 1518 1494
f 1494 1574 1573
f 1494 1517 1575
f 1574 1494 1516
f 1576 1577 1578
f 1579 1580 1581
f 1582 1581 1577
f 1576 1582 1577
f 1579 1581 1582
f 1578 1583 1584
f 1578 1577 1583
f 1580 1579 1585
f 1585 1586 1580
f 1585 1587 1586
f 1586 1587 1588
f 1586 1588 1589
f 1589 1588 1590
f 1589 1590 1591
f 1589 1591 1592
f 1591 1593 1592
f 1594 1592 1593
f 1594 1593 1595
f 1596 1597 1598
f 1599 1600 1601
f 1602 1601 1600
f 1603 1604 1602
f 1603 1605 1604
f 1605 1603 1606
f 1607 1605 1606
f 1604 1601 1602
f 1600 1599 1608
f 1609 1608 1599
f 1610 1608 1609
f 1610 1609 1611
f 1609 1612 1611
f 1612 1613 1611
f 1612 1614 1613
f 1613 1614 1615
f 1616 1615 1614
f 1616 1614 1596
f 1598 1616 1596
f 1617 1618 1619
f 1620 1617 1621
f 1618 1620 1622
f 1619 1623 1617
f 1620 1624 1622
f 1620 1618 1617
f 1623 1625 1617
f 1620 1626 1624
f 1617 1625 1627
f 1628 1624 1626
f 1627 1629 1617
f 1630 1631 1632
f 1633 1634 1632
f 1635 1634 1633
f 1635 1633 1636
f 1637 1638 1636
f 1639 1640 1641
f 1640 1642 1641
f 1640 1643 1642
f 1642 1643 1644
f 1643 1645 1644
f 1646 1645 1643
f 1647 1645 1646
f 1647 1646 1648
f 1647 1648 1649
f 1650 1649 1651
f 1648 1651 1649
f 1637 1639 1641
f 1638 1637 1641
f 1635 1636 1638
f 1634 1630 1632
f 1632 1631 1652
f 1652 1631 1653
f 1652 1653 1654
f 1653 1655 1654
f 1655 1653 1656
f 1656 1657 1655
f 1657 1658 1659
f 1658 1657 1656
f 1659 1658 1660
f 1661 1659 1660
f 1662 1661 1660
f 1662 1660 1621
f 1662 1621 1617
f 1626 1663 1664
f 1626 1664 1628
f 1665 1666 1667
f 1668 1669 1670
f 1671 1672 1673
f 1666 1665 1671
f 1674 1675 1676
f 1672 1674 1677
f 1678 1679 1680
f 1681 1682 1683
f 1681 1684 1682
f 1685 1686 1687
f 1688 1689 1690
f 1691 1692 1693
f 1694 1695 1696
f 1697 1698 1699
f 1700 1701 1699
f 1701 1702 1699
f 1701 1703 1702
f 1703 1704 1702
f 1704 1703 1705
f 1706 1704 1705
f 1705 1707 1706
f 1708 1709 1707
f 1710 1708 1707
f 1710 1711 1712
f 1710 1712 1708
f 1712 1711 1713
f 1713 1714 1715
f 1714 1713 1711
f 1714 1716 1717
f 1717 1715 1714
f 1718 1719 1717
f 1717 1716 1718
f 1720 1719 1718
f 1721 1719 1720
f 1722 1720 1723
f 1723 1724 1722
f 1724 1725 1726
f 1726 1722 1724
f 1725 1727 1728
f 1728 1726 1725
f 1727 1729 1730
f 1730 1728 1727
f 1731 1730 1732
f 1733 1731 1732
f 1734 1731 1733
f 1734 1733 1735
f 1733 1736 1735
f 1736 1737 1735
f 1738 1737 1736
f 1738 1739 1737
f 1740 1739 1738
f 1739 1740 1741
f 1739 1741 1742
f 1739 1742 1743
f 1739 1743 1744
f 1739 1744 1745
f 1745 1746 1739
f 1722 1721 1720
f 1730 1729 1732
f 1706 1707 1709
f 1699 1698 1700
f 1698 1697 1747
f 1697 1748 1747
f 1749 1747 1748
f 1749 1750 1747
f 1750 1749 1751
f 1750 1751 1752
f 1752 1751 1753
f 1754 1753 1755
f 1755 1753 1751
f 1755 1756 1754
f 1756 1696 1754
f 1696 1756 1694
f 1695 1694 1757
f 1695 1757 1691
f 1691 1757 1692
f 1692 1758 1693
f 1689 1758 1692
f 1758 1689 1688
f 1690 1759 1688
f 1690 1760 1759
f 1760 1687 1686
f 1759 1760 1686
f 1761 1685 1687
f 1761 1762 1684
f 1684 1685 1761
f 1682 1684 1762
f 1763 1683 1682
f 1683 1763 1764
f 1764 1763 1765
f 1764 1765 1766
f 1765 1767 1766
f 1767 1680 1768
f 1768 1766 1767
f 1680 1679 1768
f 1769 1678 1770
f 1678 1769 1679
f 1771 1770 1772
f 1770 1771 1769
f 1772 1676 1771
f 1771 1676 1675
f 1674 1773 1675
f 1672 1773 1674
f 1677 1673 1672
f 1671 1673 1666
f 1665 1667 1774
f 1774 1775 1670
f 1775 1774 1667
f 1775 1668 1670
f 1668 1776 1669
f 1668 1777 1776
f 1778 1779 1780
f 1780 1781 1778
f 1782 1668 1778
f 1781 1782 1778
f 1782 1777 1668
f 1783 1784 1785
f 1786 1784 1783
f 1787 1784 1786
f 1788 1789 1790
f 1789 1788 1791
f 1790 1789 1792
f 1793 1794 1795
f 1795 1796 1793
f 1797 1793 1796
f 1796 1798 1797
f 1799 1800 1797
f 1798 1799 1797
f 1801 1802 1803
f 1804 1805 1802
f 1804 1802 1801
f 1806 1807 1808
f 1806 1808 1809
f 1808 1810 1809
f 1811 1812 1813
f 1814 1811 1813
f 1811 1814 1815
f 1811 1815 1816
f 1811 1816 1817
f 1818 1811 1817
f 1811 1818 1819
f 1820 1821 1819
f 1811 1819 1821
f 1821 1820 1822
f 1821 1822 1823
f 1821 1823 1824
f 1821 1824 1825
f 1825 1826 1821
f 1821 1826 1827
f 1821 1827 1828
f 1828 1827 1829
f 1828 1829 1830
f 1831 1828 1830
f 1832 1828 1831
f 1828 1832 1833
f 1828 1833 1834
f 1828 1834 1835
f 1836 1812 1835
f 1828 1835 1812
f 1812 1836 1837
f 1838 1812 1837
f 1839 1812 1838
f 1812 1839 1840
f 1812 1840 1841
f 1813 1812 1841
f 1842 1843 1844
f 1845 1843 1842
f 1844 1846 1847
f 1847 1846 1848
f 1848 1849 1847
f 1850 1849 1848
f 1844 1843 1846
f 1842 1851 1845
f 1852 1851 1853
f 1852 1854 1855
f 1856 1857 1855
f 1856 1858 1857
f 1859 1860 1861
f 1862 1863 1864
f 1865 1866 1864
f 1865 1867 1866
f 1867 1868 1869
f 1869 1868 1870
f 1871 1869 1870
f 1872 1873 1874
f 1873 1875 1874
f 1876 1877 1878
f 1875 1873 1878
f 1879 1880 1878
f 1875 1878 1880
f 1879 1878 1877
f 1877 1881 1879
f 1881 1877 1882
f 1883 1877 1884
f 1883 1885 1877
f 1886 1877 1876
f 1882 1877 1885
f 1871 1886 1876
f 1871 1870 1886
f 1887 1873 1872
f 1867 1865 1868
f 1864 1866 1862
f 1888 1863 1862
f 1888 1889 1863
f 1889 1888 1890
f 1891 1889 1890
f 1861 1891 1890
f 1891 1861 1860
f 1859 1858 1860
f 1857 1858 1859
f 1856 1855 1854
f 1852 1853 1854
f 1851 1842 1853
f 1892 1893 1894
f 1894 1895 1896
f 1894 1896 1892
f 1892 1897 1893
f 1898 1899 1900
f 1899 1898 1901
f 1902 1903 1900
f 1900 1899 1902
f 1904 1905 1901
f 1901 1898 1904
f 1905 1904 1906
f 1907 1908 1909
f 1910 1911 1907
f 1912 1911 1910
f 1911 1908 1907
f 1913 1914 1915
f 1908 1911 1915
f 1913 1916 1914
f 1917 1918 1919
f 1920 1915 1914
f 1921 1922 1923
f 1919 1918 1924
f 1923 1925 1921
f 1926 1925 1923
f 1924 1922 1921
f 1919 1927 1917
f 1918 1922 1924
f 1927 1928 1920
f 1920 1917 1927
f 1929 1928 1930
f 1930 1931 1929
f 1928 1927 1930
f 1908 1915 1928
f 1928 1915 1920
f 1932 1933 1934
f 1934 1935 1932
f 1936 1935 1937
f 1938 1939 1940
f 1941 1942 1943
f 1944 1945 1942
f 1946 1947 1948
f 1949 1946 1948
f 1950 1948 1945
f 1948 1950 1949
f 1950 1945 1944
f 1943 1942 1945
f 1951 1942 1941
f 1941 1952 1951
f 1938 1952 1939
f 1952 1938 1951
f 1938 1940 1953
f 1953 1940 1936
f 1936 1937 1953
f 1937 1935 1934
f 1932 1954 1933
f 1954 1932 1955
f 1955 1932 1956
