# Exported from USD: /World/gantry/gantry_home/ur10_flattened/ur10_instanceable/wrist_3_link/ur10_wrist_3/ID275_001
mtllib ID275_001.mtl

g ID275_001
v 4.45496146 -0.06760352 0.21545005
v 4.45529837 -0.06721451 0.21110010
v 4.45556618 -0.06641391 0.21545005
v 4.45551090 -0.06640978 0.21110010
v 4.45421903 -0.06796487 0.21110010
v 4.45371902 -0.06794194 0.21545005
v 4.45249520 -0.06640946 0.21110010
v 4.45276664 -0.06737241 0.21110010
v 4.45247395 -0.06641071 0.21545005
v 4.45275387 -0.06727907 0.21545005
v 4.45493440 -0.06587021 0.21627009
v 4.45399993 -0.06533022 0.21627009
v 4.45306546 -0.06587021 0.21627009
v 4.45474993 -0.06770821 0.21627009
v 4.45493440 -0.06694921 0.21627009
v 4.45399993 -0.06748821 0.21627009
v 4.45549993 -0.06640922 0.21627009
v 4.45474993 -0.06511022 0.21627009
v 4.45324993 -0.06511022 0.21627009
v 4.45306546 -0.06694921 0.21627009
v 4.45249993 -0.06640922 0.21627009
v 4.45324993 -0.06770821 0.21627009
v 4.45249993 -0.06640922 0.21627009
v 4.45306546 -0.06587021 0.21710003
v 4.45249993 -0.06640922 0.21710003
v 4.45306546 -0.06587021 0.21627009
v 4.45306546 -0.06587021 0.21627009
v 4.45324993 -0.06511022 0.21710003
v 4.45306546 -0.06587021 0.21710003
v 4.45324993 -0.06511022 0.21627009
v 4.45324993 -0.06511022 0.21627009
v 4.45399993 -0.06533022 0.21627009
v 4.45399993 -0.06533022 0.21710003
v 4.45324993 -0.06511022 0.21710003
v 4.45399993 -0.06533022 0.21627009
v 4.45474993 -0.06511022 0.21710003
v 4.45399993 -0.06533022 0.21710003
v 4.45474993 -0.06511022 0.21627009
v 4.45474993 -0.06511022 0.21627009
v 4.45493440 -0.06587021 0.21627009
v 4.45493440 -0.06587021 0.21710003
v 4.45474993 -0.06511022 0.21710003
v 4.45493440 -0.06587021 0.21627009
v 4.45549993 -0.06640922 0.21627009
v 4.45549993 -0.06640922 0.21710003
v 4.45493440 -0.06587021 0.21710003
v 4.45549993 -0.06640922 0.21627009
v 4.45493440 -0.06694921 0.21627009
v 4.45493440 -0.06694921 0.21710003
v 4.45549993 -0.06640922 0.21710003
v 4.45493440 -0.06694921 0.21627009
v 4.45474993 -0.06770821 0.21627009
v 4.45474993 -0.06770821 0.21710003
v 4.45493440 -0.06694921 0.21710003
v 4.45399993 -0.06748821 0.21627009
v 4.45399993 -0.06748821 0.21710003
v 4.45474993 -0.06770821 0.21710003
v 4.45474993 -0.06770821 0.21627009
v 4.45399993 -0.06748821 0.21627009
v 4.45324993 -0.06770821 0.21627009
v 4.45324993 -0.06770821 0.21710003
v 4.45399993 -0.06748821 0.21710003
v 4.45306546 -0.06694921 0.21627009
v 4.45306546 -0.06694921 0.21710003
v 4.45324993 -0.06770821 0.21710003
v 4.45324993 -0.06770821 0.21627009
v 4.45249993 -0.06640922 0.21627009
v 4.45249993 -0.06640922 0.21710003
v 4.45306546 -0.06694921 0.21710003
v 4.45306546 -0.06694921 0.21627009
v 4.45493440 -0.06694921 0.21710003
v 4.45628156 -0.06797084 0.21710003
v 4.45549993 -0.06640922 0.21710003
v 4.45673823 -0.06602940 0.21710003
v 4.45669100 -0.06704255 0.21710003
v 4.45463534 -0.06371862 0.21710003
v 4.45474993 -0.06511022 0.21710003
v 4.45545391 -0.06406638 0.21710003
v 4.45651893 -0.06529862 0.21710003
v 4.45493440 -0.06587021 0.21710003
v 4.45612720 -0.06464397 0.21710003
v 4.45399993 -0.06533022 0.21710003
v 4.45386981 -0.06365922 0.21710003
v 4.45324993 -0.06511022 0.21710003
v 4.45243763 -0.06412882 0.21710003
v 4.45323913 -0.06375922 0.21710003
v 4.45474993 -0.06770821 0.21710003
v 4.45179698 -0.06475020 0.21710003
v 4.45306546 -0.06587021 0.21710003
v 4.45137933 -0.06552956 0.21710003
v 4.45556485 -0.06868805 0.21710003
v 4.45249993 -0.06640922 0.21710003
v 4.45487177 -0.06902123 0.21710003
v 4.45424913 -0.06915546 0.21710003
v 4.45399993 -0.06748821 0.21710003
v 4.45123816 -0.06653722 0.21710003
v 4.45142866 -0.06740663 0.21710003
v 4.45324993 -0.06770821 0.21710003
v 4.45244542 -0.06868129 0.21710003
v 4.45300699 -0.06898211 0.21710003
v 4.45187236 -0.06817496 0.21710003
v 4.45306546 -0.06694921 0.21710003
v 4.45361538 -0.06913529 0.21710003
v 4.45589869 -0.06435761 0.21710003
v 4.45683085 -0.06615296 0.21670008
v 4.45582121 -0.06428915 0.21670008
v 4.45671068 -0.06577757 0.21710003
v 4.45653484 -0.06765907 0.21710003
v 4.45525419 -0.06888226 0.21710003
v 4.45617157 -0.06816849 0.21670008
v 4.45401080 -0.06930491 0.21670032
v 4.45400121 -0.06918462 0.21710003
v 4.45400489 -0.06357794 0.21710003
v 4.45400399 -0.06359023 0.21670020
v 4.45263177 -0.06395988 0.21670008
v 4.45232916 -0.06412862 0.21710003
v 4.45399888 -0.06363909 0.21710003
v 4.45151542 -0.06517202 0.21670008
v 4.45158198 -0.06775473 0.21710003
v 4.45118882 -0.06610675 0.21710003
v 4.45121939 -0.06670782 0.21670008
v 4.45209829 -0.06849435 0.21670008
v 4.45263417 -0.06886029 0.21710003
v 4.45399697 -0.06921072 0.21670008
v 4.45399947 -0.06916839 0.21710003
v 4.45399946 -0.06364979 0.21670008
v 4.45454668 -0.06781733 0.21545244
v 4.45508245 -0.06895037 0.21670163
v 4.45400424 -0.06917679 0.21670413
v 4.45516519 -0.06737627 0.21545434
v 4.45546675 -0.06675378 0.21545112
v 4.45663280 -0.06726475 0.21670342
v 4.45599736 -0.06832643 0.21670366
v 4.45675396 -0.06628794 0.21670068
v 4.45548499 -0.06613287 0.21545232
v 4.45658622 -0.06543899 0.21670163
v 4.45527675 -0.06561487 0.21545053
v 4.45615447 -0.06468943 0.21670068
v 4.45490885 -0.06520301 0.21545232
v 4.45561657 -0.06417608 0.21670068
v 4.45435116 -0.06494399 0.21545112
v 4.45496309 -0.06382667 0.21670056
v 4.45400429 -0.06364134 0.21670401
v 4.45399993 -0.06490921 0.21545005
v 4.45400046 -0.06791376 0.21544981
v 4.45253945 -0.06876311 0.21670378
v 4.45347114 -0.06781735 0.21545053
v 4.45336834 -0.06908941 0.21670032
v 4.45399774 -0.06791863 0.21545184
v 4.45303912 -0.06757115 0.21545136
v 4.45138960 -0.06728441 0.21670032
v 4.45267521 -0.06712817 0.21545124
v 4.45171931 -0.06796953 0.21670175
v 4.45123074 -0.06640695 0.21670425
v 4.45253314 -0.06606484 0.21545100
v 4.45250589 -0.06660380 0.21545077
v 4.45283371 -0.06544332 0.21545422
v 4.45152115 -0.06517570 0.21670401
v 4.45223260 -0.06428573 0.21670199
v 4.45332539 -0.06506558 0.21545053
v 4.45299681 -0.06384173 0.21670079
v 4.45399137 -0.06488928 0.21545410
v 4.45399514 -0.06364082 0.21670473
v 4.45399899 -0.06916741 0.21669984
v 4.45314867 -0.06765370 0.21109998
v 4.45546758 -0.06606430 0.21109998
v 4.45365630 -0.06787826 0.21109998
v 4.45434964 -0.06788752 0.21109998
v 4.45547841 -0.06675598 0.21109998
v 4.45507541 -0.06748158 0.21109998
v 4.45516905 -0.06544046 0.21109998
v 4.45267363 -0.06714896 0.21109998
v 4.45467442 -0.06506507 0.21109998
v 4.45407245 -0.06489282 0.21109998
v 4.45249353 -0.06647836 0.21109998
v 4.45283110 -0.06543988 0.21109998
v 4.45339485 -0.06502758 0.21109998
v 4.45255273 -0.06599917 0.21109998
v 4.45556595 -0.06640446 0.21110010
v 4.45529873 -0.06560488 0.21545005
v 4.45551089 -0.06640864 0.21545005
v 4.45496200 -0.06521581 0.21110010
v 4.45303786 -0.06521581 0.21545005
v 4.45428855 -0.06487680 0.21545005
v 4.45371131 -0.06487680 0.21110010
v 4.45270113 -0.06560488 0.21110010
v 4.45243391 -0.06640446 0.21545005
v 4.45248896 -0.06640864 0.21110010
v 4.45017036 -0.05210096 0.13699997
v 4.45083008 -0.05066553 0.13099993
v 4.45003419 -0.05311695 0.13099993
v 4.45109641 -0.05041324 0.13699997
v 4.45269043 -0.04933559 0.13699997
v 4.45257808 -0.04939798 0.13099993
v 4.45399925 -0.04914558 0.13099993
v 4.45399992 -0.04915922 0.13699997
v 4.45029580 -0.05449351 0.13699997
v 4.45115231 -0.05590693 0.13099993
v 4.45206034 -0.05653389 0.13699997
v 4.45399578 -0.05703161 0.13099993
v 4.45399926 -0.05697264 0.13699997
v 4.45068236 -0.05369750 0.14000011
v 4.45116479 -0.05142026 0.14000011
v 4.45068243 -0.05242283 0.13699997
v 4.45233748 -0.05018588 0.13699997
v 4.45235133 -0.05020419 0.14000011
v 4.45399856 -0.04978362 0.14000011
v 4.45399931 -0.04979721 0.13699997
v 4.45116368 -0.05469731 0.13699997
v 4.45233775 -0.05593367 0.14000011
v 4.45234911 -0.05591372 0.13699997
v 4.45399857 -0.05633451 0.13699997
v 4.45399932 -0.05632103 0.14000011
v 4.45561612 -0.05062050 0.13099993
v 4.45548199 -0.05049415 0.13599992
v 4.45400337 -0.05010306 0.13099993
v 4.45675071 -0.05195976 0.13099993
v 4.45666462 -0.05184280 0.13599992
v 4.45535021 -0.05567888 0.13099993
v 4.45400045 -0.05596973 0.13099993
v 4.45563303 -0.05560193 0.13599992
v 4.45399992 -0.05595921 0.13599992
v 4.45676080 -0.05416535 0.13099993
v 4.45691518 -0.05352228 0.13599992
v 4.45400046 -0.05014909 0.13599992
v 4.45103976 -0.05362857 0.14580012
v 4.45182906 -0.05098866 0.14580012
v 4.45103958 -0.05249173 0.14000011
v 4.45251800 -0.05049417 0.14000011
v 4.45399646 -0.05010249 0.14580012
v 4.45399938 -0.05014903 0.14000011
v 4.45146930 -0.05452131 0.14000011
v 4.45251809 -0.05562446 0.14580012
v 4.45253062 -0.05560868 0.14000011
v 4.45399875 -0.05598192 0.14000011
v 4.45399938 -0.05597020 0.14580012
v 4.45664586 -0.05185308 0.14580000
v 4.45304601 -0.05581488 0.14580000
v 4.45400289 -0.05596847 0.14580000
v 4.45628088 -0.05485636 0.14580000
v 4.45670807 -0.05414255 0.14580000
v 4.45569027 -0.05543581 0.14580000
v 4.45482420 -0.05584912 0.14580000
v 4.45688995 -0.05333569 0.14580000
v 4.45687905 -0.05264698 0.14580000
v 4.45619831 -0.05115553 0.14580000
v 4.45568431 -0.05069457 0.14580000
v 4.45170492 -0.05485867 0.14580000
v 4.45426990 -0.05016363 0.14580000
v 4.45120137 -0.05387962 0.14580000
v 4.45508220 -0.05035986 0.14580000
v 4.45344367 -0.05020446 0.14580000
v 4.45109694 -0.05278062 0.14580000
v 4.45254220 -0.05053388 0.14580000
v 4.45140713 -0.05172497 0.14580000
v 4.45189777 -0.05105666 0.14580000
v 4.45231970 -0.05542720 0.14580000
v 4.45683050 -0.05227499 0.14580012
v 4.45649210 -0.05145821 0.14000011
v 4.45565253 -0.05057174 0.14580012
v 4.45692795 -0.05343353 0.14000011
v 4.45671073 -0.05429881 0.14580012
v 4.45578224 -0.05548114 0.14000011
v 4.45534261 -0.05566323 0.14580012
v 4.45400113 -0.05598221 0.14580012
v 4.45400045 -0.05596970 0.14000011
v 4.45500476 -0.05029928 0.14000011
v 4.45400046 -0.05014915 0.14580012
v 4.45399992 -0.05015922 0.14000011
v 4.45113623 -0.05360990 0.13599992
v 4.45208938 -0.05526273 0.13599992
v 4.45148177 -0.05451429 0.13599992
v 4.45279826 -0.05570230 0.13599992
v 4.45358419 -0.05594591 0.13599992
v 4.45110989 -0.05278375 0.13599992
v 4.45125071 -0.05210907 0.13599992
v 4.45162891 -0.05137435 0.13599992
v 4.45468795 -0.05589387 0.13599992
v 4.45557761 -0.05550288 0.13599992
v 4.45220441 -0.05077041 0.13599992
v 4.45292585 -0.05035641 0.13599992
v 4.45629530 -0.05485852 0.13599992
v 4.45358469 -0.05018545 0.13599992
v 4.45674930 -0.05400868 0.13599992
v 4.45691624 -0.05305833 0.13599992
v 4.45521461 -0.05040816 0.13599992
v 4.45670680 -0.05197449 0.13599992
v 4.45611004 -0.05104667 0.13599992
v 4.45427523 -0.05016415 0.13599992
v 4.45703474 -0.05427334 0.14000011
v 4.45629530 -0.05485852 0.14000011
v 4.45636732 -0.05531316 0.14000011
v 4.45725606 -0.05321195 0.14000011
v 4.45674930 -0.05400868 0.14000011
v 4.45719423 -0.05244242 0.14000011
v 4.45691624 -0.05305833 0.14000011
v 4.45690404 -0.05156258 0.14000011
v 4.45670680 -0.05197449 0.14000011
v 4.45481767 -0.05585118 0.14000011
v 4.45549548 -0.05595625 0.14000011
v 4.45557761 -0.05550288 0.14000011
v 4.45521311 -0.05003409 0.14000011
v 4.45521461 -0.05040816 0.14000011
v 4.45614288 -0.05059159 0.14000011
v 4.45129321 -0.05414495 0.14000011
v 4.45079066 -0.05367853 0.14000011
v 4.45124833 -0.05482319 0.14000011
v 4.45250418 -0.05016342 0.14000011
v 4.45174832 -0.05070237 0.14000011
v 4.45189045 -0.05104542 0.14000011
v 4.45109555 -0.05156131 0.14000011
v 4.45077380 -0.05259234 0.14000011
v 4.45129231 -0.05197610 0.14000011
v 4.45108353 -0.05305922 0.14000011
v 4.45323225 -0.04989721 0.14000011
v 4.45279164 -0.05040525 0.14000011
v 4.45357796 -0.05018711 0.14000011
v 4.45210398 -0.05572249 0.14000011
v 4.45188770 -0.05507008 0.14000011
v 4.45427161 -0.05016366 0.14000011
v 4.45415337 -0.04979457 0.14000011
v 4.45308421 -0.05618796 0.14000011
v 4.45330418 -0.05587820 0.14000011
v 4.45266533 -0.05564429 0.14000011
v 4.45461308 -0.05626168 0.14000011
v 4.45399499 -0.05596818 0.14000011
v 4.45611004 -0.05104667 0.14000011
v 4.45384157 -0.05630894 0.14000011
v 4.45140869 -0.05156142 0.13099993
v 4.45101917 -0.05287221 0.13599992
v 4.45112354 -0.05365700 0.13099993
v 4.45218865 -0.05068471 0.13599992
v 4.45291720 -0.05034529 0.13099993
v 4.45399868 -0.05013681 0.13599992
v 4.45399939 -0.05014921 0.13099993
v 4.45168843 -0.05487936 0.13599992
v 4.45218891 -0.05543425 0.13099993
v 4.45291597 -0.05577334 0.13599992
v 4.45399873 -0.05598192 0.13099993
v 4.45399939 -0.05596981 0.13599992
v 4.45581114 -0.05032607 0.13699997
v 4.45400368 -0.04974583 0.13699997
v 4.45566173 -0.05018527 0.14000011
v 4.45692196 -0.05155291 0.13699997
v 4.45725949 -0.05227009 0.14000011
v 4.45725989 -0.05385012 0.13699997
v 4.45692254 -0.05456590 0.14000011
v 4.45566113 -0.05593416 0.13699997
v 4.45564851 -0.05591530 0.14000011
v 4.45400129 -0.05633478 0.14000011
v 4.45400051 -0.05632072 0.13699997
v 4.45400052 -0.04979754 0.14000011
v 4.45574674 -0.05655893 0.13099981
v 4.45471903 -0.05690286 0.13099981
v 4.45441516 -0.05594601 0.13099981
v 4.45690525 -0.05319907 0.13099981
v 4.45789981 -0.05324029 0.13099981
v 4.45779984 -0.05395387 0.13099981
v 4.45253937 -0.05558351 0.13099981
v 4.45345051 -0.05591573 0.13099981
v 4.45292516 -0.05682001 0.13099981
v 4.45742339 -0.05496833 0.13099981
v 4.45670679 -0.05414497 0.13099981
v 4.45663678 -0.05594744 0.13099981
v 4.45619553 -0.05496705 0.13099981
v 4.45545508 -0.05558664 0.13099981
v 4.45381951 -0.05695926 0.13099981
v 4.45786651 -0.05252028 0.13099981
v 4.45178374 -0.05629354 0.13099981
v 4.45170491 -0.05485867 0.13099981
v 4.45099428 -0.05555113 0.13099981
v 4.45049952 -0.05480397 0.13099981
v 4.45679865 -0.05223953 0.13099981
v 4.45764811 -0.05164843 0.13099981
v 4.45020086 -0.05395890 0.13099981
v 4.45120137 -0.05387962 0.13099981
v 4.45722390 -0.05085719 0.13099981
v 4.45637166 -0.05137581 0.13099981
v 4.45663812 -0.05017214 0.13099981
v 4.45010028 -0.05324386 0.13099981
v 4.45574072 -0.04955684 0.13099981
v 4.45569296 -0.05068492 0.13099981
v 4.45109694 -0.05278062 0.13099981
v 4.45015542 -0.05234018 0.13099981
v 4.45042815 -0.05148365 0.13099981
v 4.45140712 -0.05172497 0.13099981
v 4.45242816 -0.04948597 0.13099981
v 4.45328019 -0.04921556 0.13099981
v 4.45344367 -0.05020446 0.13099981
v 4.45254220 -0.05053388 0.13099981
v 4.45164971 -0.04993335 0.13099981
v 4.45189777 -0.05105666 0.13099981
v 4.45087883 -0.05070258 0.13099981
v 4.45453826 -0.04917509 0.13099981
v 4.45427108 -0.05016363 0.13099981
v 4.45495239 -0.05031681 0.13099981
v 4.45676025 -0.05029841 0.13699997
v 4.45601675 -0.05049846 0.13699997
v 4.45674889 -0.05129160 0.13699997
v 4.45665803 -0.05494672 0.13699997
v 4.45757204 -0.05463614 0.13699997
v 4.45713642 -0.05397839 0.13699997
v 4.45789988 -0.05323799 0.13699997
v 4.45725590 -0.05290364 0.13699997
v 4.45712418 -0.05541273 0.13699997
v 4.45601773 -0.05561985 0.13699997
v 4.45781650 -0.05216429 0.13699997
v 4.45712111 -0.05214022 0.13699997
v 4.45521633 -0.05608371 0.13699997
v 4.45635748 -0.05618057 0.13699997
v 4.45187106 -0.05552040 0.13699997
v 4.45123757 -0.05581823 0.13699997
v 4.45194090 -0.05638533 0.13699997
v 4.45210342 -0.05039770 0.13699997
v 4.45307283 -0.04993467 0.13699997
v 4.45210065 -0.04964812 0.13699997
v 4.45067279 -0.05511511 0.13699997
v 4.45134164 -0.05494634 0.13699997
v 4.45097945 -0.05426887 0.13699997
v 4.45122601 -0.05028837 0.13699997
v 4.45049816 -0.05131796 0.13699997
v 4.45096571 -0.05184533 0.13699997
v 4.45144101 -0.05105001 0.13699997
v 4.45011715 -0.05251579 0.13699997
v 4.45077368 -0.05352493 0.13699997
v 4.45076130 -0.05274731 0.13699997
v 4.45029787 -0.05429946 0.13699997
v 4.45415178 -0.04979422 0.13699997
v 4.45310607 -0.04924222 0.13699997
v 4.45435848 -0.04916488 0.13699997
v 4.45541464 -0.04941424 0.13699997
v 4.45521455 -0.05003471 0.13699997
v 4.45251381 -0.05596085 0.13699997
v 4.45293173 -0.05682128 0.13699997
v 4.45620520 -0.04983776 0.13699997
v 4.45400270 -0.05697048 0.13699997
v 4.45353642 -0.05629461 0.13699997
v 4.45489904 -0.05685911 0.13699997
v 4.45446420 -0.05627939 0.13699997
v 4.45732469 -0.05100093 0.13699997
v 4.45780071 -0.05395234 0.13699997
v 4.45558213 -0.05662892 0.13699997
v 4.45013315 -0.05359897 0.13699997
v 4.45744508 -0.05114162 0.13099993
v 4.45790833 -0.05238986 0.13699997
v 4.45795570 -0.05355044 0.13099993
v 4.45754462 -0.05482477 0.13699997
v 4.45542269 -0.05672092 0.13099993
v 4.45690904 -0.05571181 0.13099993
v 4.45611669 -0.05637449 0.13699997
v 4.45400409 -0.05703150 0.13699997
v 4.45400058 -0.05697225 0.13099993
v 4.45690820 -0.05040548 0.13699997
v 4.45621581 -0.04982105 0.13099993
v 4.45542137 -0.04939828 0.13699997
v 4.45400619 -0.04905774 0.13099993
v 4.45400058 -0.04914615 0.13699997
usemtl Base_fa3
f 1 2 3
f 4 3 2
f 2 1 5
f 6 5 1
f 7 8 9
f 9 8 10
f 6 10 8
f 8 5 6
f 11 12 13
f 14 15 16
f 11 15 17
f 13 15 11
f 18 12 11
f 13 12 19
f 15 13 20
f 21 20 13
f 22 16 20
f 20 16 15
f 23 24 25
f 24 23 26
f 27 28 29
f 28 27 30
f 31 32 33
f 31 33 34
f 35 36 37
f 36 35 38
f 39 40 41
f 39 41 42
f 43 44 45
f 43 45 46
f 47 48 49
f 47 49 50
f 51 52 53
f 51 53 54
f 55 56 57
f 55 57 58
f 59 60 61
f 59 61 62
f 63 64 65
f 63 65 66
f 67 68 69
f 67 69 70
f 71 72 73
f 74 73 75
f 76 77 78
f 73 79 80
f 78 77 81
f 80 79 81
f 77 76 82
f 83 82 76
f 74 79 73
f 84 82 83
f 85 84 86
f 72 71 87
f 84 88 89
f 89 88 90
f 91 72 87
f 89 90 92
f 91 87 93
f 94 87 95
f 92 96 97
f 98 99 100
f 101 98 102
f 101 99 98
f 102 97 101
f 92 97 102
f 103 98 100
f 103 94 95
f 87 94 93
f 92 90 96
f 85 88 84
f 103 95 98
f 83 86 84
f 80 81 77
f 72 75 73
f 104 105 106
f 107 108 105
f 109 110 108
f 111 110 109
f 111 109 112
f 105 108 110
f 105 104 107
f 106 113 104
f 106 114 113
f 115 116 117
f 116 115 118
f 119 120 121
f 119 122 123
f 124 123 122
f 125 123 124
f 119 121 122
f 118 121 120
f 120 116 118
f 115 117 126
f 127 128 129
f 130 131 132
f 130 132 133
f 134 132 131
f 134 135 136
f 135 137 136
f 138 136 137
f 139 140 138
f 139 141 142
f 142 140 139
f 143 142 141
f 143 141 144
f 138 137 139
f 135 134 131
f 128 127 133
f 127 130 133
f 127 129 145
f 146 147 148
f 147 149 148
f 147 146 150
f 151 152 153
f 154 155 156
f 157 158 159
f 159 160 157
f 159 161 160
f 161 162 160
f 161 163 162
f 157 155 158
f 158 155 154
f 156 151 154
f 156 152 151
f 153 150 146
f 150 153 152
f 148 149 164
f 165 166 167
f 168 169 170
f 166 169 167
f 168 167 169
f 165 171 166
f 171 165 172
f 172 173 171
f 174 173 172
f 175 174 172
f 176 177 178
f 177 174 178
f 174 175 178
f 179 180 181
f 179 182 180
f 183 184 185
f 183 186 187
f 186 188 187
f 185 186 183
f 182 185 184
f 184 180 182
f 189 190 191
f 190 189 192
f 192 193 190
f 193 194 190
f 193 195 194
f 193 196 195
f 191 197 189
f 191 198 197
f 197 198 199
f 199 198 200
f 199 200 201
f 202 203 204
f 204 203 205
f 203 206 205
f 207 205 206
f 208 205 207
f 202 204 209
f 210 202 209
f 210 209 211
f 211 212 210
f 212 213 210
f 214 215 216
f 217 218 215
f 219 220 221
f 220 222 221
f 223 219 221
f 224 223 221
f 224 217 223
f 218 217 224
f 217 215 214
f 215 225 216
f 226 227 228
f 228 227 229
f 230 229 227
f 231 229 230
f 226 228 232
f 233 226 232
f 233 232 234
f 234 235 233
f 235 236 233
f 237 238 239
f 240 241 242
f 242 241 243
f 241 244 243
f 244 239 243
f 245 239 244
f 246 247 248
f 249 250 251
f 252 253 250
f 253 252 254
f 255 254 256
f 254 255 253
f 252 250 249
f 248 251 250
f 247 251 248
f 246 248 257
f 246 257 238
f 237 246 238
f 239 245 237
f 258 259 260
f 259 258 261
f 261 262 263
f 262 264 263
f 263 264 265
f 263 265 266
f 262 261 258
f 260 259 267
f 260 267 268
f 269 268 267
f 270 271 272
f 273 271 270
f 274 273 270
f 275 274 270
f 274 275 276
f 277 278 276
f 279 277 280
f 278 277 279
f 280 281 282
f 283 284 281
f 285 286 287
f 288 287 286
f 289 286 285
f 285 284 283
f 289 285 283
f 284 282 281
f 282 279 280
f 274 276 278
f 290 291 292
f 290 293 294
f 295 296 293
f 295 297 298
f 299 300 301
f 302 303 304
f 305 306 307
f 308 309 310
f 310 309 311
f 312 313 311
f 314 312 306
f 315 308 316
f 315 316 317
f 318 319 307
f 320 302 321
f 303 302 320
f 322 323 324
f 325 299 326
f 297 304 327
f 327 304 303
f 298 297 327
f 296 295 298
f 294 293 296
f 291 290 294
f 301 292 291
f 301 300 292
f 299 325 300
f 326 328 325
f 326 322 328
f 323 322 326
f 324 318 322
f 319 318 324
f 305 307 319
f 314 306 305
f 313 312 314
f 310 311 313
f 316 308 310
f 315 317 321
f 321 317 320
f 329 330 331
f 329 332 330
f 332 329 333
f 333 334 332
f 333 335 334
f 330 336 331
f 331 336 337
f 338 337 336
f 337 338 339
f 339 338 340
f 341 342 343
f 344 343 345
f 344 345 346
f 346 345 347
f 348 347 349
f 348 349 350
f 348 350 351
f 348 346 347
f 344 341 343
f 343 342 352
f 353 354 355
f 356 357 358
f 359 360 361
f 362 363 358
f 362 364 365
f 364 353 366
f 367 360 355
f 368 357 356
f 369 370 359
f 370 371 372
f 368 373 374
f 372 375 376
f 377 378 379
f 375 380 376
f 381 379 382
f 383 380 384
f 384 385 386
f 387 388 389
f 387 390 391
f 387 389 390
f 392 393 391
f 377 374 378
f 385 393 386
f 394 389 388
f 389 394 395
f 396 394 381
f 382 396 381
f 391 390 392
f 393 392 386
f 384 386 383
f 380 383 376
f 372 376 370
f 371 370 369
f 369 359 361
f 361 360 367
f 367 355 354
f 353 355 366
f 364 366 365
f 362 365 363
f 358 363 356
f 368 356 373
f 374 373 378
f 379 378 382
f 396 395 394
f 397 398 399
f 400 401 402
f 402 403 404
f 405 400 406
f 407 408 404
f 407 399 408
f 406 409 410
f 411 412 413
f 414 415 416
f 417 418 419
f 414 416 420
f 421 422 423
f 424 425 426
f 422 424 426
f 425 427 419
f 428 429 415
f 428 430 429
f 431 428 432
f 428 431 430
f 433 413 434
f 431 432 435
f 434 436 437
f 435 398 397
f 438 409 439
f 412 411 418
f 398 435 432
f 440 397 399
f 407 440 399
f 403 407 404
f 441 403 402
f 401 441 402
f 405 401 400
f 410 405 406
f 442 410 409
f 438 442 409
f 436 438 439
f 437 436 439
f 433 434 437
f 411 413 433
f 417 412 418
f 427 417 419
f 443 427 425
f 424 443 425
f 421 424 422
f 420 421 423
f 420 423 414
f 415 429 416
f 444 445 446
f 446 445 447
f 448 449 450
f 451 448 450
f 452 448 451
f 447 450 449
f 447 449 446
f 444 453 445
f 444 454 453
f 455 453 454
f 454 456 455
f 455 456 457
