# Exported from USD: /World/gantry/gantry_home/ur10_flattened/ur10_instanceable/wrist_2_link/ur10_wrist_2/ID347_001fa3
mtllib ID347_001fa3.mtl

g ID347_001fa3
v 4.45298262 -0.07202620 0.12700093
v 4.45501723 -0.07560021 0.12700093
v 4.45079747 -0.07560021 0.12710226
v 4.44878524 -0.07202620 0.12729001
v 4.44662159 -0.07560021 0.12759483
v 4.44551912 -0.07202620 0.12780369
v 4.44186983 -0.07560021 0.12863720
v 4.44269158 -0.07202620 0.12843621
v 4.43923579 -0.07202619 0.12947786
v 4.43780284 -0.07560021 0.13000524
v 4.43545138 -0.07202621 0.13098061
v 4.43464547 -0.07560022 0.13136065
v 4.43231466 -0.07202619 0.13256908
v 4.43148528 -0.07560021 0.13303554
v 4.42926676 -0.07202619 0.13438690
v 4.42901441 -0.07560021 0.13456357
v 4.42613583 -0.07560021 0.13664592
v 4.42585109 -0.07202619 0.13687170
v 4.42351749 -0.07560021 0.13889051
v 4.42334354 -0.07202619 0.13905239
v 4.42152310 -0.07560021 0.14084602
v 4.42135884 -0.07202619 0.14101876
v 4.41895007 -0.07202619 0.14375747
v 4.41919559 -0.07560021 0.14345611
v 4.41646480 -0.07202621 0.14715470
v 4.41705387 -0.07560021 0.14630402
v 4.41557340 -0.07560022 0.14857543
v 4.41466922 -0.07202619 0.15012563
v 4.41422372 -0.07560021 0.15094424
v 4.41341531 -0.07202619 0.15255213
v 4.41296639 -0.07560021 0.15351701
v 4.41228544 -0.07202619 0.15510846
v 4.41189540 -0.07560021 0.15610362
v 4.41131985 -0.07202619 0.15772033
v 4.41080320 -0.07560021 0.15933991
v 4.41053395 -0.07202619 0.16033626
v 4.40980967 -0.07560021 0.16342462
v 4.40989275 -0.07202619 0.16305185
v 4.40931196 -0.07202619 0.16659129
v 4.40927580 -0.07560021 0.16697455
v 4.40903878 -0.07202619 0.17001295
v 4.40905029 -0.07560021 0.16976750
v 4.40899993 -0.07560021 0.17199993
v 4.40899993 -0.07202619 0.17199993
v 4.45720237 -0.07202620 0.12710226
v 4.45921460 -0.07560021 0.12729001
v 4.46075758 -0.07202620 0.12750411
v 4.46248187 -0.07560021 0.12780381
v 4.46360630 -0.07202620 0.12803400
v 4.46530826 -0.07560021 0.12843621
v 4.46672116 -0.07202620 0.12882078
v 4.46876470 -0.07560021 0.12947810
v 4.47019722 -0.07202619 0.13000536
v 4.47254784 -0.07560019 0.13098038
v 4.47335439 -0.07202618 0.13136065
v 4.47568519 -0.07560021 0.13256908
v 4.47651454 -0.07202619 0.13303554
v 4.47873353 -0.07560021 0.13438726
v 4.47898616 -0.07202619 0.13456405
v 4.48214876 -0.07560021 0.13687170
v 4.48186401 -0.07202619 0.13664592
v 4.48465630 -0.07560021 0.13905239
v 4.48448236 -0.07202619 0.13889051
v 4.48647675 -0.07202619 0.14084601
v 4.48664100 -0.07560021 0.14101875
v 4.48880425 -0.07202619 0.14345610
v 4.48905028 -0.07560021 0.14375806
v 4.49094525 -0.07202619 0.14630294
v 4.49153455 -0.07560019 0.14715385
v 4.49242645 -0.07202618 0.14857542
v 4.49333061 -0.07560021 0.15012562
v 4.49377612 -0.07202619 0.15094423
v 4.49458454 -0.07560021 0.15255213
v 4.49503346 -0.07202619 0.15351701
v 4.49571457 -0.07560021 0.15510881
v 4.49610452 -0.07202619 0.15610373
v 4.49667996 -0.07560021 0.15772021
v 4.49719665 -0.07202619 0.15933990
v 4.49746597 -0.07560021 0.16033661
v 4.49819018 -0.07202619 0.16342449
v 4.49810714 -0.07560021 0.16305208
v 4.49868790 -0.07560021 0.16659128
v 4.49872405 -0.07202619 0.16697466
v 4.49894955 -0.07202619 0.16976737
v 4.49896106 -0.07560021 0.17001283
v 4.49899992 -0.07202619 0.17199993
v 4.49899992 -0.07560021 0.17199993
v 4.40903887 -0.07560021 0.17398596
v 4.40899993 -0.07202619 0.17199993
v 4.40899993 -0.07560021 0.17199993
v 4.40924735 -0.07560021 0.17675543
v 4.40905029 -0.07202619 0.17423296
v 4.41200882 -0.07560021 0.18821741
v 4.41140183 -0.07202619 0.18652332
v 4.41090731 -0.07560021 0.18497575
v 4.41060043 -0.07202619 0.18390930
v 4.41018395 -0.07560021 0.18227649
v 4.41268022 -0.07202619 0.18985689
v 4.41648782 -0.07560021 0.19687975
v 4.41556691 -0.07202619 0.19541324
v 4.41471847 -0.07560021 0.19396330
v 4.41421500 -0.07202619 0.19303847
v 4.41343843 -0.07560021 0.19149745
v 4.41755530 -0.07202619 0.19841993
v 4.42232465 -0.07560021 0.20396877
v 4.42152875 -0.07202619 0.20315981
v 4.42040180 -0.07560021 0.20194686
v 4.41970974 -0.07202619 0.20114410
v 4.41860659 -0.07560021 0.19980395
v 4.42437756 -0.07560021 0.20587838
v 4.42411159 -0.07202621 0.20566035
v 4.42947120 -0.07560024 0.20974470
v 4.43301815 -0.07560022 0.21182442
v 4.43013392 -0.07202618 0.21015621
v 4.43877557 -0.07560022 0.21435129
v 4.43707500 -0.07202621 0.21371722
v 4.43612935 -0.07560021 0.21330488
v 4.43320775 -0.07202618 0.21191990
v 4.44207569 -0.07560021 0.21540916
v 4.44128218 -0.07202619 0.21518028
v 4.44879604 -0.07560021 0.21670997
v 4.44724334 -0.07202619 0.21649599
v 4.44551886 -0.07560021 0.21619487
v 4.44439602 -0.07202619 0.21596658
v 4.45079328 -0.07202619 0.21689749
v 4.45299092 -0.07560021 0.21699929
v 4.45719139 -0.07560021 0.21689772
v 4.45501506 -0.07202619 0.21699929
v 4.46136882 -0.07560021 0.21640503
v 4.45921097 -0.07202619 0.21671045
v 4.46247736 -0.07202619 0.21619701
v 4.46530130 -0.07202619 0.21556568
v 4.46828221 -0.07560019 0.21468556
v 4.46873832 -0.07202619 0.21453094
v 4.47159930 -0.07560021 0.21342039
v 4.47635419 -0.07202618 0.21106588
v 4.47256888 -0.07202619 0.21301055
v 4.47462438 -0.07560021 0.21201014
v 4.48019811 -0.07560022 0.20859491
v 4.47916823 -0.07202619 0.20931303
v 4.47768585 -0.07560019 0.21026873
v 4.48230379 -0.07560021 0.20699190
v 4.48212905 -0.07202619 0.20714377
v 4.48448202 -0.07560021 0.20510696
v 4.48648768 -0.07560021 0.20314526
v 4.48465029 -0.07202619 0.20495330
v 4.48663675 -0.07202619 0.20298600
v 4.48835399 -0.07560021 0.20107782
v 4.48904305 -0.07202619 0.20025098
v 4.49041545 -0.07560021 0.19845938
v 4.49155057 -0.07202619 0.19682240
v 4.49240245 -0.07560021 0.19546878
v 4.49332133 -0.07202619 0.19389021
v 4.49381476 -0.07560021 0.19298088
v 4.49458242 -0.07202619 0.19145226
v 4.49502556 -0.07560021 0.19049954
v 4.49571245 -0.07202619 0.18889654
v 4.49633625 -0.07560021 0.18729627
v 4.49667705 -0.07202619 0.18628776
v 4.49758542 -0.07560021 0.18324661
v 4.49767756 -0.07202619 0.18288326
v 4.49844147 -0.07560021 0.17915594
v 4.49849682 -0.07202619 0.17880165
v 4.49885986 -0.07560021 0.17560946
v 4.49887752 -0.07202619 0.17538666
v 4.49901082 -0.07202619 0.17200016
v 4.49901746 -0.07560021 0.17200016
v 4.46507855 -0.07560021 0.21562218
v 4.42739588 -0.07202619 0.20831180
v 4.42657214 -0.07560021 0.20768571
v 4.40994110 -0.07202619 0.18118370
v 4.40935477 -0.07202619 0.17775250
v 4.40963228 -0.07560021 0.17954588
usemtl Black
f 1 2 3
f 1 3 4
f 4 3 5
f 4 5 6
f 7 8 6
f 6 5 7
f 9 8 7
f 10 9 7
f 11 9 10
f 11 10 12
f 13 11 12
f 13 12 14
f 13 14 15
f 14 16 15
f 15 17 18
f 17 15 16
f 18 19 20
f 19 18 17
f 21 22 20
f 20 19 21
f 23 22 24
f 21 24 22
f 25 23 26
f 24 26 23
f 27 25 26
f 28 25 27
f 28 27 29
f 28 29 30
f 29 31 30
f 31 32 30
f 33 32 31
f 34 32 33
f 34 33 35
f 34 35 36
f 37 38 36
f 36 35 37
f 39 38 37
f 39 37 40
f 41 39 42
f 40 42 39
f 43 41 42
f 43 44 41
f 45 2 1
f 46 2 45
f 47 46 45
f 48 46 47
f 48 47 49
f 48 49 50
f 49 51 50
f 51 52 50
f 51 53 52
f 53 54 52
f 55 54 53
f 55 56 54
f 57 56 55
f 58 56 57
f 58 57 59
f 60 58 61
f 59 61 58
f 62 60 63
f 61 63 60
f 62 64 65
f 64 62 63
f 66 67 65
f 65 64 66
f 68 69 67
f 67 66 68
f 68 70 69
f 70 71 69
f 72 71 70
f 73 71 72
f 73 72 74
f 73 74 75
f 74 76 75
f 76 77 75
f 78 77 76
f 79 77 78
f 79 80 81
f 80 79 78
f 80 82 81
f 83 82 80
f 84 85 82
f 82 83 84
f 84 86 85
f 85 86 87
f 88 89 90
f 91 92 88
f 93 94 95
f 95 96 97
f 94 93 98
f 99 100 101
f 101 102 103
f 100 99 104
f 105 106 107
f 107 108 109
f 105 110 111
f 112 113 114
f 115 116 117
f 116 118 117
f 115 119 120
f 121 122 123
f 123 124 119
f 125 121 126
f 122 121 125
f 126 127 128
f 126 128 125
f 129 130 127
f 130 128 127
f 130 129 131
f 132 133 134
f 133 135 134
f 136 137 138
f 139 140 141
f 142 143 139
f 144 143 142
f 145 146 144
f 147 148 149
f 148 147 145
f 149 148 150
f 149 150 151
f 151 150 152
f 151 152 153
f 152 154 153
f 154 155 153
f 156 155 154
f 157 155 156
f 157 156 158
f 157 158 159
f 160 161 159
f 159 158 160
f 162 163 161
f 161 160 162
f 164 165 163
f 163 162 164
f 166 165 167
f 164 167 165
f 147 146 145
f 146 143 144
f 140 139 143
f 136 141 140
f 141 136 138
f 138 137 135
f 135 137 134
f 168 133 132
f 131 129 168
f 131 168 132
f 122 124 123
f 119 124 120
f 116 115 120
f 117 118 113
f 118 114 113
f 114 169 112
f 112 169 170
f 111 110 170
f 170 169 111
f 106 105 111
f 106 108 107
f 109 108 104
f 99 109 104
f 100 102 101
f 103 102 98
f 93 103 98
f 94 96 95
f 97 96 171
f 172 173 171
f 173 97 171
f 172 91 173
f 172 92 91
f 89 88 92
