# Exported from USD: /World/gantry/gantry_home/ur10_flattened/ur10_instanceable/wrist_2_link/ur10_wrist_2/ID347_001ORK
mtllib ID347_001ORK.mtl

g ID347_001ORK
v 4.48717117 -0.18306020 0.18914044
v 4.48655090 -0.18306020 0.18910003
v 4.48686368 -0.17471020 0.18907714
v 4.48747835 -0.17471020 0.18926370
v 4.48772153 -0.18306020 0.18941688
v 4.48795077 -0.17471020 0.18964457
v 4.48813816 -0.18306020 0.18994284
v 4.48823397 -0.17471020 0.19022500
v 4.48828138 -0.18306020 0.19058955
v 4.48827172 -0.17471020 0.19059002
v 4.48615491 -0.17471020 0.18921947
v 4.48595389 -0.18306020 0.18931782
v 4.48565645 -0.17471020 0.18956936
v 4.48542707 -0.18306020 0.18988753
v 4.48536539 -0.17471020 0.19006205
v 4.48526177 -0.18306020 0.19058955
v 4.48525843 -0.17471020 0.19058931
v 4.48827531 -0.18306020 0.19059014
v 4.48827172 -0.17471020 0.19059002
v 4.48823245 -0.17471020 0.19097161
v 4.48744007 -0.18306020 0.19195592
v 4.48793336 -0.18306020 0.19155156
v 4.48797462 -0.17471020 0.19150901
v 4.48596613 -0.18306020 0.19186926
v 4.48564442 -0.17471020 0.19158793
v 4.48560998 -0.18306020 0.19155169
v 4.48536249 -0.17471020 0.19113994
v 4.48534734 -0.18306020 0.19109714
v 4.48526668 -0.17471020 0.19059026
v 4.48526834 -0.18306020 0.19059015
v 4.48616959 -0.17471020 0.19198847
v 4.48659193 -0.18306020 0.19210136
v 4.48694808 -0.17471020 0.19209754
v 4.48751276 -0.17471020 0.19190669
v 4.48819726 -0.18306020 0.19109499
v 4.48635665 -0.17471019 0.19203925
v 4.48659409 -0.17471019 0.19208777
v 4.48572716 -0.17471019 0.19166863
v 4.48827172 -0.17471020 0.19059002
v 4.48826012 -0.17471019 0.19039666
v 4.48635555 -0.17471019 0.18915129
v 4.48610342 -0.17471020 0.19194007
v 4.48591983 -0.17471019 0.19182968
v 4.48557382 -0.17471020 0.19150007
v 4.48545705 -0.17471019 0.19131601
v 4.48694061 -0.17471019 0.19208920
v 4.48537302 -0.17471020 0.19114006
v 4.48530566 -0.17471019 0.19091451
v 4.48527168 -0.17471019 0.19065738
v 4.48718636 -0.17471019 0.19203937
v 4.48761970 -0.17471019 0.19183206
v 4.48532942 -0.17471020 0.19018007
v 4.48528323 -0.17471019 0.19039774
v 4.48743962 -0.17471020 0.19194007
v 4.48549592 -0.17471020 0.18980003
v 4.48780851 -0.17471019 0.19167590
v 4.48796962 -0.17471020 0.19150007
v 4.48538263 -0.17471019 0.19002533
v 4.48808710 -0.17471019 0.19131446
v 4.48819451 -0.17471019 0.19107961
v 4.48576182 -0.17471020 0.18948007
v 4.48562865 -0.17471019 0.18961859
v 4.48656287 -0.17471019 0.18910754
v 4.48825880 -0.17471019 0.19079900
v 4.48677242 -0.17471020 0.18909001
v 4.48819487 -0.17471019 0.19011116
v 4.48808584 -0.17471019 0.18987310
v 4.48792798 -0.17471019 0.18963265
v 4.48718832 -0.17471019 0.18915129
v 4.48698251 -0.17471019 0.18910777
v 4.48758551 -0.17471019 0.18933570
v 4.48744012 -0.17471020 0.18925011
v 4.48778182 -0.17471020 0.18948006
v 4.48610392 -0.17471020 0.18925011
v 4.48596307 -0.17471019 0.18933260
v 4.48844023 -0.18430996 0.18840122
v 4.48807522 -0.18431019 0.18817007
v 4.48754389 -0.18306036 0.18930387
v 4.48809401 -0.18306040 0.18987787
v 4.48908194 -0.18431005 0.18909466
v 4.48796585 -0.18306040 0.18968344
v 4.48640302 -0.18431019 0.18787002
v 4.48611269 -0.18431068 0.18792045
v 4.48646236 -0.18306035 0.18912303
v 4.48677200 -0.18306017 0.18909752
v 4.48708183 -0.18305995 0.18912268
v 4.48729866 -0.18431038 0.18789005
v 4.48618222 -0.18306020 0.18921006
v 4.48600108 -0.18306027 0.18930292
v 4.48569102 -0.18431019 0.18806005
v 4.48539071 -0.18430981 0.18821204
v 4.48578222 -0.18306019 0.18946386
v 4.48505703 -0.18431019 0.18844009
v 4.48472778 -0.18431130 0.18874955
v 4.48557823 -0.18305988 0.18968225
v 4.48545011 -0.18306035 0.18987656
v 4.48444484 -0.18431049 0.18912268
v 4.48424558 -0.18431064 0.18950272
v 4.48533269 -0.18306008 0.19016278
v 4.48412053 -0.18431019 0.18986011
v 4.48528229 -0.18306000 0.19040537
v 4.48404442 -0.18431029 0.19021785
v 4.48527172 -0.18306020 0.19059003
v 4.48402172 -0.18431019 0.19059003
v 4.48677168 -0.18431033 0.18784535
v 4.48769797 -0.18431144 0.18800676
v 4.48736162 -0.18306020 0.18921006
v 4.48776041 -0.18306035 0.18946326
v 4.48876697 -0.18430993 0.18870258
v 4.48924972 -0.18431019 0.18940008
v 4.48939348 -0.18431062 0.18975746
v 4.48820990 -0.18306041 0.19016194
v 4.48826070 -0.18306012 0.19040596
v 4.48949814 -0.18431012 0.19021511
v 4.48952170 -0.18431022 0.19059002
v 4.48827173 -0.18306019 0.19059002
v 4.48952170 -0.18431021 0.19059002
v 4.48827551 -0.18306092 0.19059026
v 4.48950000 -0.18430980 0.19097006
v 4.48823588 -0.18306025 0.19092452
v 4.48939549 -0.18431057 0.19142806
v 4.48813646 -0.18306029 0.19122088
v 4.48867252 -0.18431019 0.19258010
v 4.48783537 -0.18306031 0.19165420
v 4.48836445 -0.18430991 0.19283807
v 4.48730101 -0.18306011 0.19199693
v 4.48803223 -0.18431153 0.19304228
v 4.48762208 -0.18306023 0.19183779
v 4.48635654 -0.18431143 0.19331312
v 4.48647202 -0.18306078 0.19206798
v 4.48592142 -0.18431019 0.19321001
v 4.48677149 -0.18306025 0.19209254
v 4.48624035 -0.18306025 0.19199610
v 4.48592017 -0.18306070 0.19183648
v 4.48561324 -0.18431038 0.19308627
v 4.48460147 -0.18431062 0.19228602
v 4.48493390 -0.18430998 0.19264114
v 4.48570639 -0.18306007 0.19165278
v 4.48555792 -0.18306020 0.19148004
v 4.48540592 -0.18306037 0.19121850
v 4.48432626 -0.18431042 0.19185758
v 4.48419713 -0.18431019 0.19156003
v 4.48408764 -0.18431032 0.19119621
v 4.48530769 -0.18306029 0.19092298
v 4.48403313 -0.18431019 0.19084001
v 4.48526874 -0.18306160 0.19059015
v 4.48402172 -0.18431019 0.19059003
v 4.48525642 -0.18431019 0.19289005
v 4.48677185 -0.18431044 0.19334483
v 4.48714042 -0.18431019 0.19332003
v 4.48707109 -0.18306029 0.19206846
v 4.48757796 -0.18431139 0.19322347
v 4.48894246 -0.18430999 0.19228589
v 4.48798532 -0.18306020 0.19148004
v 4.48921509 -0.18431091 0.19186044
v 4.48417805 -0.18431018 0.18965864
v 4.48399645 -0.18471017 0.19058871
v 4.48400281 -0.18431019 0.19058907
v 4.48459136 -0.18431023 0.18889523
v 4.48429426 -0.18471022 0.18935228
v 4.48520777 -0.18431025 0.18832255
v 4.48613527 -0.18431029 0.18789601
v 4.48573449 -0.18471019 0.18803799
v 4.48738437 -0.18431031 0.18789148
v 4.48677201 -0.18471006 0.18782341
v 4.48779641 -0.18471011 0.18803394
v 4.48830653 -0.18431029 0.18830132
v 4.48896608 -0.18431022 0.18891740
v 4.48846554 -0.18471024 0.18841803
v 4.48903768 -0.18471021 0.18901336
v 4.48936375 -0.18431018 0.18965435
v 4.48945485 -0.18471019 0.18993020
v 4.48954029 -0.18431019 0.19058907
v 4.48952172 -0.18471019 0.19059002
v 4.48499219 -0.18471016 0.18847943
v 4.48402172 -0.18471019 0.19059003
v 4.48408909 -0.18471016 0.19126034
v 4.48401595 -0.18431020 0.19059026
v 4.48693064 -0.18431025 0.19334614
v 4.48616271 -0.18431013 0.19328213
v 4.48637417 -0.18471018 0.19332909
v 4.48719166 -0.18471021 0.19331634
v 4.48779382 -0.18431016 0.19316172
v 4.48870909 -0.18431006 0.19257521
v 4.48855860 -0.18471015 0.19270491
v 4.48924617 -0.18471022 0.19184482
v 4.48932764 -0.18431019 0.19164717
v 4.48954803 -0.18471018 0.19059133
v 4.48954159 -0.18431019 0.19059098
v 4.48777919 -0.18471017 0.19316363
v 4.48558663 -0.18471016 0.19308007
v 4.48541260 -0.18431025 0.19298923
v 4.48491161 -0.18471016 0.19263387
v 4.48474914 -0.18431018 0.19247616
v 4.48443947 -0.18471020 0.19206345
v 4.48416817 -0.18431016 0.19154585
v 4.48880412 -0.18471019 0.19245004
v 4.48862472 -0.18471019 0.19263005
v 4.48807082 -0.18471019 0.19134009
v 4.48569272 -0.18471019 0.19059003
v 4.48402172 -0.18471019 0.19059003
v 4.48403313 -0.18471019 0.19034004
v 4.48727682 -0.18471019 0.19330001
v 4.48677172 -0.18471019 0.19209003
v 4.48752402 -0.18471019 0.19324004
v 4.48836479 -0.18471019 0.19283843
v 4.48799772 -0.18471019 0.19306004
v 4.48731122 -0.18471019 0.19153011
v 4.48702523 -0.18471019 0.19333005
v 4.48677122 -0.18471019 0.19334006
v 4.48911012 -0.18471019 0.19204008
v 4.48896652 -0.18471019 0.19225001
v 4.48651752 -0.18471019 0.19333005
v 4.48626592 -0.18471019 0.19330001
v 4.48923352 -0.18471019 0.19182002
v 4.48933622 -0.18471019 0.19159007
v 4.48601842 -0.18471019 0.19324004
v 4.48941712 -0.18471019 0.19135010
v 4.48951032 -0.18471019 0.19085002
v 4.48947522 -0.18471019 0.19110000
v 4.48577772 -0.18471019 0.19316006
v 4.48538754 -0.18471019 0.19296932
v 4.48933612 -0.18471019 0.18960011
v 4.48807082 -0.18471019 0.18984008
v 4.48923372 -0.18471019 0.18937003
v 4.48623222 -0.18471019 0.19153011
v 4.48511402 -0.18471019 0.19279003
v 4.48862482 -0.18471019 0.18856001
v 4.48880462 -0.18471019 0.18874001
v 4.48457662 -0.18471019 0.19225002
v 4.48443332 -0.18471019 0.19204009
v 4.48547272 -0.18471019 0.19134009
v 4.48412703 -0.18471019 0.19135010
v 4.48406892 -0.18471019 0.19110000
v 4.48677172 -0.18471019 0.18909001
v 4.48799782 -0.18471019 0.18813002
v 4.48731122 -0.18471019 0.18966007
v 4.48836509 -0.18471019 0.18835163
v 4.48547272 -0.18471019 0.18984008
v 4.48420732 -0.18471019 0.18960011
v 4.48431002 -0.18471019 0.18937004
v 4.48776572 -0.18471019 0.18803000
v 4.48752502 -0.18471019 0.18795001
v 4.48623222 -0.18471019 0.18966007
v 4.48517743 -0.18471019 0.18835259
v 4.48554582 -0.18471019 0.18813002
v 4.48723550 -0.18471019 0.18788159
v 4.48677222 -0.18471019 0.18784010
v 4.48630870 -0.18471019 0.18788159
v 4.48577832 -0.18471019 0.18803001
v 4.48601952 -0.18471019 0.18795001
v 4.48443332 -0.18471019 0.18915010
v 4.48457693 -0.18471019 0.18894005
v 4.48491883 -0.18471019 0.18856001
v 4.48473933 -0.18471019 0.18874002
v 4.48406823 -0.18471019 0.19009006
v 4.48412643 -0.18471019 0.18984008
v 4.48403382 -0.18471019 0.19085002
v 4.48430973 -0.18471019 0.19182003
v 4.48420743 -0.18471019 0.19159007
v 4.48896682 -0.18471019 0.18894005
v 4.48473892 -0.18471019 0.19245005
v 4.48911012 -0.18471019 0.18915009
v 4.48941652 -0.18471019 0.18984008
v 4.48947462 -0.18471019 0.19009006
v 4.48950972 -0.18471019 0.19034004
v 4.48952172 -0.18471019 0.19059002
v 4.48785082 -0.18471019 0.19059002
v 4.48491872 -0.18471019 0.19263005
v 4.48776522 -0.18471019 0.19316006
v 4.48731122 -0.18388019 0.18966007
v 4.48677172 -0.18388019 0.18909001
v 4.48677172 -0.18471019 0.18909001
v 4.48731122 -0.18471019 0.18966007
v 4.48807082 -0.18388019 0.18984008
v 4.48731122 -0.18388019 0.18966007
v 4.48731122 -0.18471019 0.18966007
v 4.48807082 -0.18471019 0.18984008
v 4.48785082 -0.18388019 0.19059002
v 4.48807082 -0.18388019 0.18984008
v 4.48807082 -0.18471019 0.18984008
v 4.48785082 -0.18471019 0.19059002
v 4.48807082 -0.18388019 0.19134009
v 4.48785082 -0.18388019 0.19059002
v 4.48785082 -0.18471019 0.19059002
v 4.48807082 -0.18471019 0.19134009
v 4.48731122 -0.18388019 0.19153011
v 4.48807082 -0.18388019 0.19134009
v 4.48807082 -0.18471019 0.19134009
v 4.48731122 -0.18471019 0.19153011
v 4.48677172 -0.18388019 0.19209003
v 4.48731122 -0.18388019 0.19153011
v 4.48731122 -0.18471019 0.19153011
v 4.48677172 -0.18471019 0.19209003
v 4.48623222 -0.18471019 0.19153011
v 4.48677172 -0.18388019 0.19209003
v 4.48677172 -0.18471019 0.19209003
v 4.48623222 -0.18388019 0.19153011
v 4.48547272 -0.18471019 0.19134009
v 4.48623222 -0.18388019 0.19153011
v 4.48623222 -0.18471019 0.19153011
v 4.48547272 -0.18388019 0.19134009
v 4.48569272 -0.18388019 0.19059003
v 4.48547272 -0.18471019 0.19134009
v 4.48569272 -0.18471019 0.19059003
v 4.48547272 -0.18388019 0.19134009
v 4.48547272 -0.18471019 0.18984008
v 4.48569272 -0.18388019 0.19059003
v 4.48569272 -0.18471019 0.19059003
v 4.48547272 -0.18388019 0.18984008
v 4.48623222 -0.18388019 0.18966007
v 4.48547272 -0.18471019 0.18984008
v 4.48623222 -0.18471019 0.18966007
v 4.48547272 -0.18388019 0.18984008
v 4.48677172 -0.18388019 0.18909001
v 4.48623222 -0.18471019 0.18966007
v 4.48677172 -0.18471019 0.18909001
v 4.48623222 -0.18388019 0.18966007
v 4.48623222 -0.18388019 0.19153011
v 4.48623222 -0.18388019 0.18966007
v 4.48731122 -0.18388019 0.18966007
v 4.48807082 -0.18388019 0.19134009
v 4.48731122 -0.18388019 0.19153011
v 4.48785082 -0.18388019 0.19059002
v 4.48677172 -0.18388019 0.19209003
v 4.48569272 -0.18388019 0.19059003
v 4.48547272 -0.18388019 0.19134009
v 4.48547272 -0.18388019 0.18984008
v 4.48677172 -0.18388019 0.18909001
v 4.48807082 -0.18388019 0.18984008
v 4.42135330 -0.18306020 0.18914044
v 4.42073302 -0.18306020 0.18910003
v 4.42104577 -0.17471020 0.18907714
v 4.42166060 -0.17471020 0.18926383
v 4.42190373 -0.18306020 0.18941701
v 4.42213288 -0.17471020 0.18964470
v 4.42232051 -0.18306020 0.18994343
v 4.42241595 -0.17471020 0.19022465
v 4.42246351 -0.18306020 0.19058955
v 4.42245383 -0.17471020 0.19059003
v 4.42033714 -0.17471020 0.18921948
v 4.42013587 -0.18306020 0.18931795
v 4.41983878 -0.17471020 0.18956912
v 4.41960916 -0.18306020 0.18988741
v 4.41954723 -0.17471020 0.19006253
v 4.41944388 -0.18306020 0.19058955
v 4.41944055 -0.17471020 0.19058931
v 4.42245734 -0.18306020 0.19059015
v 4.42245383 -0.17471020 0.19059003
v 4.42241455 -0.17471020 0.19097138
v 4.42162217 -0.18306020 0.19195593
v 4.42211559 -0.18306020 0.19155145
v 4.42215679 -0.17471020 0.19150877
v 4.42014781 -0.18306020 0.19186903
v 4.41982643 -0.17471020 0.19158781
v 4.41979193 -0.18306020 0.19155157
v 4.41954459 -0.17471020 0.19113994
v 4.41952944 -0.18306020 0.19109727
v 4.41944878 -0.17471020 0.19059027
v 4.41945044 -0.18306020 0.19059015
v 4.42035179 -0.17471020 0.19198847
v 4.42077404 -0.18306020 0.19210137
v 4.42113026 -0.17471020 0.19209755
v 4.42169499 -0.17471020 0.19190658
v 4.42237930 -0.18306020 0.19109512
v 4.42053855 -0.17471019 0.19203926
v 4.42077608 -0.17471019 0.19208778
v 4.41990923 -0.17471019 0.19166852
v 4.42245383 -0.17471020 0.19059003
v 4.42244234 -0.17471019 0.19039786
v 4.42053766 -0.17471019 0.18915129
v 4.42028553 -0.17471020 0.19194008
v 4.42010193 -0.17471019 0.19182969
v 4.41975593 -0.17471020 0.19150007
v 4.41963915 -0.17471019 0.19131601
v 4.42112272 -0.17471019 0.19208921
v 4.41955513 -0.17471020 0.19114006
v 4.41948776 -0.17471019 0.19091440
v 4.41945379 -0.17471019 0.19065738
v 4.42136858 -0.17471019 0.19203926
v 4.42180187 -0.17471019 0.19183195
v 4.41951143 -0.17471020 0.19018007
v 4.41946529 -0.17471019 0.19039822
v 4.42162163 -0.17471020 0.19194008
v 4.41967793 -0.17471020 0.18980003
v 4.42199064 -0.17471019 0.19167579
v 4.42215163 -0.17471020 0.19150007
v 4.41956506 -0.17471019 0.19002450
v 4.42226984 -0.17471019 0.19131327
v 4.42237700 -0.17471019 0.19107831
v 4.41994383 -0.17471020 0.18948007
v 4.41981088 -0.17471019 0.18961847
v 4.42074497 -0.17471019 0.18910754
v 4.42244101 -0.17471019 0.19079781
v 4.42095453 -0.17471020 0.18909002
v 4.42237711 -0.17471019 0.19011152
v 4.42226774 -0.17471019 0.18987274
v 4.42210931 -0.17471019 0.18963182
v 4.42137034 -0.17471019 0.18915129
v 4.42116474 -0.17471019 0.18910778
v 4.42176787 -0.17471019 0.18933595
v 4.42162213 -0.17471020 0.18925012
v 4.42196383 -0.17471020 0.18948007
v 4.42028603 -0.17471020 0.18925012
v 4.42014474 -0.17471019 0.18933297
v 4.42370383 -0.18431019 0.19059003
v 4.42367966 -0.18431065 0.19021464
v 4.42244281 -0.18306013 0.19040597
v 4.42239200 -0.18306040 0.19016195
v 4.42326412 -0.18431005 0.18909502
v 4.42294933 -0.18430995 0.18870282
v 4.42214729 -0.18306040 0.18968272
v 4.42343173 -0.18431019 0.18940008
v 4.42227636 -0.18306040 0.18987835
v 4.42194168 -0.18306034 0.18946255
v 4.42262278 -0.18430997 0.18840158
v 4.42188007 -0.18431143 0.18800676
v 4.42148078 -0.18431037 0.18789006
v 4.42126400 -0.18305994 0.18912268
v 4.42154373 -0.18306020 0.18921006
v 4.42064447 -0.18306035 0.18912304
v 4.42095414 -0.18306017 0.18909753
v 4.42095379 -0.18431033 0.18784536
v 4.42058513 -0.18431019 0.18787003
v 4.42029481 -0.18431069 0.18792046
v 4.41987313 -0.18431019 0.18806005
v 4.42018322 -0.18306027 0.18930281
v 4.42036433 -0.18306020 0.18921006
v 4.41957356 -0.18430980 0.18821157
v 4.41996435 -0.18306018 0.18946386
v 4.41963259 -0.18306036 0.18987585
v 4.41976051 -0.18305988 0.18968201
v 4.41862690 -0.18431047 0.18912256
v 4.41890976 -0.18431130 0.18874968
v 4.41842719 -0.18431065 0.18950391
v 4.41951479 -0.18306008 0.19016290
v 4.41830253 -0.18431019 0.18986011
v 4.41946441 -0.18306000 0.19040537
v 4.41822612 -0.18431013 0.19021929
v 4.41945385 -0.18306021 0.19059003
v 4.41820372 -0.18431008 0.19059003
v 4.41923903 -0.18431019 0.18844009
v 4.42172533 -0.18306036 0.18930352
v 4.42225733 -0.18431019 0.18817008
v 4.42357547 -0.18431062 0.18975711
v 4.42245383 -0.18306020 0.19059003
v 4.42241832 -0.18306024 0.19092298
v 4.42357717 -0.18431057 0.19142914
v 4.42368163 -0.18431030 0.19096947
v 4.42231906 -0.18306028 0.19121981
v 4.42285463 -0.18431019 0.19258011
v 4.42201747 -0.18306031 0.19165421
v 4.42254707 -0.18430992 0.19283772
v 4.42148352 -0.18306010 0.19199682
v 4.42221478 -0.18431153 0.19304216
v 4.42180426 -0.18306023 0.19183767
v 4.42053866 -0.18431143 0.19331313
v 4.42065410 -0.18306078 0.19206799
v 4.42010353 -0.18431019 0.19321001
v 4.42095351 -0.18306025 0.19209254
v 4.42042246 -0.18306024 0.19199610
v 4.42010197 -0.18306070 0.19183636
v 4.41979577 -0.18431039 0.19308651
v 4.41878332 -0.18431063 0.19228578
v 4.41911553 -0.18430996 0.19264079
v 4.41988837 -0.18306008 0.19165266
v 4.41974003 -0.18306020 0.19148005
v 4.41850831 -0.18431041 0.19185746
v 4.41958758 -0.18306038 0.19121767
v 4.41837913 -0.18431019 0.19156004
v 4.41948970 -0.18306028 0.19092262
v 4.41826930 -0.18431031 0.19119454
v 4.41945084 -0.18306158 0.19059015
v 4.41821523 -0.18431019 0.19084001
v 4.41820368 -0.18431004 0.19059003
v 4.41943853 -0.18431019 0.19289005
v 4.42095387 -0.18431044 0.19334484
v 4.42132253 -0.18431019 0.19332004
v 4.42125326 -0.18306028 0.19206834
v 4.42176013 -0.18431140 0.19322348
v 4.42312458 -0.18430999 0.19228590
v 4.42216743 -0.18306020 0.19148004
v 4.42339668 -0.18431089 0.19186127
v 4.42245757 -0.18306090 0.19059026
v 4.42370383 -0.18431019 0.19059003
v 4.41835963 -0.18431018 0.18965984
v 4.41817859 -0.18471018 0.19058872
v 4.41818487 -0.18431019 0.19058908
v 4.41877300 -0.18431024 0.18889583
v 4.41847627 -0.18471021 0.18935228
v 4.41938979 -0.18431025 0.18832255
v 4.42031755 -0.18431030 0.18789590
v 4.41991642 -0.18471019 0.18803800
v 4.42156649 -0.18431031 0.18789149
v 4.42095410 -0.18471006 0.18782342
v 4.42197852 -0.18471011 0.18803394
v 4.42248860 -0.18431029 0.18830133
v 4.42314783 -0.18431022 0.18891692
v 4.42264732 -0.18471024 0.18841791
v 4.42321986 -0.18471021 0.18901336
v 4.42354599 -0.18431018 0.18965483
v 4.42363678 -0.18471019 0.18992996
v 4.42372241 -0.18431019 0.19058907
v 4.42370383 -0.18471019 0.19059003
v 4.41917411 -0.18471016 0.18847955
v 4.41820383 -0.18471019 0.19059003
v 4.41827128 -0.18471016 0.19126082
v 4.41819808 -0.18431020 0.19059027
v 4.42111274 -0.18431025 0.19334615
v 4.42034493 -0.18431013 0.19328213
v 4.42055627 -0.18471018 0.19332910
v 4.42137360 -0.18471021 0.19331647
v 4.42197599 -0.18431016 0.19316173
v 4.42289136 -0.18431006 0.19257498
v 4.42274092 -0.18471015 0.19270480
v 4.42342802 -0.18471022 0.19184518
v 4.42350964 -0.18431019 0.19164729
v 4.42373017 -0.18471018 0.19059134
v 4.42372370 -0.18431019 0.19059098
v 4.42196135 -0.18471017 0.19316352
v 4.41976907 -0.18471016 0.19308019
v 4.41959505 -0.18431025 0.19298947
v 4.41909353 -0.18471016 0.19263375
v 4.41893096 -0.18431019 0.19247592
v 4.41862171 -0.18471020 0.19206358
v 4.41835009 -0.18431016 0.19154549
v 4.42298623 -0.18471019 0.19245005
v 4.42280683 -0.18471019 0.19263005
v 4.42225283 -0.18471019 0.19134009
v 4.41987483 -0.18471019 0.19059003
v 4.41820383 -0.18471019 0.19059003
v 4.41821523 -0.18471019 0.19034005
v 4.42145883 -0.18471019 0.19330001
v 4.42095383 -0.18471019 0.19209004
v 4.42170603 -0.18471019 0.19324005
v 4.42254625 -0.18471019 0.19283891
v 4.42217983 -0.18471019 0.19306004
v 4.42149333 -0.18471019 0.19153011
v 4.42120733 -0.18471019 0.19333006
v 4.42095333 -0.18471019 0.19334007
v 4.42329223 -0.18471019 0.19204009
v 4.42314863 -0.18471019 0.19225002
v 4.42069963 -0.18471019 0.19333006
v 4.42044803 -0.18471019 0.19330001
v 4.42341563 -0.18471019 0.19182003
v 4.42351823 -0.18471019 0.19159007
v 4.42020053 -0.18471019 0.19324005
v 4.42359913 -0.18471019 0.19135010
v 4.42369243 -0.18471019 0.19085002
v 4.42365733 -0.18471019 0.19110000
v 4.41995983 -0.18471019 0.19316006
v 4.41956982 -0.18471019 0.19296945
v 4.42351813 -0.18471019 0.18960011
v 4.42225283 -0.18471019 0.18984008
v 4.42341583 -0.18471019 0.18937004
v 4.42041433 -0.18471019 0.19153011
v 4.41929603 -0.18471019 0.19279004
v 4.42280683 -0.18471019 0.18856001
v 4.42298673 -0.18471019 0.18874002
v 4.41875873 -0.18471019 0.19225002
v 4.41861543 -0.18471019 0.19204009
v 4.41965483 -0.18471019 0.19134009
v 4.41830913 -0.18471019 0.19135011
v 4.41825103 -0.18471019 0.19110001
v 4.42095383 -0.18471019 0.18909002
v 4.42217993 -0.18471019 0.18813002
v 4.42149333 -0.18471019 0.18966008
v 4.42254673 -0.18471019 0.18835139
v 4.41965483 -0.18471019 0.18984008
v 4.41838943 -0.18471019 0.18960012
v 4.41849203 -0.18471019 0.18937004
v 4.42194783 -0.18471019 0.18803001
v 4.42170713 -0.18471019 0.18795002
v 4.42041433 -0.18471019 0.18966008
v 4.41936008 -0.18471019 0.18835211
v 4.41972783 -0.18471019 0.18813003
v 4.42141770 -0.18471019 0.18788159
v 4.42095433 -0.18471019 0.18784011
v 4.42049081 -0.18471019 0.18788159
v 4.41996043 -0.18471019 0.18803001
v 4.42020163 -0.18471019 0.18795002
v 4.41861543 -0.18471019 0.18915010
v 4.41875903 -0.18471019 0.18894005
v 4.41910083 -0.18471019 0.18856001
v 4.41892143 -0.18471019 0.18874002
v 4.41825033 -0.18471019 0.19009007
v 4.41830843 -0.18471019 0.18984008
v 4.41821593 -0.18471019 0.19085003
v 4.41849183 -0.18471019 0.19182003
v 4.41838943 -0.18471019 0.19159008
v 4.42314893 -0.18471019 0.18894005
v 4.41892093 -0.18471019 0.19245005
v 4.42329223 -0.18471019 0.18915010
v 4.42359853 -0.18471019 0.18984008
v 4.42365663 -0.18471019 0.19009006
v 4.42369173 -0.18471019 0.19034004
v 4.42370383 -0.18471019 0.19059003
v 4.42203283 -0.18471019 0.19059003
v 4.41910073 -0.18471019 0.19263006
v 4.42194723 -0.18471019 0.19316006
v 4.42149333 -0.18388019 0.18966008
v 4.42095383 -0.18388019 0.18909002
v 4.42095383 -0.18471019 0.18909002
v 4.42149333 -0.18471019 0.18966008
v 4.42225283 -0.18388019 0.18984008
v 4.42149333 -0.18388019 0.18966008
v 4.42149333 -0.18471019 0.18966008
v 4.42225283 -0.18471019 0.18984008
v 4.42203283 -0.18388019 0.19059003
v 4.42225283 -0.18388019 0.18984008
v 4.42225283 -0.18471019 0.18984008
v 4.42203283 -0.18471019 0.19059003
v 4.42225283 -0.18388019 0.19134009
v 4.42203283 -0.18388019 0.19059003
v 4.42203283 -0.18471019 0.19059003
v 4.42225283 -0.18471019 0.19134009
v 4.42149333 -0.18388019 0.19153011
v 4.42225283 -0.18388019 0.19134009
v 4.42225283 -0.18471019 0.19134009
v 4.42149333 -0.18471019 0.19153011
v 4.42095383 -0.18388019 0.19209004
v 4.42149333 -0.18388019 0.19153011
v 4.42149333 -0.18471019 0.19153011
v 4.42095383 -0.18471019 0.19209004
v 4.42041433 -0.18471019 0.19153011
v 4.42095383 -0.18388019 0.19209004
v 4.42095383 -0.18471019 0.19209004
v 4.42041433 -0.18388019 0.19153011
v 4.41965483 -0.18471019 0.19134009
v 4.42041433 -0.18388019 0.19153011
v 4.42041433 -0.18471019 0.19153011
v 4.41965483 -0.18388019 0.19134009
v 4.41987483 -0.18388019 0.19059003
v 4.41965483 -0.18471019 0.19134009
v 4.41987483 -0.18471019 0.19059003
v 4.41965483 -0.18388019 0.19134009
v 4.41965483 -0.18471019 0.18984008
v 4.41987483 -0.18388019 0.19059003
v 4.41987483 -0.18471019 0.19059003
v 4.41965483 -0.18388019 0.18984008
v 4.42041433 -0.18388019 0.18966008
v 4.41965483 -0.18471019 0.18984008
v 4.42041433 -0.18471019 0.18966008
v 4.41965483 -0.18388019 0.18984008
v 4.42095383 -0.18388019 0.18909002
v 4.42041433 -0.18471019 0.18966008
v 4.42095383 -0.18471019 0.18909002
v 4.42041433 -0.18388019 0.18966008
v 4.42041433 -0.18388019 0.19153011
v 4.42041433 -0.18388019 0.18966008
v 4.42149333 -0.18388019 0.18966008
v 4.42225283 -0.18388019 0.19134009
v 4.42149333 -0.18388019 0.19153011
v 4.42203283 -0.18388019 0.19059003
v 4.42095383 -0.18388019 0.19209004
v 4.41987483 -0.18388019 0.19059003
v 4.41965483 -0.18388019 0.19134009
v 4.41965483 -0.18388019 0.18984008
v 4.42095383 -0.18388019 0.18909002
v 4.42225283 -0.18388019 0.18984008
v 4.45500681 -0.17020919 0.22186911
v 4.45455610 -0.17455919 0.22159899
v 4.45453162 -0.17020919 0.22158933
v 4.45505213 -0.17455919 0.22190917
v 4.45537795 -0.17020919 0.22238255
v 4.45541139 -0.17455919 0.22246338
v 4.45551241 -0.17020919 0.22299934
v 4.45550604 -0.17455919 0.22299958
v 4.45401633 -0.17020919 0.22148645
v 4.45406092 -0.17455919 0.22149111
v 4.45354857 -0.17455919 0.22156108
v 4.45349767 -0.17020919 0.22158086
v 4.45304767 -0.17455919 0.22183145
v 4.45298155 -0.17020919 0.22188556
v 4.45258814 -0.17020919 0.22245991
v 4.45263217 -0.17455919 0.22235537
v 4.45248903 -0.17455919 0.22299934
v 4.45249452 -0.17020919 0.22299969
v 4.45334352 -0.17537919 0.22214008
v 4.45358645 -0.17537919 0.22399999
v 4.45293005 -0.17537919 0.22314001
v 4.45519046 -0.17537919 0.22209001
v 4.45506981 -0.17537919 0.22286011
v 4.45441341 -0.17537919 0.22200001
v 4.45465633 -0.17537919 0.22386003
v 4.45419490 -0.17537919 0.22449006
v 4.45280940 -0.17537919 0.22391010
v 4.45261443 -0.17537919 0.22243012
v 4.45380496 -0.17537919 0.22151006
v 4.45538543 -0.17537919 0.22357012
v 4.45519046 -0.17537919 0.22209001
v 4.45441341 -0.17537919 0.22200001
v 4.45441341 -0.17620919 0.22200000
v 4.45519046 -0.17620919 0.22209001
v 4.45441341 -0.17537919 0.22200001
v 4.45380496 -0.17537919 0.22151006
v 4.45380496 -0.17620919 0.22151005
v 4.45441341 -0.17620919 0.22200000
v 4.45380496 -0.17537919 0.22151006
v 4.45334352 -0.17620919 0.22214008
v 4.45380496 -0.17620919 0.22151005
v 4.45334352 -0.17537919 0.22214008
v 4.45334352 -0.17537919 0.22214008
v 4.45261443 -0.17620919 0.22243011
v 4.45334352 -0.17620919 0.22214008
v 4.45261443 -0.17537919 0.22243012
v 4.45261443 -0.17620919 0.22243011
v 4.45293005 -0.17537919 0.22314001
v 4.45293005 -0.17620919 0.22314000
v 4.45261443 -0.17537919 0.22243012
v 4.45293005 -0.17537919 0.22314001
v 4.45280940 -0.17620919 0.22391009
v 4.45293005 -0.17620919 0.22314000
v 4.45280940 -0.17537919 0.22391010
v 4.45280940 -0.17620919 0.22391009
v 4.45358645 -0.17537919 0.22399999
v 4.45358645 -0.17620919 0.22399998
v 4.45280940 -0.17537919 0.22391010
v 4.45358645 -0.17620919 0.22399998
v 4.45419490 -0.17537919 0.22449006
v 4.45419490 -0.17620919 0.22449005
v 4.45358645 -0.17537919 0.22399999
v 4.45419490 -0.17537919 0.22449006
v 4.45465633 -0.17537919 0.22386003
v 4.45465633 -0.17620919 0.22386003
v 4.45419490 -0.17620919 0.22449005
v 4.45465633 -0.17537919 0.22386003
v 4.45538543 -0.17537919 0.22357012
v 4.45538543 -0.17620919 0.22357011
v 4.45465633 -0.17620919 0.22386003
v 4.45538543 -0.17537919 0.22357012
v 4.45506981 -0.17537919 0.22286011
v 4.45506981 -0.17620919 0.22286010
v 4.45538543 -0.17620919 0.22357011
v 4.45506981 -0.17537919 0.22286011
v 4.45519046 -0.17537919 0.22209001
v 4.45519046 -0.17620919 0.22209001
v 4.45506981 -0.17620919 0.22286010
v 4.45380496 -0.17620919 0.22151005
v 4.45397937 -0.17620919 0.22025001
v 4.45423326 -0.17620919 0.22026003
v 4.45477135 -0.17620919 0.22564006
v 4.45452612 -0.17620919 0.22570002
v 4.45419490 -0.17620919 0.22449005
v 4.45501052 -0.17620919 0.22556007
v 4.45541473 -0.17620918 0.22536064
v 4.45358645 -0.17620919 0.22399998
v 4.45302290 -0.17620919 0.22557008
v 4.45279123 -0.17620919 0.22547007
v 4.45506981 -0.17620919 0.22286010
v 4.45673630 -0.17620919 0.22273004
v 4.45674981 -0.17620919 0.22298002
v 4.45655664 -0.17620919 0.22199011
v 4.45519046 -0.17620919 0.22209001
v 4.45645278 -0.17620919 0.22176004
v 4.45669914 -0.17620919 0.22247005
v 4.45663934 -0.17620919 0.22223008
v 4.45583777 -0.17620919 0.22095001
v 4.45607685 -0.17620918 0.22119380
v 4.45198258 -0.17620919 0.22487009
v 4.45280940 -0.17620919 0.22391009
v 4.45216420 -0.17620919 0.22505009
v 4.45144220 -0.17620919 0.22401011
v 4.45136039 -0.17620919 0.22377002
v 4.45154619 -0.17620919 0.22424007
v 4.45130077 -0.17620919 0.22353006
v 4.45126386 -0.17620919 0.22328007
v 4.45293005 -0.17620919 0.22314000
v 4.45261443 -0.17620919 0.22243011
v 4.45129327 -0.17620919 0.22251010
v 4.45135021 -0.17620919 0.22226012
v 4.45125982 -0.17620919 0.22277010
v 4.45298730 -0.17620919 0.22044003
v 4.45322796 -0.17620919 0.22036004
v 4.45372644 -0.17620919 0.22026003
v 4.45347440 -0.17620919 0.22030008
v 4.45165110 -0.17620919 0.22157002
v 4.45152989 -0.17620919 0.22179008
v 4.45213090 -0.17620919 0.22098005
v 4.45195257 -0.17620919 0.22116006
v 4.45179229 -0.17620919 0.22136009
v 4.45334352 -0.17620919 0.22214008
v 4.45232704 -0.17620919 0.22082007
v 4.45142911 -0.17620919 0.22202003
v 4.45258521 -0.17620918 0.22063852
v 4.45448519 -0.17620919 0.22029007
v 4.45473322 -0.17620919 0.22035003
v 4.45125015 -0.17620919 0.22302008
v 4.45441341 -0.17620919 0.22200000
v 4.45497431 -0.17620919 0.22043002
v 4.45520720 -0.17620919 0.22053003
v 4.45564095 -0.17620919 0.22079003
v 4.45543055 -0.17620919 0.22065008
v 4.45167113 -0.17620919 0.22446001
v 4.45181820 -0.17620919 0.22467005
v 4.45632710 -0.17620919 0.22153008
v 4.45236022 -0.17620919 0.22521007
v 4.45326486 -0.17620919 0.22565007
v 4.45351272 -0.17620919 0.22571004
v 4.45538543 -0.17620919 0.22357011
v 4.45376785 -0.17620919 0.22574008
v 4.45427600 -0.17620919 0.22574008
v 4.45402240 -0.17620919 0.22575009
v 4.45673997 -0.17620919 0.22323001
v 4.45670666 -0.17620919 0.22349000
v 4.45665036 -0.17620919 0.22373009
v 4.45647069 -0.17620919 0.22421003
v 4.45657148 -0.17620919 0.22397006
v 4.45634842 -0.17620919 0.22443009
v 4.45620662 -0.17620919 0.22464001
v 4.45586776 -0.17620919 0.22502005
v 4.45604559 -0.17620919 0.22484005
v 4.45465633 -0.17620919 0.22386003
v 4.45567282 -0.17620919 0.22518003
v 4.45256966 -0.17620919 0.22535002
v 4.45125698 -0.17620917 0.22263575
v 4.45129816 -0.17620919 0.22355330
v 4.45127254 -0.17580919 0.22336985
v 4.45183897 -0.17620920 0.22471059
v 4.45187899 -0.17580918 0.22477269
v 4.45149670 -0.17620919 0.22414410
v 4.45247934 -0.17620918 0.22531010
v 4.45350017 -0.17620920 0.22572578
v 4.45263024 -0.17580919 0.22540105
v 4.45409871 -0.17580919 0.22575725
v 4.45342247 -0.17580919 0.22569478
v 4.45445494 -0.17620918 0.22572196
v 4.45490356 -0.17580919 0.22561098
v 4.45520155 -0.17620919 0.22548092
v 4.45568041 -0.17580917 0.22519064
v 4.45567282 -0.17620919 0.22518003
v 4.45142413 -0.17580921 0.22398258
v 4.45126114 -0.17580921 0.22264446
v 4.45163507 -0.17620919 0.22155845
v 4.45146910 -0.17580921 0.22191060
v 4.45187900 -0.17580919 0.22122944
v 4.45232015 -0.17620920 0.22081173
v 4.45232704 -0.17580919 0.22082008
v 4.45282240 -0.17580926 0.22049773
v 4.45231209 -0.17620906 0.22079814
v 4.45232704 -0.17580919 0.22082008
v 4.45471463 -0.17620918 0.22033609
v 4.45394052 -0.17620920 0.22024203
v 4.45461680 -0.17580918 0.22030986
v 4.45641567 -0.17580922 0.22163785
v 4.45674714 -0.17580918 0.22269297
v 4.45673318 -0.17620917 0.22258568
v 4.45665010 -0.17580920 0.22381377
v 4.45670242 -0.17620914 0.22357690
v 4.45637500 -0.17620917 0.22440089
v 4.45618491 -0.17580920 0.22468484
v 4.45569081 -0.17620904 0.22520101
v 4.45567516 -0.17580923 0.22518278
v 4.45644027 -0.17620923 0.22171403
v 4.45592699 -0.17620916 0.22101545
v 4.45556053 -0.17580921 0.22070468
v 4.45533373 -0.17620919 0.22059155
v 4.45377263 -0.17580916 0.22024692
v 4.45321091 -0.17620920 0.22035623
v 4.45541615 -0.17580881 0.22536171
v 4.45491242 -0.17455919 0.22419012
v 4.45480293 -0.17455919 0.22427011
v 4.45457863 -0.17455919 0.22438050
v 4.45501184 -0.17580919 0.22556008
v 4.45465450 -0.17580944 0.22567368
v 4.45430273 -0.17455994 0.22447503
v 4.45427387 -0.17580919 0.22574008
v 4.45391016 -0.17455991 0.22450137
v 4.45351464 -0.17580919 0.22571004
v 4.45389403 -0.17580865 0.22575069
v 4.45267590 -0.17580941 0.22541332
v 4.45314248 -0.17580943 0.22561408
v 4.45337991 -0.17455919 0.22437001
v 4.45267707 -0.17455919 0.22371007
v 4.45173706 -0.17580974 0.22456194
v 4.45280266 -0.17455928 0.22390259
v 4.45198137 -0.17580919 0.22487009
v 4.45127560 -0.17580919 0.22339309
v 4.45136009 -0.17580919 0.22377003
v 4.45258997 -0.17455899 0.22351432
v 4.45253067 -0.17455919 0.22330011
v 4.45250047 -0.17455936 0.22307575
v 4.45146821 -0.17580941 0.22191489
v 4.45131033 -0.17580977 0.22241641
v 4.45257549 -0.17455938 0.22252059
v 4.45251068 -0.17455914 0.22280777
v 4.45268294 -0.17455912 0.22228361
v 4.45171392 -0.17580969 0.22146905
v 4.45279803 -0.17455919 0.22210003
v 4.45295554 -0.17455930 0.22192503
v 4.45203785 -0.17581025 0.22106768
v 4.45308744 -0.17455919 0.22181011
v 4.45232704 -0.17580919 0.22082008
v 4.45124907 -0.17580938 0.22290254
v 4.45317991 -0.17455933 0.22426009
v 4.45297910 -0.17455936 0.22409976
v 4.45225296 -0.17580944 0.22513127
v 4.45148873 -0.17580947 0.22412479
v 4.45358508 -0.17455922 0.22444046
v 4.45567282 -0.17580919 0.22518004
v 4.45567282 -0.17580919 0.22518004
v 4.45597650 -0.17580961 0.22491492
v 4.45504675 -0.17455888 0.22407378
v 4.45531777 -0.17455927 0.22371496
v 4.45520178 -0.17455919 0.22390009
v 4.45628249 -0.17580857 0.22454333
v 4.45545845 -0.17455933 0.22264243
v 4.45655202 -0.17580917 0.22196365
v 4.45538901 -0.17455919 0.22243012
v 4.45635156 -0.17580938 0.22156847
v 4.45516868 -0.17455919 0.22206009
v 4.45530598 -0.17455924 0.22225929
v 4.45485094 -0.17455919 0.22176004
v 4.45502334 -0.17455939 0.22189951
v 4.45582866 -0.17580943 0.22094203
v 4.45610510 -0.17580919 0.22123004
v 4.45555790 -0.17580919 0.22073008
v 4.45524227 -0.17581027 0.22054207
v 4.45455142 -0.17456007 0.22159708
v 4.45478486 -0.17580860 0.22036016
v 4.45417970 -0.17455921 0.22151018
v 4.45392842 -0.17580919 0.22025002
v 4.45392732 -0.17455926 0.22149694
v 4.45437990 -0.17580912 0.22027327
v 4.45355891 -0.17580945 0.22028554
v 4.45364152 -0.17455933 0.22153890
v 4.45308036 -0.17580951 0.22040594
v 4.45339361 -0.17455918 0.22162951
v 4.45269066 -0.17580920 0.22057676
v 4.45308549 -0.17455930 0.22180677
v 4.45232704 -0.17580919 0.22082008
v 4.45548837 -0.17455927 0.22319305
v 4.45675170 -0.17580933 0.22293317
v 4.45549964 -0.17455941 0.22292007
v 4.45669725 -0.17580932 0.22244943
v 4.45673362 -0.17580919 0.22330011
v 4.45667239 -0.17580904 0.22365666
v 4.45542517 -0.17455945 0.22347748
v 4.45652346 -0.17580923 0.22410154
v 4.45491242 -0.17455919 0.22419012
v 4.45353735 -0.17020919 0.22443009
v 4.45381945 -0.17020919 0.22448993
v 4.45339230 -0.17020919 0.22437620
v 4.45283045 -0.17020919 0.22394002
v 4.45297550 -0.17020919 0.22410059
v 4.45314828 -0.17020919 0.22424007
v 4.45269356 -0.17020919 0.22374118
v 4.45261060 -0.17020919 0.22357011
v 4.45253968 -0.17020919 0.22335196
v 4.45250001 -0.17020919 0.22306788
v 4.45407209 -0.17020919 0.22450328
v 4.45251113 -0.17020919 0.22280753
v 4.45435932 -0.17020919 0.22446108
v 4.45257524 -0.17020919 0.22252202
v 4.45460621 -0.17020919 0.22437048
v 4.45268135 -0.17020919 0.22228742
v 4.45486888 -0.17020919 0.22422350
v 4.45279860 -0.17020919 0.22210002
v 4.45295429 -0.17020919 0.22192562
v 4.45504609 -0.17020919 0.22407377
v 4.45520129 -0.17020919 0.22390008
v 4.45312921 -0.17020919 0.22177816
v 4.45531723 -0.17020919 0.22371495
v 4.45339579 -0.17020919 0.22162879
v 4.45392860 -0.17020919 0.22149694
v 4.45364246 -0.17020919 0.22153866
v 4.45548857 -0.17020919 0.22319305
v 4.45545864 -0.17020919 0.22264266
v 4.45464078 -0.17020919 0.22163880
v 4.45418081 -0.17020919 0.22151017
v 4.45507288 -0.17020919 0.22195006
v 4.45495540 -0.17020919 0.22184026
v 4.45520426 -0.17020919 0.22210455
v 4.45536185 -0.17020919 0.22236252
v 4.45446217 -0.17020919 0.22157002
v 4.45549980 -0.17020919 0.22292113
v 4.45542400 -0.17020919 0.22347915
v 4.45541152 -0.17020919 0.22354031
v 4.45536874 -0.17455919 0.22364272
v 4.45551042 -0.17455919 0.22300042
v 4.45502191 -0.17020919 0.22411001
v 4.45493653 -0.17455919 0.22418333
v 4.45393141 -0.17020919 0.22450733
v 4.45394482 -0.17455919 0.22450341
v 4.45442716 -0.17020919 0.22444976
v 4.45343604 -0.17455920 0.22440171
v 4.45342456 -0.17020919 0.22439516
v 4.45305127 -0.17455919 0.22416831
v 4.45266870 -0.17455919 0.22371806
v 4.45297057 -0.17020919 0.22410631
v 4.45259104 -0.17020919 0.22355771
v 4.45248371 -0.17455919 0.22300089
v 4.45249677 -0.17020919 0.22300005
v 4.45440347 -0.17455919 0.22445393
v 4.45550537 -0.17020919 0.22300017
v 4.45426218 -0.17456019 0.13214029
v 4.45364199 -0.17456019 0.13209999
v 4.45395532 -0.16621020 0.13207722
v 4.45453678 -0.16621020 0.13224972
v 4.45481282 -0.17456019 0.13241709
v 4.45493160 -0.16621020 0.13252700
v 4.45524311 -0.16621020 0.13298953
v 4.45522931 -0.17456019 0.13294316
v 4.45537602 -0.16621020 0.13358939
v 4.45537245 -0.17456019 0.13358963
v 4.45324607 -0.16621020 0.13221944
v 4.45304491 -0.17456019 0.13231791
v 4.45274769 -0.16621020 0.13256920
v 4.45251795 -0.17456019 0.13288785
v 4.45245643 -0.16621020 0.13306201
v 4.45235282 -0.17456019 0.13358963
v 4.45234951 -0.16621020 0.13358939
v 4.45439008 -0.17581039 0.13089014
v 4.45386270 -0.17581039 0.13084532
v 4.45386306 -0.17456022 0.13209761
v 4.45417261 -0.17455992 0.13212264
v 4.45445267 -0.17456019 0.13221002
v 4.45516629 -0.17581019 0.13117004
v 4.45478910 -0.17581143 0.13100672
v 4.45463509 -0.17456036 0.13230396
v 4.45553220 -0.17580997 0.13140190
v 4.45485164 -0.17456036 0.13246334
v 4.45585816 -0.17580995 0.13170267
v 4.45505690 -0.17456039 0.13268364
v 4.45617261 -0.17581007 0.13209427
v 4.45518522 -0.17456040 0.13287807
v 4.45648483 -0.17581062 0.13275851
v 4.45634070 -0.17581019 0.13240004
v 4.45530105 -0.17456042 0.13316227
v 4.45535154 -0.17456030 0.13340569
v 4.45658864 -0.17581065 0.13321496
v 4.45661278 -0.17581019 0.13359011
v 4.45536278 -0.17456019 0.13359011
v 4.45355373 -0.17456034 0.13212300
v 4.45333497 -0.17581020 0.13089026
v 4.45282490 -0.17580988 0.13104082
v 4.45327330 -0.17456019 0.13221002
v 4.45309143 -0.17456025 0.13230336
v 4.45248222 -0.17580979 0.13121165
v 4.45287291 -0.17456016 0.13246418
v 4.45214802 -0.17581019 0.13144005
v 4.45181878 -0.17581132 0.13174964
v 4.45266886 -0.17455988 0.13268293
v 4.45254149 -0.17456036 0.13287593
v 4.45153621 -0.17581047 0.13212205
v 4.45133692 -0.17581063 0.13250197
v 4.45242357 -0.17456009 0.13316334
v 4.45121153 -0.17581019 0.13286007
v 4.45237336 -0.17456016 0.13340665
v 4.45113534 -0.17581028 0.13321830
v 4.45236278 -0.17456019 0.13359011
v 4.45111278 -0.17581019 0.13359011
v 4.45332326 -0.17538020 0.13453007
v 4.45332326 -0.17538020 0.13266004
v 4.45440230 -0.17538020 0.13266004
v 4.45516182 -0.17538020 0.13434005
v 4.45440230 -0.17538020 0.13453007
v 4.45494182 -0.17538020 0.13359011
v 4.45386278 -0.17538020 0.13509012
v 4.45278374 -0.17538020 0.13359011
v 4.45256374 -0.17538020 0.13434005
v 4.45256374 -0.17538020 0.13284004
v 4.45386278 -0.17538020 0.13209010
v 4.45516182 -0.17538020 0.13284004
v 4.45386278 -0.17538020 0.13209010
v 4.45332326 -0.17621019 0.13266004
v 4.45386278 -0.17621019 0.13209010
v 4.45332326 -0.17538020 0.13266004
v 4.45332326 -0.17538020 0.13266004
v 4.45256374 -0.17621019 0.13284004
v 4.45332326 -0.17621019 0.13266004
v 4.45256374 -0.17538020 0.13284004
v 4.45256374 -0.17621019 0.13284004
v 4.45278374 -0.17538020 0.13359011
v 4.45278374 -0.17621019 0.13359011
v 4.45256374 -0.17538020 0.13284004
v 4.45278374 -0.17538020 0.13359011
v 4.45256374 -0.17621019 0.13434005
v 4.45278374 -0.17621019 0.13359011
v 4.45256374 -0.17538020 0.13434005
v 4.45256374 -0.17621019 0.13434005
v 4.45332326 -0.17538020 0.13453007
v 4.45332326 -0.17621019 0.13453007
v 4.45256374 -0.17538020 0.13434005
v 4.45332326 -0.17621019 0.13453007
v 4.45386278 -0.17538020 0.13509012
v 4.45386278 -0.17621019 0.13509012
v 4.45332326 -0.17538020 0.13453007
v 4.45386278 -0.17538020 0.13509012
v 4.45440230 -0.17538020 0.13453007
v 4.45440230 -0.17621019 0.13453007
v 4.45386278 -0.17621019 0.13509012
v 4.45440230 -0.17538020 0.13453007
v 4.45516182 -0.17538020 0.13434005
v 4.45516182 -0.17621019 0.13434005
v 4.45440230 -0.17621019 0.13453007
v 4.45516182 -0.17538020 0.13434005
v 4.45494182 -0.17538020 0.13359011
v 4.45494182 -0.17621019 0.13359011
v 4.45516182 -0.17621019 0.13434005
v 4.45494182 -0.17538020 0.13359011
v 4.45516182 -0.17538020 0.13284004
v 4.45516182 -0.17621019 0.13284004
v 4.45494182 -0.17621019 0.13359011
v 4.45516182 -0.17538020 0.13284004
v 4.45440230 -0.17538020 0.13266004
v 4.45440230 -0.17621019 0.13266004
v 4.45516182 -0.17621019 0.13284004
v 4.45440230 -0.17538020 0.13266004
v 4.45386278 -0.17538020 0.13209010
v 4.45386278 -0.17621019 0.13209010
v 4.45440230 -0.17621019 0.13266004
v 4.45601859 -0.17621019 0.13530398
v 4.45571452 -0.17621019 0.13563002
v 4.45516182 -0.17621019 0.13434005
v 4.45278374 -0.17621019 0.13359011
v 4.45111278 -0.17621019 0.13359011
v 4.45112467 -0.17621019 0.13334013
v 4.45437111 -0.17621019 0.13630009
v 4.45386278 -0.17621019 0.13509012
v 4.45461748 -0.17621019 0.13624001
v 4.45545961 -0.17621019 0.13583470
v 4.45508804 -0.17621019 0.13606013
v 4.45440230 -0.17621019 0.13453007
v 4.45411886 -0.17621019 0.13633002
v 4.45386407 -0.17621019 0.13634003
v 4.45620228 -0.17621019 0.13504005
v 4.45360700 -0.17621019 0.13633002
v 4.45335571 -0.17621019 0.13630009
v 4.45632516 -0.17621019 0.13482011
v 4.45642706 -0.17621019 0.13459004
v 4.45310872 -0.17621019 0.13624001
v 4.45650752 -0.17621019 0.13435007
v 4.45660064 -0.17621019 0.13385010
v 4.45656556 -0.17621019 0.13410009
v 4.45286949 -0.17621019 0.13616002
v 4.45227348 -0.17621019 0.13583911
v 4.45332326 -0.17621019 0.13453007
v 4.45263842 -0.17621019 0.13606013
v 4.45642689 -0.17621019 0.13260008
v 4.45516182 -0.17621019 0.13284004
v 4.45632400 -0.17621019 0.13237012
v 4.45571480 -0.17621019 0.13156009
v 4.45589450 -0.17621019 0.13174010
v 4.45166674 -0.17621019 0.13525010
v 4.45152373 -0.17621019 0.13504005
v 4.45256374 -0.17621019 0.13434005
v 4.45121843 -0.17621019 0.13435007
v 4.45116019 -0.17621019 0.13410009
v 4.45386278 -0.17621019 0.13209010
v 4.45508767 -0.17621019 0.13113011
v 4.45440230 -0.17621019 0.13266004
v 4.45544955 -0.17621019 0.13134778
v 4.45256374 -0.17621019 0.13284004
v 4.45129830 -0.17621019 0.13260008
v 4.45140076 -0.17621019 0.13237012
v 4.45485570 -0.17621019 0.13103009
v 4.45461438 -0.17621019 0.13095010
v 4.45332326 -0.17621019 0.13266004
v 4.45227171 -0.17621019 0.13135029
v 4.45263618 -0.17621019 0.13113011
v 4.45432803 -0.17621019 0.13088191
v 4.45386278 -0.17621019 0.13084007
v 4.45339921 -0.17621019 0.13088156
v 4.45286909 -0.17621019 0.13103009
v 4.45310963 -0.17621019 0.13095010
v 4.45152458 -0.17621019 0.13215006
v 4.45166773 -0.17621019 0.13194001
v 4.45200967 -0.17621019 0.13156009
v 4.45182998 -0.17621019 0.13174010
v 4.45115959 -0.17621019 0.13309003
v 4.45121754 -0.17621019 0.13284004
v 4.45112492 -0.17621019 0.13385010
v 4.45140069 -0.17621019 0.13482011
v 4.45129882 -0.17621019 0.13459004
v 4.45605711 -0.17621019 0.13194001
v 4.45183085 -0.17621019 0.13545001
v 4.45620047 -0.17621019 0.13215006
v 4.45650762 -0.17621019 0.13284004
v 4.45656588 -0.17621019 0.13309003
v 4.45660089 -0.17621019 0.13334013
v 4.45661278 -0.17621019 0.13359011
v 4.45494182 -0.17621019 0.13359011
v 4.45201120 -0.17621019 0.13563002
v 4.45485692 -0.17621019 0.13616002
v 4.45108688 -0.17621017 0.13359142
v 4.45130707 -0.17581020 0.13464750
v 4.45109278 -0.17581016 0.13359106
v 4.45207628 -0.17621016 0.13570333
v 4.45283959 -0.17581015 0.13616133
v 4.45192457 -0.17581007 0.13557435
v 4.45285801 -0.17621017 0.13616455
v 4.45343983 -0.17621021 0.13631619
v 4.45561613 -0.17621019 0.13573111
v 4.45588502 -0.17581024 0.13547588
v 4.45520201 -0.17581019 0.13600100
v 4.45611890 -0.17621020 0.13517309
v 4.45646654 -0.17581018 0.13454509
v 4.45642495 -0.17621022 0.13461757
v 4.45663880 -0.17621022 0.13359142
v 4.45661856 -0.17581020 0.13359035
v 4.45487755 -0.17621024 0.13616205
v 4.45447223 -0.17581012 0.13628209
v 4.45417427 -0.17621024 0.13633419
v 4.45370218 -0.17581025 0.13634599
v 4.45139134 -0.17621019 0.13485134
v 4.45126888 -0.17581018 0.13265920
v 4.45108787 -0.17621018 0.13358880
v 4.45109380 -0.17581018 0.13358916
v 4.45168300 -0.17581024 0.13189448
v 4.45138464 -0.17621021 0.13235343
v 4.45229888 -0.17581024 0.13132251
v 4.45322631 -0.17581029 0.13089598
v 4.45282433 -0.17621018 0.13103843
v 4.45447564 -0.17581030 0.13089157
v 4.45386318 -0.17621006 0.13082338
v 4.45488747 -0.17621011 0.13103474
v 4.45539709 -0.17581028 0.13130105
v 4.45605738 -0.17581022 0.13191772
v 4.45555441 -0.17621024 0.13141728
v 4.45612774 -0.17621021 0.13201309
v 4.45645458 -0.17581017 0.13265372
v 4.45654614 -0.17621018 0.13293052
v 4.45663131 -0.17581019 0.13358916
v 4.45661278 -0.17621019 0.13359011
v 4.45208267 -0.17621017 0.13147987
v 4.45525023 -0.17456013 0.13416577
v 4.45512998 -0.17456002 0.13439537
v 4.45630748 -0.17581090 0.13485802
v 4.45643745 -0.17581019 0.13456012
v 4.45532706 -0.17456027 0.13392199
v 4.45468390 -0.17456016 0.13485385
v 4.45439272 -0.17456010 0.13499690
v 4.45501949 -0.17581077 0.13608671
v 4.45485142 -0.17456042 0.13472689
v 4.45537812 -0.17581019 0.13589001
v 4.45349408 -0.17581019 0.13632012
v 4.45386267 -0.17456022 0.13509262
v 4.45356388 -0.17456079 0.13506795
v 4.45301247 -0.17456093 0.13483692
v 4.45260276 -0.17581011 0.13604415
v 4.45333357 -0.17456039 0.13499666
v 4.45279863 -0.17456007 0.13465393
v 4.45169311 -0.17581063 0.13528622
v 4.45196199 -0.17581019 0.13558007
v 4.45141964 -0.17581045 0.13486183
v 4.45264917 -0.17456019 0.13448013
v 4.45249735 -0.17456041 0.13421906
v 4.45123904 -0.17581000 0.13442994
v 4.45239831 -0.17456028 0.13392282
v 4.45113528 -0.17581046 0.13397051
v 4.45111278 -0.17581019 0.13359011
v 4.45235915 -0.17456101 0.13359059
v 4.45227106 -0.17580989 0.13583875
v 4.45305571 -0.17580890 0.13622595
v 4.45386316 -0.17581040 0.13634480
v 4.45423261 -0.17581019 0.13632012
v 4.45416181 -0.17456027 0.13506854
v 4.45467147 -0.17581140 0.13622297
v 4.45570125 -0.17581059 0.13563967
v 4.45603285 -0.17581109 0.13528550
v 4.45499267 -0.17456019 0.13458002
v 4.45654725 -0.17581034 0.13419450
v 4.45660138 -0.17581019 0.13384009
v 4.45536735 -0.17455996 0.13359059
v 4.45661278 -0.17581019 0.13359011
v 4.45344726 -0.16621020 0.13503874
v 4.45368703 -0.16621020 0.13508797
v 4.45282341 -0.16621020 0.13467384
v 4.45536283 -0.16621020 0.13365722
v 4.45535124 -0.16621020 0.13339746
v 4.45316756 -0.16621020 0.13226128
v 4.45319408 -0.16621020 0.13494003
v 4.45301154 -0.16621020 0.13483084
v 4.45266563 -0.16621020 0.13450003
v 4.45254918 -0.16621020 0.13431716
v 4.45403092 -0.16621020 0.13508928
v 4.45246400 -0.16621020 0.13414002
v 4.45239631 -0.16621020 0.13391459
v 4.45236269 -0.16621020 0.13366020
v 4.45427878 -0.16621020 0.13503886
v 4.45471363 -0.16621020 0.13483119
v 4.45242041 -0.16621020 0.13318003
v 4.45237430 -0.16621020 0.13339782
v 4.45453157 -0.16621020 0.13494003
v 4.45258693 -0.16621020 0.13280011
v 4.45490373 -0.16621020 0.13467241
v 4.45506010 -0.16621020 0.13450003
v 4.45247401 -0.16621020 0.13302458
v 4.45517786 -0.16621020 0.13431466
v 4.45526152 -0.16621020 0.13414002
v 4.45286134 -0.16621020 0.13247204
v 4.45271908 -0.16621020 0.13261927
v 4.45532911 -0.16621020 0.13391352
v 4.45365282 -0.16621020 0.13210774
v 4.45345147 -0.16621020 0.13215006
v 4.45386348 -0.16621020 0.13209010
v 4.45528612 -0.16621020 0.13311172
v 4.45517773 -0.16621020 0.13287461
v 4.45501885 -0.16621020 0.13263238
v 4.45427443 -0.16621020 0.13215006
v 4.45407474 -0.16621020 0.13210798
v 4.45455730 -0.16621020 0.13226068
v 4.45486204 -0.16621020 0.13247002
v 4.45520703 -0.17456019 0.13427211
v 4.45499167 -0.16621020 0.13458670
v 4.45490245 -0.17456019 0.13468230
v 4.45368497 -0.17456019 0.13510156
v 4.45361538 -0.16621020 0.13508404
v 4.45311910 -0.16621020 0.13490594
v 4.45305775 -0.17456019 0.13486958
v 4.45273944 -0.16621020 0.13459158
v 4.45270085 -0.17456019 0.13455106
v 4.45245290 -0.16621020 0.13413847
v 4.45243784 -0.17456019 0.13409615
v 4.45235761 -0.16621020 0.13359034
v 4.45235934 -0.17456019 0.13359023
v 4.45414370 -0.16621020 0.13507605
v 4.45444790 -0.17456019 0.13498665
v 4.45460703 -0.16621020 0.13490570
v 4.45526916 -0.16621020 0.13414884
v 4.45538518 -0.17456019 0.13359130
v 4.45536781 -0.16621020 0.13359034
usemtl Base_fa3
f 1 2 3
f 4 1 3
f 4 5 1
f 4 6 5
f 7 5 6
f 8 7 6
f 7 8 9
f 8 10 9
f 11 3 2
f 11 2 12
f 12 13 11
f 12 14 13
f 15 13 14
f 14 16 17
f 17 15 14
f 18 19 20
f 21 22 23
f 24 25 26
f 27 26 25
f 28 26 27
f 28 27 29
f 28 29 30
f 31 25 24
f 32 31 24
f 32 33 31
f 33 32 21
f 34 33 21
f 23 34 21
f 35 23 22
f 35 20 23
f 20 35 18
f 36 37 38
f 39 40 41
f 42 38 43
f 44 38 45
f 36 38 42
f 38 37 45
f 46 47 45
f 37 46 45
f 46 48 47
f 49 48 46
f 46 50 49
f 51 52 53
f 54 53 50
f 55 56 57
f 58 51 56
f 59 60 61
f 57 59 62
f 63 41 40
f 41 64 39
f 65 66 67
f 65 40 66
f 68 69 70
f 68 71 72
f 73 71 68
f 67 68 70
f 68 72 69
f 70 65 67
f 65 63 40
f 41 74 64
f 60 64 75
f 64 74 75
f 61 60 75
f 59 61 62
f 56 55 58
f 62 55 57
f 51 58 52
f 51 53 54
f 53 49 50
f 76 77 78
f 79 80 81
f 82 83 84
f 85 86 87
f 84 83 88
f 89 88 90
f 83 90 88
f 89 90 91
f 89 91 92
f 91 93 92
f 94 95 92
f 92 93 94
f 96 95 97
f 94 97 95
f 96 98 99
f 98 96 97
f 100 101 99
f 99 98 100
f 102 101 100
f 101 102 103
f 102 104 103
f 105 82 84
f 105 84 85
f 105 85 87
f 87 86 106
f 86 107 106
f 77 107 78
f 107 77 106
f 108 109 76
f 76 78 108
f 80 109 81
f 108 81 109
f 80 79 110
f 111 79 112
f 79 111 110
f 112 113 114
f 114 111 112
f 113 115 114
f 115 113 116
f 117 118 119
f 120 121 119
f 121 120 122
f 123 124 125
f 126 127 128
f 129 130 131
f 132 130 129
f 133 134 135
f 136 137 138
f 136 138 139
f 140 141 139
f 136 139 141
f 142 140 143
f 140 142 141
f 140 144 143
f 144 145 143
f 145 146 147
f 146 145 144
f 137 134 138
f 134 137 148
f 134 148 135
f 133 135 131
f 131 130 133
f 149 132 129
f 149 150 151
f 132 149 151
f 150 152 151
f 126 151 152
f 127 126 152
f 127 125 128
f 123 153 124
f 128 125 124
f 124 153 154
f 155 122 153
f 122 154 153
f 155 121 122
f 120 119 118
f 156 157 158
f 156 159 160
f 161 162 163
f 164 165 162
f 166 165 164
f 166 164 167
f 167 168 169
f 170 168 171
f 170 171 172
f 172 171 173
f 174 172 173
f 169 168 170
f 167 169 166
f 162 165 163
f 175 161 163
f 159 161 175
f 159 175 160
f 160 157 156
f 176 177 178
f 179 180 181
f 179 182 183
f 181 182 179
f 184 183 185
f 186 184 185
f 187 184 186
f 188 189 187
f 187 186 188
f 185 183 190
f 183 182 190
f 191 181 180
f 192 191 180
f 192 193 191
f 192 194 193
f 195 193 194
f 196 195 194
f 196 177 195
f 177 196 178
f 197 198 199
f 200 201 202
f 203 204 205
f 206 207 208
f 199 198 206
f 209 204 203
f 204 209 210
f 199 206 208
f 199 211 212
f 204 213 214
f 199 215 211
f 215 199 216
f 204 210 213
f 217 204 214
f 218 216 199
f 199 219 220
f 204 217 221
f 204 221 222
f 223 224 225
f 226 222 227
f 224 228 229
f 230 231 232
f 232 233 234
f 235 236 237
f 236 238 237
f 239 240 241
f 242 235 243
f 244 245 246
f 247 235 248
f 249 248 235
f 235 250 251
f 239 252 253
f 245 239 254
f 244 246 235
f 244 239 245
f 251 249 235
f 241 252 239
f 255 239 253
f 235 247 243
f 239 256 257
f 257 240 239
f 200 258 201
f 236 235 242
f 238 224 237
f 232 258 200
f 228 224 238
f 232 234 258
f 259 260 232
f 260 233 232
f 261 224 229
f 262 230 232
f 225 224 263
f 223 264 224
f 224 265 266
f 264 265 224
f 226 204 222
f 266 267 268
f 268 219 199
f 259 232 231
f 261 263 224
f 219 268 267
f 255 254 239
f 246 250 235
f 200 202 239
f 202 256 239
f 226 227 232
f 227 269 232
f 262 232 269
f 208 207 204
f 207 270 204
f 205 204 270
f 199 212 197
f 218 199 220
f 266 268 224
f 271 272 273
f 271 273 274
f 275 276 277
f 275 277 278
f 279 280 281
f 279 281 282
f 283 284 285
f 283 285 286
f 287 288 289
f 287 289 290
f 291 292 293
f 291 293 294
f 295 296 297
f 296 295 298
f 299 300 301
f 300 299 302
f 303 304 305
f 304 303 306
f 307 308 309
f 308 307 310
f 311 312 313
f 312 311 314
f 315 316 317
f 316 315 318
f 319 320 321
f 322 323 324
f 319 323 325
f 326 320 319
f 327 326 319
f 321 323 319
f 326 328 320
f 321 320 329
f 321 324 323
f 330 324 321
f 331 332 333
f 334 331 333
f 334 335 331
f 334 336 335
f 337 335 336
f 338 337 336
f 337 338 339
f 338 340 339
f 341 333 332
f 341 332 342
f 342 343 341
f 342 344 343
f 345 343 344
f 344 346 347
f 347 345 344
f 348 349 350
f 351 352 353
f 354 355 356
f 357 356 355
f 358 356 357
f 358 357 359
f 358 359 360
f 361 355 354
f 362 361 354
f 362 363 361
f 363 362 351
f 364 363 351
f 353 364 351
f 365 353 352
f 365 350 353
f 350 365 348
f 366 367 368
f 369 370 371
f 372 368 373
f 374 368 375
f 366 368 372
f 368 367 375
f 376 377 375
f 367 376 375
f 376 378 377
f 379 378 376
f 376 380 379
f 381 382 383
f 384 383 380
f 385 386 387
f 388 381 386
f 389 390 391
f 387 389 392
f 393 371 370
f 371 394 369
f 395 396 397
f 395 370 396
f 398 399 400
f 398 401 402
f 403 401 398
f 397 398 400
f 398 402 399
f 400 395 397
f 395 393 370
f 371 404 394
f 390 394 405
f 394 404 405
f 391 390 405
f 389 391 392
f 386 385 388
f 392 385 387
f 381 388 382
f 381 383 384
f 383 379 380
f 406 407 408
f 409 408 407
f 410 411 412
f 413 410 414
f 415 411 416
f 417 418 419
f 417 419 420
f 421 422 423
f 422 418 423
f 424 425 421
f 426 427 428
f 429 430 427
f 431 432 433
f 434 433 432
f 431 435 436
f 435 431 433
f 437 438 436
f 436 435 437
f 439 438 437
f 440 438 439
f 441 440 439
f 430 434 432
f 442 430 429
f 434 430 442
f 429 427 426
f 421 425 428
f 428 425 426
f 423 424 421
f 419 418 422
f 443 444 420
f 420 444 417
f 416 444 443
f 415 416 443
f 411 415 412
f 410 412 414
f 414 409 445
f 445 413 414
f 445 409 407
f 408 446 406
f 447 448 449
f 450 448 447
f 451 452 453
f 454 455 456
f 457 458 459
f 460 458 457
f 461 462 463
f 464 465 466
f 464 467 468
f 467 464 466
f 467 469 468
f 469 470 468
f 469 471 472
f 473 474 471
f 472 471 474
f 474 473 475
f 472 470 469
f 462 466 465
f 462 465 476
f 462 476 463
f 461 463 459
f 459 458 461
f 477 460 457
f 477 478 479
f 460 477 479
f 478 480 479
f 454 479 480
f 455 454 480
f 455 453 456
f 451 481 452
f 456 453 452
f 452 481 482
f 483 450 481
f 450 482 481
f 483 448 450
f 447 449 484
f 484 449 485
f 486 487 488
f 486 489 490
f 491 492 493
f 494 495 492
f 496 495 494
f 496 494 497
f 497 498 499
f 500 498 501
f 500 501 502
f 502 501 503
f 504 502 503
f 499 498 500
f 497 499 496
f 492 495 493
f 505 491 493
f 489 491 505
f 489 505 490
f 490 487 486
f 506 507 508
f 509 510 511
f 509 512 513
f 511 512 509
f 514 513 515
f 516 514 515
f 517 514 516
f 518 519 517
f 517 516 518
f 515 513 520
f 513 512 520
f 521 511 510
f 522 521 510
f 522 523 521
f 522 524 523
f 525 523 524
f 526 525 524
f 526 507 525
f 507 526 508
f 527 528 529
f 530 531 532
f 533 534 535
f 536 537 538
f 529 528 536
f 539 534 533
f 534 539 540
f 529 536 538
f 529 541 542
f 534 543 544
f 529 545 541
f 545 529 546
f 534 540 543
f 547 534 544
f 548 546 529
f 529 549 550
f 534 547 551
f 534 551 552
f 553 554 555
f 556 552 557
f 554 558 559
f 560 561 562
f 562 563 564
f 565 566 567
f 566 568 567
f 569 570 571
f 572 565 573
f 574 575 576
f 577 565 578
f 579 578 565
f 565 580 581
f 569 582 583
f 575 569 584
f 574 576 565
f 574 569 575
f 581 579 565
f 571 582 569
f 585 569 583
f 565 577 573
f 569 586 587
f 587 570 569
f 530 588 531
f 566 565 572
f 568 554 567
f 562 588 530
f 558 554 568
f 562 564 588
f 589 590 562
f 590 563 562
f 591 554 559
f 592 560 562
f 555 554 593
f 553 594 554
f 554 595 596
f 594 595 554
f 556 534 552
f 596 597 598
f 598 549 529
f 589 562 561
f 591 593 554
f 549 598 597
f 585 584 569
f 576 580 565
f 530 532 569
f 532 586 569
f 556 557 562
f 557 599 562
f 592 562 599
f 538 537 534
f 537 600 534
f 535 534 600
f 529 542 527
f 548 529 550
f 596 598 554
f 601 602 603
f 601 603 604
f 605 606 607
f 605 607 608
f 609 610 611
f 609 611 612
f 613 614 615
f 613 615 616
f 617 618 619
f 617 619 620
f 621 622 623
f 621 623 624
f 625 626 627
f 626 625 628
f 629 630 631
f 630 629 632
f 633 634 635
f 634 633 636
f 637 638 639
f 638 637 640
f 641 642 643
f 642 641 644
f 645 646 647
f 646 645 648
f 649 650 651
f 652 653 654
f 649 653 655
f 656 650 649
f 657 656 649
f 651 653 649
f 656 658 650
f 651 650 659
f 651 654 653
f 660 654 651
f 661 662 663
f 664 662 661
f 664 661 665
f 664 665 666
f 667 666 665
f 668 666 667
f 669 663 670
f 662 670 663
f 670 671 669
f 671 672 669
f 672 673 674
f 673 672 671
f 675 674 676
f 675 677 678
f 675 676 677
f 676 674 673
f 679 680 681
f 682 683 684
f 685 686 680
f 681 680 687
f 679 681 688
f 680 679 684
f 689 684 679
f 685 680 684
f 690 685 683
f 684 683 685
f 691 692 693
f 691 693 694
f 695 696 697
f 695 697 698
f 699 700 701
f 700 699 702
f 703 704 705
f 704 703 706
f 707 708 709
f 708 707 710
f 711 712 713
f 712 711 714
f 715 716 717
f 716 715 718
f 719 720 721
f 720 719 722
f 723 724 725
f 723 725 726
f 727 728 729
f 727 729 730
f 731 732 733
f 731 733 734
f 735 736 737
f 735 737 738
f 739 740 741
f 742 743 744
f 745 744 746
f 747 748 749
f 750 751 752
f 753 754 755
f 756 754 757
f 758 759 754
f 760 761 762
f 761 763 764
f 761 765 763
f 766 767 768
f 768 761 766
f 769 770 771
f 770 769 772
f 773 774 739
f 775 739 776
f 777 769 778
f 779 769 780
f 777 781 769
f 769 779 782
f 779 783 782
f 771 784 769
f 781 780 769
f 782 783 785
f 785 773 739
f 740 739 775
f 776 739 774
f 786 787 739
f 778 769 784
f 768 767 788
f 787 789 739
f 790 789 787
f 791 754 789
f 789 790 791
f 792 754 793
f 764 766 761
f 794 765 761
f 754 792 758
f 795 794 761
f 761 760 795
f 796 754 759
f 762 761 797
f 796 755 754
f 747 749 761
f 753 757 754
f 798 748 747
f 744 799 798
f 750 756 751
f 752 800 750
f 801 799 744
f 802 803 744
f 800 752 804
f 800 805 806
f 804 805 800
f 743 802 744
f 807 800 808
f 808 800 806
f 800 809 810
f 809 800 807
f 811 800 812
f 812 800 810
f 813 746 744
f 811 814 813
f 747 744 798
f 750 754 756
f 741 786 739
f 739 782 785
f 791 793 754
f 768 788 769
f 788 772 769
f 749 815 761
f 797 761 815
f 746 813 814
f 744 803 801
f 742 744 745
f 813 800 811
f 816 817 818
f 819 820 821
f 820 819 822
f 823 824 822
f 823 825 826
f 823 827 825
f 827 828 825
f 827 829 828
f 829 830 828
f 829 831 830
f 824 823 826
f 824 820 822
f 821 820 832
f 817 821 832
f 818 817 832
f 818 833 816
f 834 816 835
f 816 833 835
f 835 836 834
f 834 836 837
f 838 837 836
f 839 840 841
f 842 843 844
f 845 846 847
f 846 848 849
f 848 850 849
f 851 850 848
f 851 852 850
f 853 852 851
f 847 846 849
f 845 847 854
f 854 855 845
f 845 855 856
f 856 855 857
f 842 856 857
f 842 844 856
f 844 843 858
f 859 858 843
f 859 839 858
f 859 840 839
f 860 861 862
f 863 864 860
f 865 866 867
f 866 865 863
f 868 869 870
f 871 872 873
f 874 875 876
f 875 877 876
f 878 879 880
f 881 882 878
f 883 884 885
f 886 885 884
f 883 887 888
f 887 883 885
f 889 888 887
f 889 890 891
f 891 888 889
f 892 893 890
f 891 890 893
f 886 884 894
f 882 886 894
f 894 878 882
f 895 896 897
f 881 878 880
f 898 875 874
f 898 880 879
f 898 874 880
f 876 877 896
f 897 896 877
f 897 871 895
f 895 871 873
f 868 870 867
f 872 899 873
f 872 869 899
f 868 899 869
f 867 866 868
f 864 863 865
f 863 860 862
f 861 860 900
f 901 902 903
f 904 905 906
f 903 902 906
f 907 908 909
f 910 911 912
f 910 912 908
f 913 914 915
f 914 916 915
f 917 918 913
f 919 920 921
f 918 920 919
f 922 923 924
f 921 924 923
f 922 925 923
f 925 926 923
f 927 926 925
f 928 926 927
f 928 927 929
f 928 929 930
f 929 931 930
f 920 924 921
f 913 915 917
f 913 918 919
f 932 933 934
f 914 911 916
f 916 911 910
f 908 912 909
f 908 907 935
f 907 934 935
f 934 933 935
f 933 932 936
f 937 932 938
f 932 937 936
f 904 939 938
f 939 937 938
f 904 906 939
f 905 903 906
f 901 903 940
f 941 942 943
f 944 945 946
f 947 944 946
f 948 947 943
f 947 946 943
f 948 943 949
f 943 942 949
f 950 949 942
f 950 942 951
f 950 951 952
f 951 953 952
f 954 952 953
f 955 954 953
f 956 954 955
f 956 955 957
f 956 957 958
f 959 958 960
f 957 960 958
f 960 961 959
f 962 961 963
f 961 962 959
f 964 962 963
f 965 966 967
f 968 969 970
f 971 972 973
f 972 969 973
f 969 974 973
f 970 969 975
f 969 968 974
f 976 968 970
f 976 970 965
f 967 976 965
f 966 964 977
f 967 966 977
f 964 963 977
f 978 979 980
f 979 981 982
f 983 984 985
f 983 986 984
f 986 987 988
f 989 988 990
f 991 989 990
f 989 991 992
f 992 991 993
f 988 987 990
f 986 983 987
f 985 984 994
f 982 981 985
f 982 985 994
f 978 981 979
f 978 980 995
f 996 997 998
f 999 996 998
f 999 1000 996
f 1001 1000 999
f 1001 1002 1003
f 1003 1000 1001
f 1003 1002 1004
f 1003 1004 1005
f 1006 998 997
f 1006 997 1007
f 1007 1008 1006
f 1007 1009 1008
f 1010 1008 1009
f 1009 1011 1012
f 1012 1010 1009
f 1013 1014 1015
f 1013 1015 1016
f 1017 1018 1019
f 1019 1016 1017
f 1017 1020 1018
f 1019 1013 1016
f 1021 1018 1020
f 1021 1022 1023
f 1020 1022 1021
f 1023 1022 1024
f 1023 1024 1025
f 1026 1027 1028
f 1027 1026 1029
f 1026 1028 1025
f 1029 1030 1031
f 1032 1031 1030
f 1027 1029 1031
f 1033 1032 1030
f 1025 1024 1026
f 1015 1014 1034
f 1014 1035 1034
f 1034 1036 1037
f 1036 1034 1035
f 1038 1037 1036
f 1038 1036 1039
f 1038 1039 1040
f 1039 1041 1040
f 1042 1043 1040
f 1040 1041 1042
f 1044 1043 1045
f 1042 1045 1043
f 1044 1046 1047
f 1046 1044 1045
f 1048 1049 1047
f 1047 1046 1048
f 1050 1049 1048
f 1051 1049 1050
f 1051 1050 1052
f 1053 1054 1055
f 1056 1057 1058
f 1053 1057 1059
f 1060 1054 1053
f 1061 1060 1053
f 1055 1057 1053
f 1060 1062 1054
f 1055 1054 1063
f 1055 1058 1057
f 1064 1058 1055
f 1065 1066 1067
f 1066 1065 1068
f 1069 1070 1071
f 1070 1069 1072
f 1073 1074 1075
f 1074 1073 1076
f 1077 1078 1079
f 1078 1077 1080
f 1081 1082 1083
f 1082 1081 1084
f 1085 1086 1087
f 1086 1085 1088
f 1089 1090 1091
f 1089 1091 1092
f 1093 1094 1095
f 1093 1095 1096
f 1097 1098 1099
f 1097 1099 1100
f 1101 1102 1103
f 1101 1103 1104
f 1105 1106 1107
f 1105 1107 1108
f 1109 1110 1111
f 1109 1111 1112
f 1113 1114 1115
f 1116 1117 1118
f 1119 1120 1121
f 1122 1123 1124
f 1115 1114 1122
f 1125 1120 1119
f 1120 1125 1126
f 1115 1122 1124
f 1115 1127 1113
f 1120 1128 1129
f 1115 1130 1127
f 1130 1115 1131
f 1120 1126 1128
f 1132 1120 1129
f 1133 1131 1115
f 1115 1134 1135
f 1120 1132 1136
f 1137 1138 1139
f 1120 1136 1139
f 1140 1141 1142
f 1141 1143 1144
f 1145 1146 1147
f 1147 1148 1149
f 1150 1151 1152
f 1151 1153 1152
f 1154 1155 1156
f 1157 1150 1158
f 1159 1160 1161
f 1162 1150 1163
f 1164 1163 1150
f 1150 1165 1166
f 1154 1167 1168
f 1160 1154 1169
f 1159 1161 1150
f 1159 1154 1160
f 1166 1164 1150
f 1156 1167 1154
f 1170 1154 1168
f 1150 1162 1158
f 1154 1171 1172
f 1172 1155 1154
f 1116 1173 1117
f 1151 1150 1157
f 1153 1141 1152
f 1147 1173 1116
f 1143 1141 1153
f 1147 1149 1173
f 1174 1175 1147
f 1175 1148 1147
f 1176 1141 1144
f 1177 1145 1147
f 1142 1141 1178
f 1140 1179 1141
f 1141 1180 1181
f 1179 1180 1141
f 1138 1120 1139
f 1181 1182 1183
f 1183 1134 1115
f 1174 1147 1146
f 1176 1178 1141
f 1134 1183 1182
f 1170 1169 1154
f 1161 1165 1150
f 1116 1118 1154
f 1118 1171 1154
f 1138 1137 1147
f 1137 1184 1147
f 1177 1147 1184
f 1124 1123 1120
f 1123 1185 1120
f 1121 1120 1185
f 1133 1115 1135
f 1181 1183 1141
f 1186 1187 1188
f 1189 1190 1191
f 1190 1192 1193
f 1194 1195 1196
f 1197 1195 1194
f 1198 1195 1197
f 1198 1197 1199
f 1198 1199 1200
f 1198 1200 1201
f 1194 1196 1202
f 1203 1202 1196
f 1203 1204 1202
f 1203 1205 1204
f 1204 1205 1193
f 1193 1205 1190
f 1190 1189 1192
f 1206 1189 1191
f 1187 1206 1191
f 1206 1187 1186
f 1207 1208 1209
f 1207 1210 1211
f 1212 1213 1214
f 1215 1216 1213
f 1217 1216 1215
f 1217 1215 1218
f 1218 1219 1220
f 1221 1219 1222
f 1221 1222 1223
f 1223 1222 1224
f 1225 1223 1224
f 1220 1219 1221
f 1218 1220 1217
f 1213 1216 1214
f 1226 1212 1214
f 1210 1212 1226
f 1210 1226 1211
f 1211 1208 1207
f 1227 1228 1229
f 1227 1230 1231
f 1232 1233 1234
f 1235 1232 1236
f 1237 1238 1239
f 1240 1241 1242
f 1243 1244 1245
f 1246 1244 1247
f 1243 1247 1244
f 1246 1247 1248
f 1246 1248 1249
f 1250 1251 1249
f 1249 1248 1250
f 1252 1251 1253
f 1250 1253 1251
f 1243 1245 1240
f 1240 1245 1254
f 1240 1254 1241
f 1242 1241 1255
f 1255 1239 1242
f 1255 1237 1239
f 1256 1238 1237
f 1256 1257 1258
f 1238 1256 1258
f 1257 1259 1258
f 1233 1258 1259
f 1234 1233 1259
f 1236 1260 1235
f 1234 1236 1232
f 1260 1261 1262
f 1260 1262 1235
f 1262 1261 1228
f 1229 1228 1261
f 1231 1230 1263
f 1229 1230 1227
f 1264 1265 1263
f 1231 1263 1265
f 1265 1264 1266
f 1267 1268 1269
f 1270 1271 1272
f 1273 1269 1274
f 1275 1269 1276
f 1267 1269 1273
f 1269 1268 1276
f 1277 1278 1276
f 1268 1277 1276
f 1277 1279 1278
f 1280 1279 1277
f 1277 1281 1280
f 1282 1283 1284
f 1285 1284 1281
f 1286 1287 1288
f 1289 1282 1287
f 1290 1291 1292
f 1288 1290 1293
f 1270 1272 1294
f 1294 1292 1291
f 1295 1296 1271
f 1297 1298 1299
f 1297 1271 1298
f 1300 1301 1302
f 1300 1303 1301
f 1300 1304 1303
f 1299 1300 1302
f 1302 1297 1299
f 1297 1295 1271
f 1296 1272 1271
f 1292 1294 1272
f 1290 1292 1293
f 1287 1286 1289
f 1293 1286 1288
f 1282 1289 1283
f 1282 1284 1285
f 1284 1280 1281
f 1305 1306 1307
f 1308 1309 1310
f 1311 1312 1313
f 1314 1313 1312
f 1315 1313 1314
f 1315 1314 1316
f 1315 1316 1317
f 1310 1312 1311
f 1308 1310 1311
f 1309 1308 1318
f 1318 1308 1319
f 1320 1318 1319
f 1306 1320 1307
f 1319 1307 1320
f 1321 1306 1305
f 1305 1322 1321
f 1321 1322 1323
