# Exported from USD: /World/gantry/gantry_home/ur10_flattened/ur10_instanceable/shoulder_link/ur10_shoulder/ID461_001fa3
mtllib ID461_001fa3.mtl

g ID461_001fa3
v 3.32003132 -0.35050639 0.20129990
v 3.32397811 -0.34664501 0.20129990
v 3.32164481 -0.34897832 0.20799990
v 3.31768435 -0.35253505 0.20799990
v 3.31444219 -0.35507470 0.20129990
v 3.31191482 -0.35686447 0.20799990
v 3.30923155 -0.35858512 0.20129990
v 3.30575570 -0.36061722 0.20799990
v 3.30370398 -0.36169430 0.20129990
v 3.30080948 -0.36305606 0.20799990
v 3.29886170 -0.36390468 0.20129990
v 3.29588770 -0.36509936 0.20799990
v 3.29369912 -0.36586924 0.20129990
v 3.28900194 -0.36727038 0.20799990
v 3.28675409 -0.36782429 0.20129990
v 3.28280526 -0.36860853 0.20799990
v 3.27965551 -0.36910032 0.20129990
v 3.27744292 -0.36934245 0.20799990
v 3.27435803 -0.36957790 0.20129990
v 3.27000061 -0.36974934 0.20799990
v 3.27000008 -0.36971105 0.20129990
v 3.32550619 -0.34503154 0.20799990
v 3.32753485 -0.34268455 0.20129990
v 3.33007448 -0.33944242 0.20799990
v 3.33186424 -0.33691506 0.20129990
v 3.33358491 -0.33423176 0.20799991
v 3.33561702 -0.33075589 0.20129990
v 3.33669408 -0.32870421 0.20799991
v 3.33805585 -0.32580970 0.20129990
v 3.33890445 -0.32386195 0.20799991
v 3.34009916 -0.32088789 0.20129990
v 3.34086904 -0.31869928 0.20799991
v 3.34227017 -0.31400214 0.20129990
v 3.34282408 -0.31175429 0.20799991
v 3.34360833 -0.30780546 0.20129990
v 3.34410010 -0.30465575 0.20799991
v 3.34424495 -0.30327718 0.20129990
v 3.34468634 -0.29745508 0.20799991
v 3.34461496 -0.29884464 0.20129990
v 3.34470122 -0.29425631 0.20129990
v 3.34375731 -0.28313936 0.20799991
v 3.34354536 -0.28176662 0.20129990
v 3.34270619 -0.27774214 0.20799991
v 3.34192920 -0.27474620 0.20129990
v 3.33562376 -0.25925639 0.20799991
v 3.33670405 -0.26131540 0.20129990
v 3.33312801 -0.25501337 0.20129990
v 3.32975544 -0.25012970 0.20799991
v 3.32897074 -0.24910347 0.20129991
v 3.32427539 -0.24363654 0.20129991
v 3.32576515 -0.24527684 0.20799991
v 3.31972323 -0.23923492 0.20129991
v 3.32136354 -0.24072469 0.20799991
v 3.31589662 -0.23602935 0.20799991
v 3.31487037 -0.23524463 0.20129991
v 3.30998670 -0.23187205 0.20799991
v 3.29708666 -0.22535554 0.20799991
v 3.29074375 -0.22321063 0.20129990
v 3.29025387 -0.22307087 0.20799991
v 3.28373462 -0.22154666 0.20129991
v 3.28323348 -0.22145471 0.20799991
v 3.27745245 -0.22065869 0.20129990
v 3.27607417 -0.22052072 0.20799991
v 3.27000061 -0.22025074 0.20129990
v 3.27000008 -0.22028916 0.20799991
v 3.29756156 -0.22554217 0.20129991
v 3.30368464 -0.22829600 0.20799991
v 3.30330114 -0.22811808 0.20129990
v 3.30888311 -0.23118628 0.20129991
v 3.33288369 -0.25467051 0.20799990
v 3.33877113 -0.26576683 0.20799991
v 3.33964453 -0.26791344 0.20129990
v 3.34099003 -0.27170714 0.20799990
v 3.34434137 -0.28754756 0.20799991
v 3.34447934 -0.28892586 0.20129990
v 3.34464936 -0.29212063 0.20799991
v 3.26301840 -0.36938713 0.20799990
v 3.26342234 -0.36943690 0.20129990
v 3.26999943 -0.36973742 0.20799990
v 3.25847026 -0.36880994 0.20799990
v 3.25409876 -0.36800216 0.20799990
v 3.24925337 -0.36678892 0.20129990
v 3.25626747 -0.36845408 0.20129990
v 3.24884991 -0.36665795 0.20799990
v 3.24290231 -0.36464019 0.20799990
v 3.22229956 -0.35252178 0.20129990
v 3.22701620 -0.35612669 0.20799990
v 3.22131927 -0.35169428 0.20799990
v 3.21669490 -0.34735176 0.20799990
v 3.21764851 -0.34830573 0.20129990
v 3.21077348 -0.34054527 0.20799990
v 3.21331242 -0.34368870 0.20129990
v 3.21359372 -0.34398094 0.20799990
v 3.20888026 -0.33799384 0.20129990
v 3.20571680 -0.33307689 0.20799991
v 3.20599126 -0.33351923 0.20129990
v 3.20329815 -0.32868944 0.20129990
v 3.19807059 -0.31525399 0.20129990
v 3.19689689 -0.31049202 0.20799991
v 3.19645365 -0.30822900 0.20129990
v 3.19544137 -0.29967379 0.20799991
v 3.19527599 -0.29435522 0.20799991
v 3.19530277 -0.29658611 0.20129990
v 3.19654384 -0.28127903 0.20129990
v 3.19575486 -0.28672349 0.20129990
v 3.19568747 -0.28714286 0.20799991
v 3.19764678 -0.27640237 0.20799991
v 3.19887227 -0.27212996 0.20799991
v 3.19796871 -0.27515885 0.20129990
v 3.20214856 -0.26372055 0.20799991
v 3.20121874 -0.26584582 0.20129990
v 3.20041507 -0.26781935 0.20799991
v 3.20618431 -0.25612041 0.20129990
v 3.20312735 -0.26167981 0.20129990
v 3.20459233 -0.25888854 0.20799991
v 3.20738055 -0.25424481 0.20799990
v 3.20912705 -0.25169518 0.20129991
v 3.21049657 -0.24981636 0.20799991
v 3.21188589 -0.24804346 0.20129991
v 3.21449734 -0.24496426 0.20799991
v 3.21607366 -0.24326969 0.20129991
v 3.21958681 -0.23984017 0.20799991
v 3.22132439 -0.23830116 0.20129990
v 3.22445836 -0.23577044 0.20799991
v 3.22702006 -0.23387079 0.20129991
v 3.22886792 -0.23262749 0.20799991
v 3.23311526 -0.23001100 0.20129991
v 3.23349316 -0.22981232 0.20799991
v 3.23755823 -0.22770670 0.20799991
v 3.23956223 -0.22675333 0.20129991
v 3.24242082 -0.22554854 0.20799991
v 3.24451065 -0.22477814 0.20129991
v 3.24841749 -0.22347120 0.20799991
v 3.24974880 -0.22306983 0.20129990
v 3.25450817 -0.22189673 0.20799991
v 3.25678141 -0.22145198 0.20129990
v 3.26077275 -0.22085796 0.20799991
v 3.26393685 -0.22051986 0.20129990
v 3.26533449 -0.22044093 0.20799991
v 3.26999971 -0.22028263 0.20799991
v 3.26999980 -0.22028928 0.20129990
v 3.19959518 -0.26999326 0.20129990
v 3.19663461 -0.28086816 0.20799991
v 3.19538484 -0.29115715 0.20129990
v 3.19561482 -0.30200153 0.20129990
v 3.19585913 -0.30423573 0.20799991
v 3.19873276 -0.31747312 0.20799991
v 3.20035704 -0.32209144 0.20129990
v 3.20053224 -0.32247870 0.20799991
v 3.20272726 -0.32753362 0.20799991
v 3.20810130 -0.33682575 0.20799991
v 3.22807590 -0.35685865 0.20129990
v 3.23312088 -0.35999229 0.20799990
v 3.23349803 -0.36019064 0.20129990
v 3.23757495 -0.36230131 0.20129990
v 3.23784952 -0.36243266 0.20799990
v 3.24243375 -0.36445628 0.20129990
v 3.26999971 -0.36971766 0.20129990
usemtl Black
f 1 2 3
f 4 1 3
f 4 5 1
f 4 6 5
f 5 6 7
f 7 6 8
f 7 8 9
f 10 9 8
f 11 9 10
f 11 10 12
f 11 12 13
f 14 13 12
f 15 13 14
f 14 16 15
f 16 17 15
f 16 18 17
f 17 18 19
f 18 20 19
f 20 21 19
f 3 2 22
f 2 23 22
f 22 23 24
f 24 23 25
f 26 24 25
f 27 26 25
f 28 26 27
f 27 29 28
f 29 30 28
f 31 30 29
f 32 30 31
f 31 33 32
f 33 34 32
f 34 33 35
f 34 35 36
f 36 35 37
f 38 36 39
f 37 39 36
f 39 40 38
f 41 42 43
f 44 43 42
f 45 46 47
f 48 47 49
f 50 51 49
f 52 53 50
f 54 53 52
f 55 56 54
f 57 58 59
f 60 59 58
f 61 59 60
f 60 62 61
f 62 63 61
f 62 64 63
f 63 64 65
f 57 66 58
f 66 67 68
f 57 67 66
f 69 67 56
f 68 67 69
f 55 69 56
f 54 52 55
f 51 50 53
f 49 51 48
f 70 47 48
f 70 45 47
f 46 45 71
f 72 46 71
f 73 72 71
f 73 44 72
f 73 43 44
f 74 42 41
f 74 75 42
f 74 76 75
f 75 76 40
f 38 40 76
f 77 78 79
f 77 80 78
f 81 82 83
f 82 84 85
f 86 87 88
f 89 90 88
f 91 92 93
f 94 95 96
f 97 96 95
f 98 99 100
f 101 102 103
f 104 105 106
f 107 108 109
f 107 109 104
f 110 111 112
f 113 114 115
f 115 116 113
f 117 116 118
f 118 119 117
f 119 120 121
f 121 122 123
f 123 122 124
f 125 123 124
f 125 124 126
f 127 126 128
f 126 127 125
f 127 128 129
f 127 129 130
f 129 131 130
f 132 130 131
f 132 131 133
f 132 133 134
f 134 133 135
f 136 134 135
f 137 136 135
f 137 138 136
f 139 138 137
f 138 139 140
f 138 140 141
f 120 122 121
f 118 120 119
f 113 116 117
f 114 110 115
f 114 111 110
f 111 142 112
f 112 142 108
f 108 142 109
f 143 107 104
f 104 106 143
f 105 144 106
f 106 144 102
f 102 144 103
f 145 101 103
f 145 146 101
f 145 100 146
f 146 100 99
f 99 98 147
f 98 148 147
f 147 148 149
f 150 149 148
f 97 150 148
f 150 97 95
f 151 95 94
f 94 91 151
f 94 92 91
f 90 89 92
f 89 93 92
f 90 86 88
f 152 87 86
f 153 152 154
f 87 152 153
f 155 153 154
f 155 156 153
f 85 156 157
f 155 157 156
f 82 85 157
f 81 84 82
f 80 81 83
f 78 80 83
f 78 158 79
