# Exported from USD: /World/gantry/gantry_home/ur10_flattened/ur10_instanceable/forearm_link/ur10_forearm/ID71_001fa3
mtllib ID71_001fa3.mtl

g ID71_001fa3
v 4.40029961 -0.24488296 0.24301303
v 4.40029961 -0.25054665 0.24312729
v 4.39229960 -0.24739291 0.24299843
v 4.39229960 -0.21540086 0.25576664
v 4.39229960 -0.21292734 0.25836337
v 4.40029962 -0.21411985 0.25705260
v 4.40029968 -0.21092688 0.26079786
v 4.39229960 -0.21074498 0.26107675
v 4.39229961 -0.20870889 0.26402754
v 4.40029962 -0.28669633 0.26710612
v 4.39229955 -0.28715603 0.26801044
v 4.39229961 -0.28433325 0.26311190
v 4.40029962 -0.20779569 0.26551783
v 4.40029962 -0.28376482 0.26227427
v 4.39229961 -0.20628380 0.26837516
v 4.40029962 -0.20556492 0.26996547
v 4.39229961 -0.20466529 0.27220893
v 4.40029963 -0.20383073 0.27457124
v 4.40029963 -0.20262696 0.27938348
v 4.39229961 -0.20332627 0.27630950
v 4.39229961 -0.20232210 0.28113211
v 4.40029963 -0.20193712 0.28426063
v 4.39229968 -0.20193353 0.28459275
v 4.39229962 -0.20179831 0.28799958
v 4.40029963 -0.20180877 0.28799975
v 4.40029962 -0.21771570 0.25363332
v 4.39229960 -0.21849850 0.25298644
v 4.40029956 -0.22225035 0.25025898
v 4.39229960 -0.22311056 0.24971384
v 4.40029961 -0.22586698 0.24816346
v 4.39229960 -0.22809887 0.24704391
v 4.40029961 -0.22977131 0.24631995
v 4.39229960 -0.23211661 0.24546010
v 4.40029961 -0.23442354 0.24472249
v 4.39229960 -0.23544141 0.24444450
v 4.40029961 -0.23926099 0.24360913
v 4.39229960 -0.23959445 0.24356723
v 4.39229960 -0.24381033 0.24308545
v 4.40029961 -0.25613834 0.24394900
v 4.39229960 -0.25155259 0.24322326
v 4.39229960 -0.26644220 0.24747825
v 4.39229960 -0.26120295 0.24533541
v 4.40029961 -0.26552492 0.24704564
v 4.39229960 -0.27077983 0.24989892
v 4.40029962 -0.27341069 0.25168568
v 4.39229960 -0.27480597 0.25273514
v 4.39229960 -0.27803933 0.25559420
v 4.40029962 -0.27612745 0.25385338
v 4.40029962 -0.27876307 0.25629306
v 4.40029962 -0.28111515 0.25886840
v 4.39229960 -0.28091974 0.25860733
v 4.40029969 -0.28900160 0.27227319
v 4.39229961 -0.28934366 0.27322645
v 4.40029963 -0.29063985 0.27768481
v 4.39229961 -0.29085887 0.27866865
v 4.40029963 -0.29149118 0.28253275
v 4.39229962 -0.29168099 0.28426147
v 4.40029963 -0.29184823 0.28799910
v 4.39229962 -0.29180944 0.28799975
v 4.39229960 -0.25645891 0.24403203
v 4.40029962 -0.26988075 0.24934674
v 4.40029961 -0.26088618 0.24524242
v 4.40029963 -0.20177052 0.28800041
v 4.39229962 -0.20180947 0.28799975
v 4.39229962 -0.20193728 0.29173095
v 4.40029964 -0.20220334 0.29414976
v 4.39229962 -0.20325315 0.29936311
v 4.40029964 -0.20394288 0.30174142
v 4.40029964 -0.20301801 0.29838431
v 4.39229962 -0.20249639 0.29586059
v 4.39229963 -0.20710995 0.30924556
v 4.40029964 -0.20542620 0.30571395
v 4.39229962 -0.20476067 0.30410293
v 4.40029965 -0.21292699 0.31763634
v 4.39229963 -0.21510506 0.31995401
v 4.40029965 -0.21635763 0.32116929
v 4.39229963 -0.22165424 0.32532928
v 4.40029965 -0.21968597 0.32391450
v 4.39229963 -0.21825341 0.32279656
v 4.40029965 -0.22254076 0.32591292
v 4.39229964 -0.22462062 0.32715449
v 4.40029965 -0.22621721 0.32802853
v 4.39229964 -0.23715953 0.33196727
v 4.40029965 -0.23681624 0.33189145
v 4.39229964 -0.23241605 0.33066401
v 4.39229964 -0.25262807 0.33263633
v 4.40029965 -0.25295449 0.33260605
v 4.39229964 -0.24905383 0.33294878
v 4.40029965 -0.25719418 0.33179095
v 4.39229964 -0.26024321 0.33097640
v 4.40029965 -0.26120425 0.33066431
v 4.40029965 -0.26644318 0.32852140
v 4.39229964 -0.26552037 0.32895527
v 4.39229964 -0.27050910 0.32628546
v 4.40029965 -0.27590127 0.32236722
v 4.40029965 -0.27136312 0.32574347
v 4.39229963 -0.27453740 0.32346061
v 4.40029965 -0.27950392 0.31894139
v 4.39229963 -0.27775184 0.32069335
v 4.39229963 -0.28069222 0.31763497
v 4.40029965 -0.28227138 0.31572667
v 4.39229963 -0.28333177 0.31431321
v 4.40029964 -0.28509771 0.31169585
v 4.39229963 -0.28524840 0.31140712
v 4.39229963 -0.28699863 0.30827585
v 4.40029964 -0.28746376 0.30732688
v 4.39229963 -0.28872822 0.30440477
v 4.40029964 -0.28934396 0.30277425
v 4.39229962 -0.28986204 0.30111316
v 4.39229962 -0.29094195 0.29693133
v 4.40029964 -0.29070072 0.29799372
v 4.40029964 -0.29134868 0.29446155
v 4.39229962 -0.29171319 0.29133195
v 4.40029963 -0.29172353 0.29100710
v 4.39229962 -0.29180944 0.28799975
v 4.40029963 -0.29181012 0.28799975
v 4.39229964 -0.25606071 0.33204374
v 4.40029965 -0.24804485 0.33299765
v 4.39229964 -0.24557879 0.33299694
v 4.40029965 -0.24380296 0.33291409
v 4.39229964 -0.24134928 0.33268139
v 4.40029965 -0.24034496 0.33253881
v 4.40029965 -0.23345431 0.33097848
v 4.40029965 -0.23007451 0.32978854
v 4.39229964 -0.22780361 0.32880453
v 4.40029965 -0.21028838 0.31431618
v 4.39229963 -0.21008671 0.31405435
v 4.39229963 -0.21266888 0.31732265
v 4.40029964 -0.20759743 0.31013402
v 3.95687481 -0.30142611 0.29557352
v 3.95687481 -0.30119665 0.29707570
v 3.95575876 -0.30232649 0.29526202
v 3.95687481 -0.30161407 0.29406553
v 3.95687481 -0.30092592 0.29857084
v 3.95574483 -0.30156211 0.29965593
v 3.95318881 -0.30407209 0.28799993
v 3.95450882 -0.30342462 0.29098174
v 3.95318878 -0.30399283 0.29101167
v 3.95318878 -0.30375572 0.29401093
v 3.95450882 -0.30318987 0.29395120
v 3.95450879 -0.30280076 0.29689611
v 3.95318880 -0.30336271 0.29698539
v 3.95572963 -0.30055801 0.30373951
v 3.95687481 -0.30026146 0.30153603
v 3.95687481 -0.29986828 0.30300373
v 3.95687482 -0.29943467 0.30446023
v 3.95687481 -0.30061407 0.30005813
v 3.95318880 -0.30281702 0.29992313
v 3.95451346 -0.30195724 0.30122077
v 3.95687482 -0.29896115 0.30590393
v 3.95687482 -0.29600751 0.31289793
v 3.95576409 -0.29751218 0.31173930
v 3.95687482 -0.29667481 0.31153263
v 3.95687482 -0.29789546 0.30874993
v 3.95687482 -0.29730430 0.31014963
v 3.95451340 -0.30030478 0.30682165
v 3.95574483 -0.29911458 0.30794714
v 3.95687482 -0.29844796 0.30733423
v 3.95451322 -0.29812778 0.31213219
v 3.95319268 -0.29864168 0.31237869
v 3.95451299 -0.29549042 0.31708623
v 3.95319251 -0.29597752 0.31738218
v 3.95687482 -0.29530295 0.31424393
v 3.95573315 -0.29494774 0.31661680
v 3.95687482 -0.29456140 0.31557023
v 3.95687482 -0.29378348 0.31687573
v 3.95687482 -0.29297008 0.31815893
v 3.95576844 -0.29194364 0.32111709
v 3.95687482 -0.29212142 0.31941943
v 3.95687482 -0.29123834 0.32065613
v 3.95451269 -0.29246466 0.32163572
v 3.95687482 -0.28937180 0.32305393
v 3.95687482 -0.29032167 0.32186784
v 3.95573763 -0.28866566 0.32519937
v 3.95687482 -0.28838972 0.32421343
v 3.95687483 -0.28737622 0.32534543
v 3.95687483 -0.28525742 0.32752363
v 3.95574478 -0.28516391 0.32879306
v 3.95687483 -0.28633178 0.32644923
v 3.95319209 -0.28954922 0.32613017
v 3.95319239 -0.29292117 0.32197667
v 3.95451240 -0.28912674 0.32574786
v 3.95687483 -0.28415385 0.32856792
v 3.95687483 -0.28302175 0.32958172
v 3.95319180 -0.28593855 0.32982583
v 3.95181451 -0.28985378 0.32640685
v 3.95575080 -0.28149500 0.33194931
v 3.95687483 -0.27822775 0.33331293
v 3.95687483 -0.27696725 0.33416143
v 3.95575301 -0.27771586 0.33468154
v 3.95451174 -0.28181428 0.33261067
v 3.95451204 -0.28555170 0.32940769
v 3.95687483 -0.27946425 0.33243013
v 3.95687483 -0.28067625 0.33151333
v 3.95687483 -0.28186235 0.33056362
v 3.95687483 -0.27568375 0.33497493
v 3.95687483 -0.27305226 0.33649413
v 3.95575289 -0.27388198 0.33700368
v 3.95687483 -0.27437855 0.33575263
v 3.95687483 -0.27170596 0.33719883
v 3.95687483 -0.27034105 0.33786592
v 3.95574967 -0.27003061 0.33894308
v 3.95687484 -0.26895806 0.33849544
v 3.94899981 -0.27579751 0.33825114
v 3.95039700 -0.27862363 0.33641529
v 3.95039724 -0.27465506 0.33880033
v 3.95687482 -0.26755816 0.33908643
v 3.95574043 -0.26629325 0.34049084
v 3.95687484 -0.26614286 0.33963862
v 3.95687482 -0.26471265 0.34015192
v 3.95575611 -0.26262298 0.34170041
v 3.95040522 -0.24902213 0.34588190
v 3.94900000 -0.24680971 0.34601716
v 3.94899963 -0.25239661 0.34575325
v 3.95687482 -0.26326886 0.34062542
v 3.95319055 -0.26663297 0.34173072
v 3.95319097 -0.27048045 0.34015102
v 3.95451080 -0.26643956 0.34119517
v 3.95687484 -0.26034495 0.34145233
v 3.95574395 -0.25904372 0.34263372
v 3.95687484 -0.26181276 0.34105903
v 3.95687483 -0.25886706 0.34180483
v 3.95687483 -0.25737996 0.34211652
v 3.95687483 -0.25588476 0.34238732
v 3.95574407 -0.25563572 0.34328583
v 3.95451020 -0.25563471 0.34400843
v 3.95451027 -0.25911026 0.34334979
v 3.95687483 -0.25438296 0.34261673
v 3.95575505 -0.25228241 0.34371105
v 3.95687484 -0.25287516 0.34280473
v 3.95687484 -0.25136266 0.34295082
v 3.95687484 -0.24984706 0.34305552
v 3.95574658 -0.24909432 0.34393704
v 3.95503197 -0.24680944 0.34443631
v 3.95450991 -0.24912128 0.34465123
v 3.95687483 -0.24680946 0.34313913
v 3.95318983 -0.24914212 0.34522008
v 3.95687484 -0.24832896 0.34311843
v 3.95318883 -0.24680946 0.34526253
v 3.95687481 -0.30186492 0.29103722
v 3.95687481 -0.30176037 0.29255325
v 3.95575995 -0.30278218 0.28935460
v 3.95181182 -0.30440303 0.28496659
v 3.95318878 -0.30399283 0.28498819
v 3.95687481 -0.30192769 0.28951945
v 3.95576009 -0.30261117 0.28342736
v 3.95687482 -0.30192770 0.28648028
v 3.95687482 -0.30194866 0.28799993
v 3.95450880 -0.30342462 0.28501812
v 3.95450880 -0.30318987 0.28204866
v 3.95687481 -0.30186485 0.28496198
v 3.95450878 -0.30280076 0.27910375
v 3.95687481 -0.30176021 0.28344625
v 3.95687480 -0.30142582 0.28042576
v 3.95575912 -0.30181876 0.27757292
v 3.95687480 -0.30161380 0.28193358
v 3.95451285 -0.30194985 0.27474711
v 3.95687480 -0.30119643 0.27892385
v 3.95687479 -0.30092573 0.27742853
v 3.95572872 -0.30047703 0.27198480
v 3.95687480 -0.30026112 0.27446342
v 3.95687480 -0.30061390 0.27594134
v 3.95318879 -0.30031339 0.26759553
v 3.95451249 -0.30029449 0.26914763
v 3.95318880 -0.30128635 0.27035684
v 3.95687480 -0.29986770 0.27299553
v 3.95687480 -0.29943407 0.27153933
v 3.95319171 -0.29863214 0.26360006
v 3.95576227 -0.29856979 0.26666048
v 3.95687479 -0.29844731 0.26866513
v 3.95687481 -0.29896049 0.27009552
v 3.95687480 -0.29789509 0.26724973
v 3.95576424 -0.29613077 0.26151139
v 3.95687479 -0.29667443 0.26446683
v 3.95687480 -0.29730404 0.26584993
v 3.95451219 -0.29811482 0.26383896
v 3.95451183 -0.29547521 0.25888701
v 3.95687480 -0.29600704 0.26310193
v 3.95687480 -0.29530213 0.26175563
v 3.95687479 -0.29378272 0.25912433
v 3.95573748 -0.29333604 0.25683653
v 3.95687479 -0.29456046 0.26042943
v 3.95687479 -0.29212055 0.25658032
v 3.95687479 -0.29296909 0.25784073
v 3.95687479 -0.29123776 0.25534383
v 3.95574481 -0.29105867 0.25371114
v 3.95451116 -0.28910812 0.25023023
v 3.95451148 -0.29244748 0.25433988
v 3.95573717 -0.28850042 0.25061509
v 3.95687480 -0.28937140 0.25294573
v 3.95687480 -0.29032105 0.25413183
v 3.95319069 -0.28953554 0.24985360
v 3.95319051 -0.28592428 0.24616008
v 3.95687479 -0.28737566 0.25065423
v 3.95687479 -0.28838947 0.25178623
v 3.95574480 -0.28499117 0.24704451
v 3.95687479 -0.28633120 0.24955064
v 3.95687478 -0.28525675 0.24847634
v 3.95039510 -0.27878936 0.23969453
v 3.95181245 -0.27850284 0.23980118
v 3.95181245 -0.28240614 0.24260631
v 3.95687479 -0.28415295 0.24743193
v 3.95575077 -0.28132072 0.24391272
v 3.95687479 -0.28302105 0.24641843
v 3.95687480 -0.28186155 0.24543642
v 3.95039498 -0.27481947 0.23729031
v 3.95181256 -0.27456150 0.23743030
v 3.95687479 -0.28067525 0.24448673
v 3.95687479 -0.27946365 0.24357023
v 3.95575302 -0.27754120 0.24120238
v 3.95687479 -0.27822696 0.24268724
v 3.95687479 -0.27696636 0.24183873
v 3.95575261 -0.27370743 0.23889943
v 3.95687479 -0.27568325 0.24102543
v 3.95687479 -0.27437776 0.24024754
v 3.95574933 -0.26985935 0.23697879
v 3.95687478 -0.27170556 0.23880143
v 3.95687478 -0.27305155 0.23950603
v 3.95687478 -0.27034035 0.23813403
v 3.95574092 -0.26609995 0.23543783
v 3.95687478 -0.26755796 0.23691342
v 3.95687478 -0.26895756 0.23750452
v 3.95575517 -0.26246561 0.23425244
v 3.95687479 -0.26471205 0.23584823
v 3.95687478 -0.26614226 0.23636124
v 3.95687478 -0.26326846 0.23537484
v 3.95574378 -0.25886459 0.23332613
v 3.95687478 -0.26034445 0.23454792
v 3.95687478 -0.26181195 0.23494124
v 3.95687477 -0.25737946 0.23388344
v 3.95574451 -0.25546799 0.23268745
v 3.95687479 -0.25886655 0.23419523
v 3.95575546 -0.25214944 0.23227621
v 3.95687478 -0.25438246 0.23338352
v 3.95687478 -0.25588446 0.23361282
v 3.95181184 -0.24914815 0.23036858
v 3.95318913 -0.25234162 0.23099925
v 3.95181178 -0.25238405 0.23059057
v 3.95450914 -0.25228444 0.23156547
v 3.95450908 -0.24910457 0.23134757
v 3.95687477 -0.25287466 0.23319543
v 3.94899982 -0.24680946 0.22999993
v 3.95124392 -0.24680943 0.23018776
v 3.95040458 -0.24915952 0.23012285
v 3.95318902 -0.24912991 0.23077900
v 3.95687478 -0.25136246 0.23304902
v 3.95574556 -0.24894927 0.23205688
v 3.95687477 -0.24984656 0.23294463
v 3.95687477 -0.24832886 0.23288182
v 3.95687477 -0.24680946 0.23286072
v 3.95451009 -0.25230142 0.34443230
v 3.95319038 -0.26287495 0.34297062
v 3.95319037 -0.25923185 0.34390585
v 3.95451067 -0.26272042 0.34242253
v 3.95451103 -0.27024715 0.33963161
v 3.95451139 -0.27410889 0.33769888
v 3.95451180 -0.27798112 0.33536725
v 3.95181182 -0.30069719 0.30855064
v 3.95318881 -0.30031340 0.30840434
v 3.95181182 -0.30167712 0.30576953
v 3.95318881 -0.30128634 0.30564303
v 3.95040580 -0.30345916 0.30005983
v 3.95181182 -0.30321878 0.30000862
v 3.95181182 -0.30251984 0.30291883
v 3.95450882 -0.30350309 0.28799993
v 3.95181181 -0.30416422 0.28194581
v 3.95318879 -0.30375572 0.28198893
v 3.95181181 -0.30376839 0.27895001
v 3.95318879 -0.30336271 0.27901446
v 3.95181181 -0.30321878 0.27599124
v 3.95318879 -0.30281702 0.27607674
v 3.95040578 -0.30191093 0.27015453
v 3.95181180 -0.30167712 0.27023033
v 3.95181180 -0.30251984 0.27308104
v 3.95181329 -0.29632153 0.25839043
v 3.95319134 -0.29596623 0.25859798
v 3.95181311 -0.29324206 0.25376435
v 3.95037438 -0.29351776 0.25371594
v 3.95451092 -0.28553217 0.24657319
v 3.95181251 -0.28620900 0.24586315
v 3.95039862 -0.28269786 0.24252252
v 3.95451063 -0.28179402 0.24337262
v 3.95450998 -0.27796063 0.24061809
v 3.95450985 -0.27408841 0.23828887
v 3.95450973 -0.27022698 0.23635842
v 3.95450954 -0.26641926 0.23479656
v 3.95450944 -0.26270112 0.23357105
v 3.95450950 -0.25909171 0.23264557
v 3.95450930 -0.25561684 0.23198820
v 3.95513688 -0.24680936 0.23163090
v 3.95112007 -0.24680935 0.34582782
v 3.95181268 -0.24915558 0.34563080
v 3.95318996 -0.25235395 0.34499914
v 3.95319019 -0.25572043 0.34457119
v 3.94899975 -0.26411558 0.34337037
v 3.95041321 -0.26677979 0.34237526
v 3.95039223 -0.26302088 0.34361496
v 3.95319120 -0.27437871 0.33820043
v 3.95319114 -0.27828974 0.33584620
v 3.95039998 -0.28253257 0.33360800
v 3.94899986 -0.27982843 0.33569978
v 3.95319162 -0.28216407 0.33306023
v 3.95040581 -0.29259181 0.32347672
v 3.95181469 -0.29325024 0.32222379
v 3.95038107 -0.29785688 0.31540837
v 3.95181182 -0.29835623 0.31386783
v 3.95181486 -0.29632887 0.31759643
v 3.95318880 -0.30212305 0.30281263
v 3.95040580 -0.30401111 0.29708841
v 3.95181181 -0.30376838 0.29704985
v 3.95040580 -0.30440863 0.29407984
v 3.95181181 -0.30416421 0.29405405
v 3.95040580 -0.30464846 0.29104620
v 3.95181183 -0.30440303 0.29103327
v 3.95318879 -0.30212305 0.27318724
v 3.95040579 -0.30092683 0.26736163
v 3.95181180 -0.30069719 0.26744923
v 3.95040579 -0.29981241 0.26464793
v 3.95181180 -0.29958750 0.26474703
v 3.95319099 -0.29290866 0.25400538
v 3.95319009 -0.28214912 0.24292725
v 3.95319003 -0.27827417 0.24014292
v 3.95318967 -0.27436379 0.23779063
v 3.95318949 -0.27046583 0.23584163
v 3.95318948 -0.26661816 0.23426330
v 3.95318937 -0.26286056 0.23302466
v 3.95318914 -0.25921815 0.23209050
v 3.95181214 -0.25577127 0.23102044
v 3.95318907 -0.25570743 0.23142620
v 3.95318878 -0.24680946 0.23073733
v 3.95181284 -0.25239288 0.34540822
v 3.95181272 -0.25577976 0.34497797
v 3.95181274 -0.25931664 0.34430820
v 3.95181292 -0.26298726 0.34336612
v 3.95181333 -0.26677363 0.34211703
v 3.95181356 -0.27064759 0.34052672
v 3.95181332 -0.27457174 0.33856375
v 3.95181380 -0.27851284 0.33619173
v 3.95181416 -0.28241583 0.33338545
v 3.95181439 -0.28621866 0.33012708
v 3.95181182 -0.29958750 0.31125283
v 3.95181183 -0.30448285 0.28799993
v 3.94899971 -0.29581759 0.25693400
v 3.95042711 -0.29660096 0.25838744
v 3.94899977 -0.29892365 0.26248229
v 3.95181180 -0.29835623 0.26213203
v 3.95181292 -0.28984487 0.24958250
v 3.95181214 -0.27063798 0.23546841
v 3.95181208 -0.26676418 0.23387907
v 3.95038979 -0.26317027 0.23242871
v 3.95181221 -0.26297769 0.23263079
v 3.95181221 -0.25930736 0.23168948
v 3.95039116 -0.25234472 0.34566242
v 3.95040761 -0.25577780 0.34522683
v 3.95040851 -0.25929115 0.34456501
v 3.95040105 -0.27066973 0.34078751
v 3.95040880 -0.28632466 0.33036402
v 3.95042048 -0.28994538 0.32666915
v 3.94899968 -0.29108904 0.32549870
v 3.95041988 -0.29494749 0.32023203
v 3.94899998 -0.29581728 0.31903490
v 3.95040581 -0.29981241 0.31135193
v 3.95040581 -0.30092683 0.30863823
v 3.95040580 -0.30191093 0.30584533
v 3.95040580 -0.30275725 0.30298243
v 3.94899997 -0.30284279 0.30300945
v 3.94899985 -0.30392910 0.29822787
v 3.94899978 -0.30470492 0.29190963
v 3.95040581 -0.30472862 0.28799993
v 3.95040579 -0.30464846 0.28495366
v 3.95040579 -0.30440863 0.28192003
v 3.95040579 -0.30401111 0.27891145
v 3.95040580 -0.30345916 0.27594004
v 3.95040578 -0.30275724 0.27301743
v 3.94899995 -0.30284304 0.27299011
v 3.94899977 -0.30139801 0.26831934
v 3.95040578 -0.29857590 0.26202173
v 3.95041961 -0.29010305 0.24950706
v 3.95040803 -0.28648809 0.24578936
v 3.94899994 -0.28438269 0.24377616
v 3.94899981 -0.27983042 0.24030055
v 3.94899977 -0.27579831 0.23774828
v 3.95040023 -0.27083197 0.23528600
v 3.95041304 -0.26696407 0.23369288
v 3.94899970 -0.26411161 0.23262780
v 3.95040786 -0.25946205 0.23147286
v 3.95040762 -0.25593745 0.23079868
v 3.95039140 -0.25246859 0.23034953
v 3.94899987 -0.25706287 0.34509211
v 3.94899993 -0.26027121 0.34442218
v 3.94899993 -0.26788331 0.34204299
v 3.94899981 -0.27159339 0.34045204
v 3.94899998 -0.28438193 0.33222331
v 3.94899986 -0.28781162 0.32902896
v 3.94899986 -0.29401527 0.32170839
v 3.94899980 -0.29824937 0.31485261
v 3.94899973 -0.30056520 0.30981238
v 3.94899985 -0.30191516 0.30611420
v 3.94899971 -0.30479989 0.28639485
v 3.94899984 -0.30440394 0.28092130
v 3.94899989 -0.30359154 0.27614179
v 3.94899983 -0.29306402 0.25299793
v 3.94899995 -0.29104011 0.25046859
v 3.94899964 -0.28840629 0.24756191
v 3.94899976 -0.27159456 0.23554779
v 3.94899988 -0.26788279 0.23395649
v 3.94899988 -0.26027763 0.23157868
v 3.94899982 -0.25706244 0.23090740
v 3.94899963 -0.25319986 0.23034151
v 3.94899981 -0.24930943 0.23004848
v 3.95687479 -0.24074376 0.23319512
v 3.95687478 -0.24225626 0.23304902
v 3.95575498 -0.24133662 0.23228880
v 3.95687478 -0.23623886 0.23388334
v 3.95687477 -0.23773416 0.23361253
v 3.95574403 -0.23798375 0.23271390
v 3.95503193 -0.24680948 0.23156355
v 3.95318979 -0.24447680 0.23077978
v 3.95450984 -0.24449771 0.23134863
v 3.94899957 -0.24122229 0.23024662
v 3.95040512 -0.24459693 0.23011794
v 3.94899994 -0.24680921 0.22998270
v 3.95687478 -0.23923596 0.23338314
v 3.95574391 -0.23457444 0.23336629
v 3.95687479 -0.23327396 0.23454754
v 3.95687477 -0.23475187 0.23419503
v 3.95687478 -0.23034996 0.23537444
v 3.95687479 -0.23180616 0.23494084
v 3.95575606 -0.23099554 0.23429956
v 3.95687478 -0.22466087 0.23750443
v 3.95574956 -0.22358856 0.23705665
v 3.95687478 -0.22327786 0.23813394
v 3.95039695 -0.21896468 0.23719903
v 3.94899976 -0.21782294 0.23774784
v 3.95039683 -0.21499412 0.23958529
v 3.95687479 -0.21793516 0.24102493
v 3.95575291 -0.21973802 0.23899557
v 3.95575309 -0.21590198 0.24131909
v 3.95687478 -0.22056656 0.23950573
v 3.95687479 -0.22191297 0.23880103
v 3.95687479 -0.21539107 0.24268693
v 3.95687479 -0.21415468 0.24356973
v 3.95687479 -0.20946507 0.24743193
v 3.95687479 -0.21059717 0.24641813
v 3.95574474 -0.20845463 0.24720713
v 3.95687479 -0.21175657 0.24543623
v 3.95687479 -0.21294267 0.24448653
v 3.95575077 -0.21212363 0.24405080
v 3.95573760 -0.20495414 0.25079949
v 3.95687478 -0.20728717 0.24955064
v 3.95687480 -0.20238057 0.25534373
v 3.95687479 -0.20329727 0.25413203
v 3.95576847 -0.20167444 0.25488396
v 3.95687478 -0.20424706 0.25294593
v 3.95687478 -0.20522917 0.25178644
v 3.95687479 -0.19905747 0.26042963
v 3.95687479 -0.19983546 0.25912413
v 3.95573313 -0.19867113 0.25938309
v 3.95687479 -0.20064887 0.25784093
v 3.95687479 -0.20149747 0.25658043
v 3.95687480 -0.19694407 0.26446723
v 3.95687480 -0.19761136 0.26310193
v 3.95576430 -0.19610725 0.26425997
v 3.95687480 -0.19831597 0.26175593
v 3.95573086 -0.19306059 0.27226372
v 3.95687480 -0.19465817 0.27009593
v 3.95574481 -0.19450416 0.26805273
v 3.95687479 -0.19572347 0.26724993
v 3.95687480 -0.19631457 0.26585023
v 3.95687481 -0.19335717 0.27446383
v 3.95687479 -0.19375017 0.27299613
v 3.95687479 -0.19418418 0.27153963
v 3.95574481 -0.19205717 0.27634393
v 3.95575687 -0.19129236 0.28072827
v 3.95687480 -0.19269317 0.27742903
v 3.95450880 -0.19081818 0.27910375
v 3.95318879 -0.19025617 0.27901446
v 3.95318879 -0.18986318 0.28198893
v 3.95687481 -0.19185817 0.28344660
v 3.95687480 -0.19200517 0.28193433
v 3.95687480 -0.19219317 0.28042634
v 3.95687481 -0.19167018 0.28799993
v 3.95687481 -0.19169117 0.28648041
v 3.95575966 -0.19083690 0.28663623
v 3.95318880 -0.18954717 0.28799993
v 3.95181181 -0.18921617 0.29103327
v 3.95318880 -0.18962617 0.29101167
v 3.95687481 -0.19175416 0.29103787
v 3.95575871 -0.19100632 0.29256620
v 3.95687481 -0.19185917 0.29255360
v 3.95450880 -0.19042917 0.29395120
v 3.95450880 -0.19019417 0.29098173
v 3.95575925 -0.19179834 0.29841675
v 3.95687481 -0.19242217 0.29707601
v 3.95687481 -0.19219317 0.29557409
v 3.95687481 -0.19335818 0.30153643
v 3.95572921 -0.19314022 0.30400860
v 3.95687481 -0.19269318 0.29857133
v 3.95687481 -0.19375117 0.30300433
v 3.95687482 -0.19517157 0.30733473
v 3.95687482 -0.19465817 0.30590433
v 3.95576206 -0.19504775 0.30933657
v 3.95687482 -0.19631487 0.31014992
v 3.95687482 -0.19694447 0.31153303
v 3.95687482 -0.19572377 0.30875012
v 3.95576427 -0.19748842 0.31448894
v 3.95687482 -0.19761186 0.31289793
v 3.95687482 -0.19983617 0.31687553
v 3.95573763 -0.20028289 0.31916335
v 3.95687482 -0.20238117 0.32065602
v 3.95687482 -0.20149837 0.31941953
v 3.95687482 -0.20064977 0.31815913
v 3.95574484 -0.20256027 0.32228873
v 3.95687482 -0.20424747 0.32305413
v 3.95687482 -0.20329786 0.32186803
v 3.95687482 -0.20522946 0.32421363
v 3.95573715 -0.20511916 0.32538558
v 3.95687483 -0.20728767 0.32644923
v 3.95687483 -0.20624327 0.32534563
v 3.95687483 -0.20836217 0.32752353
v 3.95574478 -0.20862765 0.32895530
v 3.95687483 -0.20946597 0.32856793
v 3.95687483 -0.21059787 0.32958143
v 3.95181255 -0.21511595 0.33619854
v 3.95181273 -0.21121396 0.33339443
v 3.95039515 -0.21482873 0.33630484
v 3.95575086 -0.21229812 0.33208700
v 3.95181243 -0.21905636 0.33856905
v 3.95039521 -0.21880009 0.33870993
v 3.95687483 -0.21294356 0.33151313
v 3.95687483 -0.21175737 0.33056343
v 3.95575295 -0.21607650 0.33479680
v 3.95687483 -0.21539197 0.33331263
v 3.95687483 -0.21415527 0.33242963
v 3.95687483 -0.21665257 0.33416113
v 3.95687483 -0.21793567 0.33497443
v 3.95575265 -0.21991244 0.33710098
v 3.95687483 -0.21924117 0.33575233
v 3.95574938 -0.22375987 0.33902121
v 3.95687483 -0.22191326 0.33719843
v 3.95687483 -0.22056737 0.33649382
v 3.95687483 -0.22327846 0.33786583
v 3.95574098 -0.22751887 0.34056199
v 3.95687482 -0.22606097 0.33908643
v 3.95687484 -0.22466137 0.33849532
v 3.95687484 -0.22890677 0.34015164
v 3.95687484 -0.22747667 0.33963862
v 3.95575529 -0.23115336 0.34174741
v 3.95687484 -0.23035046 0.34062502
v 3.95687482 -0.23180687 0.34105863
v 3.95687483 -0.23327446 0.34145193
v 3.95574384 -0.23475351 0.34267357
v 3.95687484 -0.23475226 0.34180463
v 3.95687483 -0.23623946 0.34211643
v 3.95574454 -0.23815136 0.34331246
v 3.95687484 -0.23773447 0.34238702
v 3.95687484 -0.23923647 0.34261632
v 3.95575553 -0.24146962 0.34372366
v 3.95687484 -0.24074426 0.34280444
v 3.95181184 -0.24123490 0.34540931
v 3.95181190 -0.24447077 0.34563128
v 3.95318917 -0.24127731 0.34500062
v 3.95574563 -0.24466964 0.34394297
v 3.95687483 -0.24680946 0.34313913
v 3.95687483 -0.24528996 0.34311803
v 3.95687484 -0.24225637 0.34295082
v 3.95687484 -0.24377236 0.34305522
v 3.95450912 -0.24451442 0.34465228
v 3.95450919 -0.24133451 0.34443439
v 3.95124398 -0.24680949 0.34581210
v 3.95318905 -0.24448901 0.34522085
v 3.95040464 -0.24445946 0.34587703
v 3.94899987 -0.24680946 0.34599993
v 3.95319054 -0.20769468 0.32983985
v 3.95451120 -0.20451110 0.32577000
v 3.95319066 -0.20408368 0.32614668
v 3.95687482 -0.19831677 0.31424423
v 3.95451168 -0.20117181 0.32166042
v 3.95687482 -0.19905847 0.31557043
v 3.95319179 -0.19498678 0.31239986
v 3.95451352 -0.19332776 0.30685968
v 3.95318881 -0.19330518 0.30840433
v 3.95451191 -0.19814400 0.31711327
v 3.95451245 -0.19550565 0.31216366
v 3.95687482 -0.19418518 0.30446053
v 3.95318881 -0.19233217 0.30564303
v 3.95687481 -0.19300517 0.30005853
v 3.95450881 -0.19081817 0.29689611
v 3.95451328 -0.19166948 0.30125488
v 3.95687481 -0.19200517 0.29406627
v 3.95687481 -0.19169117 0.28951958
v 3.95687481 -0.19175417 0.28496263
v 3.95318880 -0.18962617 0.28498819
v 3.95450880 -0.19019417 0.28501812
v 3.95687480 -0.19242217 0.27892415
v 3.95451184 -0.19331566 0.26917189
v 3.95451338 -0.19166214 0.27477557
v 3.95450880 -0.19042917 0.28204866
v 3.95687480 -0.19300517 0.27594173
v 3.95318880 -0.19080217 0.27607673
v 3.95687479 -0.19517097 0.26866563
v 3.95687479 -0.20624267 0.25065443
v 3.95451284 -0.19549236 0.26386490
v 3.95451296 -0.19812880 0.25891304
v 3.95319242 -0.19764159 0.25861726
v 3.95319201 -0.19497621 0.26362252
v 3.95451248 -0.20115454 0.25436357
v 3.95687479 -0.21924026 0.24024724
v 3.95687478 -0.20836147 0.24847623
v 3.95451235 -0.20449240 0.25025171
v 3.95319206 -0.20406981 0.24986949
v 3.95319242 -0.20069745 0.25402362
v 3.95181447 -0.20376530 0.24959279
v 3.95319182 -0.20768043 0.24617400
v 3.95451164 -0.21180450 0.24338928
v 3.95451206 -0.20806684 0.24659256
v 3.95687478 -0.21665157 0.24183844
v 3.95687478 -0.22606076 0.23691344
v 3.95574038 -0.22732568 0.23550902
v 3.95687478 -0.22747607 0.23636124
v 3.95687477 -0.24377186 0.23294433
v 3.95574658 -0.24452456 0.23206283
v 3.95687478 -0.22890626 0.23584794
v 3.95451075 -0.22717917 0.23480479
v 3.95319050 -0.22698586 0.23426918
v 3.95319093 -0.22313850 0.23584883
v 3.95451015 -0.23798434 0.23199142
v 3.95451021 -0.23450866 0.23265007
v 3.95687479 -0.24528996 0.23288142
v 3.95687477 -0.24680946 0.23286072
v 3.95318878 -0.24680946 0.23073733
v 3.95451003 -0.24131750 0.23156756
v 3.95319032 -0.23074407 0.23302922
v 3.95319025 -0.23438755 0.23209387
v 3.95451068 -0.23089760 0.23357761
v 3.95451098 -0.22337183 0.23636823
v 3.95451140 -0.21951022 0.23830091
v 3.95451164 -0.21563752 0.24063275
v 3.95181180 -0.19292217 0.26744923
v 3.95318879 -0.19330516 0.26759553
v 3.95181180 -0.19194216 0.27023033
v 3.95318880 -0.19233217 0.27035683
v 3.95040579 -0.19016017 0.27594004
v 3.95181180 -0.19040017 0.27599124
v 3.95181181 -0.19109917 0.27308103
v 3.95450880 -0.19011617 0.28799993
v 3.95181181 -0.18945518 0.29405405
v 3.95318880 -0.18986316 0.29401093
v 3.95181181 -0.18985016 0.29704985
v 3.95318880 -0.19025617 0.29698540
v 3.95181182 -0.19040017 0.30000863
v 3.95318880 -0.19080217 0.29992313
v 3.95040580 -0.19170817 0.30584534
v 3.95181182 -0.19194217 0.30576953
v 3.95181182 -0.19109917 0.30291883
v 3.95181314 -0.19729676 0.31760849
v 3.95319149 -0.19765295 0.31740222
v 3.95181296 -0.20037619 0.32223471
v 3.95037452 -0.20010097 0.32228371
v 3.95451091 -0.20808632 0.32942635
v 3.95181266 -0.20741116 0.33013783
v 3.95039867 -0.21092081 0.33347714
v 3.95451067 -0.21182473 0.33262709
v 3.95451013 -0.21565806 0.33538157
v 3.95450990 -0.21953058 0.33771104
v 3.95450978 -0.22339207 0.33964151
v 3.95450961 -0.22719952 0.34120325
v 3.95450943 -0.23091695 0.34242860
v 3.95450955 -0.23452722 0.34335429
v 3.95450937 -0.23800208 0.34401167
v 3.95513693 -0.24680956 0.34436895
v 3.95112000 -0.24680957 0.23017204
v 3.95181268 -0.24446333 0.23036908
v 3.95318991 -0.24126498 0.23100072
v 3.95319013 -0.23789864 0.23142863
v 3.94899970 -0.22950304 0.23262959
v 3.95041329 -0.22683819 0.23362495
v 3.95039219 -0.23059793 0.23238493
v 3.95319104 -0.21924009 0.23779947
v 3.95319127 -0.21532812 0.24015441
v 3.95040005 -0.21108643 0.24239182
v 3.94899982 -0.21379182 0.24029913
v 3.95319170 -0.21145466 0.24293986
v 3.95040578 -0.20102707 0.25252313
v 3.95181472 -0.20036799 0.25377699
v 3.95038099 -0.19576291 0.26058987
v 3.95181181 -0.19526267 0.26213203
v 3.95181507 -0.19728954 0.25840436
v 3.95318880 -0.19149616 0.27318723
v 3.95040579 -0.18960817 0.27891145
v 3.95181180 -0.18985017 0.27895001
v 3.95040579 -0.18921017 0.28192003
v 3.95181181 -0.18945517 0.28194581
v 3.95040579 -0.18897017 0.28495366
v 3.95181181 -0.18921617 0.28496659
v 3.95318880 -0.19149617 0.30281263
v 3.95040581 -0.19269217 0.30863823
v 3.95181182 -0.19292217 0.30855063
v 3.95040581 -0.19380617 0.31135193
v 3.95181182 -0.19403117 0.31125283
v 3.95319090 -0.20070987 0.32199403
v 3.95319001 -0.21146959 0.33307250
v 3.95318995 -0.21534340 0.33585614
v 3.95318977 -0.21925514 0.33820923
v 3.95318954 -0.22315312 0.34015825
v 3.95318948 -0.22700088 0.34173663
v 3.95318947 -0.23075818 0.34297513
v 3.95318925 -0.23440134 0.34390948
v 3.95181213 -0.23784732 0.34497940
v 3.95318911 -0.23791164 0.34457367
v 3.95318883 -0.24680946 0.34526253
v 3.95181279 -0.24122604 0.23059165
v 3.95181268 -0.23783876 0.23102196
v 3.95181275 -0.23430209 0.23169169
v 3.95181286 -0.23063164 0.23263376
v 3.95181315 -0.22684597 0.23388253
v 3.95181351 -0.22297126 0.23547316
v 3.95181340 -0.21904614 0.23743669
v 3.95181364 -0.21510589 0.23980823
v 3.95181388 -0.21120426 0.24261339
v 3.95181412 -0.20740137 0.24587167
v 3.94899971 -0.19616615 0.25967835
v 3.95041990 -0.19867159 0.25576754
v 3.94899989 -0.19917784 0.25488012
v 3.95181180 -0.19403117 0.26474703
v 3.95181181 -0.18913617 0.28799993
v 3.94899973 -0.18935299 0.29601525
v 3.95040580 -0.18921017 0.29407984
v 3.94899978 -0.18883444 0.29045423
v 3.95181182 -0.19526267 0.31386783
v 3.94899974 -0.19957832 0.32170746
v 3.95042709 -0.19701801 0.31761254
v 3.94899992 -0.19650267 0.31689653
v 3.95181296 -0.20377415 0.32641753
v 3.95181219 -0.22298076 0.34053136
v 3.95181225 -0.22685553 0.34212108
v 3.95038985 -0.23044865 0.34357116
v 3.95181226 -0.23064124 0.34336907
v 3.95181220 -0.23431126 0.34431035
v 3.95039105 -0.24127442 0.23033741
v 3.95040756 -0.23784108 0.23077305
v 3.95040851 -0.23432781 0.23143484
v 3.95040106 -0.22294820 0.23521279
v 3.95040894 -0.20729490 0.24563523
v 3.95042044 -0.20367393 0.24933026
v 3.94899965 -0.20253051 0.25050043
v 3.95040579 -0.19380617 0.26464794
v 3.95040578 -0.19269218 0.26736163
v 3.95040580 -0.19170816 0.27015453
v 3.95040580 -0.19086117 0.27301743
v 3.94899995 -0.19077422 0.27299625
v 3.94899989 -0.19002634 0.27614540
v 3.94899984 -0.18945857 0.27930486
v 3.94899978 -0.18891275 0.28410339
v 3.95040580 -0.18889017 0.28799993
v 3.95040580 -0.18897017 0.29104620
v 3.95040580 -0.18960817 0.29708842
v 3.95040580 -0.19016017 0.30005983
v 3.95040580 -0.19086117 0.30298243
v 3.94899997 -0.19077315 0.30299927
v 3.94899979 -0.19221959 0.30767627
v 3.95040581 -0.19504297 0.31397813
v 3.95041958 -0.20351605 0.32649307
v 3.95040814 -0.20713146 0.33021112
v 3.94899998 -0.20923614 0.33222361
v 3.94899986 -0.21378718 0.33569845
v 3.94899981 -0.21782042 0.33825147
v 3.95040022 -0.22278588 0.34071341
v 3.95041303 -0.22665391 0.34230667
v 3.94899975 -0.22950703 0.34337197
v 3.95040797 -0.23415678 0.34452697
v 3.95040772 -0.23768151 0.34520119
v 3.95039151 -0.24115062 0.34565037
v 3.94899982 -0.23655608 0.23090776
v 3.94899988 -0.23334666 0.23157792
v 3.94899988 -0.22573560 0.23395688
v 3.94899976 -0.22202607 0.23554758
v 3.94899994 -0.20923723 0.24377636
v 3.94899983 -0.20580730 0.24697085
v 3.94899977 -0.19337914 0.26536538
v 3.94899984 -0.19170339 0.26988548
v 3.94899991 -0.19002789 0.29986103
v 3.94899973 -0.19435091 0.31277004
v 3.94899998 -0.20257993 0.32553263
v 3.94899968 -0.20521339 0.32843880
v 3.94899981 -0.22202450 0.34045215
v 3.94899993 -0.22573613 0.34204337
v 3.94899993 -0.23334093 0.34442113
v 3.94899987 -0.23655576 0.34509235
v 3.94899969 -0.24041860 0.34565832
v 3.94899987 -0.24430952 0.34595139
v 4.49929877 -0.18772617 0.28698196
v 4.49929877 -0.19130017 0.28901733
v 4.49919744 -0.19130017 0.28479679
v 4.49900981 -0.18772616 0.28278603
v 4.49859985 -0.19130017 0.27995010
v 4.49818869 -0.18772616 0.27794351
v 4.49747832 -0.19130018 0.27527614
v 4.49682339 -0.18772617 0.27324005
v 4.49629231 -0.19130017 0.27179702
v 4.49531920 -0.18772618 0.26945122
v 4.49493797 -0.19130018 0.26864304
v 4.49373014 -0.18772616 0.26631351
v 4.49250956 -0.19130018 0.26417943
v 4.49191410 -0.18772616 0.26326855
v 4.48965366 -0.19130017 0.26013549
v 4.48942811 -0.18772617 0.25985100
v 4.48650462 -0.19130018 0.25653406
v 4.48622853 -0.18772617 0.25625446
v 4.48254198 -0.18772616 0.25294956
v 4.48284335 -0.19130018 0.25319513
v 4.47914523 -0.18772617 0.25046476
v 4.47894508 -0.19130017 0.25031957
v 4.47497970 -0.18772617 0.24800381
v 4.47535223 -0.19130017 0.24822184
v 4.47153956 -0.19130017 0.24640456
v 4.47119135 -0.18772616 0.24628529
v 4.46726138 -0.18772617 0.24487952
v 4.46695930 -0.19130017 0.24480280
v 4.46287519 -0.19130017 0.24380944
v 4.46324772 -0.18772617 0.24389246
v 4.45970840 -0.18772616 0.24331174
v 4.45801860 -0.19130017 0.24312637
v 4.45430023 -0.18772616 0.24296216
v 4.45429963 -0.19130017 0.24299965
v 4.49919745 -0.18772617 0.29120250
v 4.49894318 -0.19130017 0.29385801
v 4.49859985 -0.18772617 0.29604961
v 4.49821242 -0.19130017 0.29784782
v 4.49738249 -0.19130017 0.30103804
v 4.49747822 -0.18772617 0.30072357
v 4.49645969 -0.19130017 0.30374540
v 4.49629232 -0.18772617 0.30420239
v 4.49531898 -0.19130016 0.30654861
v 4.49493787 -0.18772616 0.30735679
v 4.49373016 -0.19130017 0.30968590
v 4.49250958 -0.18772617 0.31181993
v 4.49191413 -0.19130017 0.31273081
v 4.48942814 -0.19130017 0.31614842
v 4.48965368 -0.18772617 0.31586393
v 4.48622821 -0.19130017 0.31974514
v 4.48650453 -0.18772617 0.31946536
v 4.48284338 -0.18772617 0.32280429
v 4.48254202 -0.19130017 0.32304987
v 4.47894536 -0.18772617 0.32567962
v 4.47914551 -0.19130017 0.32553455
v 4.47497974 -0.19130017 0.32799550
v 4.47535227 -0.18772617 0.32777759
v 4.47153936 -0.18772617 0.32959494
v 4.47119103 -0.19130017 0.32971427
v 4.46726154 -0.19130017 0.33111986
v 4.46695946 -0.18772617 0.33119652
v 4.46287535 -0.18772617 0.33218989
v 4.46324800 -0.19130017 0.33210680
v 4.45970856 -0.19130017 0.33268771
v 4.45801865 -0.18772617 0.33287296
v 4.45430027 -0.19130017 0.33303723
v 4.45429967 -0.18772617 0.33299968
v 4.45100290 -0.19130018 0.24309418
v 4.45429963 -0.18772617 0.24299965
v 4.45429963 -0.19130017 0.24299965
v 4.43808228 -0.19130018 0.24600850
v 4.44096667 -0.18772617 0.24499260
v 4.44275147 -0.19130017 0.24448035
v 4.43644232 -0.18772616 0.24668025
v 4.42941923 -0.19130017 0.25048809
v 4.43204052 -0.18772616 0.24885999
v 4.43360836 -0.19130017 0.24800961
v 4.42788059 -0.18772618 0.25155454
v 4.42141850 -0.19130017 0.25724369
v 4.42405398 -0.18772617 0.25464731
v 4.42546553 -0.19130017 0.25341224
v 4.41655464 -0.19130020 0.26347160
v 4.41447349 -0.19130018 0.26702147
v 4.41614337 -0.18772615 0.26413387
v 4.41258176 -0.18772618 0.27107638
v 4.41437896 -0.18772616 0.26720923
v 4.41246064 -0.19130021 0.27135723
v 4.41072591 -0.19130018 0.27664625
v 4.41111912 -0.18772616 0.27528280
v 4.40940186 -0.18772616 0.28479677
v 4.40965649 -0.19130017 0.28215068
v 4.40930065 -0.19130017 0.28698706
v 4.40999933 -0.18772617 0.27995193
v 4.40940174 -0.19130017 0.29118824
v 4.40930065 -0.18772617 0.28901833
v 4.40980419 -0.19130017 0.29474795
v 4.40965590 -0.18772617 0.29385513
v 4.41038641 -0.18772617 0.29784506
v 4.41049346 -0.19130017 0.29835534
v 4.41161367 -0.19130016 0.30228030
v 4.41287944 -0.19130017 0.30559933
v 4.41213963 -0.18772617 0.30374544
v 4.41523502 -0.18772616 0.31035596
v 4.41328869 -0.18772617 0.30656760
v 4.41428861 -0.19130017 0.30862218
v 4.41843221 -0.19130016 0.31522291
v 4.41698775 -0.18772617 0.31316947
v 4.41602943 -0.19130016 0.31168305
v 4.42210958 -0.19130018 0.31948023
v 4.41915569 -0.18772617 0.31612854
v 4.42236147 -0.18772616 0.31973570
v 4.42522274 -0.19130017 0.32235454
v 4.42604838 -0.18772617 0.32304262
v 4.42784164 -0.19130017 0.32441621
v 4.42947732 -0.18772617 0.32555036
v 4.43083106 -0.19130017 0.32640229
v 4.43363081 -0.18772617 0.32800107
v 4.43446790 -0.19130017 0.32842289
v 4.43873964 -0.18772617 0.33025287
v 4.43900274 -0.19130017 0.33033572
v 4.44305335 -0.19130017 0.33158527
v 4.44341670 -0.18772617 0.33167742
v 4.44714366 -0.19130017 0.33244119
v 4.44749831 -0.18772617 0.33249662
v 4.45069014 -0.19130017 0.33285961
v 4.45091306 -0.18772617 0.33287726
v 4.45429943 -0.18772617 0.33301053
v 4.45429943 -0.19130017 0.33301721
v 4.41123590 -0.18772616 0.30110293
v 4.41798706 -0.18772617 0.26139694
v 4.41861327 -0.19130016 0.26057290
v 4.42063970 -0.18772617 0.25811099
v 4.44511599 -0.18772616 0.24394087
v 4.44854754 -0.18772617 0.24335454
v 4.44675440 -0.19130018 0.24363200
v 4.45206660 -0.18772617 0.24305008
usemtl Black
f 1 2 3
f 4 5 6
f 7 6 5
f 5 8 7
f 9 7 8
f 10 11 12
f 9 13 7
f 14 10 12
f 13 9 15
f 16 13 15
f 16 15 17
f 16 17 18
f 19 18 20
f 20 18 17
f 21 19 20
f 22 19 21
f 22 23 24
f 24 25 22
f 21 23 22
f 26 4 6
f 27 4 26
f 26 28 27
f 28 29 27
f 29 28 30
f 29 30 31
f 30 32 31
f 33 31 32
f 33 32 34
f 33 34 35
f 35 34 36
f 35 36 37
f 1 38 36
f 37 36 38
f 38 1 3
f 39 40 2
f 41 42 43
f 44 45 46
f 47 48 49
f 50 14 51
f 52 53 11
f 52 54 53
f 54 55 53
f 55 54 56
f 55 56 57
f 57 56 58
f 59 57 58
f 42 60 39
f 52 11 10
f 51 14 12
f 49 50 51
f 51 47 49
f 46 48 47
f 46 45 48
f 61 45 44
f 61 41 43
f 41 61 44
f 43 42 62
f 62 42 39
f 60 40 39
f 3 2 40
f 63 64 65
f 65 66 63
f 67 68 69
f 67 69 70
f 71 72 73
f 74 75 76
f 77 78 79
f 80 81 82
f 83 84 85
f 86 87 88
f 89 90 91
f 92 91 93
f 94 92 93
f 95 96 97
f 98 95 99
f 100 98 99
f 100 101 98
f 102 101 100
f 102 103 101
f 104 103 102
f 103 104 105
f 103 105 106
f 106 105 107
f 106 107 108
f 108 107 109
f 109 110 111
f 111 108 109
f 112 111 110
f 112 110 113
f 112 113 114
f 115 116 113
f 114 113 116
f 99 95 97
f 97 96 94
f 94 96 92
f 93 91 90
f 117 90 89
f 87 117 89
f 117 87 86
f 87 118 88
f 88 118 119
f 119 118 120
f 121 119 120
f 120 122 121
f 122 84 83
f 122 83 121
f 123 85 84
f 85 123 124
f 124 125 85
f 124 82 125
f 125 82 81
f 80 77 81
f 77 80 78
f 78 76 79
f 76 75 79
f 74 126 127
f 74 128 75
f 128 74 127
f 129 127 126
f 127 129 71
f 71 129 72
f 72 68 73
f 73 68 67
f 70 69 66
f 65 70 66
f 130 131 132
f 132 133 130
f 134 135 132
f 136 137 138
f 139 138 140
f 134 132 131
f 141 142 139
f 143 144 145
f 144 143 135
f 145 146 143
f 135 147 144
f 148 142 149
f 150 143 146
f 151 152 153
f 154 155 152
f 156 149 143
f 143 150 157
f 157 158 154
f 156 152 159
f 150 158 157
f 157 154 152
f 155 153 152
f 160 161 162
f 163 152 151
f 152 163 164
f 163 165 164
f 164 165 166
f 167 164 166
f 168 167 169
f 164 167 168
f 169 170 168
f 161 168 171
f 172 168 173
f 173 168 170
f 168 172 174
f 175 174 172
f 176 174 175
f 135 134 147
f 177 178 179
f 180 181 182
f 174 179 178
f 183 178 177
f 178 183 184
f 185 186 180
f 187 178 184
f 188 189 190
f 187 191 192
f 193 187 194
f 193 190 187
f 195 194 187
f 190 193 188
f 184 195 187
f 189 196 190
f 197 198 199
f 190 196 198
f 197 200 198
f 201 202 200
f 203 202 201
f 198 196 199
f 200 202 198
f 204 205 206
f 203 207 202
f 208 207 209
f 208 202 207
f 208 209 210
f 210 211 208
f 212 213 214
f 210 215 211
f 216 217 218
f 219 220 211
f 211 221 219
f 219 222 220
f 220 222 223
f 224 225 223
f 226 227 225
f 224 228 225
f 225 228 229
f 230 231 229
f 225 220 223
f 229 231 232
f 233 234 235
f 228 230 229
f 236 234 233
f 234 237 235
f 238 233 232
f 239 237 234
f 179 174 176
f 211 215 221
f 240 241 242
f 241 133 132
f 136 243 244
f 242 241 132
f 240 242 245
f 242 246 247
f 242 248 245
f 246 249 250
f 248 242 247
f 251 247 246
f 250 252 246
f 246 253 251
f 254 246 255
f 253 246 256
f 257 255 252
f 254 256 246
f 255 258 254
f 258 255 259
f 260 261 255
f 262 259 255
f 263 264 265
f 255 261 262
f 266 260 267
f 261 260 266
f 264 263 268
f 269 270 271
f 260 271 267
f 260 269 271
f 272 270 269
f 269 273 274
f 269 275 272
f 273 276 277
f 275 269 274
f 278 274 273
f 273 279 278
f 280 273 281
f 279 273 282
f 280 282 273
f 281 283 284
f 281 284 280
f 285 281 286
f 287 286 288
f 285 283 281
f 286 289 290
f 286 291 285
f 292 293 287
f 291 286 290
f 294 295 289
f 295 290 289
f 289 296 297
f 294 289 297
f 298 297 296
f 299 300 301
f 296 302 298
f 303 304 296
f 302 296 304
f 305 304 303
f 306 307 300
f 303 308 305
f 309 310 311
f 308 303 309
f 309 303 310
f 310 312 311
f 313 314 310
f 312 310 314
f 315 314 313
f 313 316 317
f 313 318 315
f 318 313 317
f 319 317 316
f 316 320 321
f 316 322 319
f 322 316 321
f 323 324 320
f 325 321 320
f 320 324 325
f 324 323 326
f 327 328 323
f 329 326 323
f 323 328 329
f 330 327 331
f 328 327 332
f 330 332 327
f 331 333 334
f 331 335 330
f 336 337 338
f 335 331 334
f 333 339 340
f 341 334 333
f 342 343 344
f 345 336 343
f 341 333 346
f 333 347 348
f 348 346 333
f 349 347 350
f 233 238 236
f 233 229 232
f 229 351 226
f 233 351 229
f 352 227 353
f 226 225 229
f 220 227 354
f 227 220 225
f 211 354 218
f 211 220 354
f 208 218 355
f 218 208 211
f 355 356 202
f 355 202 208
f 198 356 357
f 198 202 356
f 190 357 191
f 190 198 357
f 187 190 191
f 192 182 178
f 178 187 192
f 174 182 171
f 174 178 182
f 168 174 171
f 164 161 159
f 164 168 161
f 358 359 160
f 152 164 159
f 360 361 359
f 362 363 364
f 157 152 156
f 143 157 156
f 135 149 141
f 132 141 140
f 143 149 135
f 132 140 137
f 135 141 132
f 242 137 365
f 365 249 242
f 242 132 137
f 366 367 244
f 368 369 367
f 246 242 249
f 370 371 369
f 372 373 374
f 255 246 252
f 260 257 264
f 260 255 257
f 269 264 276
f 269 260 264
f 375 376 268
f 377 375 378
f 273 269 276
f 281 277 288
f 281 273 277
f 286 281 288
f 289 287 379
f 287 289 286
f 301 380 381
f 296 379 382
f 296 289 379
f 303 382 383
f 303 296 382
f 310 383 384
f 310 303 383
f 313 384 385
f 384 313 310
f 316 385 386
f 385 316 313
f 320 386 387
f 386 320 316
f 323 387 388
f 387 323 320
f 327 388 389
f 388 327 323
f 331 389 339
f 389 331 327
f 339 333 331
f 348 347 349
f 347 390 350
f 239 391 392
f 235 351 233
f 351 393 394
f 235 393 351
f 226 394 353
f 351 394 226
f 395 396 397
f 353 227 226
f 354 352 216
f 352 354 227
f 216 218 354
f 355 217 398
f 355 218 217
f 356 398 399
f 398 356 355
f 400 205 401
f 357 399 402
f 399 357 356
f 191 402 185
f 191 357 402
f 192 185 180
f 192 191 185
f 403 404 186
f 180 182 192
f 171 181 162
f 171 182 181
f 405 406 407
f 162 161 171
f 159 160 359
f 159 161 160
f 156 359 361
f 156 361 408
f 156 159 359
f 149 408 148
f 409 410 363
f 408 149 156
f 411 412 410
f 413 414 412
f 141 149 142
f 140 141 139
f 365 136 244
f 137 140 138
f 249 244 367
f 365 137 136
f 250 367 369
f 249 365 244
f 252 369 371
f 250 249 367
f 257 371 415
f 252 250 369
f 257 415 265
f 371 257 252
f 416 417 373
f 418 419 417
f 264 257 265
f 276 268 376
f 276 264 268
f 376 420 277
f 376 277 276
f 288 420 292
f 288 277 420
f 292 287 288
f 293 421 379
f 293 379 287
f 421 422 382
f 421 382 379
f 422 423 383
f 422 383 382
f 423 424 384
f 423 384 383
f 385 424 425
f 424 385 384
f 386 425 426
f 425 386 385
f 387 426 427
f 426 387 386
f 428 429 427
f 427 429 388
f 427 388 387
f 429 337 389
f 429 389 388
f 339 337 345
f 339 389 337
f 340 390 347
f 333 340 347
f 430 390 340
f 431 393 237
f 237 393 235
f 237 392 431
f 432 394 393
f 393 431 432
f 433 353 394
f 394 432 433
f 434 352 353
f 433 434 353
f 435 216 352
f 352 434 435
f 436 217 216
f 435 436 216
f 437 398 217
f 436 437 217
f 438 399 398
f 437 438 398
f 439 402 399
f 438 439 399
f 440 185 402
f 439 440 402
f 440 186 185
f 404 181 180
f 186 404 180
f 407 162 181
f 404 407 181
f 406 160 162
f 406 162 407
f 406 441 160
f 441 358 160
f 358 360 359
f 364 408 361
f 360 364 361
f 363 148 408
f 364 363 408
f 410 142 148
f 410 148 363
f 412 139 142
f 412 142 410
f 414 138 139
f 414 139 412
f 442 136 138
f 414 442 138
f 442 243 136
f 243 366 244
f 366 368 367
f 368 370 369
f 374 415 371
f 370 374 371
f 373 265 415
f 373 415 374
f 417 263 265
f 417 265 373
f 419 268 263
f 417 419 263
f 443 444 445
f 419 446 268
f 446 375 268
f 377 420 376
f 377 376 375
f 447 292 420
f 377 447 420
f 380 293 292
f 447 380 292
f 301 421 293
f 380 301 293
f 300 422 421
f 301 300 421
f 307 423 422
f 300 307 422
f 448 424 423
f 307 448 423
f 449 425 424
f 448 449 424
f 450 451 449
f 451 426 425
f 449 451 425
f 452 427 426
f 426 451 452
f 452 428 427
f 338 337 429
f 428 338 429
f 345 337 336
f 345 430 340
f 339 345 340
f 343 430 345
f 239 392 237
f 453 431 392
f 212 453 392
f 432 431 454
f 431 453 454
f 433 432 455
f 432 454 455
f 434 433 397
f 433 455 397
f 435 434 396
f 434 397 396
f 436 435 456
f 435 396 456
f 437 436 206
f 436 456 206
f 438 437 205
f 437 206 205
f 439 438 400
f 438 205 400
f 440 439 457
f 439 400 457
f 186 440 458
f 457 458 440
f 458 459 403
f 458 403 186
f 403 460 404
f 407 404 460
f 460 461 405
f 460 405 407
f 441 406 462
f 405 462 406
f 358 441 463
f 462 463 441
f 360 358 464
f 463 464 358
f 364 360 465
f 360 464 465
f 362 465 466
f 465 362 364
f 362 467 409
f 362 409 363
f 409 467 411
f 409 411 410
f 411 468 413
f 411 413 412
f 442 414 469
f 413 469 414
f 243 442 470
f 469 470 442
f 366 243 471
f 470 471 243
f 368 366 472
f 471 472 366
f 370 368 473
f 472 473 368
f 374 370 474
f 370 473 474
f 474 475 372
f 474 372 374
f 372 476 416
f 372 416 373
f 416 476 418
f 416 418 417
f 446 419 477
f 418 477 419
f 375 446 444
f 477 444 446
f 444 443 378
f 444 378 375
f 447 377 478
f 377 378 478
f 380 447 479
f 478 479 447
f 479 480 381
f 479 381 380
f 381 481 299
f 381 299 301
f 299 482 306
f 299 306 300
f 448 307 483
f 306 483 307
f 449 448 484
f 448 483 484
f 484 485 450
f 484 450 449
f 452 451 486
f 451 450 486
f 428 452 487
f 452 486 487
f 338 428 488
f 487 488 428
f 336 338 344
f 338 488 344
f 391 212 392
f 213 212 391
f 214 453 212
f 453 214 454
f 214 489 454
f 454 489 455
f 489 490 455
f 490 395 397
f 490 397 455
f 395 491 396
f 491 492 456
f 491 456 396
f 492 204 206
f 492 206 456
f 204 401 205
f 401 493 400
f 493 457 400
f 493 494 457
f 494 459 458
f 494 458 457
f 459 495 403
f 495 460 403
f 461 460 495
f 461 496 405
f 496 497 462
f 496 462 405
f 497 463 462
f 498 463 497
f 498 464 463
f 466 464 498
f 466 465 464
f 466 467 362
f 467 468 411
f 468 499 469
f 468 469 413
f 499 470 469
f 500 470 499
f 500 471 470
f 500 472 471
f 501 472 500
f 501 473 472
f 475 473 501
f 475 474 473
f 475 476 372
f 476 445 418
f 445 477 418
f 445 444 477
f 443 502 378
f 503 378 502
f 503 478 378
f 503 504 478
f 504 479 478
f 480 479 504
f 480 481 381
f 481 482 299
f 482 505 306
f 505 483 306
f 505 506 483
f 506 484 483
f 506 485 484
f 485 507 450
f 507 486 450
f 507 508 486
f 508 487 486
f 508 509 487
f 509 488 487
f 509 510 488
f 488 510 344
f 342 344 510
f 343 336 344
f 511 512 513
f 514 515 516
f 517 518 519
f 520 521 522
f 513 523 511
f 516 515 523
f 524 525 526
f 527 528 529
f 530 531 532
f 533 534 535
f 536 537 538
f 539 540 537
f 541 538 542
f 543 544 545
f 546 547 548
f 549 550 545
f 551 552 553
f 554 555 549
f 556 557 558
f 553 559 560
f 561 562 563
f 563 562 564
f 565 566 567
f 563 568 569
f 570 571 565
f 572 566 565
f 573 574 575
f 576 577 578
f 574 579 580
f 581 574 580
f 582 583 584
f 585 586 587
f 588 589 590
f 591 589 592
f 593 594 595
f 595 589 593
f 596 593 597
f 598 594 593
f 596 597 599
f 600 601 602
f 603 602 604
f 602 603 605
f 606 607 604
f 608 606 609
f 609 610 611
f 612 609 611
f 613 614 615
f 615 610 613
f 616 614 617
f 618 619 617
f 620 621 622
f 621 620 618
f 623 622 621
f 624 625 626
f 623 621 627
f 628 624 629
f 630 631 627
f 632 633 634
f 627 634 630
f 635 633 632
f 632 636 635
f 636 637 638
f 637 636 632
f 637 639 640
f 641 637 640
f 642 640 639
f 639 643 644
f 639 645 642
f 645 639 644
f 643 646 647
f 647 644 643
f 646 648 649
f 650 649 648
f 648 651 650
f 648 652 651
f 651 652 653
f 654 653 652
f 655 654 652
f 655 656 654
f 656 655 657
f 657 655 658
f 657 658 659
f 660 661 662
f 663 664 665
f 659 658 666
f 667 666 658
f 667 658 663
f 668 658 669
f 661 670 671
f 670 672 673
f 641 638 637
f 648 646 643
f 631 623 627
f 627 632 634
f 617 621 618
f 609 613 610
f 674 675 676
f 616 617 619
f 607 606 677
f 678 675 613
f 614 613 617
f 612 608 609
f 679 677 606
f 606 608 679
f 680 681 682
f 683 606 684
f 606 604 602
f 600 602 605
f 597 601 685
f 597 602 601
f 685 599 597
f 682 681 686
f 598 593 687
f 596 687 593
f 688 689 593
f 589 690 590
f 589 595 690
f 688 589 591
f 588 691 589
f 582 584 691
f 584 589 691
f 583 692 584
f 692 579 584
f 579 574 584
f 693 585 694
f 581 695 574
f 565 696 697
f 698 578 693
f 575 574 695
f 565 573 570
f 699 573 575
f 573 699 570
f 567 568 563
f 565 571 572
f 577 697 700
f 566 701 567
f 567 701 568
f 563 569 561
f 555 702 549
f 703 696 563
f 556 558 564
f 564 558 563
f 554 553 552
f 557 559 558
f 558 559 553
f 704 705 706
f 707 704 553
f 551 553 560
f 553 554 549
f 539 537 708
f 702 550 549
f 709 545 550
f 710 711 712
f 543 545 709
f 544 546 548
f 713 711 714
f 715 716 548
f 544 548 545
f 548 547 542
f 717 538 541
f 548 542 538
f 536 538 717
f 536 708 537
f 718 531 530
f 531 537 540
f 531 540 532
f 719 531 718
f 720 719 718
f 513 721 722
f 719 723 529
f 720 723 719
f 724 725 726
f 529 723 527
f 514 516 524
f 529 528 525
f 514 524 526
f 529 525 524
f 516 523 513
f 516 727 728
f 512 721 513
f 721 729 722
f 722 730 517
f 722 729 730
f 517 731 518
f 517 519 722
f 513 732 727
f 722 732 513
f 733 728 734
f 727 516 513
f 524 728 735
f 728 524 516
f 529 735 724
f 529 524 735
f 719 724 736
f 724 719 529
f 736 737 531
f 736 531 719
f 537 737 738
f 537 531 737
f 538 738 715
f 538 537 738
f 548 538 715
f 716 710 545
f 545 548 716
f 549 710 707
f 549 545 710
f 553 549 707
f 558 704 703
f 558 553 704
f 739 740 706
f 563 558 703
f 741 742 740
f 743 744 745
f 567 563 696
f 565 567 696
f 573 697 576
f 574 576 698
f 565 697 573
f 574 698 694
f 573 576 574
f 584 694 746
f 746 592 584
f 584 574 694
f 747 748 587
f 749 750 748
f 589 584 592
f 751 752 750
f 753 754 755
f 593 589 688
f 597 689 681
f 597 593 689
f 602 681 684
f 602 597 681
f 756 757 680
f 758 756 759
f 606 602 684
f 609 683 678
f 609 606 683
f 613 609 678
f 617 675 760
f 675 617 613
f 625 761 762
f 621 760 763
f 621 617 760
f 627 763 764
f 627 621 763
f 632 764 765
f 632 627 764
f 637 765 766
f 765 637 632
f 639 766 767
f 766 639 637
f 643 767 768
f 767 643 639
f 648 768 769
f 768 648 643
f 652 769 770
f 769 652 648
f 655 770 669
f 770 655 652
f 669 658 655
f 667 663 665
f 663 771 664
f 731 772 773
f 519 732 722
f 732 774 775
f 519 774 732
f 727 775 734
f 732 775 727
f 776 777 778
f 734 728 727
f 735 733 725
f 733 735 728
f 725 724 735
f 736 726 779
f 736 724 726
f 737 779 780
f 779 737 736
f 781 535 782
f 738 780 783
f 780 738 737
f 715 783 714
f 715 738 783
f 716 714 711
f 716 715 714
f 784 785 713
f 711 710 716
f 707 712 705
f 707 710 712
f 786 787 788
f 705 704 707
f 703 706 740
f 703 704 706
f 696 740 742
f 696 742 789
f 696 703 740
f 697 789 700
f 790 791 744
f 789 697 696
f 792 793 791
f 794 795 793
f 576 697 577
f 698 576 578
f 746 585 587
f 694 698 693
f 592 587 748
f 746 694 585
f 591 748 750
f 592 746 587
f 688 750 752
f 591 592 748
f 689 752 796
f 688 591 750
f 689 796 686
f 752 689 688
f 797 798 754
f 799 800 798
f 681 689 686
f 684 680 757
f 684 681 680
f 757 801 683
f 757 683 684
f 678 801 676
f 678 683 801
f 676 675 678
f 674 802 760
f 674 760 675
f 802 803 763
f 802 763 760
f 803 804 764
f 803 764 763
f 804 805 765
f 804 765 764
f 766 805 806
f 805 766 765
f 767 806 807
f 806 767 766
f 768 807 808
f 807 768 767
f 809 810 808
f 808 810 769
f 808 769 768
f 810 662 770
f 810 770 769
f 669 662 671
f 669 770 662
f 668 771 663
f 658 668 663
f 811 771 668
f 812 774 518
f 518 774 519
f 518 773 812
f 813 775 774
f 774 812 813
f 814 734 775
f 775 813 814
f 815 733 734
f 814 815 734
f 816 725 733
f 733 815 816
f 817 726 725
f 816 817 725
f 818 779 726
f 817 818 726
f 819 780 779
f 818 819 779
f 820 783 780
f 819 820 780
f 821 714 783
f 820 821 783
f 821 713 714
f 785 712 711
f 713 785 711
f 822 823 824
f 788 705 712
f 785 788 712
f 787 706 705
f 787 705 788
f 787 825 706
f 825 739 706
f 739 741 740
f 745 789 742
f 741 745 742
f 744 700 789
f 745 744 789
f 791 577 700
f 791 700 744
f 793 578 577
f 793 577 791
f 795 693 578
f 795 578 793
f 826 585 693
f 795 826 693
f 827 828 829
f 826 586 585
f 586 747 587
f 747 749 748
f 749 751 750
f 755 796 752
f 751 755 752
f 754 686 796
f 754 796 755
f 798 682 686
f 798 686 754
f 800 680 682
f 798 800 682
f 800 830 680
f 831 832 833
f 830 756 680
f 758 801 757
f 758 757 756
f 834 676 801
f 758 834 801
f 761 674 676
f 834 761 676
f 625 802 674
f 761 625 674
f 624 803 802
f 625 624 802
f 628 804 803
f 624 628 803
f 835 805 804
f 628 835 804
f 836 806 805
f 835 836 805
f 837 838 836
f 838 807 806
f 836 838 806
f 839 808 807
f 807 838 839
f 839 809 808
f 660 662 810
f 809 660 810
f 671 662 661
f 671 811 668
f 669 671 668
f 670 811 671
f 731 773 518
f 840 812 773
f 521 840 773
f 813 812 841
f 812 840 841
f 814 813 842
f 813 841 842
f 815 814 778
f 814 842 778
f 816 815 777
f 815 778 777
f 817 816 843
f 816 777 843
f 818 817 533
f 817 843 533
f 819 818 535
f 818 533 535
f 820 819 781
f 819 535 781
f 821 820 844
f 820 781 844
f 713 821 845
f 844 845 821
f 845 846 784
f 845 784 713
f 784 823 785
f 788 785 823
f 823 822 786
f 823 786 788
f 825 787 847
f 786 847 787
f 739 825 848
f 847 848 825
f 741 739 849
f 848 849 739
f 745 741 850
f 741 849 850
f 743 850 851
f 850 743 745
f 743 852 790
f 743 790 744
f 790 853 792
f 790 792 791
f 792 854 794
f 792 794 793
f 826 795 855
f 794 855 795
f 586 826 856
f 855 856 826
f 747 586 828
f 856 828 586
f 749 747 857
f 828 857 747
f 751 749 858
f 857 858 749
f 755 751 859
f 751 858 859
f 859 860 753
f 859 753 755
f 753 861 797
f 753 797 754
f 797 861 799
f 797 799 798
f 830 800 862
f 799 862 800
f 756 830 832
f 862 832 830
f 832 831 759
f 832 759 756
f 834 758 863
f 758 759 863
f 761 834 864
f 863 864 834
f 864 865 762
f 864 762 761
f 762 866 626
f 762 626 625
f 626 867 629
f 626 629 624
f 835 628 868
f 629 868 628
f 836 835 869
f 835 868 869
f 869 870 837
f 869 837 836
f 839 838 871
f 838 837 871
f 809 839 872
f 839 871 872
f 660 809 873
f 872 873 809
f 661 660 672
f 660 873 672
f 772 521 773
f 522 521 772
f 520 840 521
f 840 520 841
f 520 874 841
f 841 874 842
f 874 875 842
f 875 776 778
f 875 778 842
f 776 876 777
f 876 877 843
f 876 843 777
f 877 534 533
f 877 533 843
f 534 782 535
f 782 878 781
f 878 844 781
f 878 879 844
f 879 846 845
f 879 845 844
f 846 824 784
f 824 823 784
f 822 880 786
f 880 847 786
f 880 848 847
f 881 848 880
f 881 849 848
f 851 849 881
f 851 850 849
f 851 852 743
f 852 853 790
f 853 854 792
f 854 829 855
f 854 855 794
f 829 856 855
f 829 828 856
f 827 857 828
f 882 857 827
f 882 858 857
f 860 858 882
f 860 859 858
f 860 861 753
f 861 883 799
f 883 862 799
f 833 862 883
f 833 832 862
f 884 759 831
f 884 863 759
f 884 885 863
f 885 864 863
f 865 864 885
f 865 866 762
f 866 867 626
f 867 886 629
f 886 868 629
f 886 887 868
f 887 869 868
f 887 870 869
f 870 888 837
f 888 871 837
f 888 889 871
f 889 872 871
f 889 890 872
f 890 873 872
f 890 891 873
f 873 891 672
f 673 672 891
f 670 661 672
f 892 893 894
f 892 894 895
f 895 894 896
f 895 896 897
f 898 897 896
f 899 897 898
f 900 899 898
f 901 899 900
f 901 900 902
f 903 901 902
f 903 902 904
f 903 904 905
f 905 906 907
f 906 905 904
f 907 908 909
f 908 907 906
f 910 909 911
f 908 911 909
f 912 910 913
f 911 913 910
f 914 912 913
f 914 913 915
f 915 916 914
f 916 917 914
f 918 917 916
f 918 916 919
f 920 921 918
f 918 919 920
f 922 921 920
f 922 920 923
f 924 922 923
f 925 924 923
f 926 893 892
f 927 893 926
f 928 927 926
f 928 929 927
f 930 929 931
f 928 931 929
f 932 930 933
f 931 933 930
f 933 934 932
f 935 934 933
f 935 936 934
f 937 936 935
f 938 936 937
f 939 938 940
f 937 940 938
f 941 939 942
f 940 942 939
f 943 944 941
f 941 942 943
f 945 946 944
f 944 943 945
f 945 947 946
f 948 947 945
f 947 948 949
f 947 949 950
f 949 951 950
f 952 951 949
f 951 953 954
f 953 951 952
f 953 955 954
f 956 955 953
f 956 957 955
f 956 958 957
f 959 960 961
f 962 963 964
f 963 962 965
f 966 967 968
f 967 966 969
f 970 971 972
f 973 974 975
f 976 977 978
f 978 979 980
f 981 982 983
f 984 982 981
f 983 985 986
f 983 986 981
f 987 988 985
f 988 986 985
f 989 988 990
f 991 992 993
f 994 995 996
f 997 998 999
f 1000 1001 997
f 1002 1003 1004
f 1003 1002 1000
f 1004 1003 1005
f 1004 1005 1006
f 1006 1005 1007
f 1006 1007 1008
f 1007 1009 1008
f 1010 1008 1009
f 1010 1009 1011
f 1012 1013 1010
f 1010 1011 1012
f 1014 1015 1013
f 1013 1012 1014
f 1016 1017 1015
f 1015 1014 1016
f 1018 1017 1019
f 1016 1019 1017
f 1002 1001 1000
f 998 997 1001
f 994 999 998
f 999 994 996
f 996 995 992
f 993 1020 991
f 992 995 993
f 989 990 1020
f 990 991 1020
f 988 987 990
f 982 984 979
f 979 984 980
f 976 978 980
f 978 977 974
f 977 975 974
f 975 1021 973
f 973 1021 1022
f 1023 970 1022
f 1022 1021 1023
f 971 970 1023
f 972 971 969
f 966 972 969
f 968 967 965
f 962 968 965
f 964 963 1024
f 1025 1026 1024
f 1026 964 1024
f 1025 959 1026
f 1025 1027 959
f 960 959 1027
